<svg width="144" height="56" viewBox="0 0 144 56" fill="none" xmlns="http://www.w3.org/2000/svg">
<path d="M49.5328 27.9611C49.533 28.5499 49.4169 29.1329 49.1912 29.6767C48.9655 30.2205 48.6345 30.7144 48.2173 31.13C46.7642 32.6236 45.2787 34.0839 43.8005 35.5513C43.2156 36.1308 42.5408 36.56 41.7238 36.7462C40.6091 37.0009 39.586 36.7562 38.6205 36.1839C37.9907 35.8132 37.4995 35.2886 36.9902 34.7803C35.8241 33.6148 34.6593 32.4484 33.4956 31.2811C33.0385 30.8222 32.63 30.3247 32.3717 29.7227C31.8121 28.4208 31.9804 27.1701 32.6876 25.9815C32.9116 25.6092 33.1792 25.2648 33.4848 24.9558C34.8623 23.5567 36.2569 22.1756 37.647 20.79C38.0627 20.3752 38.5135 20.0036 39.0507 19.7535C40.4201 19.1155 41.7355 19.2919 42.9924 20.0576C43.3242 20.2615 43.6312 20.503 43.9075 20.7774C45.3471 22.1981 46.7768 23.6305 48.2056 25.0629C48.8436 25.7027 49.3034 26.4476 49.4653 27.3483C49.5112 27.5822 49.5193 27.8234 49.5328 27.9611ZM43.2966 23.7574C42.6911 23.2229 42.2555 22.6237 41.6285 22.2278C40.9087 21.7725 40.2869 21.8328 39.6697 22.4131C39.2774 22.783 38.895 23.1627 38.5135 23.5433C38.4518 23.6175 38.3982 23.698 38.3533 23.7835C38.6817 24.2495 40.5379 26.0662 40.8726 26.2299C41.6456 25.4309 42.4796 24.6662 43.2966 23.7574ZM40.8178 29.9909C40.3805 30.2707 38.527 32.1502 38.3497 32.5102C38.8338 32.9708 39.2891 33.4999 39.8371 33.9039C40.6235 34.4807 41.2622 34.4213 41.9425 33.777C42.3231 33.4171 42.6928 33.0438 43.0644 32.6731C43.1285 32.5998 43.1886 32.5232 43.2444 32.4436L40.8178 29.9909ZM45.142 30.5307C45.1929 30.5089 45.2407 30.4805 45.2841 30.4462C45.6864 30.0421 46.1056 29.6534 46.4755 29.2225C46.6589 28.9872 46.8019 28.723 46.8983 28.4406C46.9809 28.2443 47.0061 28.0286 46.971 27.8185C46.936 27.6086 46.8421 27.4127 46.7004 27.2538C46.2109 26.6933 45.6791 26.1687 45.1708 25.6343C44.6786 25.9618 42.8314 27.8522 42.7199 28.105L45.142 30.5307ZM36.4719 25.6531C36.3751 25.7158 36.2824 25.785 36.1948 25.8601C35.879 26.1777 35.565 26.4981 35.2573 26.8238C35.1322 26.9524 35.0187 27.0918 34.9181 27.2403C34.4466 27.9646 34.5006 28.6079 35.0935 29.2324C35.4642 29.622 35.8493 29.9981 36.2335 30.3751C36.3077 30.4357 36.3878 30.4884 36.4728 30.5326C37.1027 30.0709 38.7321 28.3911 38.8869 28.0312C38.0843 27.252 37.3159 26.4251 36.4719 25.6514V25.6531Z" fill="black"/>
<path d="M60.0064 34.31H57.6977C57.6905 34.13 57.677 33.9501 57.677 33.7773C57.677 32.0381 57.677 30.2989 57.6716 28.5587C57.6699 28.2748 57.6398 27.9917 57.5816 27.7138C57.4844 27.2496 57.1974 26.9247 56.7286 26.8276C55.8865 26.6521 55.2414 26.7943 54.7321 27.5663C54.3353 28.1664 54.2399 28.8475 54.2345 29.5457C54.2228 30.9404 54.2345 32.335 54.2345 33.7296V34.2533C53.889 34.363 52.525 34.3846 51.9852 34.2992C51.8907 33.977 51.8691 21.6567 51.9635 21.1897H54.2246V25.7218L54.4369 25.5256C55.5014 24.544 56.7349 24.3388 58.0666 24.8149C59.2065 25.2224 59.7761 26.1294 59.9695 27.2855C60.0282 27.6859 60.0541 28.0903 60.0469 28.4948C60.055 30.2494 60.0469 32.0039 60.0469 33.7584C60.0371 33.9303 60.0181 34.1066 60.0064 34.31Z" fill="black"/>
<path d="M69.9509 32.546C69.9509 33.0589 69.9509 33.5222 69.9509 33.9856C69.9509 34.1917 69.8304 34.2672 69.6684 34.3365C68.6328 34.7765 67.6557 34.404 67.1545 33.3468C67.0973 33.3898 67.0427 33.4361 66.9908 33.4854C66.1369 34.3743 65.0797 34.6632 63.8821 34.5507C63.2841 34.5098 62.7057 34.3202 62.1996 33.9991C60.3848 32.8007 60.5098 30.0987 62.429 29.0892C62.963 28.8148 63.5489 28.6564 64.1484 28.624C65.0293 28.5646 65.9084 28.4926 66.8117 28.4242C66.9045 28.0003 66.8759 27.5586 66.7289 27.1502C66.6778 27.008 66.5924 26.8805 66.4804 26.779C66.3684 26.6774 66.2331 26.605 66.0865 26.5681C65.5676 26.4097 65.0124 26.4151 64.4966 26.5833C64.3025 26.6438 64.1266 26.7519 63.9851 26.898C63.8436 27.044 63.741 27.2233 63.6868 27.4192C63.6563 27.5164 63.6392 27.619 63.6085 27.7449H61.4051C61.3385 27.4426 61.4374 27.1862 61.5094 26.9351C61.7461 26.111 62.2707 25.5226 63.031 25.1356C63.4879 24.9088 63.9814 24.7644 64.4885 24.7091C65.3883 24.6039 66.2881 24.6327 67.1473 24.9494C68.2495 25.3534 68.8622 26.1667 69.0467 27.3059C69.1077 27.7205 69.1378 28.1392 69.1367 28.5583C69.1492 29.6218 69.1367 30.6863 69.1367 31.7506C69.133 31.8707 69.1357 31.9908 69.1448 32.1105C69.1726 32.3859 69.2617 32.4704 69.5344 32.5082C69.6549 32.5244 69.7718 32.5307 69.9509 32.546ZM66.8063 30.1797C65.9236 30.2598 65.0626 30.3264 64.2042 30.4235C64.0128 30.4592 63.8327 30.54 63.6788 30.6592C62.9688 31.155 63.0588 32.1429 63.8353 32.5263C64.122 32.6582 64.4395 32.7086 64.7531 32.672C66.4122 32.5433 66.9961 31.3682 66.8063 30.1797Z" fill="black"/>
<path d="M88.7212 30.3733C88.5541 31.4863 89.4288 32.6029 90.4753 32.6766C90.6246 32.6874 90.7748 32.683 90.9249 32.6766C91.5871 32.6668 92.0876 32.377 92.3494 31.7679C92.4672 31.4935 92.6289 31.4224 92.8969 31.4296C93.3612 31.4422 93.8255 31.4296 94.2898 31.435C94.4069 31.435 94.5231 31.4583 94.6718 31.4746C94.6733 31.5802 94.6664 31.686 94.6502 31.7904C94.2898 33.23 93.0763 34.2899 91.5756 34.5149C90.9388 34.6207 90.2881 34.6017 89.6591 34.459C88.2969 34.1306 87.3252 33.3011 86.78 32.0369C86.0324 30.3094 86.0662 28.5567 86.9225 26.8751C87.6678 25.4121 88.9245 24.7058 90.5615 24.6616C91.1914 24.6375 91.8197 24.7492 92.4033 24.9892C93.6769 25.5218 94.4023 26.5241 94.7642 27.8126C94.9759 28.5675 94.9975 29.3485 94.9443 30.1295C94.9297 30.2053 94.9097 30.2799 94.8835 30.3526C94.3853 30.3904 93.881 30.3643 93.3774 30.3688C92.853 30.3733 92.3286 30.3688 91.805 30.3688H88.7212V30.3733ZM92.5904 28.6107C92.565 27.8432 92.3633 27.1882 91.7049 26.8202C90.9765 26.4125 90.1973 26.4225 89.4935 26.903C88.9175 27.2961 88.6596 27.8792 88.6719 28.6124L92.5904 28.6107Z" fill="black"/>
<path d="M85.3908 34.3162H83.1347C83.127 34.1363 83.1131 33.9734 83.1131 33.8141C83.1131 32.0902 83.1131 30.3672 83.1078 28.6442C83.1078 28.3601 83.0777 28.077 83.0177 27.7993C82.8968 27.2432 82.5149 26.9256 81.9497 26.8662C81.1535 26.7835 80.5421 26.9247 80.0424 27.9459C79.8422 28.3677 79.7398 28.8289 79.7429 29.2956C79.7313 30.7792 79.7305 32.2648 79.7228 33.7467C79.7228 33.9266 79.7067 34.0985 79.6959 34.3306C78.922 34.3495 78.1828 34.3441 77.4544 34.3306L77.3027 24.9213C77.3027 24.9213 77.5083 24.903 77.563 24.8922C78.0573 24.8841 78.5524 24.885 79.046 24.8805C79.2631 24.8805 79.3709 24.9704 79.3871 25.1981C79.4056 25.4446 79.4572 25.6894 79.5026 25.9863C79.7421 25.6412 80.0516 25.3497 80.4097 25.1304C80.7677 24.9111 81.1681 24.7687 81.5847 24.7122C83.7992 24.3631 85.3639 25.7019 85.4116 27.7471C85.4601 29.8444 85.4278 31.9435 85.4293 34.0409C85.4216 34.1334 85.4085 34.2252 85.3908 34.3162Z" fill="black"/>
<path d="M103.358 27.7406H101.245C101.209 27.6426 101.166 27.5489 101.139 27.4509C101.096 27.2597 101.005 27.0827 100.875 26.9359C100.744 26.7892 100.58 26.6777 100.395 26.6114C99.8466 26.3947 99.2368 26.3895 98.6854 26.597C98.3112 26.7338 98.0556 26.9893 97.9994 27.4068C97.9439 27.8648 98.1049 28.1815 98.5476 28.3138C98.9318 28.428 99.3384 28.4667 99.7349 28.5324C100.311 28.6278 100.893 28.6871 101.461 28.8167C102.113 28.9569 102.694 29.3208 103.106 29.8451C103.915 30.8691 103.802 32.7954 102.461 33.7681C101.97 34.1154 101.41 34.3513 100.818 34.4591C99.8289 34.657 98.8487 34.639 97.8908 34.3178C96.8428 33.9624 96.0759 33.284 95.6732 32.2367C95.5908 32.0225 95.5677 31.7868 95.5084 31.5214H97.6459C97.6814 31.5511 97.6991 31.5582 97.7029 31.5709C97.9986 32.503 98.7255 32.7721 99.5987 32.7495C100.001 32.7371 100.4 32.664 100.781 32.5327C101.292 32.3573 101.484 31.9623 101.416 31.4287C101.363 31.022 101.047 30.7278 100.545 30.655C99.8489 30.5542 99.1497 30.4749 98.4529 30.3787C98.2304 30.3532 98.0094 30.3101 97.7938 30.25C96.7697 29.945 96.0474 29.3205 95.8287 28.2427C95.6016 27.1252 95.9843 26.2074 96.8652 25.5002C97.4542 25.0279 98.1495 24.793 98.8887 24.7022C99.8566 24.5843 100.805 24.6743 101.692 25.1214C102.604 25.5821 103.167 26.3199 103.38 27.3213C103.399 27.4102 103.409 27.5006 103.41 27.5913C103.399 27.6431 103.382 27.6934 103.358 27.7406Z" fill="black"/>
<path d="M112.062 27.7494H109.902C109.864 27.6405 109.819 27.5326 109.787 27.4219C109.648 26.9442 109.315 26.6661 108.853 26.5384C108.418 26.4115 107.956 26.4115 107.521 26.5384C107.278 26.6111 107.057 26.7423 106.878 26.9208C106.423 27.3958 106.601 28.1345 107.225 28.3288C107.605 28.4477 108.017 28.4711 108.414 28.5412C109.075 28.66 109.753 28.7212 110.393 28.9173C111.383 29.2178 112.064 29.8873 112.221 30.9364C112.417 32.2545 111.936 33.3603 110.711 34.0252C109.802 34.5192 108.809 34.655 107.793 34.5651C107.301 34.523 106.818 34.4152 106.354 34.2448C105.318 33.8551 104.594 33.1309 104.267 32.0503C104.229 31.8961 104.2 31.7399 104.181 31.5824C104.541 31.487 105.775 31.4681 106.307 31.5419C106.327 31.5617 106.358 31.5797 106.366 31.6049C106.574 32.286 107.055 32.6189 107.739 32.7251C108.289 32.8102 108.851 32.7567 109.376 32.5694C109.73 32.4461 109.997 32.214 110.055 31.8073C110.139 31.2198 109.875 30.8095 109.289 30.6808C109.027 30.6232 108.757 30.6044 108.49 30.5665C107.854 30.4766 107.213 30.4073 106.583 30.2885C105.573 30.0987 104.556 29.288 104.428 27.9987C104.323 26.9603 104.716 26.1253 105.534 25.4892C106.104 25.0456 106.765 24.8136 107.473 24.7191C108.458 24.5886 109.418 24.6732 110.32 25.1222C110.748 25.3245 111.123 25.6227 111.415 25.9937C111.709 26.3647 111.913 26.7983 112.011 27.2609C112.037 27.4226 112.054 27.5857 112.062 27.7494Z" fill="black"/>
<path d="M73.4787 34.3162H71.2348L71.2104 24.9497C71.3013 24.9191 71.378 24.8979 71.4732 24.8868C71.9078 24.8795 72.3423 24.8768 72.776 24.8868C73.0999 24.8921 73.1359 24.9317 73.1827 25.2367C73.2232 25.5175 73.2565 25.7991 73.3015 26.1365C73.9925 25.0568 74.993 24.7284 76.1618 24.7733L76.2176 26.9382C76.2176 26.9382 75.6597 26.9787 75.3844 27.0281C74.3722 27.2135 73.7009 27.9045 73.5579 28.9176C73.5086 29.2734 73.483 29.632 73.4814 29.991C73.4724 31.2507 73.4814 32.5104 73.4814 33.77L73.4787 34.3162Z" fill="black"/>
<path d="M43.2962 23.7572C42.4791 24.6659 41.6451 25.4307 40.8668 26.2279C40.5348 26.0642 38.6786 24.2484 38.3475 23.7815C38.3923 23.696 38.446 23.6155 38.5076 23.5412C38.8892 23.1606 39.2715 22.7809 39.6638 22.4111C40.2811 21.8308 40.9055 21.7706 41.6226 22.2258C42.2551 22.6235 42.6906 23.2227 43.2962 23.7572Z" fill="white"/>
<path d="M40.8189 29.9908L43.2482 32.4427C43.1924 32.5224 43.1324 32.5989 43.0683 32.6721C42.6967 33.0428 42.3269 33.4153 41.9463 33.7761C41.2661 34.4203 40.6272 34.4797 39.8408 33.903C39.2929 33.5008 38.8377 32.97 38.3536 32.5093C38.5281 32.153 40.3816 30.2707 40.8189 29.9908Z" fill="white"/>
<path d="M45.1418 30.529L42.7215 28.106C42.8348 27.8532 44.6803 25.9627 45.1724 25.6353C45.679 26.167 46.2107 26.6915 46.702 27.2548C46.8438 27.4136 46.9377 27.6095 46.9727 27.8195C47.0078 28.0296 46.9825 28.2452 46.9 28.4416C46.8035 28.7239 46.6606 28.9881 46.4771 29.2235C46.1073 29.6544 45.688 30.0431 45.2858 30.4471C45.2416 30.4806 45.1932 30.5082 45.1418 30.529Z" fill="white"/>
<path d="M36.4718 25.6514C37.3157 26.4252 38.085 27.2521 38.8867 28.0295C38.7319 28.3894 37.1052 30.0692 36.4727 30.5308C36.3877 30.4867 36.3074 30.4339 36.2333 30.3733C35.8491 29.9963 35.4641 29.6202 35.0933 29.2306C34.5004 28.6062 34.4464 27.9629 34.9179 27.2386C35.0185 27.09 35.132 26.9507 35.2571 26.822C35.5648 26.4963 35.8788 26.176 36.1946 25.8583C36.2823 25.7833 36.3748 25.7141 36.4718 25.6514Z" fill="white"/>
<path d="M66.803 30.18C66.9928 31.3686 66.4089 32.5436 64.7497 32.6723C64.4362 32.7089 64.1187 32.6585 63.8319 32.5266C63.0554 32.1432 62.9655 31.1553 63.6754 30.6595C63.8293 30.5403 64.0095 30.4596 64.2008 30.4238C65.0592 30.3267 65.9203 30.2601 66.803 30.18Z" fill="white"/>
<path d="M92.586 28.6107H88.6683C88.6552 27.8792 88.9139 27.2962 89.4891 26.9012C90.1929 26.4208 90.9721 26.4109 91.7013 26.8184C92.3596 27.1882 92.5614 27.8433 92.586 28.6107Z" fill="white"/>
</svg>
