<svg width="90" height="67" viewBox="0 0 90 67" fill="none" xmlns="http://www.w3.org/2000/svg">
<path d="M88.5938 0V67H90.5938V0H88.5938Z" fill="#E4E9FF" mask="url(#path-1-inside-1_0_639)"/>
<g clip-path="url(#clip0_0_639)">
<path d="M43.9434 55.4719C43.9434 55.4719 52.7899 51.1568 58.3447 43.7278C59.1184 42.6947 59.5364 41.4405 59.5364 40.1527V11.4365H43.9434" fill="#FEFEFE"/>
<path d="M43.9434 55.4719C43.9434 55.4719 52.7899 51.1568 58.3447 43.7278C59.1184 42.6947 59.5364 41.4405 59.5364 40.1527V11.4365H43.9434" stroke="#EFF0F2" stroke-width="0.737294" stroke-miterlimit="10"/>
<path d="M44.1204 55.4719C44.1204 55.4719 35.2451 51.1424 29.695 43.6942C28.9406 42.6803 28.5273 41.455 28.5273 40.1912V11.4365H44.1204" fill="#FEFEFE"/>
<path d="M44.1204 55.4719C44.1204 55.4719 35.2451 51.1424 29.695 43.6942C28.9406 42.6803 28.5273 41.455 28.5273 40.1912V11.4365H44.1204" stroke="#EFF0F2" stroke-width="0.737294" stroke-miterlimit="10"/>
<path d="M43.9571 52.656C43.9571 52.656 52.1164 48.6772 56.7871 41.873C57.0898 41.4357 57.2484 40.9119 57.2484 40.3786V14.0361H43.9571" fill="#BE2136"/>
<path d="M54.543 45.9717H40.9297V49.2873H50.3384L54.543 45.9717Z" fill="#FEFEFE"/>
<path d="M57.8586 39.4414H40.9297V42.757H57.8586V39.4414Z" fill="#FEFEFE"/>
<path d="M57.8586 32.9111H40.9297V36.2268H57.8586V32.9111Z" fill="#FEFEFE"/>
<path d="M57.8586 26.3809H40.9297V29.6965H57.8586V26.3809Z" fill="#FEFEFE"/>
<path d="M57.8586 19.8501H40.9297V23.1657H57.8586V19.8501Z" fill="#FEFEFE"/>
<path d="M57.8586 13.3198H40.9297V16.6354H57.8586V13.3198Z" fill="#FEFEFE"/>
<path d="M51.1502 14.0361H40.4297V32.8631H51.1502V14.0361Z" fill="#293465"/>
<path d="M44.1039 52.6559C44.1039 52.6559 36.6221 49.0039 31.8841 42.7187C31.1873 41.796 30.8125 40.6668 30.8125 39.5087V14.0361H44.1039" fill="#054CA4"/>
<path d="M48.9062 16.3667L49.2329 17.3854H50.3045L49.4396 18.0101L49.7711 19.0288L48.9062 18.3993L48.0412 19.0288L48.368 18.0101L47.5078 17.3854H48.5746L48.9062 16.3667Z" fill="white"/>
<path d="M48.9062 20.7393L49.2329 21.7532H50.3045L49.4396 22.3827L49.7711 23.4014L48.9062 22.7719L48.0412 23.4014L48.368 22.3827L47.5078 21.7532H48.5746L48.9062 20.7393Z" fill="white"/>
<path d="M48.9062 25.1123L49.2329 26.1262H50.3045L49.4396 26.7557L49.7711 27.7744L48.9062 27.1449L48.0412 27.7744L48.368 26.7557L47.5078 26.1262H48.5746L48.9062 25.1123Z" fill="white"/>
<path d="M48.9062 29.4849L49.2329 30.4988H50.3045L49.4396 31.1283L49.7711 32.147L48.9062 31.5175L48.0412 32.147L48.368 31.1283L47.5078 30.4988H48.5746L48.9062 29.4849Z" fill="white"/>
<path d="M46.1249 14.334L46.4565 15.3527H47.5232L46.6583 15.9774L46.9899 16.9961L46.1249 16.3666L45.26 16.9961L45.5915 15.9774L44.7266 15.3527H45.7934L46.1249 14.334Z" fill="white"/>
<path d="M46.1249 18.7065L46.4565 19.7253H47.5232L46.6583 20.3499L46.9899 21.3687L46.1249 20.7392L45.26 21.3687L45.5915 20.3499L44.7266 19.7253H45.7934L46.1249 18.7065Z" fill="white"/>
<path d="M46.1249 23.0796L46.4565 24.0983H47.5232L46.6583 24.723L46.9899 25.7417L46.1249 25.1122L45.26 25.7417L45.5915 24.723L44.7266 24.0983H45.7934L46.1249 23.0796Z" fill="white"/>
<path d="M46.1249 27.4521L46.4565 28.4708H47.5232L46.6583 29.0955L46.9899 30.1143L46.1249 29.4847L45.26 30.1143L45.5915 29.0955L44.7266 28.4708H45.7934L46.1249 27.4521Z" fill="white"/>
<path d="M39.7228 21.5083L40.1649 22.8682H41.5968L40.4388 23.7091L40.8808 25.069L39.7228 24.2281L38.5647 25.069L39.0068 23.7091L37.8535 22.8682H39.2807L39.7228 21.5083Z" fill="#FBEF03"/>
<path d="M36.5791 24.6509L37.0212 26.0107H38.4484L37.2951 26.8517L37.7372 28.2115L36.5791 27.3754L35.4211 28.2115L35.8631 26.8517L34.7051 26.0107H36.137L36.5791 24.6509Z" fill="#FBEF03"/>
<path d="M35.4111 29.0093L35.8532 30.3692H37.2852L36.1271 31.2101L36.5692 32.57L35.4111 31.7291L34.2531 32.57L34.6952 31.2101L33.5371 30.3692H34.9691L35.4111 29.0093Z" fill="#FBEF03"/>
<path d="M36.5791 33.4878L37.0212 34.8525H38.4484L37.2951 35.6934L37.7372 37.0533L36.5791 36.2124L35.4211 37.0533L35.8631 35.6934L34.7051 34.8525H36.137L36.5791 33.4878Z" fill="#FBEF03"/>
<path d="M39.7228 36.7217L40.1649 38.0815H41.5968L40.4388 38.9225L40.8808 40.2824L39.7228 39.4414L38.5647 40.2824L39.0068 38.9225L37.8535 38.0815H39.2807L39.7228 36.7217Z" fill="#FBEF03"/>
<path d="M44.1182 20.3022V23.022L42.9601 23.863L43.4022 22.5031L42.2442 21.6621H43.6761L44.1182 20.3022Z" fill="#FBEF03"/>
<path d="M44.1182 37.8364V40.5561L42.9601 41.3971L43.4022 40.0372L42.2442 39.1963H43.6761L44.1182 37.8364Z" fill="#FBEF03"/>
</g>
<defs>
<clipPath id="clip0_0_639">
<rect width="33" height="45" fill="white" transform="translate(27.7969 11)"/>
</clipPath>
</defs>
</svg>
