<svg width="42" height="38" viewBox="0 0 42 38" fill="none" xmlns="http://www.w3.org/2000/svg">
<g clip-path="url(#clip0_0_672)">
<path fill-rule="evenodd" clip-rule="evenodd" d="M14.4176 0.680406C14.1943 0.727616 13.9008 0.802098 13.7654 0.845947C13.338 0.984263 12.3396 1.48938 11.4228 2.03107C9.71358 3.04089 6.72063 4.47406 4.34159 5.42196C2.8462 6.01772 1.89262 6.32901 0.709136 6.60769C0.265445 6.71215 0.0911177 6.81307 0.218253 6.89184C0.364814 6.98267 0.855045 7.00887 2.40824 7.00887H4.01548L6.69421 5.76495C8.9675 4.70932 10.0858 4.19682 12.094 3.2903C12.2581 3.21619 12.4002 3.16328 12.4096 3.17276C12.4191 3.18224 10.6286 4.09941 8.43082 5.21094C6.23296 6.32242 4.29766 7.31137 4.13013 7.40855C3.84106 7.57614 3.38656 8.00076 3.38656 8.10316C3.38656 8.19165 3.59453 8.28687 3.92231 8.34846C4.14853 8.391 4.68353 8.40903 5.66931 8.40735L7.0902 8.40492L8.4645 7.79487C10.1122 7.06346 11.4249 6.45915 12.1216 6.11121C12.8871 5.72895 12.6609 5.88174 11.5858 6.47316C10.2941 7.18379 8.90554 7.89821 8.10742 8.26287C7.37247 8.59862 6.98673 8.84102 6.72468 9.13176C6.49207 9.38985 6.50307 9.53975 6.76409 9.67059C6.93078 9.75413 7.039 9.76357 7.789 9.76016C8.6516 9.75624 9.18594 9.69212 9.91829 9.50468C10.1942 9.43407 10.4218 9.32424 10.8969 9.03243C11.5587 8.62598 12.4182 8.08869 12.8553 7.80827C13.0026 7.71376 13.1232 7.64791 13.1232 7.66197C13.1232 7.69928 11.7718 8.69944 11.1027 9.1573C10.7864 9.37379 10.4752 9.61988 10.4112 9.70417C10.0692 10.1544 10.0105 10.5151 10.2502 10.6933C10.3603 10.7752 10.4448 10.7906 10.7627 10.787C11.3286 10.7806 12.1504 10.528 13.0458 10.0853C13.428 9.89628 14.084 9.38938 14.4276 9.01754C14.4916 8.94824 14.586 8.86979 14.6372 8.84326C14.7448 8.78755 14.6253 8.92419 13.9141 9.67008C13.249 10.3676 12.9438 10.9777 13.0492 11.3986C13.1466 11.7874 14.0418 11.7067 15.0261 11.2205C15.4381 11.017 15.6282 10.84 16.0432 10.2734C16.1632 10.1096 16.2694 9.98356 16.2792 9.99341C16.3051 10.0194 15.999 10.609 15.8052 10.9065C15.4172 11.5019 15.7199 12.0246 16.423 11.9736C16.9494 11.9355 17.5941 11.4839 17.9521 10.9025C18.2099 10.4838 18.204 10.5417 17.9261 11.1576C17.7413 11.567 17.7409 11.7148 17.924 11.8983C18.0542 12.0288 18.0846 12.0384 18.2851 12.0117C18.8127 11.9414 19.5198 11.4421 19.9525 10.8343L20.1592 10.5439L20.1277 8.35309L20.0963 6.1623L19.533 6.1113C18.8694 6.05125 18.624 5.96505 18.4349 5.72582C18.1455 5.35953 18.0083 4.86627 17.9217 3.88017C17.8302 2.8385 17.6271 2.29219 17.1569 1.8227C16.6394 1.30614 16.1948 1.17161 15.1264 1.2085C13.9837 1.24796 13.6003 1.37745 11.5159 2.42813C10.8241 2.77682 10.2371 3.06195 10.2115 3.06171C10.1363 3.06101 13.0634 1.57395 13.483 1.39972C14.1229 1.13402 14.5948 1.041 15.3127 1.03918C16.2766 1.03675 16.8579 1.23857 17.3076 1.73188C17.7712 2.24022 17.9744 2.81515 18.0859 3.93336C18.1824 4.89975 18.3415 5.39362 18.651 5.68669C18.8212 5.84793 18.9622 5.89944 19.3265 5.93348C19.489 5.94866 19.7216 5.97168 19.8433 5.98462L20.0646 6.00811V5.77901V5.54996L19.6569 5.51657C19.106 5.47146 18.957 5.41361 18.7751 5.17405C18.5598 4.89051 18.4399 4.45277 18.3605 3.6607C18.2412 2.47095 18.0322 1.88383 17.5402 1.35662C17.2111 1.00401 16.7761 0.765254 16.2678 0.658271C15.8131 0.562589 14.9247 0.573236 14.4176 0.680406ZM25.8668 0.636651C25.2709 0.730745 24.839 0.949661 24.4518 1.35377C23.99 1.83583 23.7513 2.43331 23.6518 3.35675C23.555 4.25454 23.5137 4.50255 23.418 4.75891C23.1985 5.34706 23.008 5.48197 22.3376 5.52442C22.0995 5.5395 21.8893 5.57499 21.8705 5.60324C21.8517 5.63154 21.836 5.73348 21.8356 5.82977L21.8349 6.00488H22.0341C22.37 6.00488 23.0059 5.9106 23.1405 5.84084C23.552 5.62752 23.794 5.02257 23.8841 3.9816C24.0213 2.39768 24.4971 1.58161 25.5019 1.20696C25.7645 1.10899 25.9254 1.08522 26.4528 1.06621C27.613 1.02451 28.0122 1.15041 30.1585 2.23485C31.0341 2.67726 31.7428 3.04696 31.7333 3.05639C31.7239 3.06587 31.1018 2.76813 30.351 2.39474C28.5536 1.50082 28.2011 1.36545 27.3554 1.24385C26.2157 1.07999 25.3151 1.29862 24.776 1.86996C24.3247 2.34832 24.1271 2.93755 24.0236 4.11366C23.9522 4.92572 23.826 5.35066 23.5408 5.7396C23.3466 6.00442 22.8735 6.14194 22.1493 6.14404L21.8349 6.14497L21.8341 6.60027C21.8337 6.8507 21.8128 7.81126 21.7878 8.73493L21.7423 10.4143L21.8934 10.6717C22.4121 11.5552 23.6696 12.2915 24.0493 11.934C24.2178 11.7752 24.203 11.5188 23.9995 11.0712C23.9089 10.872 23.8429 10.7009 23.8527 10.6911C23.8625 10.6812 23.9473 10.7978 24.0411 10.9501C24.3438 11.4417 24.9274 11.8839 25.4047 11.9833C25.7179 12.0486 26.0191 11.9748 26.1962 11.7896C26.3061 11.6747 26.3272 11.6127 26.3272 11.4053C26.3272 11.1998 26.2989 11.1153 26.16 10.9046C26.0034 10.6672 25.655 10.0086 25.655 9.94993C25.655 9.93536 25.8121 10.1325 26.0041 10.3881C26.4277 10.9517 26.5347 11.045 27.0265 11.2803C27.5234 11.518 28.024 11.6552 28.3946 11.6552C28.6621 11.6552 28.7038 11.6417 28.8325 11.5127C28.9625 11.3824 28.9721 11.3518 28.945 11.1537C28.8845 10.7109 28.6161 10.2842 27.9698 9.60326C27.3392 8.93885 27.0831 8.59993 27.548 9.04495C28.4045 9.86485 28.7346 10.0757 29.7779 10.4692C30.4495 10.7225 30.9284 10.8268 31.3272 10.8066C31.6386 10.7908 31.6863 10.7756 31.7861 10.6591C31.9257 10.4965 31.9256 10.3867 31.7855 10.0851C31.6341 9.75913 31.3697 9.50617 30.7066 9.05298C30.1091 8.64457 28.9861 7.81644 28.8694 7.69825C28.831 7.65931 28.9253 7.7068 29.0791 7.80379C31.8191 9.53232 31.7233 9.4839 32.7827 9.67755C33.4258 9.79509 35.0258 9.7985 35.2369 9.68278C35.3183 9.63809 35.3983 9.55955 35.4145 9.50823C35.492 9.26368 34.9659 8.80114 34.2036 8.44354C32.819 7.79403 29.538 6.07451 29.3587 5.90448C29.3332 5.88025 29.721 6.05905 30.2206 6.30188C31.224 6.78958 32.0612 7.17095 33.7346 7.90269L34.8494 8.39021L35.4816 8.4399C36.4859 8.51877 38.0246 8.42841 38.4075 8.26805C38.6261 8.17648 38.6045 8.05086 38.3237 7.78105C38.0333 7.50189 37.7577 7.35545 32.9691 4.93599C30.9321 3.90679 29.2827 3.06428 29.3038 3.06382C29.358 3.0626 32.1439 4.32631 35.3013 5.78433L37.983 7.0226L38.9351 7.05514C39.9442 7.08961 41.4136 7.02516 41.6713 6.93513C41.9761 6.82862 41.8727 6.77417 40.9121 6.53541C40.0159 6.31266 39.4829 6.14339 38.402 5.73829C35.9848 4.83232 32.5162 3.20012 30.4767 2.00888C29.0293 1.16353 28.5211 0.929721 27.6815 0.723087C27.2482 0.616431 26.2852 0.570575 25.8668 0.636651ZM20.4839 1.38557C19.6964 1.74243 19.4831 2.78373 20.0727 3.3927C20.5657 3.90189 21.3589 3.91057 21.8561 3.41217C21.9528 3.31523 22.071 3.14969 22.1188 3.04434C22.2354 2.78681 22.2363 2.26698 22.1204 2.01131C22.011 1.76994 21.6176 1.41537 21.38 1.34401C21.0995 1.25977 20.7229 1.27724 20.4839 1.38557ZM19.8341 3.4528C19.8071 3.47979 19.7851 3.57006 19.7851 3.65336C19.7851 3.82255 19.9197 3.95022 20.0983 3.95022C20.2028 3.95022 20.2043 3.9583 20.205 4.52225C20.2054 4.83685 20.2469 7.5739 20.2974 10.6046C20.3479 13.6352 20.3895 16.2646 20.3899 16.4477C20.3907 16.7794 20.3912 16.7808 20.5421 16.8413C20.6254 16.8747 21.1589 17.1273 21.7277 17.4027L22.762 17.9033L23.4758 17.6161C23.8685 17.4582 24.3568 17.2244 24.5611 17.0966C25.3098 16.6284 25.9082 15.9209 26.0346 15.3545C26.1556 14.813 25.9059 14.1156 25.398 13.5759C25.2355 13.4032 25.0885 13.2062 25.0715 13.1383C25.0006 12.8553 24.5603 12.5417 23.9991 12.3747C23.6042 12.2572 22.892 12.256 22.6734 12.3726C22.3084 12.5673 22.0072 13.005 22.1672 13.1084C22.2207 13.143 22.2208 13.156 22.1676 13.1904C21.9814 13.3108 22.4804 13.7966 23.1142 14.112C23.4426 14.2754 23.6249 14.3359 23.863 14.3606C24.1263 14.3879 24.1955 14.4141 24.2874 14.5212C24.4722 14.7366 24.4238 15.0302 24.1597 15.2949C23.9076 15.5476 22.6787 16.3448 22.0695 16.651C21.7557 16.8087 21.4904 16.9291 21.4799 16.9187C21.4695 16.9082 21.5241 14.1521 21.6013 10.7939C21.6785 7.43563 21.7417 4.52197 21.7417 4.31912C21.7417 3.96637 21.7464 3.95022 21.8478 3.95022C22.0295 3.95022 22.161 3.82278 22.161 3.64678C22.161 3.55988 22.141 3.47638 22.1166 3.46125C22.0922 3.44617 21.9779 3.5059 21.8627 3.59406C21.3056 4.02031 20.5137 3.99411 20.0214 3.53317C19.9246 3.44253 19.8684 3.41839 19.8341 3.4528ZM18.0043 12.3336C17.3752 12.4591 16.9009 12.765 16.7394 13.1495C16.7016 13.2394 16.5527 13.4346 16.4084 13.5833C15.9789 14.0256 15.6838 14.7655 15.7527 15.2268C15.8786 16.068 16.8217 16.9944 18.0846 17.5175C18.3152 17.613 19.1119 17.9165 19.8549 18.1919C21.5423 18.8173 21.8524 18.9473 22.2178 19.1826C23.0592 19.7242 23.3433 20.1732 23.1044 20.583C23.0149 20.7363 22.6484 21.0139 20.8333 22.3027C19.8451 23.0044 19.5228 23.262 19.0833 23.7015C18.6326 24.1522 18.5133 24.3029 18.3531 24.6237C18.1144 25.1017 18.068 25.4078 18.1766 25.7878C18.3788 26.4956 18.9551 27.2613 19.92 28.1046C20.6222 28.7183 21.6122 29.6912 21.8164 29.9684C22.0202 30.2449 22.161 30.6526 22.161 30.9661C22.161 31.3132 21.9655 31.6697 21.3224 32.4958C20.5419 33.4983 20.2357 34.0609 20.0844 34.7702C20.0084 35.1263 20.0008 35.643 20.0674 35.9323C20.1187 36.1556 20.3399 36.6381 20.391 36.6381C20.4084 36.6381 20.3722 36.4543 20.3105 36.2295C20.0861 35.4118 20.2676 34.6273 20.8714 33.8059C20.9875 33.648 21.4189 33.1693 21.8302 32.7423C22.4622 32.0861 22.6026 31.9137 22.7371 31.6286C23.1067 30.8451 23.0723 30.3714 22.5927 29.6417C22.497 29.4959 21.8411 28.7883 21.1351 28.0692C19.492 26.3954 19.192 25.9827 19.2355 25.4565C19.2958 24.7283 19.9162 24.1479 22.0999 22.7768C23.8058 21.7056 24.2038 21.3789 24.4704 20.8312C24.5905 20.5845 24.6067 20.5008 24.6064 20.1307C24.6061 19.6521 24.5444 19.4935 24.2123 19.1159C23.8186 18.6682 22.9012 18.1551 20.1836 16.8625C19.2187 16.4035 17.9367 15.5975 17.6295 15.2566C17.373 14.9721 17.3464 14.7428 17.5417 14.5011C17.6102 14.4163 17.6946 14.3864 17.936 14.3614C18.5776 14.2948 19.6919 13.6009 19.6919 13.2679C19.6919 13.2285 19.6684 13.1962 19.6396 13.1962C19.6033 13.1962 19.6049 13.175 19.6448 13.1268C19.7319 13.0215 19.6647 12.8416 19.4515 12.6098C19.1449 12.2764 18.7085 12.1931 18.0043 12.3336ZM18.8019 12.7252C18.9164 12.7979 18.8229 12.9161 18.6509 12.9161C18.4527 12.9161 18.342 12.807 18.4664 12.7344C18.5697 12.6742 18.7151 12.6702 18.8019 12.7252ZM23.3317 12.7325C23.4649 12.804 23.3598 12.9161 23.1596 12.9161C22.9829 12.9161 22.9193 12.8496 23.0012 12.7506C23.0677 12.6702 23.2019 12.6629 23.3317 12.7325ZM18.6903 18.3173C17.6413 18.926 17.1122 19.6293 17.1925 20.3083C17.2283 20.6119 17.4417 21.0577 17.679 21.325C17.9376 21.6164 18.2399 21.8427 19.0767 22.3711L19.7892 22.821L20.1016 22.6002C20.2734 22.4787 20.6255 22.226 20.884 22.0386L21.354 21.6978L21.3856 20.3571C21.403 19.6196 21.3997 18.9987 21.3782 18.9772C21.3493 18.9483 19.1032 18.0953 19.0689 18.1003C19.0656 18.1007 18.8952 18.1984 18.6903 18.3173ZM20.4723 21.8257C20.4616 21.9236 20.4056 21.8936 19.8316 21.4826C18.8729 20.796 18.7686 20.7098 18.6864 20.5362C18.4686 20.0762 18.972 19.4718 19.9947 18.9653L20.414 18.7577L20.449 20.238C20.4682 21.0522 20.4787 21.7667 20.4723 21.8257ZM21.2703 23.5283L20.5537 24.0073L20.5392 25.0576C20.5311 25.6353 20.5384 26.3635 20.5553 26.6757L20.5859 27.2435L21.1018 27.7614C21.3855 28.0463 21.6449 28.2793 21.6782 28.2793C21.7115 28.2793 22.0085 28.0114 22.3382 27.684C23.2135 26.8147 23.6945 26.0209 23.6974 25.441C23.6994 25.0167 23.4251 24.4445 22.9741 23.9328C22.7494 23.6777 22.0691 23.0512 22.0157 23.0499C21.9999 23.0496 21.6644 23.2648 21.2703 23.5283ZM22.1044 24.5134C22.5766 25.015 22.7026 25.5402 22.4653 26.0171C22.3268 26.2955 21.848 26.8995 21.4864 27.252L21.2229 27.5088L21.2509 25.9212C21.2664 25.0479 21.2903 24.2231 21.3041 24.0882L21.3292 23.8429L21.5936 24.0473C21.7391 24.1598 21.969 24.3696 22.1044 24.5134ZM19.7549 29.0062C18.8326 30.0218 18.6537 30.5805 18.9818 31.4204C19.144 31.8357 19.4143 32.1879 20.0751 32.8447L20.5103 33.2773L20.8091 32.868L21.1079 32.4587L21.144 30.9878L21.1801 29.5168L20.7038 29.0625C20.4419 28.8127 20.203 28.6078 20.1729 28.6073C20.1428 28.6067 19.9547 28.7862 19.7549 29.0062ZM20.6338 31.2051C20.641 32.0053 20.6317 32.6506 20.6131 32.639C20.4975 32.5673 19.8131 31.5738 19.733 31.3613C19.5381 30.845 19.7205 30.2562 20.2599 29.6603L20.5527 29.3369L20.5868 29.5436C20.6054 29.6573 20.6266 30.405 20.6338 31.2051ZM21.1246 33.7779C21.0575 33.8486 20.9271 34.0323 20.8349 34.1861L20.6673 34.4659L20.6947 35.8906C20.7196 37.1897 20.7657 37.7121 20.8552 37.7121C20.955 37.7121 20.9985 37.2397 21.0257 35.8621C21.0419 35.0433 21.069 34.2892 21.086 34.1865L21.1169 33.9997L21.2671 34.3037C21.5041 34.7832 21.5078 34.9913 21.2931 35.7465C21.2417 35.9274 21.3554 35.8213 21.4826 35.5697C21.6398 35.2588 21.696 34.9023 21.6418 34.5607C21.5991 34.292 21.3424 33.6495 21.2776 33.6495C21.2606 33.6495 21.1917 33.7073 21.1246 33.7779Z" fill="black"/>
</g>
<defs>
<clipPath id="clip0_0_672">
<rect width="42" height="38" fill="white"/>
</clipPath>
</defs>
</svg>
