<svg width="510" height="49" viewBox="0 0 510 49" fill="none" xmlns="http://www.w3.org/2000/svg">
<rect x="165.5" width="49" height="49" rx="24.5" fill="#2D2D2D"/>
<g clip-path="url(#clip0_0_1029)">
<path d="M188.174 25.73V34.4775L191.822 34.4756V25.728H194.869L195.326 22.3187H191.825V20.1428C191.825 19.1565 192.11 18.483 193.577 18.483H195.45V15.4343C195.126 15.3944 194.016 15.3008 192.722 15.3008C190.022 15.3008 188.174 16.8889 188.174 19.8061V22.3187H185.121V25.73H188.174Z" fill="white"/>
</g>
<rect x="230.5" width="49" height="49" rx="24.5" fill="#2D2D2D"/>
<path d="M265.287 18.0183C264.883 18.7309 264.343 19.3295 263.718 19.8204C263.362 20.0991 263.274 20.4 263.256 20.8402C263.089 25.4832 261.229 29.1697 257.462 31.7129C255.72 32.8879 253.766 33.4168 251.696 33.5214C249.192 33.648 246.87 33.0431 244.719 31.7066C244.658 31.6686 244.576 31.6528 244.555 31.5451C246.822 31.7509 248.873 31.1714 250.761 29.7081C250.455 29.6575 250.206 29.6353 249.966 29.572C248.54 29.2109 247.529 28.3273 246.922 26.9306C246.785 26.617 246.876 26.5695 247.168 26.598C247.638 26.6487 248.112 26.6424 248.655 26.4872C247.975 26.2782 247.408 26.0184 246.919 25.6004C245.936 24.7674 245.401 23.6906 245.295 22.3731C245.274 22.1007 245.326 22.0342 245.584 22.1672C246.036 22.3984 246.515 22.5473 247.134 22.5504C246.239 21.784 245.641 20.913 245.42 19.7982C245.198 18.6897 245.362 17.6478 245.875 16.6564C246.021 16.6786 246.063 16.7958 246.13 16.875C248.33 19.472 251.074 20.9416 254.388 21.2646C254.81 21.3058 254.719 21.0936 254.691 20.8529C254.515 19.3865 254.934 18.1228 255.927 17.0808C257.547 15.3833 260.136 15.3389 261.872 16.9763C262.051 17.1442 262.197 17.179 262.425 17.122C263.235 16.9161 263.997 16.5899 264.74 16.1624C264.664 16.8306 264.2 17.4957 263.089 18.5377C263.499 18.5409 263.851 18.4269 264.206 18.3223C264.558 18.221 264.904 18.0975 265.253 17.9866C265.274 17.9518 265.299 17.9391 265.329 17.9708C265.317 17.9898 265.302 18.0025 265.287 18.0183Z" fill="white"/>
<rect x="295.5" width="49" height="49" rx="24.5" fill="#2D2D2D"/>
<g clip-path="url(#clip1_0_1029)">
<path d="M321.137 34.5473C321.137 34.4022 321.137 34.2926 321.137 34.1831C321.137 31.7989 321.14 29.4148 321.137 27.0306C321.137 26.2868 321.366 25.6322 321.909 25.1101C322.56 24.486 323.339 24.3179 324.2 24.5344C325.013 24.7407 325.433 25.3367 325.605 26.0984C325.718 26.5951 325.769 27.1147 325.771 27.6241C325.789 29.802 325.779 31.9798 325.779 34.1602C325.779 34.2773 325.779 34.3971 325.779 34.5473C325.915 34.5473 326.018 34.5473 326.118 34.5473C327.379 34.5473 328.64 34.5473 329.901 34.5473C330.267 34.5473 330.27 34.5473 330.27 34.178C330.27 31.7938 330.285 29.4097 330.26 27.0255C330.252 26.32 330.18 25.6067 330.042 24.9139C329.77 23.569 329.127 22.4304 327.927 21.6663C326.956 21.0473 325.877 20.8716 324.744 20.9327C323.631 20.9938 322.652 21.3657 321.865 22.1681C321.614 22.4253 321.391 22.7081 321.125 23.0163C321.125 22.3998 321.125 21.8242 321.125 21.2383C321.017 21.2307 320.935 21.2205 320.853 21.2205C319.553 21.2205 318.256 21.2256 316.957 21.2129C316.698 21.2103 316.642 21.2995 316.647 21.5389C316.67 22.568 316.69 23.5945 316.688 24.6235C316.68 27.6521 316.662 30.6833 316.649 33.7119C316.649 33.9717 316.565 34.3385 316.698 34.4658C316.849 34.6059 317.206 34.5448 317.472 34.5448C318.679 34.5524 319.884 34.5473 321.137 34.5473ZM314.232 34.5321C314.24 34.4404 314.248 34.3843 314.248 34.3283C314.248 30.0465 314.248 25.7672 314.253 21.4854C314.253 21.274 314.186 21.2154 313.979 21.2154C312.689 21.2231 311.403 21.2281 310.113 21.2129C309.829 21.2103 309.752 21.2842 309.752 21.5695C309.762 25.7851 309.76 30.0006 309.76 34.2162C309.76 34.3156 309.767 34.4149 309.775 34.5295C311.269 34.5321 312.741 34.5321 314.232 34.5321ZM311.982 19.4757C312.205 19.4502 312.433 19.4426 312.651 19.3942C313.589 19.1853 314.25 18.653 314.468 17.6978C314.689 16.7324 314.417 15.8944 313.602 15.2958C312.964 14.8271 312.225 14.7532 311.454 14.878C310.075 15.1022 309.227 16.3911 309.58 17.736C309.86 18.8083 310.764 19.4553 311.982 19.4757Z" fill="white"/>
</g>
<defs>
<clipPath id="clip0_0_1029">
<rect width="11" height="20" fill="white" transform="translate(184.5 14.5)"/>
</clipPath>
<clipPath id="clip1_0_1029">
<rect width="21" height="21" fill="white" transform="translate(309.5 14)"/>
</clipPath>
</defs>
</svg>
