<svg width="90" height="67" viewBox="0 0 90 67" fill="none" xmlns="http://www.w3.org/2000/svg">
<path d="M88.5938 0V67H90.5938V0H88.5938Z" fill="#E4E9FF" mask="url(#path-1-inside-1_0_621)"/>
<g clip-path="url(#clip0_0_621)">
<path d="M43.9396 56.0638C56.4454 56.0638 66.5833 45.9258 66.5833 33.4201C66.5833 20.9143 56.4454 10.7764 43.9396 10.7764C31.4338 10.7764 21.2959 20.9143 21.2959 33.4201C21.2959 45.9258 31.4338 56.0638 43.9396 56.0638Z" fill="#001435"/>
<path d="M37.4566 36.1889C37.3316 35.9598 37.1598 35.7854 36.9411 35.6657C36.7224 35.5459 36.4673 35.486 36.1757 35.486C35.8529 35.486 35.5665 35.5589 35.3166 35.7047C35.0667 35.8505 34.8714 36.0588 34.7309 36.3295C34.5903 36.6003 34.52 36.9127 34.52 37.2667C34.52 37.6312 34.5903 37.9488 34.7309 38.2195C34.8766 38.4903 35.0771 38.6985 35.3322 38.8443C35.5874 38.9901 35.8841 39.063 36.2226 39.063C36.6391 39.063 36.9801 38.9537 37.2457 38.735C37.5112 38.5111 37.6856 38.2013 37.769 37.8056H35.8946V36.9699H38.8467V37.9228C38.7738 38.3028 38.6176 38.6543 38.3781 38.9771C38.1386 39.2999 37.8288 39.5603 37.4487 39.7581C37.0739 39.9508 36.6521 40.0471 36.1835 40.0471C35.6576 40.0471 35.1812 39.9299 34.7543 39.6956C34.3326 39.4561 33.9993 39.1255 33.7546 38.7038C33.5151 38.282 33.3954 37.803 33.3954 37.2667C33.3954 36.7304 33.5151 36.2514 33.7546 35.8297C33.9993 35.4027 34.3326 35.0721 34.7543 34.8378C35.1812 34.5983 35.655 34.4785 36.1757 34.4785C36.7901 34.4785 37.3238 34.6295 37.7768 34.9315C38.2297 35.2283 38.5421 35.6474 38.714 36.1889H37.4566ZM41.5613 34.5488C42.1341 34.5488 42.6365 34.6608 43.0686 34.8847C43.506 35.1086 43.8418 35.4288 44.0761 35.8453C44.3156 36.2566 44.4354 36.7356 44.4354 37.2823C44.4354 37.829 44.3156 38.308 44.0761 38.7194C43.8418 39.1255 43.506 39.4405 43.0686 39.6644C42.6365 39.8883 42.1341 40.0002 41.5613 40.0002H39.6557V34.5488H41.5613ZM41.5223 39.0708C42.095 39.0708 42.5376 38.9146 42.85 38.6022C43.1624 38.2898 43.3186 37.8499 43.3186 37.2823C43.3186 36.7148 43.1624 36.2722 42.85 35.9546C42.5376 35.6318 42.095 35.4704 41.5223 35.4704H40.7491V39.0708H41.5223ZM49.2292 36.2358C49.2292 36.5274 49.1589 36.8007 49.0183 37.0558C48.8829 37.311 48.6668 37.5166 48.3701 37.6728C48.0785 37.829 47.7088 37.9071 47.261 37.9071H46.3473V40.0002H45.2539V34.5488H47.261C47.6828 34.5488 48.042 34.6217 48.3388 34.7675C48.6356 34.9133 48.8569 35.1138 49.0027 35.3689C49.1537 35.624 49.2292 35.913 49.2292 36.2358ZM47.2142 37.0246C47.5162 37.0246 47.74 36.9569 47.8858 36.8215C48.0316 36.681 48.1045 36.4857 48.1045 36.2358C48.1045 35.7047 47.8077 35.4392 47.2142 35.4392H46.3473V37.0246H47.2142ZM52.8171 40.0002L51.6143 37.8759H51.0989V40.0002H50.0055V34.5488H52.0517C52.4734 34.5488 52.8327 34.6243 53.1295 34.7753C53.4262 34.9211 53.6475 35.1216 53.7933 35.3767C53.9443 35.6266 54.0198 35.9078 54.0198 36.2202C54.0198 36.5794 53.9157 36.9049 53.7074 37.1964C53.4991 37.4828 53.1893 37.6806 52.778 37.79L54.0823 40.0002H52.8171ZM51.0989 37.0558H52.0126C52.3094 37.0558 52.5307 36.9856 52.6765 36.845C52.8223 36.6992 52.8952 36.4987 52.8952 36.2436C52.8952 35.9937 52.8223 35.801 52.6765 35.6657C52.5307 35.5251 52.3094 35.4548 52.0126 35.4548H51.0989V37.0558Z" fill="white"/>
<path d="M47.9556 24.1995H46.6653V23.2797C46.6653 22.0116 45.6377 20.9839 44.3696 20.9839C43.1015 20.9839 42.0737 22.0116 42.0737 23.2797V24.1971H40.7836C40.2783 24.1971 39.8661 24.6091 39.8661 25.1144V29.7061C39.8661 30.2113 40.2783 30.6234 40.7836 30.6234H47.9556C48.4609 30.6234 48.8729 30.2113 48.8729 29.7061V25.1169C48.8753 24.6116 48.4609 24.1995 47.9556 24.1995ZM44.3696 28.33C43.8643 28.33 43.4522 27.918 43.4522 27.4127C43.4522 26.9074 43.8643 26.4953 44.3696 26.4953C44.8749 26.4953 45.2868 26.9074 45.2868 27.4127C45.2894 27.918 44.8749 28.33 44.3696 28.33ZM45.7945 24.1995H42.9494V23.2797C42.9494 22.4948 43.5871 21.8571 44.372 21.8571C45.1569 21.8571 45.7945 22.4948 45.7945 23.2797V24.1995Z" fill="white"/>
<path d="M44.1641 15.2837L44.7773 16.5273L46.1508 16.7259L45.1574 17.6948L45.3905 19.0635L44.1641 18.4184L42.9352 19.0635L43.1682 17.6948L42.1748 16.7259L43.5484 16.5273L44.1641 15.2837Z" fill="white"/>
<path d="M44.1641 46.5791L44.7773 47.8227L46.1508 48.0214L45.1574 48.9902L45.3905 50.3589L44.1641 49.7138L42.9352 50.3589L43.1682 48.9902L42.1748 48.0214L43.5484 47.8227L44.1641 46.5791Z" fill="white"/>
<path d="M28.5151 30.9302L29.1283 32.1763L30.5019 32.3749L29.5085 33.3438L29.7439 34.7125L28.5151 34.0649L27.2862 34.7125L27.5217 33.3438L26.5283 32.3749L27.9019 32.1763L28.5151 30.9302Z" fill="white"/>
<path d="M59.81 30.9302L60.4232 32.1762L61.7968 32.3749L60.8034 33.3437L61.0389 34.7124L59.81 34.0649L58.5812 34.7124L58.8167 33.3437L57.8233 32.3749L59.1968 32.1762L59.81 30.9302Z" fill="white"/>
<path d="M52.187 44.5557L52.8002 45.8017L54.1738 46.0004L53.1804 46.9692L53.4158 48.3379L52.187 47.6928L50.9581 48.3379L51.1936 46.9692L50.2002 46.0004L51.5738 45.8017L52.187 44.5557Z" fill="white"/>
<path d="M52.187 18.021L52.8002 19.2646L54.1738 19.4632L53.1804 20.4321L53.4158 21.8008L52.187 21.1557L50.9581 21.8008L51.1936 20.4321L50.2002 19.4632L51.5738 19.2646L52.187 18.021Z" fill="white"/>
<path d="M35.937 44.5557L36.5526 45.8017L37.9262 46.0004L36.9328 46.9692L37.1658 48.3379L35.937 47.6928L34.7106 48.3379L34.9436 46.9692L33.9502 46.0004L35.3238 45.8017L35.937 44.5557Z" fill="white"/>
<path d="M35.937 18.021L36.5526 19.2646L37.9262 19.4632L36.9328 20.4321L37.1658 21.8008L35.937 21.1557L34.7106 21.8008L34.9436 20.4321L33.9502 19.4632L35.3238 19.2646L35.937 18.021Z" fill="white"/>
<path d="M58.0053 38.5068L58.6185 39.7528L59.9921 39.9515L58.9987 40.9203L59.2342 42.289L58.0053 41.6415L56.7765 42.289L57.012 40.9203L56.0186 39.9515L57.3921 39.7528L58.0053 38.5068Z" fill="white"/>
<path d="M58.0053 23.3486L58.6185 24.5922L59.9921 24.7933L58.9987 25.7622L59.2342 27.1308L58.0053 26.4833L56.7765 27.1308L57.012 25.7622L56.0186 24.7933L57.3921 24.5922L58.0053 23.3486Z" fill="white"/>
<path d="M30.3745 38.5068L30.9877 39.7528L32.3613 39.9515L31.3679 40.9204L31.6033 42.289L30.3745 41.6415L29.1456 42.289L29.3811 40.9204L28.3877 39.9515L29.7613 39.7528L30.3745 38.5068Z" fill="white"/>
<path d="M30.3745 23.3486L30.9877 24.5922L32.3613 24.7933L31.3679 25.7621L31.6033 27.1308L30.3745 26.4833L29.1456 27.1308L29.3811 25.7621L28.3877 24.7933L29.7613 24.5922L30.3745 23.3486Z" fill="white"/>
</g>
<defs>
<clipPath id="clip0_0_621">
<rect width="46" height="47" fill="white" transform="translate(21.2969 10)"/>
</clipPath>
</defs>
</svg>
