<svg width="122" height="40" viewBox="0 0 122 40" fill="none" xmlns="http://www.w3.org/2000/svg">
<g clip-path="url(#clip0_0_461)">
<path d="M13.9648 28.8401H10.08C10.0377 28.271 9.99571 27.7104 9.95398 27.1495C9.92588 27.1315 9.8975 27.1135 9.86941 27.0953C9.85355 27.1392 9.84771 27.1912 9.82016 27.2263C8.93105 28.3652 7.74481 28.9388 6.31293 29.0516C4.86602 29.1658 3.55543 28.8108 2.4037 27.9274C1.36324 27.1293 0.691947 26.0767 0.325283 24.8313C-0.104811 23.3712 -0.116217 21.9034 0.337801 20.4486C0.903377 18.6363 2.09267 17.3465 3.81944 16.5736C5.94293 15.6232 8.10118 15.5856 10.2236 16.5664C12.2001 17.4797 13.3638 19.0581 13.8056 21.1698C13.9211 21.7212 13.9659 22.2807 13.9653 22.8444C13.9636 24.7235 13.9648 26.6024 13.9648 28.4816V28.8398V28.8401ZM4.06314 22.5784C4.07705 22.7012 4.0854 22.9328 4.13103 23.1567C4.3508 24.2373 4.94475 25.0295 6.00969 25.3969C7.09105 25.7698 8.09645 25.5954 8.96526 24.8349C10.4706 23.5175 10.3437 21.0926 8.71822 19.9253C7.52893 19.0714 5.83805 19.2381 4.85072 20.3156C4.29294 20.9243 4.07733 21.6624 4.06342 22.5782L4.06314 22.5784Z" fill="black"/>
<path d="M61.138 28.7986H57.1506V28.4326C57.1506 26.3318 57.1548 24.2309 57.1462 22.13C57.1448 21.7917 57.1225 21.4448 57.0463 21.1164C56.7244 19.7284 55.5151 19.0473 54.1372 19.4556C53.0269 19.7845 52.1706 20.8377 52.0772 21.9921C52.066 22.1298 52.0652 22.2682 52.0649 22.4065C52.0641 24.4244 52.0644 26.4423 52.0644 28.4603V28.7771C51.8315 28.8428 48.3688 28.855 48.0566 28.7961V16.1091H51.9189C51.9653 16.7231 52.0107 17.3249 52.0607 17.9905C52.1584 17.8664 52.2132 17.7964 52.2683 17.7268C53.26 16.4665 54.5573 15.8407 56.1705 15.8567C57.1095 15.8661 57.9894 16.0793 58.7873 16.5791C59.912 17.2834 60.5753 18.3186 60.9216 19.572C61.0771 20.1342 61.1519 20.7086 61.1519 21.2922C61.1517 23.6971 61.152 26.102 61.1514 28.507C61.1514 28.5971 61.1433 28.6869 61.138 28.7989V28.7986Z" fill="black"/>
<path d="M104.249 23.857H95.1171C95.1382 23.9847 95.1451 24.0828 95.1713 24.1757C95.3544 24.827 95.7747 25.2859 96.3662 25.5955C97.0441 25.9504 97.7719 26.043 98.5252 25.9648C99.2385 25.891 99.9009 25.6778 100.467 25.201C101.485 25.6615 102.494 26.1179 103.528 26.5856C103.474 26.6647 103.439 26.7255 103.394 26.7783C102.862 27.4086 102.221 27.9089 101.471 28.2511C99.3451 29.2214 97.1632 29.3347 94.9963 28.4551C92.7501 27.5435 91.471 25.8277 91.1756 23.4302C90.9463 21.5701 91.365 19.8535 92.5259 18.3572C93.6337 16.9294 95.1145 16.1236 96.9148 15.921C98.434 15.7502 99.8957 15.9757 101.252 16.6936C103.026 17.6318 104.043 19.1187 104.376 21.0781C104.52 21.9314 104.517 22.7828 104.319 23.6292C104.303 23.6989 104.277 23.7663 104.249 23.8567V23.857ZM100.49 21.3111C100.497 21.2146 100.509 21.1508 100.506 21.0877C100.46 20.1423 100.01 19.4665 99.1331 19.0858C98.5656 18.8393 97.9677 18.7961 97.3604 18.8672C96.1951 19.0037 95.3254 19.8369 95.144 20.9835C95.1276 21.0869 95.1315 21.1936 95.1254 21.3111H100.49Z" fill="black"/>
<path d="M45.8388 26.5948C45.6975 26.7568 45.594 26.885 45.4805 27.0036C44.6047 27.9191 43.5272 28.4842 42.3018 28.7766C40.6668 29.1667 39.0377 29.1501 37.4645 28.5312C34.9855 27.5556 33.6415 25.7124 33.4306 23.0731C33.3107 21.5701 33.6306 20.154 34.4499 18.8769C35.5594 17.1475 37.1576 16.1587 39.206 15.9224C40.7842 15.7405 42.2987 15.9893 43.6905 16.773C45.4195 17.7466 46.3891 19.2492 46.6817 21.1903C46.8005 21.979 46.7944 22.769 46.6269 23.5529C46.6155 23.6069 46.6024 23.6608 46.5877 23.7138C46.578 23.7489 46.564 23.7827 46.5385 23.8559H46.1952C43.3868 23.8559 40.5781 23.8559 37.7697 23.8565C37.6531 23.8565 37.5368 23.865 37.3999 23.8706C37.477 24.4278 37.716 24.8605 38.1029 25.2137C38.5175 25.5919 39.0165 25.8075 39.5621 25.9128C40.3536 26.0654 41.1342 26.0051 41.8839 25.7096C42.1819 25.5922 42.4551 25.4122 42.8064 25.2251C43.7556 25.6538 44.7716 26.1127 45.8382 26.5945L45.8388 26.5948ZM42.7694 21.3083C42.7778 21.2381 42.7892 21.1845 42.7897 21.1311C42.7992 20.22 42.2979 19.4615 41.4405 19.0922C40.8732 18.8478 40.2771 18.7898 39.6711 18.8666C38.5183 19.0129 37.5566 19.7617 37.4036 21.2044C37.4002 21.2365 37.4194 21.2707 37.4292 21.3086H42.7697L42.7694 21.3083Z" fill="black"/>
<path d="M84.5834 24.0389C85.5006 21.3954 86.4181 18.7522 87.3361 16.106H91.7021C89.9601 20.3599 88.2297 24.586 86.4968 28.8178H82.5698C80.8385 24.5904 79.1081 20.3646 77.3652 16.1084H81.731C82.6605 18.7536 83.591 21.4023 84.5216 24.0514C84.5422 24.0472 84.5625 24.0431 84.5831 24.0389H84.5834Z" fill="black"/>
<path d="M70.5561 28.3982C70.0673 28.6337 69.5674 28.7667 69.058 28.8632C68.318 29.0033 67.5699 29.055 66.8171 29.0357C64.633 28.9796 63.0197 27.4534 62.857 25.2845C62.8364 25.0092 62.8255 24.7325 62.8247 24.4566C62.8147 20.5134 62.8072 16.5704 62.7988 12.6271C62.7988 12.5453 62.7988 12.4635 62.7988 12.388C63.0225 12.3247 66.4819 12.3139 66.8082 12.3753C66.8416 13.5957 66.8082 14.8253 66.8622 16.083H70.457V19.3358C70.1571 19.3676 69.8631 19.3477 69.5707 19.351C69.2742 19.3546 68.9773 19.3518 68.6808 19.3518H67.7908C67.4954 19.3518 67.1996 19.3518 66.8789 19.3518C66.868 19.4472 66.8516 19.5254 66.8516 19.6036C66.8502 21.0502 66.8463 22.4967 66.8552 23.943C66.8566 24.1702 66.8897 24.4052 66.9554 24.6225C67.1476 25.2577 67.6503 25.6237 68.3172 25.6505C69.0026 25.6784 69.6653 25.5723 70.304 25.3221C70.3714 25.2956 70.4406 25.2743 70.5555 25.2342C70.5569 26.3076 70.5566 27.3508 70.5555 28.398L70.5561 28.3982Z" fill="black"/>
<path d="M24.9238 12.3484H28.9318C28.9491 13.5874 28.966 14.8156 28.9836 16.0744H32.5464C32.609 16.3025 32.6293 18.8373 32.5773 19.3296C32.293 19.3755 31.9989 19.3454 31.7071 19.3504C31.4014 19.3556 31.0954 19.3515 30.7893 19.3515H29.8994C29.6045 19.3515 29.3093 19.3515 28.9894 19.3515C28.9808 19.4629 28.9677 19.5511 28.9677 19.639C28.9663 21.0394 28.9627 22.44 28.9708 23.8404C28.9722 24.0867 28.9961 24.3405 29.0601 24.5774C29.2398 25.2405 29.7533 25.6237 30.4438 25.6505C31.1293 25.677 31.792 25.5709 32.431 25.3215C32.4827 25.3013 32.5348 25.2817 32.5876 25.2654C32.6037 25.2604 32.6238 25.2668 32.6613 25.2693V28.4043C32.5734 28.4441 32.4766 28.4941 32.3751 28.5325C31.5077 28.8609 30.6021 28.9889 29.6813 29.0298C29.106 29.0555 28.5301 29.0536 27.969 28.9016C26.314 28.4537 25.36 27.3632 25.0398 25.7085C24.9859 25.4302 24.9692 25.1413 24.9658 24.8568C24.9511 23.6502 24.9439 22.4433 24.9408 21.2365C24.9333 18.3986 24.9294 15.5608 24.9244 12.723C24.9244 12.6058 24.9244 12.4886 24.9244 12.3481L24.9238 12.3484Z" fill="black"/>
<path d="M19.6608 19.3518C19.6546 19.4679 19.6482 19.5318 19.6482 19.5956C19.6477 21.0419 19.643 22.4882 19.653 23.9345C19.6546 24.1703 19.6936 24.4138 19.7637 24.6391C19.9573 25.2636 20.4503 25.6196 21.1079 25.6497C21.8032 25.6815 22.4742 25.5729 23.1218 25.3194C23.1889 25.2931 23.2581 25.273 23.3508 25.242V28.4005C23.2584 28.4419 23.1533 28.4961 23.0434 28.5373C22.1757 28.864 21.2701 28.9904 20.3493 29.0302C19.7832 29.0548 19.2173 29.0523 18.6645 28.9055C17.0693 28.4812 16.1135 27.4485 15.7468 25.8598C15.6297 25.3523 15.6361 24.8359 15.635 24.3201C15.6313 22.5606 15.6286 20.8012 15.6255 19.0417C15.623 17.6048 15.6213 16.1676 15.6172 14.7308C15.6152 14.04 15.6083 13.3492 15.6055 12.6584C15.6052 12.5597 15.6155 12.4607 15.6216 12.3496H19.6168C19.6599 13.5897 19.6277 14.8189 19.663 16.0781H23.2481V19.343C22.9566 19.3458 22.6642 19.3493 22.3715 19.3507C22.0658 19.3521 21.7598 19.351 21.454 19.351H20.5641C20.27 19.351 19.9757 19.351 19.6602 19.351L19.6608 19.3518Z" fill="black"/>
<path d="M72.2734 16.1128C73.6235 16.8896 74.9436 16.8923 76.2583 16.1297C76.3207 16.3724 76.3287 28.5212 76.2706 28.8125H72.2734V16.1128Z" fill="black"/>
<path d="M74.24 15.1076C73.9599 15.0523 73.6719 15.0224 73.4012 14.9376C72.38 14.6174 71.7282 13.6942 71.7891 12.6838C71.8539 11.6044 72.5697 10.7881 73.6475 10.5669C74.1454 10.4646 74.6406 10.4776 75.13 10.6194C76.0853 10.8964 76.7201 11.671 76.7719 12.6202C76.827 13.6306 76.2862 14.4919 75.357 14.874C75.0012 15.0202 74.6287 15.078 74.2397 15.1076H74.24Z" fill="black"/>
<path d="M108.998 16.3382C109.034 17.5941 108.081 18.4667 106.675 18.3451C106.358 18.3177 106.054 18.2351 105.778 18.0717C105.227 17.7455 104.942 17.2488 104.875 16.6277C104.851 16.4098 104.849 16.1823 104.886 15.967C105.024 15.1496 105.504 14.6293 106.315 14.4212C106.735 14.3134 107.158 14.3106 107.579 14.4179C108.419 14.6313 108.94 15.2563 108.998 16.1174C109.003 16.1906 108.998 16.2644 108.998 16.3382ZM106.906 17.9943C107.87 18.0134 108.575 17.3547 108.582 16.393C108.59 15.2104 107.788 14.7137 107.033 14.7065C106.015 14.6971 105.339 15.3276 105.318 16.3222C105.298 17.3113 105.928 17.9747 106.906 17.994V17.9943Z" fill="black"/>
<path d="M107.437 17.3904C107.302 17.1784 107.159 16.9539 107.006 16.7151H106.714V17.3896H106.176C106.138 16.712 106.157 16.029 106.148 15.3125C106.562 15.3089 106.947 15.2461 107.33 15.3144C107.859 15.4087 108.07 16.0077 107.731 16.4287C107.679 16.4925 107.617 16.5481 107.548 16.62C107.629 16.7441 107.709 16.866 107.788 16.9876C107.868 17.1098 107.948 17.232 108.052 17.3907H107.437V17.3904ZM106.695 15.7293C106.694 15.7445 106.694 16.2421 106.694 16.2537C106.824 16.2471 106.995 16.2556 107.118 16.2302C107.258 16.2012 107.339 16.0696 107.325 15.9433C107.311 15.8261 107.222 15.7437 107.073 15.7313C106.956 15.7216 106.838 15.7293 106.696 15.7293H106.695Z" fill="black"/>
</g>
<defs>
<clipPath id="clip0_0_461">
<rect width="109" height="19" fill="white" transform="translate(0 10.5)"/>
</clipPath>
</defs>
</svg>
