<svg width="144" height="56" viewBox="0 0 144 56" fill="none" xmlns="http://www.w3.org/2000/svg">
<path fill-rule="evenodd" clip-rule="evenodd" d="M46.977 18.3864C44.7488 19.8894 42.2389 21.0337 39.4323 21.826L38.1899 22.1767L39.0124 22.5699C40.0851 23.0829 41.1257 24.0819 41.3902 24.8525C41.5533 25.3279 41.5782 25.9803 41.5782 29.7861C41.5782 32.8189 41.5374 34.306 41.4462 34.6069C41.3737 34.8462 41.1467 35.1875 40.9417 35.3652C40.6099 35.6533 39.6504 36.0317 39.2521 36.0317C39.1491 36.0317 39.1038 36.2015 39.1038 36.5875V37.1432H45.2896H51.4755V36.6056V36.0681L50.7819 35.8775C49.8904 35.6326 49.5268 35.3697 49.2671 34.7826C49.0766 34.352 49.0543 33.9153 49.0232 30.0001C48.976 24.0553 49.1316 22.9129 50.1259 21.8991C50.7798 21.2324 51.5651 21.0218 52.5688 21.2438C53.3713 21.4212 53.8125 21.8322 54.1849 22.7486L54.456 23.4155L54.4889 30.2793L54.5219 37.1432H59.4657H64.4096V36.6066V36.0698L63.8287 35.9373C63.0304 35.7552 62.5361 35.4263 62.241 34.8811C61.9942 34.4248 61.9909 34.3545 61.9338 28.3064C61.8767 22.2635 61.873 22.1845 61.615 21.4703C60.8276 19.2915 59.3167 18.1954 56.7041 17.9075C54.1038 17.621 51.0732 18.554 49.1028 20.2479C48.7473 20.5534 48.4286 20.8033 48.3944 20.8033C48.3603 20.8033 48.3183 20.0633 48.3012 19.1587L48.2702 17.514L46.977 18.3864ZM72.985 17.915C70.918 18.1263 68.6812 18.9845 67.2776 20.1046C65.623 21.425 64.3202 23.8785 63.9521 26.3673C63.7743 27.5689 63.879 29.7078 64.17 30.8177C65.0856 34.309 67.9485 37.0385 71.4432 37.7519C72.7475 38.0181 74.7334 37.9765 76.0078 37.6562C78.0051 37.1541 80.2227 35.9334 81.7457 34.4984L82.5604 33.7302L82.361 33.2136C82.2509 32.9294 82.15 32.697 82.1354 32.697C82.1215 32.697 81.7465 32.8741 81.3022 33.0905C80.272 33.5919 78.9761 33.9197 78.0243 33.9197C75.9798 33.9197 73.7116 32.7257 72.4583 30.9897C71.9102 30.2304 71.4275 29.2779 71.3188 28.7406L71.252 28.4104L72.9201 28.0968C80.1765 26.7322 82.4672 25.1737 81.6826 22.1354C81.1829 20.1996 79.5366 18.7254 77.2289 18.1473C76.2092 17.8919 74.256 17.7849 72.985 17.915ZM92.7452 17.9218C88.3985 18.3232 85.0814 20.5446 83.7508 23.9443C83.2003 25.3527 83.0486 26.2362 83.0517 28.0285C83.0532 29.3879 83.0979 29.8067 83.3366 30.704C83.7909 32.4163 84.6063 33.8679 85.7482 34.996C86.9602 36.1942 88.6958 37.1135 90.6931 37.6159C91.5763 37.838 91.9575 37.8647 94.2144 37.8626C96.4535 37.8605 96.8593 37.8317 97.7394 37.6125C103.514 36.1743 106.323 31.8705 105.337 25.9721C104.661 21.9291 101.686 18.9907 97.4199 18.1521C96.0416 17.8813 94.1782 17.7894 92.7452 17.9218ZM75.0749 19.6517C76.011 20.1939 76.533 21.4693 76.4104 22.9154C76.2597 24.6944 75.4131 25.7362 73.5556 26.429C72.4905 26.8263 70.9534 27.1508 70.8582 26.9985C70.8173 26.9331 70.7847 26.0752 70.7859 25.0921C70.7881 23.0409 70.9778 21.9146 71.5008 20.8438C72.2067 19.3992 73.7499 18.8843 75.0749 19.6517ZM95.6658 19.6054C96.3188 19.9264 96.8454 20.6154 97.1273 21.5164C97.5238 22.7854 97.6139 24.2063 97.5577 28.3267C97.5023 32.4469 97.3898 33.4242 96.8239 34.7092C96.3057 35.8852 95.3663 36.5184 94.1535 36.5095C92.5365 36.4978 91.5994 35.3937 91.1528 32.9749C91.052 32.4295 91.0088 30.8999 91.0088 27.8618C91.0088 24.1408 91.0373 23.3928 91.2083 22.5819C91.4554 21.4106 91.9975 20.3194 92.5511 19.88C93.3804 19.2213 94.6556 19.1088 95.6658 19.6054Z" fill="black"/>
</svg>
