<svg width="122" height="40" viewBox="0 0 122 40" fill="none" xmlns="http://www.w3.org/2000/svg">
<g clip-path="url(#clip0_0_509)">
<path d="M12.364 6.87398C9.60236 7.04169 6.6283 8.45046 4.43688 10.6307C2.14484 12.9004 0.69135 15.9862 0.456556 19.1057C0.322388 21.0064 0.736073 23.645 1.42928 25.1656C1.57463 25.4787 1.73115 25.87 1.79824 26.0265C1.85414 26.183 2.23429 26.8092 2.63679 27.4353C3.35236 28.5198 4.4816 29.7609 5.49905 30.5882C6.80719 31.6504 8.89798 32.6455 10.7428 33.0927C11.8832 33.3722 12.2186 33.4058 13.8175 33.4058C15.4387 33.3946 15.7294 33.361 16.9034 33.0592C17.6189 32.8691 18.6252 32.5337 19.1395 32.2989C20.3917 31.7622 22.0577 30.6218 23.0751 29.6155C23.8689 28.844 25.1659 27.1446 25.1659 26.8874C25.1659 26.8203 25.2106 26.7644 25.2665 26.7644C25.5125 26.7644 26.4293 24.3829 26.7647 22.9071C27.212 20.8834 27.0331 17.5739 26.3846 15.8409C25.1882 12.6432 23.2763 10.2953 20.5259 8.64053C18.0997 7.18704 15.7182 6.67273 12.364 6.87398ZM15.8859 15.2595C15.8859 15.3713 15.7182 15.4608 15.4163 15.539C14.9803 15.6285 14.9356 15.6732 14.902 16.0198C14.8685 16.3888 14.9803 16.7354 16.2884 20.1678C17.5295 23.4326 17.6972 23.8575 17.7754 23.9022C17.9208 23.9916 17.9655 23.8798 19.1842 20.671C19.3184 20.302 19.7209 19.251 20.0675 18.3454C20.7048 16.6683 20.7831 16.2881 20.5818 15.9192C20.47 15.6955 19.9221 15.4719 19.5085 15.4719C19.3184 15.4719 19.2401 15.4049 19.2401 15.2595C19.2401 15.0694 19.3407 15.0582 20.8054 15.0694C22.2142 15.0806 22.3707 15.103 22.3707 15.2707C22.3707 15.3825 22.3036 15.4719 22.2365 15.4719C22.0129 15.4831 21.521 15.9415 21.3309 16.3105C21.2415 16.4894 20.7271 17.7752 20.2017 19.1616C19.665 20.548 19.1842 21.7778 19.1283 21.9008C19.0612 22.0238 18.7146 22.9295 18.3345 23.9134C17.9655 24.8973 17.5966 25.8364 17.5295 26.0041C17.2947 26.5744 17.0822 26.3731 16.6238 25.1656C15.707 22.7617 15.1927 21.4312 14.9803 20.984C14.8685 20.7157 14.7678 20.4585 14.7678 20.4026C14.7678 20.3579 14.6113 19.9442 14.4212 19.4858C14.2312 19.0274 14.0076 18.4572 13.9293 18.2112C13.5491 17.0708 13.0572 16.0645 12.733 15.7626C12.3975 15.4496 12.3864 15.4496 11.1677 15.4943C9.43465 15.5502 9.50173 15.4384 9.53528 18.2559L9.56882 20.4473L10.016 20.4809C10.6198 20.5256 11.2906 20.2908 11.5478 19.933C11.6708 19.7765 11.7938 19.374 11.8273 19.0162C11.8832 18.4684 11.9279 18.3789 12.1292 18.3789C12.364 18.3789 12.364 18.4125 12.364 20.671C12.3752 22.7617 12.3528 22.963 12.1851 22.963C12.0398 22.963 11.9727 22.8288 11.9168 22.4822C11.7826 21.5542 11.7379 21.4201 11.4584 21.1629C11.2236 20.9393 11.0335 20.8946 10.3403 20.861L9.50173 20.8163L9.53528 23.1307C9.58 26.0153 9.47937 25.87 11.3577 25.87C12.0398 25.87 12.7777 25.8141 12.9901 25.747C13.7616 25.4787 14.1976 24.819 14.3877 23.5444C14.4436 23.1866 14.5107 23.0748 14.6672 23.0748C14.8461 23.0748 14.8685 23.209 14.902 24.6401L14.9356 26.2054H10.7763C8.10415 26.2054 6.60594 26.1607 6.60594 26.0936C6.60594 26.0377 6.81837 25.9482 7.07553 25.9147C7.99234 25.7582 7.94762 26.0265 7.94762 20.6933C7.94762 18.0994 7.9029 15.9192 7.85817 15.8521C7.72401 15.6396 7.31032 15.4719 6.95254 15.4719C6.69538 15.4719 6.60594 15.416 6.60594 15.2707C6.60594 15.0918 6.89663 15.0806 11.2459 15.0806C15.3716 15.0806 15.8859 15.103 15.8859 15.2595Z" fill="black"/>
<path d="M104.784 14.3538C103.666 14.5886 102.581 15.5166 102.313 16.4558C102.257 16.6794 102.201 17.149 102.201 17.4844C102.201 19.1839 102.972 19.9777 105.399 20.7827C106.975 21.3194 107.344 21.6324 107.344 22.4486C107.344 22.6499 107.232 23.0412 107.087 23.3095C106.874 23.6897 106.718 23.8462 106.327 23.9916C105.331 24.3717 104.28 24.1928 103.386 23.4996C103.084 23.2648 102.771 23.0748 102.693 23.0748C102.246 23.0748 101.642 23.6673 101.642 24.1146C101.642 24.3382 102.57 25.1544 103.151 25.4562C104.269 26.0265 105.454 26.1159 106.64 25.7358C107.266 25.5345 107.523 25.3668 108.082 24.8078C108.876 24.0251 109.055 23.5891 109.066 22.4598C109.077 21.2411 108.976 20.9169 108.35 20.2908C107.791 19.7429 107.411 19.564 104.974 18.6696C104.035 18.323 103.688 17.6298 104.09 16.8695C104.571 15.9638 105.745 15.7179 106.863 16.2881C107.176 16.4558 107.467 16.6347 107.512 16.7018C107.545 16.7577 107.758 16.8136 107.959 16.8136C108.272 16.8136 108.395 16.7465 108.63 16.3999C108.786 16.1651 108.909 15.8967 108.909 15.7961C108.909 15.5613 108.048 14.8569 107.433 14.5774C106.863 14.3315 105.477 14.2085 104.784 14.3538Z" fill="black"/>
<path d="M34.7925 14.5104C34.703 14.611 34.6807 16.2099 34.6919 20.2349L34.7254 25.8141L38.1355 25.8476C40.0139 25.8588 41.6574 25.8476 41.8028 25.8141C42.0264 25.7582 42.0488 25.6911 42.0488 25.0538C42.0488 24.6513 41.9929 24.2935 41.9146 24.2152C41.814 24.1146 41.0425 24.0811 39.1194 24.0811H36.4584V22.5158V20.9505L38.7281 20.9281L40.9866 20.8946V20.056V19.2175L38.7281 19.1839L36.4584 19.1616V17.6522V16.1428L39.2312 16.1204L41.9929 16.0869L42.0264 15.3825C42.0488 14.9576 42.004 14.611 41.9258 14.5104C41.7357 14.2868 34.9826 14.2756 34.7925 14.5104Z" fill="black"/>
<path d="M46.2415 14.4879C46.2079 14.5662 46.1967 17.1489 46.2079 20.2236L46.2415 25.814L49.5733 25.8475L52.894 25.8699V24.9754V24.081H50.4901H48.0863L48.0639 19.2397L48.0304 14.4097L47.1583 14.3761C46.5322 14.3538 46.275 14.3873 46.2415 14.4879Z" fill="black"/>
<path d="M56.5277 14.4879C56.4942 14.5662 56.483 17.1489 56.4942 20.2236L56.5277 25.814L59.8596 25.8475L63.1802 25.8699V24.9754V24.081H60.7764H58.3725L58.3502 19.2397L58.3166 14.4097L57.4445 14.3761C56.8184 14.3538 56.5613 14.3873 56.5277 14.4879Z" fill="black"/>
<path d="M66.814 14.4879C66.7804 14.5662 66.7693 17.1489 66.7804 20.2236L66.814 25.814H70.4477H74.0814L74.115 25.2102C74.1373 24.8748 74.1262 24.4835 74.0814 24.3381L74.0255 24.081H71.3422H68.6588V22.5157V20.9504L70.8726 20.928L73.0752 20.8945L73.1087 20.0224L73.1423 19.1615H70.8949H68.6588V17.6521V16.1427H71.2639C73.1423 16.1427 73.9025 16.1091 74.0032 16.0085C74.1373 15.8743 74.1932 14.8457 74.0702 14.5326C74.0143 14.3761 73.5895 14.3538 70.4365 14.3538C67.6749 14.3538 66.8475 14.3873 66.814 14.4879Z" fill="black"/>
<path d="M77.089 14.5215C77.0107 14.7115 77.0666 14.8569 77.7151 16.4222C78.4754 18.2335 79.8171 21.4535 80.4432 23.0188C80.7674 23.8126 81.1811 24.7853 81.3488 25.1655L81.6619 25.8699H82.3103H82.9588L83.2272 25.2773C83.3837 24.9642 83.7638 24.0362 84.0881 23.2424C84.4011 22.4374 84.7589 21.5877 84.8707 21.3305C84.9937 21.0845 85.1502 20.682 85.2397 20.4361C85.4745 19.7988 86.3019 17.8421 86.559 17.3055C86.6708 17.0595 86.7714 16.78 86.7714 16.6905C86.7714 16.6011 86.8162 16.4781 86.8721 16.411C87.0398 16.2433 87.6659 14.555 87.5988 14.4544C87.5653 14.3985 87.1963 14.3538 86.7714 14.3538C86.0559 14.3538 85.9888 14.3761 85.7205 14.6892C85.5639 14.8793 85.3739 15.2482 85.3068 15.5054C85.2397 15.7625 85.1391 16.0309 85.0832 16.0868C85.0384 16.1539 84.8148 16.6682 84.6024 17.2272C84.39 17.7862 84.1663 18.3341 84.0993 18.4571C84.0322 18.5689 83.8868 18.9043 83.7638 19.2174C83.2495 20.5814 82.6122 22.1355 82.5116 22.225C82.4557 22.2921 82.411 22.4374 82.411 22.5604C82.411 22.9294 82.2433 22.6387 81.7401 21.3976C81.483 20.7491 81.1811 20.0224 81.0581 19.7652C80.9463 19.5192 80.7898 19.1167 80.7003 18.8708C80.4991 18.3341 79.7612 16.5452 79.5487 16.0868C79.4705 15.8967 79.3251 15.5277 79.2245 15.2594C78.9673 14.5327 78.7102 14.3538 77.8604 14.3538C77.3349 14.3538 77.1337 14.3985 77.089 14.5215Z" fill="black"/>
<path d="M91.132 20.1118V25.8699L94.7433 25.8475L98.3435 25.814V24.9754V24.1369L95.6378 24.1033L92.9209 24.081V22.5157V20.9504L95.1905 20.928L97.449 20.8945V20.0559V19.2174L95.1905 19.1838L92.9209 19.1615V17.6521V16.1427L95.6378 16.1203L98.3435 16.0868V15.2482V14.4097L94.7433 14.3761L91.132 14.3538V20.1118Z" fill="black"/>
<path d="M111.95 15.2147L111.984 16.0868L113.739 16.1204L115.506 16.1539L115.528 20.984L115.562 25.814L116.434 25.8476L117.295 25.8811V21.0175V16.1427L119.117 16.1204L120.929 16.0868V15.2483V14.4097L116.423 14.3762L111.917 14.3538L111.95 15.2147Z" fill="black"/>
</g>
<defs>
<clipPath id="clip0_0_509">
<rect width="121.981" height="28.7344" fill="white" transform="translate(0.00927734 5.63281)"/>
</clipPath>
</defs>
</svg>
