<svg width="144" height="56" viewBox="0 0 144 56" fill="none" xmlns="http://www.w3.org/2000/svg">
<path d="M33.8553 26.0968C33.8699 28.1404 33.4962 30.0942 32.2622 31.7656C30.3606 34.3479 27.7058 35.2169 24.618 34.7825C21.3128 34.3175 19.0969 32.1248 18.4133 28.8037C17.9078 26.3503 18.0889 23.9562 19.2417 21.7055C20.7856 18.6929 24.2399 17.1606 27.7579 17.8341C31.3787 18.5293 33.4064 21.1782 33.7873 24.7253C33.8365 25.18 33.8337 25.6391 33.8553 26.0968ZM22.5483 26.0765V26.0968C22.5361 26.916 22.5773 27.735 22.6713 28.5488C22.8234 29.7075 23.0059 30.8893 23.3709 31.9958C23.83 33.3891 24.7352 33.8961 26.1981 33.8657C27.5117 33.8381 28.3532 33.2226 28.8267 31.8974C28.9984 31.4734 29.1086 31.0272 29.1541 30.5721C29.2685 28.6038 29.4177 26.6327 29.3887 24.6644C29.3713 23.4753 29.1294 22.2717 28.8456 21.1087C28.5748 19.9703 27.9476 19.0116 26.6586 18.777C24.8265 18.438 23.5331 19.2028 23.1189 21.0943C22.7597 22.7236 22.7713 24.4124 22.5483 26.0765Z" fill="black"/>
<path d="M83.0987 33.3309C82.6932 33.6206 82.4486 33.7958 82.1978 33.9653C80.4602 35.1398 78.2249 35.2093 76.6943 34.1376C75.763 33.4859 75.217 32.5604 74.9128 31.4973C74.4779 29.9607 74.4282 28.3406 74.768 26.7801C75.3981 23.7632 77.6645 21.9079 80.7628 21.8558C81.4865 21.8428 82.1994 21.9152 82.9857 21.9513C82.9943 21.7689 83.0121 21.5633 83.0121 21.3561C83.0121 20.0526 83.0237 18.7492 82.9958 17.4558C82.9873 16.9923 83.0856 16.7548 83.6104 16.7214C84.4486 16.6693 85.2884 16.5651 86.1189 16.4318C86.6591 16.3449 86.7714 16.5404 86.7675 17.0416C86.7381 20.293 86.7342 23.5431 86.7265 26.7932C86.7265 29.0815 86.7265 31.3684 86.7265 33.6568C86.7265 34.4852 86.7265 34.4953 85.9316 34.6011C85.1932 34.6996 84.4486 34.7618 83.7087 34.8632C83.2249 34.9299 83.0353 34.7604 83.0987 34.2694C83.1158 33.9568 83.1158 33.6435 83.0987 33.3309ZM83.002 28.117C83.002 26.8424 82.9842 25.5679 83.0105 24.2948C83.0198 24.1049 82.9826 23.9156 82.9022 23.7433C82.8224 23.5709 82.7009 23.4207 82.55 23.3055C81.3418 22.2743 79.5561 22.7263 78.9578 24.3194C78.0886 26.6193 78.125 28.9917 78.8131 31.3264C79.1854 32.5966 79.9447 33.0325 81.2752 32.9572C81.6738 32.9355 82.0631 32.7747 82.4617 32.6966C82.896 32.6125 83.0252 32.3678 83.0159 31.9362C82.9842 30.6703 83.0004 29.3958 83.002 28.1213V28.117Z" fill="black"/>
<path d="M39.2916 34.833C39.2916 36.1365 39.2655 37.5037 39.3031 38.8739C39.3191 39.4358 39.1482 39.627 38.579 39.6487C37.8098 39.6939 37.0438 39.7834 36.2848 39.9166C35.7417 39.9992 35.5607 39.8167 35.5723 39.2634C35.6013 37.5051 35.5838 35.7469 35.5824 33.9886C35.5824 30.3273 35.5824 26.6663 35.5824 23.0059C35.5824 22.2253 35.6027 22.208 36.3703 22.1196C37.1119 22.0356 37.8548 21.9588 38.5935 21.8502C39.0613 21.7821 39.2785 21.9168 39.2308 22.4194C39.2004 22.7235 39.2308 23.0335 39.2308 23.4636C39.6798 23.1537 40.0288 22.8843 40.4097 22.6569C42.1101 21.6619 43.8437 21.4331 45.5918 22.5251C46.5361 23.1145 47.0923 24.0183 47.3892 25.0612C47.9086 26.8796 47.898 28.8085 47.3588 30.6213C46.6607 33.04 44.7344 34.5868 42.1347 34.8214C41.2222 34.9011 40.3054 34.833 39.2916 34.833ZM39.3538 24.3051C39.3278 24.3828 39.3093 24.4628 39.2988 24.544C39.2988 27.267 39.2785 29.9898 39.3133 32.7127C39.3133 32.982 39.5668 33.334 39.8043 33.502C41.2526 34.5158 43.1152 33.7916 43.5786 31.9972C44.0608 30.1218 44.1074 28.1609 43.7148 26.2647C43.3238 24.3297 42.2491 23.6461 40.3054 24.0053C39.9819 24.084 39.6641 24.1841 39.3538 24.3051Z" fill="black"/>
<path d="M61.8992 34.6187V22.2094L65.4765 21.798V23.5245C65.8299 23.3014 66.0645 23.1522 66.3006 23.006C67.4433 22.2919 68.657 21.8212 70.0345 21.8371C71.9172 21.8589 72.9528 22.7916 73.0035 24.7019C73.0629 26.844 73.031 28.989 73.0353 31.1325C73.0353 32.0957 73.0238 33.0602 73.0353 34.0292C73.0353 34.4492 72.9065 34.6447 72.456 34.6302C71.6131 34.6056 70.7688 34.5984 69.9258 34.6302C69.4276 34.6476 69.3262 34.426 69.3291 33.9828C69.3421 31.5743 69.3291 29.1642 69.3291 26.7557C69.3291 26.3704 69.3291 25.9837 69.2987 25.597C69.193 24.4456 68.7034 24.0169 67.5607 24.0444C65.5794 24.0907 65.5721 24.095 65.5721 26.0445C65.5721 28.6515 65.5721 31.247 65.5721 33.8481C65.5721 34.5897 65.5388 34.6157 64.7915 34.6215C63.8414 34.6245 62.8855 34.6187 61.8992 34.6187Z" fill="black"/>
<path d="M100.844 28.4589C100.798 30.5951 100.127 32.6011 98.0763 33.9249C95.4602 35.6136 90.5793 35.2892 88.9168 31.6075C87.9028 29.3511 87.9346 27.0525 89.07 24.8467C90.2062 22.6409 92.8897 21.462 95.5484 21.8892C98.9494 22.4309 100.844 24.7207 100.844 28.4589ZM97.0345 28.4589C96.8812 27.1423 96.7899 25.8519 96.5623 24.5759C96.3541 23.3362 95.6297 22.7771 94.5027 22.764C93.4648 22.7495 92.8317 23.2622 92.5275 24.489C92.3495 25.2102 92.238 25.9461 92.1931 26.6876C92.0786 28.5617 92.0847 30.4387 92.5507 32.2766C92.7334 33.0008 93.0708 33.625 93.8704 33.851C95.2225 34.2334 96.2744 33.6627 96.5639 32.2303C96.8131 30.9934 96.8882 29.7175 97.0407 28.4617L97.0345 28.4589Z" fill="black"/>
<path d="M114.697 28.689C114.664 30.6051 113.989 32.6139 111.93 33.9247C109.017 35.7771 104.734 34.9762 103.095 32.1591C101.627 29.6333 101.647 26.9582 103.179 24.4728C104.591 22.1918 106.888 21.5588 109.42 21.8992C112.803 22.3554 114.702 24.7263 114.697 28.689ZM110.922 28.2182C110.744 27.0017 110.632 25.6112 110.31 24.2643C110.041 23.1404 109.362 22.7436 108.31 22.758C107.34 22.7697 106.755 23.2317 106.428 24.3266C105.868 26.179 105.956 28.0922 106.072 29.9751C106.133 30.8128 106.268 31.6436 106.475 32.4575C106.641 33.1281 107.033 33.6712 107.779 33.8609C109.168 34.2143 110.172 33.622 110.46 32.123C110.694 30.8991 110.758 29.6477 110.922 28.2182Z" fill="black"/>
<path d="M60.3521 27.8027H59.5787C57.551 27.8027 55.5262 27.8027 53.5044 27.8027C52.8107 27.8027 52.7628 27.8461 52.8396 28.5543C52.8854 29.1291 52.9755 29.6995 53.109 30.2604C53.5652 31.9405 54.5255 32.7632 56.2678 32.782C57.2107 32.7921 58.1608 32.5387 59.0992 32.3649C59.4107 32.307 59.7597 32.1057 59.8915 32.5097C59.9494 32.6922 59.7698 33.0471 59.5931 33.1962C57.3917 35.0385 54.9209 35.3514 52.2878 34.3288C51.7333 34.1119 51.229 33.7841 50.8056 33.3654C50.3822 32.9468 50.0488 32.4461 49.8256 31.8942C48.906 29.7434 48.7712 27.5333 49.7113 25.3767C51.2059 21.9529 54.9918 21.107 57.8002 22.3424C58.3476 22.5843 58.8429 23.0434 59.2485 23.5011C60.0726 24.4643 60.5418 26.4123 60.3521 27.8027ZM52.8063 26.9032L55.9014 26.741C56.0708 26.7323 56.2591 26.7613 56.4011 26.6947C56.543 26.6281 56.7486 26.4514 56.7371 26.3413C56.6458 25.4375 56.5923 24.5178 56.3634 23.6445C56.1751 22.9204 55.4944 22.6307 54.7557 22.7567C54.1344 22.8624 53.7202 23.2331 53.4334 23.7705C52.9309 24.7119 52.8454 25.7373 52.8063 26.9032Z" fill="black"/>
<path d="M119.891 23.5691C120.512 23.1144 120.98 22.7422 121.484 22.4104C122.105 21.9816 122.854 21.7773 123.607 21.8312C124.495 21.8963 125.11 22.451 125.237 23.2939C125.363 24.1368 124.922 25.032 124.211 25.3491C123.833 25.5111 123.41 25.5391 123.014 25.4285C122.617 25.3179 122.27 25.0753 122.03 24.7408C121.408 23.9051 121.22 23.8646 120.466 24.2716C120.055 24.4946 119.993 24.8176 119.995 25.2303C120.005 27.9532 120.002 30.676 120.002 33.3989C120.002 34.6068 120.002 34.6083 118.778 34.6097C118.128 34.6097 117.475 34.6097 116.826 34.6097C116.441 34.6097 116.278 34.4649 116.278 34.0477C116.29 30.2647 116.29 26.4817 116.278 22.6987C116.278 22.3322 116.424 22.1773 116.767 22.1411C117.63 22.0445 118.491 21.9436 119.35 21.8384C119.761 21.7862 119.93 21.9426 119.904 22.3569C119.874 22.7189 119.891 23.0767 119.891 23.5691Z" fill="black"/>
</svg>
