<svg width="122" height="40" viewBox="0 0 122 40" fill="none" xmlns="http://www.w3.org/2000/svg">
<g clip-path="url(#clip0_0_433)">
<path d="M9.81515 5.06104C10.1713 5.10112 10.5312 5.12177 10.8837 5.18371C12.1867 5.41389 13.4878 5.65804 14.7896 5.89732C12.1309 6.64251 9.87633 8.04604 7.99062 10.0636C5.78567 12.4224 4.32277 15.1912 3.47108 18.2916C3.06947 19.7541 2.91318 21.2493 3.17729 22.7567C3.64009 25.3937 5.24352 27.1477 7.56598 28.3028C9.71883 29.3735 12.0425 29.7318 14.4134 29.829C16.2101 29.9025 17.9989 29.7555 19.7707 29.4622C23.0642 28.9168 26.2093 27.9099 29.1496 26.3077C30.6967 25.4642 32.1493 24.4803 33.4044 23.231C33.9181 22.719 34.3943 22.1688 34.8873 21.6362C34.9473 22.2757 35.0782 22.9182 35.0539 23.5541C34.9976 25.0196 34.4439 26.3217 33.5656 27.4847C32.7272 28.5943 31.6787 29.4737 30.5102 30.2104C27.6764 31.9972 24.5744 33.0891 21.3009 33.708C20.4437 33.8702 19.5666 33.9266 18.6991 34.0347C18.6434 34.0414 18.5913 34.0724 18.5374 34.0918C17.6894 34.0918 16.8413 34.0918 15.9932 34.0918C15.677 34.0536 15.3614 34.0062 15.044 33.9783C13.5206 33.8422 12.0449 33.4973 10.6232 32.9349C7.26856 31.6085 4.72923 29.3535 3.09673 26.128C1.45271 22.8782 0.529537 19.4122 0.175776 15.7901C0.144883 15.4724 0.100663 15.156 0.0625 14.839C0.0625 14.0901 0.0625 13.3407 0.0625 12.5919C0.0806726 12.516 0.111566 12.4406 0.115806 12.3641C0.174565 11.291 0.358108 10.2409 0.72883 9.23094C1.19223 7.97013 1.87916 6.8733 3.07855 6.18034C4.03867 5.62524 5.10783 5.42543 6.18002 5.24505C6.64221 5.16732 7.10924 5.12116 7.57386 5.06104C8.32075 5.06104 9.06825 5.06104 9.81515 5.06104Z" fill="#494949"/>
<path d="M120.001 20.7302C119.96 20.8698 119.918 21.0089 119.869 21.1735C117.526 21.1735 115.179 21.1735 112.836 21.1735C112.643 22.1756 113.345 23.3131 114.347 23.6332C114.914 23.8148 115.496 23.8269 116.082 23.7218C116.701 23.6107 117.157 23.2718 117.426 22.7058C117.516 22.5163 117.625 22.4708 117.819 22.4738C118.503 22.4847 119.188 22.478 119.932 22.478C119.84 22.7623 119.781 23.0155 119.678 23.2493C119.248 24.2308 118.521 24.9274 117.543 25.3337C116.106 25.9301 114.646 25.9301 113.219 25.3173C111.849 24.7294 111.033 23.6289 110.632 22.2169C110.275 20.9603 110.3 19.6953 110.695 18.4509C111.372 16.3167 113.179 15.1112 115.518 15.1816C117.86 15.2521 119.679 16.9435 119.951 19.0272C119.954 19.0503 119.984 19.0703 120.002 19.0916C120.001 19.637 120.001 20.1836 120.001 20.7302ZM117.714 19.4183C117.693 18.5754 117.395 17.9012 116.669 17.5028C115.691 16.9672 114.688 16.9951 113.739 17.58C113.076 17.9875 112.825 18.6404 112.811 19.4183C114.448 19.4183 116.058 19.4183 117.714 19.4183Z" fill="black"/>
<path d="M34.8877 21.636C34.3946 22.1686 33.9191 22.7189 33.4048 23.2309C32.1503 24.4807 30.6977 25.4646 29.15 26.3076C26.2096 27.9103 23.0646 28.9166 19.7711 29.462C17.9992 29.7554 16.2104 29.9023 14.4138 29.8288C12.0428 29.7317 9.71917 29.3734 7.56632 28.3026C5.24386 27.1475 3.64042 25.3935 3.17763 22.7565C2.91291 21.2492 3.0698 19.7539 3.47142 18.2915C4.32311 15.1911 5.7854 12.4223 7.99096 10.0634C9.87667 8.04589 12.1313 6.64236 14.7899 5.89717C14.8463 5.89414 14.9026 5.89171 14.959 5.88867C15.0565 5.93179 15.1498 5.98949 15.2515 6.01621C17.4262 6.59742 19.5233 7.38877 21.552 8.36292C23.5358 9.31763 25.444 10.406 27.2091 11.7239C28.2147 12.4745 29.1815 13.2829 30.124 14.1131C30.7128 14.6311 31.2362 15.2263 31.7668 15.8075C32.6191 16.7404 33.386 17.7455 33.9312 18.8885C34.3286 19.7217 34.6205 20.6048 34.9598 21.466C34.9355 21.5225 34.9119 21.5795 34.8877 21.636ZM19.3749 15.8045C19.2634 15.7 19.178 15.6138 19.086 15.5354C18.0943 14.6876 16.9567 14.3578 15.6792 14.6348C13.808 15.0411 12.5814 16.5934 12.5674 18.5484C12.5571 20.0357 12.565 21.5231 12.5662 23.0104C12.5662 23.0966 12.5789 23.1829 12.5844 23.2582C13.2846 23.2582 13.954 23.2582 14.6421 23.2582C14.6421 23.0225 14.6421 22.8112 14.6421 22.5998C14.6434 21.2036 14.6264 19.8068 14.6506 18.4111C14.6712 17.2621 15.7016 16.4422 16.8138 16.6487C17.7345 16.8193 18.3427 17.5639 18.3475 18.5514C18.3548 20.0187 18.3494 21.4854 18.3494 22.9527C18.3494 23.0584 18.3494 23.1647 18.3494 23.2655C19.0593 23.2655 19.7214 23.2655 20.4095 23.2655C20.4095 23.1392 20.4095 23.0304 20.4095 22.9217C20.4095 21.5054 20.4089 20.0886 20.4107 18.6723C20.4107 18.5004 20.4059 18.3255 20.4356 18.1579C20.6034 17.2135 21.4775 16.5272 22.3885 16.6134C23.3777 16.707 24.1058 17.4843 24.1107 18.4725C24.118 19.9598 24.1125 21.4471 24.1125 22.9345C24.1125 23.0426 24.1125 23.1501 24.1125 23.2631C24.8164 23.2631 25.4864 23.2631 26.1648 23.2631C26.169 23.1944 26.1745 23.1452 26.1745 23.096C26.1745 21.5176 26.1878 19.9392 26.1697 18.3607C26.1418 15.9338 23.8054 14.1003 21.4454 14.6287C20.644 14.8091 19.9685 15.2051 19.3749 15.8045ZM11.66 11.6127C10.835 11.6079 10.182 12.2559 10.1777 13.0843C10.1735 13.9054 10.8374 14.5795 11.6479 14.5765C12.4632 14.5734 13.1393 13.9029 13.1387 13.0964C13.1381 12.2777 12.4802 11.6176 11.66 11.6127Z" fill="black"/>
<path d="M63.4783 11.6098C63.4783 16.2583 63.4783 20.8612 63.4783 25.4817C62.6563 25.4817 61.844 25.4817 61.0135 25.4817C61.0135 22.8162 61.0135 20.167 61.0135 17.5179C60.9977 17.5118 60.982 17.5057 60.9668 17.5003C60.9208 17.5902 60.8711 17.6788 60.8281 17.7705C59.6766 20.2509 58.522 22.73 57.3802 25.2151C57.2808 25.4319 57.1742 25.5182 56.9331 25.5054C56.5 25.483 56.0645 25.486 55.6314 25.5048C55.4248 25.5139 55.3315 25.4374 55.2479 25.2564C54.0812 22.7275 52.9073 20.2017 51.7351 17.6752C51.7103 17.6217 51.6843 17.5683 51.617 17.5185C51.617 20.167 51.617 22.815 51.617 25.4811C50.769 25.4811 49.9566 25.4811 49.1328 25.4811C49.1328 20.863 49.1328 16.2595 49.1328 11.6098C49.4387 11.6098 49.7464 11.6098 50.0548 11.6098C50.4382 11.6098 50.8229 11.6256 51.2051 11.6037C51.4353 11.591 51.5346 11.6827 51.6303 11.8825C53.1514 15.0588 54.6821 18.2309 56.2105 21.4036C56.2365 21.4576 56.2638 21.5117 56.3116 21.6088C56.3734 21.4874 56.4225 21.3969 56.4667 21.304C57.9587 18.192 59.4549 15.0819 60.9341 11.9639C61.0686 11.6803 61.2213 11.591 61.5235 11.6025C62.1674 11.6268 62.812 11.6098 63.4783 11.6098Z" fill="black"/>
<path d="M106.928 24.2261C106.37 24.9798 105.624 25.4444 104.721 25.6509C102.649 26.1258 100.398 25.0405 99.3562 23.074C97.9672 20.451 98.8965 17.1095 101.416 15.7819C102.746 15.081 104.136 14.9267 105.548 15.5699C106.104 15.8232 106.561 16.2076 106.963 16.7542C106.963 16.2835 106.963 15.8833 106.963 15.4612C107.751 15.4612 108.521 15.4612 109.323 15.4612C109.323 15.5644 109.323 15.6628 109.323 15.7612C109.323 19.1713 109.331 22.5821 109.315 25.9922C109.313 26.5139 109.255 27.0465 109.138 27.5543C108.822 28.9104 108.006 29.8736 106.69 30.3389C105.024 30.9274 103.323 31.0106 101.654 30.3765C100.048 29.7655 99.1272 28.563 98.9134 26.8394C98.9061 26.7811 98.9122 26.721 98.9122 26.6463C99.6985 26.6463 100.471 26.6463 101.241 26.6463C101.678 28.1956 102.751 28.8655 104.471 28.6657C104.681 28.6414 104.892 28.6092 105.098 28.5618C106.164 28.3146 106.824 27.6217 106.916 26.5297C106.979 25.773 106.928 25.0059 106.928 24.2261ZM101.052 20.4619C101.089 20.7419 101.107 21.0261 101.168 21.3012C101.663 23.5532 104.309 24.4472 105.958 22.9058C106.84 22.0823 107.084 21.0237 106.917 19.8528C106.655 18.018 104.897 16.8714 103.149 17.3943C101.909 17.766 101.073 18.9989 101.052 20.4619Z" fill="black"/>
<path d="M34.9578 21.4652C34.6186 20.604 34.3266 19.7209 33.9293 18.8877C33.3847 17.7447 32.6172 16.7396 31.7649 15.8067C31.2343 15.2255 30.7109 14.6303 30.1221 14.1123C29.1796 13.2821 28.2134 12.4737 27.2072 11.7231C25.4426 10.4052 23.5345 9.31683 21.5501 8.36333C19.5214 7.38857 17.4249 6.59722 15.2496 6.01662C15.1478 5.98929 15.054 5.9322 14.957 5.88908C15.8396 5.75486 16.7186 5.55991 17.606 5.49796C20.1332 5.32184 22.4914 6.01905 24.7787 7.01446C27.5192 8.20724 30.0948 9.68122 32.4185 11.5743C33.7154 12.6316 34.8985 13.7995 35.7532 15.2619C36.1282 15.9039 36.402 16.5865 36.5031 17.3269C36.5788 17.8826 36.557 18.4407 36.3638 18.9733C36.0337 19.88 35.5569 20.7084 34.9578 21.4652Z" fill="#A4A4A4"/>
<path d="M95.2686 16.6362C95.2686 16.2822 95.2686 15.8819 95.2686 15.461C96.0573 15.461 96.8267 15.461 97.6111 15.461C97.6111 18.7971 97.6111 22.1234 97.6111 25.4752C96.8388 25.4752 96.0689 25.4752 95.2729 25.4752C95.2729 25.0598 95.2729 24.6505 95.2729 24.1634C94.7707 24.8558 94.1619 25.2809 93.432 25.5335C91.6135 26.1639 89.3892 25.4412 88.1353 23.8124C86.0648 21.1231 86.9686 17.0346 89.9604 15.6596C91.3276 15.0311 92.7324 14.9327 94.0868 15.7046C94.5205 15.9518 94.8828 16.3271 95.2686 16.6362ZM92.5852 23.6527C93.5622 23.6217 94.466 23.0338 94.9815 21.8774C95.3141 21.1316 95.3662 20.3482 95.156 19.5623C94.8507 18.4205 94.1565 17.6195 92.9813 17.3535C91.8473 17.0972 90.8527 17.4008 90.1028 18.3173C89.4655 19.0959 89.2917 20.0117 89.4092 20.9986C89.5921 22.5358 90.803 23.6527 92.5852 23.6527Z" fill="black"/>
<path d="M72.838 16.6187C72.838 16.2707 72.838 15.8692 72.838 15.4532C73.623 15.4532 74.3857 15.4532 75.1653 15.4532C75.1653 18.7959 75.1653 22.1308 75.1653 25.4826C74.3984 25.4826 73.6352 25.4826 72.844 25.4826C72.844 25.0739 72.844 24.6742 72.844 24.2522C72.7883 24.2722 72.7568 24.2734 72.7429 24.2904C71.6216 25.6508 70.1721 25.9909 68.5202 25.6168C65.8809 25.0192 64.3829 22.5328 64.6058 20.0264C64.7863 17.9997 65.7537 16.4602 67.6376 15.6142C68.9151 15.0402 70.2429 14.9534 71.518 15.6378C71.9942 15.8923 72.397 16.2846 72.838 16.6187ZM72.8652 20.4825C72.8065 20.1351 72.7774 19.7798 72.6847 19.4421C72.3376 18.1819 71.2897 17.3353 70.0346 17.274C68.7588 17.212 67.6679 17.9177 67.1899 19.1245C66.9307 19.7792 66.8786 20.4558 66.9979 21.1505C67.3129 22.9853 69.0484 24.0718 70.7899 23.5179C72.0142 23.1286 72.8174 21.934 72.8652 20.4825Z" fill="black"/>
<path d="M85.868 25.4825C85.0739 25.4825 84.3112 25.4825 83.528 25.4825C83.528 25.1533 83.5304 24.8406 83.5274 24.5278C83.5116 22.8589 83.5013 21.1899 83.4716 19.521C83.4668 19.2526 83.3977 18.9799 83.3214 18.7199C83.0924 17.9389 82.609 17.4014 81.7767 17.286C80.8954 17.164 80.1042 17.3565 79.5421 18.115C79.0636 18.7618 78.9418 19.518 78.9376 20.2978C78.9303 21.9066 78.9351 23.5154 78.9351 25.1248C78.9351 25.2353 78.9351 25.3459 78.9351 25.4783C78.1501 25.4783 77.3802 25.4783 76.5957 25.4783C76.5957 22.1392 76.5957 18.8141 76.5957 15.4641C77.3644 15.4641 78.1337 15.4641 78.9242 15.4641C78.9242 15.8813 78.9242 16.3022 78.9242 16.7243C78.963 16.7218 78.9897 16.7273 78.9957 16.7182C79.8026 15.5412 80.9777 15.1537 82.3304 15.1859C82.7302 15.1956 83.1397 15.2448 83.5237 15.3517C84.8576 15.7228 85.5639 16.6629 85.7669 17.9978C85.8456 18.5153 85.8704 19.0455 85.8741 19.5696C85.8862 21.462 85.8789 23.3538 85.8783 25.2463C85.8801 25.3161 85.8729 25.386 85.868 25.4825Z" fill="black"/>
<path d="M44.4629 25.4703C44.4629 22.3383 44.4629 19.2154 44.4629 16.0713C45.2286 16.0713 45.9979 16.0713 46.7811 16.0713C46.7811 19.2008 46.7811 22.3225 46.7811 25.4703C46.0173 25.4703 45.2564 25.4703 44.4629 25.4703Z" fill="black"/>
<path d="M45.6165 11.6113C46.4422 11.6132 47.094 12.2606 47.1024 13.089C47.1109 13.8973 46.441 14.5708 45.622 14.5781C44.8103 14.5854 44.1427 13.9143 44.1445 13.0938C44.1457 12.2594 44.7915 11.6095 45.6165 11.6113Z" fill="black"/>
</g>
<defs>
<clipPath id="clip0_0_433">
<rect width="120" height="30" fill="white" transform="translate(0 5)"/>
</clipPath>
</defs>
</svg>
