<svg width="101" height="37" viewBox="0 0 101 37" fill="none" xmlns="http://www.w3.org/2000/svg">
<g clip-path="url(#clip0_0_786)">
<path d="M0 36.7235C0 24.4534 0 12.238 0 0C12.5198 0 25.0166 0 37.5531 0C37.569 0.102427 37.5993 0.206417 37.5993 0.310408C37.6017 12.3053 37.6009 24.2994 37.6057 36.2942C37.6057 36.6179 37.5061 36.7305 37.1589 36.7305C24.9154 36.7219 12.6711 36.7235 0.427654 36.7235C0.297845 36.7235 0.168035 36.7235 0 36.7235ZM18.777 32.85C23.5879 32.85 28.3988 32.8524 33.2097 32.8367C33.3498 32.836 33.6118 32.6444 33.6118 32.5412C33.6302 23.1078 33.627 13.6736 33.6333 4.24015C33.6333 3.90785 33.5219 3.79917 33.1842 3.79917C23.595 3.80542 14.0067 3.80621 4.4175 3.79839C4.02727 3.79839 3.91658 3.93443 3.91737 4.30036C3.92454 13.6626 3.92454 23.0241 3.91658 32.3864C3.91658 32.7492 4.0432 32.8555 4.40316 32.8547C9.19496 32.8469 13.986 32.85 18.777 32.85Z" fill="black"/>
<path d="M68.8667 15.2597C68.8667 14.7538 68.8882 14.3816 68.8611 14.0126C68.8317 13.6045 68.9894 13.4567 69.4075 13.4653C70.4021 13.4864 71.3984 13.4786 72.3939 13.4692C72.7172 13.4661 72.8422 13.5966 72.8422 13.9125C72.8374 18.6296 72.843 23.3467 72.8223 28.0638C72.8215 28.2006 72.5675 28.4508 72.4249 28.4548C71.3777 28.4884 70.3281 28.4884 69.2808 28.4548C69.1391 28.4501 68.9145 28.2139 68.8874 28.0576C68.8269 27.7174 68.8691 27.3593 68.8691 26.9535C68.4056 27.2757 68.048 27.5783 67.6427 27.7964C65.8923 28.7409 64.0208 28.8465 62.1214 28.4055C60.1225 27.9403 58.7034 26.7073 57.7772 24.9324C57.0891 23.6133 56.8374 22.1911 56.8828 20.7149C56.9473 18.6015 57.5717 16.6937 59.1374 15.1854C60.7803 13.6029 62.7943 13.1025 65.0489 13.3769C66.4927 13.5536 67.7454 14.1002 68.8667 15.2597ZM68.8755 20.9714C68.9256 20.9534 68.9758 20.9362 69.026 20.9182C68.7815 20.141 68.635 19.3153 68.2734 18.5944C67.1473 16.3504 63.5533 15.9532 61.9191 17.879C60.7755 19.2262 60.6887 20.8064 61.0726 22.4444C61.7678 25.4078 65.1707 25.8143 67.0239 24.6642C68.3961 23.8135 68.8651 22.4937 68.8755 20.9714Z" fill="black"/>
<path d="M89.6167 14.8298C90.0555 14.5327 90.4346 14.2247 90.859 13.9979C92.1977 13.2848 93.6535 13.1394 95.13 13.3364C96.8828 13.5702 98.3505 14.3498 99.3986 15.7916C100.185 16.8729 100.586 18.0895 100.593 19.4117C100.61 22.2984 100.598 25.1843 100.602 28.071C100.603 28.3588 100.486 28.4807 100.185 28.4776C99.1692 28.4675 98.1538 28.4635 97.1385 28.4784C96.7928 28.4839 96.6869 28.3447 96.6877 28.0249C96.6941 25.3798 96.7092 22.7339 96.6829 20.0888C96.671 18.9277 96.3811 17.8323 95.3562 17.1059C93.6416 15.8909 90.3493 16.3264 89.764 19.1458C89.6366 19.7596 89.5848 20.3969 89.5792 21.0247C89.5585 23.3571 89.5665 25.6902 89.5761 28.0226C89.5777 28.347 89.4678 28.4823 89.1277 28.4784C88.1123 28.4667 87.0969 28.469 86.0816 28.4761C85.7598 28.4784 85.6276 28.3439 85.6276 28.0296C85.6308 21.6635 85.6308 15.2982 85.6268 8.93211C85.6268 8.62561 85.7511 8.49504 86.0648 8.4966C87.1065 8.50364 88.149 8.48644 89.1898 8.51615C89.3196 8.52006 89.5514 8.7515 89.553 8.87973C89.5769 10.7492 89.5689 12.6195 89.5721 14.4897C89.5729 14.5984 89.6 14.7071 89.6167 14.8298Z" fill="black"/>
<path d="M41.3933 18.9364C41.3933 15.9262 41.3989 12.9167 41.387 9.9065C41.3854 9.51478 41.5192 9.38733 41.9197 9.38968C44.1098 9.40453 46.299 9.39593 48.489 9.3975C49.854 9.39828 51.1911 9.55231 52.4414 10.134C53.984 10.8518 55.0273 12.0105 55.5338 13.6142C56.0116 15.1271 55.9909 16.6518 55.5091 18.1538C55.0329 19.6386 54.086 20.7668 52.6668 21.4932C51.4547 22.1132 50.1574 22.3345 48.8012 22.3095C47.8193 22.2915 46.8366 22.322 45.8554 22.2985C45.462 22.2892 45.3577 22.4307 45.3601 22.7966C45.3744 24.5293 45.3601 26.2627 45.3712 27.9953C45.3736 28.3503 45.2398 28.4825 44.8799 28.4778C43.8916 28.4637 42.9025 28.4629 41.9142 28.4778C41.5327 28.4832 41.3854 28.3527 41.387 27.9656C41.3981 24.9569 41.3933 21.9467 41.3933 18.9364ZM45.3673 15.8816C45.3673 16.8848 45.3529 17.8887 45.384 18.8911C45.388 19.0248 45.6189 19.2578 45.7527 19.2633C46.5873 19.2977 47.4291 19.3352 48.2589 19.2633C48.9478 19.2031 49.6717 19.0999 50.2944 18.827C51.3894 18.3461 51.7168 17.332 51.8497 16.2327C52.1094 14.0966 50.7802 12.5641 48.5973 12.5281C47.6417 12.5125 46.6861 12.5102 45.7312 12.5391C45.6062 12.543 45.3864 12.7658 45.3824 12.8917C45.3537 13.8878 45.3665 14.8855 45.3673 15.8816Z" fill="black"/>
<path d="M76.4468 20.4562C76.4468 19.3225 76.4532 18.1888 76.4348 17.0558C76.4332 16.9636 76.2716 16.8048 76.1744 16.7962C75.7985 16.7642 75.4139 16.8166 75.0436 16.7618C74.8946 16.74 74.6669 16.5265 74.6613 16.3928C74.6263 15.5476 74.6271 14.6992 74.6605 13.8532C74.6661 13.7219 74.8859 13.5116 75.0292 13.4904C75.3932 13.4373 75.7722 13.4951 76.1394 13.4553C76.2533 13.4428 76.4348 13.2606 76.4364 13.1527C76.4571 12.0072 76.4396 10.8602 76.4611 9.71472C76.4635 9.6076 76.6594 9.41526 76.7693 9.41292C77.8834 9.39024 78.9992 9.38946 80.1133 9.41604C80.2144 9.41839 80.3904 9.65921 80.3936 9.79213C80.4167 10.886 80.4151 11.9806 80.4016 13.0753C80.3984 13.37 80.4924 13.4803 80.8006 13.4748C81.6766 13.46 82.5526 13.4537 83.4278 13.4881C83.5632 13.4936 83.7973 13.7234 83.8029 13.8571C83.8388 14.6899 83.818 15.5241 83.8252 16.3576C83.8276 16.6547 83.7209 16.7923 83.392 16.7861C82.5096 16.7704 81.6264 16.7689 80.7448 16.7962C80.6286 16.8002 80.4223 17.0034 80.4215 17.116C80.4024 19.2201 80.4008 21.3249 80.4111 23.429C80.4167 24.6127 80.9837 25.1491 82.1966 25.1585C82.6283 25.1616 83.0615 25.1366 83.4891 25.1757C83.6118 25.1866 83.8133 25.3743 83.8164 25.4861C83.8435 26.3649 83.8459 27.2453 83.8156 28.1234C83.8117 28.243 83.5855 28.458 83.4653 28.4557C82.3726 28.4346 81.276 28.4221 80.1905 28.3157C78.3214 28.132 76.8298 26.7144 76.6291 24.8786C76.4691 23.4125 76.442 21.9324 76.356 20.4594C76.3863 20.4594 76.4165 20.4578 76.4468 20.4562Z" fill="black"/>
<path d="M7.26066 15.7156C7.26066 13.7671 7.26623 11.8194 7.25588 9.87095C7.25429 9.52067 7.37295 9.38384 7.74247 9.39088C8.74431 9.40964 9.74694 9.40651 10.7488 9.39166C11.0809 9.38697 11.1932 9.51363 11.1932 9.82873C11.19 13.445 11.1653 17.0612 11.2187 20.6766C11.2306 21.489 11.4233 22.3334 11.7084 23.0997C12.1449 24.2748 13.1571 24.8315 14.3835 24.9645C15.7548 25.113 17.0545 24.9387 17.9839 23.7854C18.6823 22.9191 18.8774 21.8776 18.8806 20.8064C18.8934 17.1777 18.891 13.5482 18.8774 9.91943C18.8758 9.50503 19.0064 9.37838 19.4253 9.38932C20.4264 9.41591 21.4298 9.38306 22.4309 9.41511C22.5694 9.41981 22.8163 9.65672 22.8171 9.78651C22.8378 13.4935 22.872 17.2011 22.8179 20.9081C22.7844 23.1739 22.1601 25.2624 20.3635 26.848C19.149 27.92 17.6908 28.4266 16.0821 28.5744C14.1509 28.7519 12.289 28.5643 10.5943 27.5525C9.34 26.8035 8.47832 25.719 7.93121 24.3874C7.38012 23.0457 7.2519 21.6399 7.25827 20.2114C7.26623 18.7125 7.26066 17.2144 7.26066 15.7156Z" fill="black"/>
<path d="M25.8533 20.9715C25.8533 18.6196 25.8581 16.2669 25.8469 13.915C25.8454 13.5796 25.9712 13.4647 26.3009 13.4678C27.3099 13.478 28.3181 13.478 29.3271 13.4686C29.668 13.4654 29.8081 13.5788 29.8073 13.9361C29.7978 18.6337 29.7986 23.332 29.8065 28.0296C29.8073 28.3673 29.668 28.4792 29.3446 28.476C28.3229 28.4682 27.3003 28.4666 26.2786 28.4784C25.956 28.4823 25.8485 28.3541 25.8501 28.0476C25.8565 25.6886 25.8533 23.3297 25.8533 20.9715Z" fill="black"/>
<path d="M25.4188 9.43403C25.4212 8.04228 26.4031 7.0876 27.8294 7.08838C29.208 7.08917 30.2353 8.09701 30.2329 9.4442C30.2297 10.7797 29.204 11.7461 27.8 11.7344C26.3808 11.7234 25.4164 10.7914 25.4188 9.43403Z" fill="black"/>
</g>
<defs>
<clipPath id="clip0_0_786">
<rect width="101" height="37" fill="white"/>
</clipPath>
</defs>
</svg>
