<svg width="1120" height="65" viewBox="0 0 1120 65" fill="none" xmlns="http://www.w3.org/2000/svg">
<path d="M331.702 38.1583C340.515 38.1583 347.659 31.0141 347.659 22.2012C347.659 13.3884 340.515 6.24414 331.702 6.24414C322.889 6.24414 315.745 13.3884 315.745 22.2012C315.745 31.0141 322.889 38.1583 331.702 38.1583Z" stroke="black" stroke-width="1.38757"/>
<path d="M331.701 28.4452C335.15 28.4452 337.946 25.6496 337.946 22.2011C337.946 18.7526 335.15 15.957 331.701 15.957C328.253 15.957 325.457 18.7526 325.457 22.2011C325.457 25.6496 328.253 28.4452 331.701 28.4452Z" stroke="black" stroke-width="1.38757"/>
<path d="M346.271 15.957H332.395" stroke="black" stroke-width="1.38757" stroke-linecap="round"/>
<path d="M331.358 37.8727L337.72 23.9321" stroke="black" stroke-width="1.38757" stroke-linecap="round"/>
<path d="M318.773 12.7422L326.151 24.9763" stroke="black" stroke-width="1.38757" stroke-linecap="round"/>
<path d="M420.846 13.7515L412.645 5.55029M420.846 13.7515V35.7455C420.846 36.9808 419.845 37.9822 418.609 37.9822H398.852C397.617 37.9822 396.615 36.9808 396.615 35.7455V7.78697C396.615 6.55169 397.617 5.55029 398.852 5.55029H412.645M420.846 13.7515H414.882C413.646 13.7515 412.645 12.7501 412.645 11.5148V5.55029" stroke="black" stroke-width="1.38757"/>
<path d="M402.58 18.2246H414.882" stroke="black" stroke-width="1.38757"/>
<path d="M402.58 21.207H414.882" stroke="black" stroke-width="1.38757"/>
<path d="M402.58 24.1895H414.882" stroke="black" stroke-width="1.38757"/>
<path d="M402.58 27.1714H409.29" stroke="black" stroke-width="1.38757"/>
<path d="M476.793 15.2037V10.3519C476.793 9.6158 477.39 9.01904 478.126 9.01904H499.049C499.785 9.01904 500.382 9.6158 500.382 10.3519V34.7438C500.382 35.48 499.785 36.0767 499.049 36.0767H478.126C477.39 36.0767 476.793 35.48 476.793 34.7438V28.9607" stroke="black" stroke-width="1.38757"/>
<mask id="mask0_0_798" style="mask-type:alpha" maskUnits="userSpaceOnUse" x="467" y="12" width="19" height="20">
<path d="M483.129 14.3232H469.8C469.064 14.3232 468.467 14.92 468.467 15.6562V28.3187C468.467 29.0549 469.064 29.6516 469.8 29.6516H483.129C483.865 29.6516 484.462 29.0549 484.462 28.3187V15.6562C484.462 14.92 483.865 14.3232 483.129 14.3232Z" stroke="black" stroke-width="2.77515"/>
</mask>
<g mask="url(#mask0_0_798)">
<path d="M483.129 14.3232H469.8C469.064 14.3232 468.467 14.92 468.467 15.6562V28.3187C468.467 29.0549 469.064 29.6516 469.8 29.6516H483.129C483.865 29.6516 484.462 29.0549 484.462 28.3187V15.6562C484.462 14.92 483.865 14.3232 483.129 14.3232Z" stroke="black" stroke-width="2.77515"/>
</g>
<path d="M479.308 26.3601C478.828 26.3601 478.348 26.3601 477.867 26.3601C477.862 26.3562 477.858 26.3523 477.853 26.3484C477.77 26.0766 477.685 25.805 477.603 25.5326C477.12 23.9162 476.639 22.2995 476.156 20.6828C476.151 20.6663 476.145 20.6501 476.136 20.6261C476.025 20.981 475.915 21.3293 475.806 21.6775C475.326 23.2091 474.845 24.7407 474.367 26.2732C474.346 26.3418 474.318 26.3646 474.246 26.364C473.817 26.3601 473.388 26.3622 472.959 26.3619C472.932 26.3619 472.905 26.3598 472.878 26.3586C472.875 26.355 472.872 26.3517 472.868 26.3481C472.764 25.8173 472.66 25.2865 472.554 24.7557C472.467 24.319 472.377 23.8829 472.291 23.4459C472.074 22.3429 471.86 21.2393 471.644 20.1364C471.512 19.4644 471.379 18.793 471.247 18.1213C471.244 18.1042 471.244 18.0866 471.242 18.0692C471.243 18.0593 471.244 18.0497 471.245 18.0398C471.728 18.0398 472.211 18.0398 472.705 18.0398C473.084 19.9679 473.464 21.8963 473.843 23.825C473.848 23.8256 473.853 23.8259 473.858 23.8265C473.88 23.7552 473.902 23.6842 473.924 23.6125C474.464 21.8337 475.004 20.0548 475.542 18.2754C475.56 18.2181 475.585 18.2002 475.644 18.2008C476.022 18.2046 476.399 18.2037 476.777 18.2043C476.782 18.2082 476.787 18.2121 476.791 18.216C476.869 18.4792 476.949 18.7421 477.025 19.0058C477.485 20.5979 477.944 22.1904 478.404 23.7825C478.408 23.7966 478.412 23.811 478.429 23.8277C478.452 23.7162 478.477 23.605 478.499 23.4932C478.654 22.7062 478.808 21.9194 478.963 21.1323C479.162 20.1154 479.36 19.0984 479.561 18.0821C479.565 18.0641 479.599 18.0398 479.618 18.0395C480.06 18.0377 480.501 18.0389 480.942 18.0395C480.947 18.0434 480.951 18.0473 480.955 18.0512C480.911 18.2874 480.867 18.5242 480.821 18.76C480.695 19.4053 480.568 20.0506 480.441 20.6959C480.287 21.4761 480.134 22.2563 479.98 23.0365C479.766 24.1212 479.552 25.2059 479.338 26.2903C479.334 26.3097 479.328 26.3286 479.323 26.3478C479.318 26.3526 479.313 26.3562 479.308 26.3601Z" fill="black"/>
<path d="M500.381 16.6509H483.73" stroke="black" stroke-width="1.38757"/>
<path d="M500.381 22.2012H483.73" stroke="black" stroke-width="1.38757"/>
<path d="M500.381 27.7515H483.73" stroke="black" stroke-width="1.38757"/>
<path d="M577.478 24.9761V10.3646C577.478 9.62145 576.876 9.01904 576.133 9.01904H555.277C554.534 9.01904 553.932 9.62145 553.932 10.3646V15.2631" stroke="black" stroke-width="1.38757"/>
<path d="M577.153 16.9526H562.016" stroke="black" stroke-width="1.38757"/>
<path d="M569.459 29.1389V9.71289" stroke="black" stroke-width="1.38757"/>
<path d="M561.133 29.1389V9.71289" stroke="black" stroke-width="1.38757"/>
<path d="M577.153 24.6509H562.016" stroke="black" stroke-width="1.38757"/>
<path d="M552.26 30.1902V35.5723C552.26 36.3154 552.862 36.9178 553.605 36.9178H577.825C578.568 36.9178 579.17 36.3154 579.17 35.5723V25.4808C579.17 24.7377 578.568 24.1353 577.825 24.1353H577.488" stroke="black" stroke-width="1.38757"/>
<path d="M565.379 30.5266L578.834 24.4717" stroke="black" stroke-width="1.38757"/>
<path d="M578.836 36.5816L561.134 28.4458" stroke="black" stroke-width="1.38757"/>
<mask id="mask1_0_798" style="mask-type:alpha" maskUnits="userSpaceOnUse" x="544" y="13" width="20" height="19">
<path d="M560.67 15.0527H547.215C546.472 15.0527 545.869 15.6551 545.869 16.3983V29.1807C545.869 29.9238 546.472 30.5262 547.215 30.5262H560.67C561.413 30.5262 562.015 29.9238 562.015 29.1807V16.3983C562.015 15.6551 561.413 15.0527 560.67 15.0527Z" stroke="black" stroke-width="2.77515"/>
</mask>
<g mask="url(#mask1_0_798)">
<path d="M560.67 15.0527H547.215C546.472 15.0527 545.869 15.6551 545.869 16.3983V29.1807C545.869 29.9238 546.472 30.5262 547.215 30.5262H560.67C561.413 30.5262 562.015 29.9238 562.015 29.1807V16.3983C562.015 15.6551 561.413 15.0527 560.67 15.0527Z" stroke="black" stroke-width="2.77515"/>
</g>
<path d="M558.004 22.6511C557.977 24.2544 557.522 25.5324 556.275 26.4132C554.324 27.7929 550.584 27.2722 549.989 23.67C549.762 22.2975 549.973 21.0026 550.866 19.9071C551.972 18.5516 553.457 18.2278 555.085 18.6371C556.677 19.0368 557.547 20.1767 557.894 21.7405C557.969 22.0787 557.979 22.4315 558.004 22.6511ZM556.248 22.84C556.261 22.1813 556.085 21.4732 555.788 20.9881C554.958 19.6334 553.12 19.568 552.213 20.8613C551.48 21.9044 551.487 23.7119 552.227 24.7501C553.063 25.9216 554.726 25.9684 555.617 24.8398C556.078 24.2553 556.23 23.5666 556.248 22.84Z" fill="black"/>
<path d="M633.68 14.4449C633.68 12.2147 635.488 10.4067 637.718 10.4067H641.756V18.4831H637.718C635.488 18.4831 633.68 16.6751 633.68 14.4449Z" stroke="black" stroke-width="1.38757"/>
<path d="M633.68 22.5572C633.68 20.327 635.488 18.519 637.718 18.519H641.756V26.5954H637.718C635.488 26.5954 633.68 24.7874 633.68 22.5572Z" stroke="black" stroke-width="1.38757"/>
<path d="M633.68 31.3448C633.68 29.1145 635.488 27.3066 637.718 27.3066H641.756V31.5574C641.756 33.6702 640.044 35.383 637.931 35.383H637.718C635.488 35.383 633.68 33.575 633.68 31.3448Z" stroke="black" stroke-width="1.38757"/>
<path d="M641.791 10.4067H645.83C648.06 10.4067 649.868 12.2147 649.868 14.4449C649.868 16.6751 648.06 18.4831 645.83 18.4831H641.791V10.4067Z" stroke="black" stroke-width="1.38757"/>
<path d="M641.791 22.5572C641.791 20.327 643.599 18.519 645.83 18.519C648.06 18.519 649.868 20.327 649.868 22.5572C649.868 24.7874 648.06 26.5954 645.83 26.5954C643.599 26.5954 641.791 24.7874 641.791 22.5572Z" stroke="black" stroke-width="1.38757"/>
<path d="M645.153 18.839L642.787 20.1909C642.674 20.5289 642.043 22.6245 641.773 22.8949C641.502 23.1653 641.885 20.0783 642.111 18.501L645.153 18.839Z" fill="black"/>
<path d="M710.885 22.8949C710.885 25.3576 711.955 27.5116 713.715 29.0673C714.666 30.0652 714.663 31.5925 713.709 32.5882C712.617 33.5978 710.927 33.594 709.839 32.5767C707.173 30.0841 705.53 26.6626 705.53 22.8949C705.53 19.1281 707.173 15.7043 709.742 13.2091C710.835 12.192 712.531 12.1934 713.621 13.2132C714.686 14.2091 714.687 15.7193 713.623 16.7158C711.931 18.2735 710.885 20.4305 710.885 22.8949Z" stroke="black" stroke-width="1.38757"/>
<path d="M719.405 14.3786C716.972 14.3786 714.793 15.4188 713.233 17.1855C712.235 18.136 710.706 18.1351 709.71 17.2019C708.702 16.1086 708.707 14.4185 709.724 13.3306C712.216 10.6636 715.638 9.01904 719.405 9.01904C723.172 9.01904 726.596 10.6631 729.091 13.2344C730.108 14.3274 730.107 16.0249 729.087 17.1163C728.091 18.1817 726.581 18.1823 725.584 17.1181C724.026 15.4244 721.845 14.3786 719.405 14.3786Z" stroke="black" stroke-width="1.38757"/>
<path d="M719.406 31.4112C721.838 31.4112 724.018 30.3711 725.578 28.6043C726.576 27.6538 728.105 27.6547 729.101 28.5879C730.108 29.6813 730.104 31.3713 729.087 32.4592C726.594 35.1262 723.173 36.7708 719.406 36.7708C715.639 36.7708 712.215 35.1267 709.72 32.5554C708.703 31.4624 708.704 29.7649 709.724 28.6736C710.72 27.6081 712.23 27.6075 713.226 28.6717C714.785 30.3654 716.966 31.4112 719.406 31.4112Z" stroke="black" stroke-width="1.38757"/>
<path d="M793.369 23.619L790.535 20.7845M793.369 23.619L799.038 15.1156L790.535 20.7845M793.369 23.619L784.866 29.288L790.535 20.7845M805.982 22.2018C805.982 29.9503 799.7 36.2317 791.952 36.2317C784.203 36.2317 777.922 29.9503 777.922 22.2018C777.922 14.4533 784.203 8.17188 791.952 8.17188C799.7 8.17188 805.982 14.4533 805.982 22.2018Z" stroke="black" stroke-width="1.38757" stroke-linejoin="round"/>
</svg>
