<svg width="122" height="40" viewBox="0 0 122 40" fill="none" xmlns="http://www.w3.org/2000/svg">
<g clip-path="url(#clip0_0_406)">
<path d="M9.7883 14.4352C9.7883 20.4594 9.7883 26.4381 9.7883 32.4646C11.3285 32.4646 12.8234 32.4646 14.3804 32.4646C14.3923 32.2035 14.4138 31.9834 14.4138 31.7655C14.4162 28.6353 14.3923 25.5052 14.4329 22.3774C14.4425 21.6964 14.5786 20.986 14.815 20.3413C15.4836 18.5141 17.2555 17.3769 19.0942 17.5018C20.9831 17.6289 21.9956 18.4823 22.4493 20.3845C22.5663 20.8747 22.6284 21.39 22.6308 21.8939C22.6499 25.1738 22.6428 28.456 22.6499 31.736C22.6499 31.972 22.6857 32.2104 22.7048 32.4555C24.2642 32.4555 25.7591 32.4555 27.3184 32.4555C27.3184 32.2126 27.3184 32.0288 27.3184 31.8449C27.3184 28.2813 27.3327 24.7176 27.3041 21.1539C27.2993 20.4276 27.2038 19.6853 27.0271 18.9772C26.3322 16.1943 24.5579 14.3875 21.5109 13.979C18.822 13.6181 16.0496 14.4511 14.5022 17.0546C14.4544 17.1363 14.3541 17.1885 14.1416 17.3746C14.1416 16.2942 14.1416 15.3681 14.1416 14.4375C12.6395 14.4352 11.2378 14.4352 9.7883 14.4352ZM48.9725 14.4284C48.9439 14.5941 48.9128 14.6849 48.9128 14.7757C48.9463 18.8069 48.9272 22.8404 49.0394 26.8717C49.1206 29.7725 51.1599 32.1309 53.9443 32.8005C57.149 33.57 60.048 32.4941 61.7195 29.9201C61.7816 29.8225 61.8819 29.7453 62.1374 29.4775C62.1374 30.6124 62.1374 31.5317 62.1374 32.4623C63.649 32.4623 65.0269 32.4623 66.4358 32.4623C66.4358 26.4336 66.4358 20.4526 66.4358 14.4534C64.9099 14.4534 63.4365 14.4534 61.8962 14.4534C61.8962 14.7552 61.8962 14.9981 61.8962 15.2387C61.8962 18.1804 61.9058 21.1199 61.8915 24.0616C61.8843 25.3804 61.6455 26.656 60.7906 27.7478C59.6611 29.1892 58.1137 29.6568 56.3108 29.2891C54.7729 28.9758 54.0828 27.8727 53.801 26.5085C53.684 25.941 53.598 25.3554 53.5957 24.7766C53.5765 21.5534 53.5861 18.328 53.5837 15.1048C53.5837 14.8892 53.5503 14.6713 53.5312 14.4307C51.9838 14.4284 50.5032 14.4284 48.9725 14.4284ZM89.8952 32.4646C89.8952 27.7229 89.8952 23.0266 89.8952 18.2372C91.7292 18.2372 93.4652 18.2372 95.2061 18.2372C95.2061 16.9116 95.2061 15.6836 95.2061 14.4397C90.0695 14.4397 84.9903 14.4397 79.8896 14.4397C79.8896 15.7222 79.8896 16.9525 79.8896 18.2758C81.6782 18.2758 83.4119 18.2758 85.2267 18.2758C85.2267 23.0538 85.2267 27.7365 85.2267 32.4623C86.8028 32.4646 88.2977 32.4646 89.8952 32.4646ZM45.3357 14.4329C40.1753 14.4329 35.0984 14.4329 29.9882 14.4329C29.9882 15.7199 29.9882 16.9615 29.9882 18.2599C31.5403 18.2599 33.0304 18.2917 34.5181 18.2463C35.2035 18.2236 35.4017 18.4256 35.3993 19.0725C35.373 23.274 35.385 27.4755 35.3898 31.6792C35.3898 31.9334 35.4208 32.1899 35.4399 32.451C36.9801 32.451 38.4535 32.451 40.0129 32.451C40.0129 27.7093 40.0129 23.0288 40.0129 18.2508C41.8349 18.2508 43.5686 18.2508 45.338 18.2508C45.3357 16.932 45.3357 15.7154 45.3357 14.4329ZM4.58013 32.4646C4.58013 26.4404 4.58013 20.4616 4.58013 14.4375C3.0375 14.4375 1.54263 14.4375 0 14.4375C0 20.4616 0 26.4404 0 32.4646C1.54263 32.4646 3.0375 32.4646 4.58013 32.4646ZM76.2265 32.4646C76.2265 26.4404 76.2265 20.4594 76.2265 14.4375C74.6838 14.4375 73.189 14.4375 71.6487 14.4375C71.6487 20.4639 71.6487 26.4427 71.6487 32.4646C73.1914 32.4646 74.6862 32.4646 76.2265 32.4646ZM87.598 11.8181C89.1979 11.8112 90.3848 10.6899 90.3871 9.17823C90.3895 7.68467 89.0929 6.4635 87.5431 6.49981C86.0124 6.53613 84.816 7.70964 84.8136 9.17596C84.8136 10.6922 86.0076 11.8249 87.598 11.8181ZM40.4642 9.18277C40.469 7.70283 39.2439 6.52024 37.6941 6.50889C36.216 6.49754 34.936 7.71872 34.9313 9.14418C34.9265 10.6741 36.1252 11.8135 37.7443 11.8181C39.2798 11.8203 40.4594 10.6763 40.4642 9.18277Z" fill="black"/>
<path d="M9.78906 14.4352C11.2386 14.4352 12.6403 14.4352 14.1423 14.4352C14.1423 15.3658 14.1423 16.2942 14.1423 17.3723C14.3549 17.1862 14.4552 17.1317 14.5029 17.0523C16.0479 14.4488 18.8228 13.6135 21.5116 13.9767C24.5563 14.3852 26.3329 16.192 27.0278 18.9749C27.2045 19.683 27.2977 20.423 27.3048 21.1516C27.3335 24.7153 27.3168 28.279 27.3192 31.8426C27.3192 32.0265 27.3192 32.2126 27.3192 32.4532C25.7598 32.4532 24.265 32.4532 22.7056 32.4532C22.6865 32.2058 22.6531 31.9697 22.6507 31.7337C22.6435 28.4537 22.6507 25.1715 22.6316 21.8916C22.6292 21.3877 22.5671 20.8747 22.4501 20.3822C21.9964 18.48 20.9839 17.6266 19.095 17.4995C17.2563 17.3769 15.4844 18.5141 14.8157 20.339C14.5793 20.9837 14.4432 21.6941 14.4337 22.3751C14.3931 25.5052 14.417 28.6353 14.4146 31.7632C14.4146 31.9833 14.3931 32.2012 14.3811 32.4623C12.8266 32.4623 11.3293 32.4623 9.78906 32.4623C9.78906 26.4381 9.78906 20.4593 9.78906 14.4352Z" fill="black"/>
<path d="M48.9718 14.4282C50.5025 14.4282 51.983 14.4282 53.5304 14.4282C53.5496 14.6688 53.583 14.8845 53.583 15.1024C53.5854 18.3255 53.5758 21.551 53.5949 24.7742C53.5973 25.353 53.6833 25.9363 53.8003 26.5061C54.0821 27.8702 54.7722 28.9734 56.31 29.2866C58.113 29.6543 59.6604 29.1868 60.7899 27.7454C61.6448 26.6536 61.8836 25.378 61.8907 24.0592C61.9075 21.1175 61.8955 18.178 61.8955 15.2363C61.8955 14.9957 61.8955 14.7528 61.8955 14.4509C63.4358 14.4509 64.9091 14.4509 66.4351 14.4509C66.4351 20.4501 66.4351 26.4289 66.4351 32.4599C65.0261 32.4599 63.6483 32.4599 62.1367 32.4599C62.1367 31.5315 62.1367 30.61 62.1367 29.475C61.8812 29.7429 61.7833 29.82 61.7188 29.9176C60.0472 32.4939 57.1482 33.5698 53.9436 32.7981C51.1592 32.1285 49.1175 29.7701 49.0387 26.8692C48.9264 22.838 48.9455 18.8045 48.9121 14.7732C48.9121 14.6847 48.9432 14.5939 48.9718 14.4282Z" fill="black"/>
<path d="M89.8943 32.4645C88.2967 32.4645 86.8019 32.4645 85.2258 32.4645C85.2258 27.7386 85.2258 23.056 85.2258 18.2779C83.4109 18.2779 81.6749 18.2779 79.8887 18.2779C79.8887 16.9523 79.8887 15.7244 79.8887 14.4419C84.9894 14.4419 90.0686 14.4419 95.2051 14.4419C95.2051 15.6835 95.2051 16.9138 95.2051 18.2393C93.4667 18.2393 91.7306 18.2393 89.8943 18.2393C89.8943 23.0265 89.8943 27.7228 89.8943 32.4645Z" fill="black"/>
<path d="M45.3362 14.4328C45.3362 15.7152 45.3362 16.9319 45.3362 18.2461C43.5667 18.2461 41.8307 18.2461 40.011 18.2461C40.011 23.0241 40.011 27.7045 40.011 32.4463C38.4517 32.4463 36.9807 32.4463 35.4381 32.4463C35.4214 32.1852 35.3879 31.931 35.3879 31.6745C35.3855 27.473 35.3736 23.2693 35.3975 19.0678C35.4022 18.4232 35.2017 18.2211 34.5163 18.2416C33.0286 18.2892 31.5409 18.2552 29.9863 18.2552C29.9863 16.9568 29.9863 15.7152 29.9863 14.4282C35.099 14.4328 40.1782 14.4328 45.3362 14.4328Z" fill="black"/>
<path d="M4.58013 32.4646C3.0375 32.4646 1.54263 32.4646 0 32.4646C0 26.4404 0 20.4617 0 14.4375C1.54263 14.4375 3.0375 14.4375 4.58013 14.4375C4.58013 20.4617 4.58013 26.4404 4.58013 32.4646Z" fill="black"/>
<path d="M76.2262 32.4646C74.6859 32.4646 73.1911 32.4646 71.6484 32.4646C71.6484 26.4427 71.6484 20.4639 71.6484 14.4375C73.1887 14.4375 74.6835 14.4375 76.2262 14.4375C76.2262 20.4594 76.2262 26.4382 76.2262 32.4646Z" fill="black"/>
<path d="M87.5984 11.8182C86.0104 11.825 84.8164 10.6924 84.8164 9.1784C84.8164 7.71208 86.0128 6.5363 87.5459 6.50226C89.0957 6.46594 90.3923 7.68485 90.3899 9.1784C90.3828 10.6901 89.1983 11.8114 87.5984 11.8182Z" fill="black"/>
<path d="M40.4642 9.18275C40.4594 10.6763 39.2773 11.8203 37.7466 11.818C36.13 11.8158 34.9288 10.674 34.9336 9.14416C34.9384 7.7187 36.2183 6.49752 37.6965 6.50887C39.2463 6.52022 40.4713 7.70281 40.4642 9.18275Z" fill="black"/>
</g>
<defs>
<clipPath id="clip0_0_406">
<rect width="97" height="27" fill="white" transform="translate(0 6.5)"/>
</clipPath>
</defs>
</svg>
