<svg width="144" height="56" viewBox="0 0 144 56" fill="none" xmlns="http://www.w3.org/2000/svg">
<path fill-rule="evenodd" clip-rule="evenodd" d="M19.3431 19.1856C17.8459 20.1337 17.5737 21.9688 18.7358 23.2798C20.0164 24.7247 22.4229 24.0293 22.9316 22.0674C23.2091 20.9969 22.6074 19.6649 21.6023 19.1251C21.0212 18.8131 19.8831 18.8436 19.3431 19.1856ZM27.8176 20.2918C26.8204 20.6684 26.1385 21.6745 26.1385 22.7696C26.1385 24.447 27.6592 25.7036 29.1759 25.2794C31.9038 24.5166 31.6265 20.5754 28.8184 20.2015C28.509 20.1603 28.0585 20.2009 27.8176 20.2918ZM35.4829 29.4465V35.7445L36.9065 35.7012L38.33 35.6577L38.37 33.1181L38.41 30.5783H40.8156H43.2211V33.1614V35.7445L44.6447 35.7012L46.0683 35.6577L46.1063 29.4032L46.1445 23.1486H44.6828H43.2211V25.4988V27.849H40.812H38.403V25.4988V23.1486H36.943H35.4829V29.4465ZM73.5903 25.2871V27.4255L73.0918 26.971C72.4037 26.3437 71.6836 26.1282 70.5818 26.22C68.2365 26.4156 66.8797 28.4314 67.049 31.4691C67.1967 34.1164 68.7347 35.8852 70.8892 35.8852C71.7009 35.8852 72.685 35.5161 73.1762 35.0275L73.5692 34.6364L73.6162 35.1471L73.6633 35.6577H75.0503H76.4373L76.4755 29.4032L76.5136 23.1486H75.0519H73.5903V25.2871ZM87.7527 29.4468V35.745L89.1033 35.7014L90.4539 35.6577L90.527 32.5345C90.6017 29.3173 90.6279 29.1805 91.257 28.6499C91.5219 28.4264 92.4875 28.3987 92.8571 28.604C93.3414 28.873 93.4469 29.6115 93.4469 32.7237V35.7336H94.8452H96.2435L96.1958 31.9808C96.1488 28.3057 96.1403 28.214 95.7831 27.5458C94.9222 25.9367 92.3158 25.6714 90.9282 27.0515L90.527 27.4508V25.2998V23.1486H89.1395H87.7527V29.4468ZM107.644 29.4032L107.683 35.6577H109.069H110.456L110.499 34.4321C110.539 33.234 110.553 33.1936 111.098 32.6404L111.657 32.0745L112.674 33.8662L113.692 35.6577L115.249 35.7009C116.357 35.7314 116.808 35.6929 116.808 35.5682C116.808 35.4716 116.12 34.2542 115.281 32.8629C114.441 31.4716 113.715 30.2273 113.667 30.0976C113.609 29.9387 114.081 29.3004 115.119 28.1353L116.658 26.4086L115.09 26.3643L113.522 26.32L112.864 27.0467C112.501 27.4463 111.828 28.2168 111.368 28.7588L110.531 29.7444L110.53 26.4465L110.529 23.1486H109.068H107.606L107.644 29.4032ZM18.3147 25.0432L17.9504 25.4215L17.9929 30.1944C18.0448 36.0323 17.881 35.6302 20.2391 35.7098C21.8975 35.7658 22.5312 35.6106 22.8038 35.0818C22.8964 34.9021 22.9929 33.3855 23.0362 31.4256C23.0856 29.2014 23.1655 28.0391 23.2739 27.9651C23.581 27.7559 24.5433 27.8486 25.0859 28.1397C26.0098 28.6353 26.0574 28.8123 26.1385 32.0528C26.2329 35.8209 26.1165 35.6577 28.7106 35.6577C31.2831 35.6577 31.1027 36.0186 31.1027 30.8682V26.7947L30.7303 26.5412C30.2176 26.1924 28.7537 26.1906 26.9204 26.5364C25.111 26.8777 24.2637 26.7452 22.9793 25.9202C21.2043 24.7799 20.9091 24.6649 19.7559 24.6649C18.8025 24.6649 18.6373 24.7083 18.3147 25.0432ZM50.2313 26.2634C48.6937 26.7111 47.6987 27.6547 47.4 28.9483L47.3038 29.3653H48.5936H49.8833L50.1236 28.842C50.3068 28.443 50.4991 28.2811 50.9339 28.1594C52.048 27.8479 52.7972 28.2551 52.9539 29.2575L53.0377 29.794L52.1811 29.8975C48.9958 30.2826 47.3362 31.19 47.0939 32.6788C46.8036 34.4632 48.1954 35.8817 50.2393 35.8843C51.1821 35.8855 52.3017 35.5045 52.7201 35.0402L53.0765 34.6446L53.1495 35.1512L53.2225 35.6577H54.521H55.8194L55.7869 34.2173C55.7692 33.4251 55.7426 31.8558 55.728 30.73C55.7058 29.0136 55.6523 28.572 55.3969 27.9957C55.0359 27.1817 54.3707 26.559 53.6195 26.3319C52.6639 26.0431 51.0966 26.0113 50.2313 26.2634ZM100.635 26.2549C99.6138 26.5534 99.1618 26.8117 98.6013 27.4192C98.1701 27.8854 97.6811 28.8372 97.6811 29.2088C97.6811 29.3045 98.1793 29.3653 98.9632 29.3653H100.245L100.412 28.9078C100.726 28.0411 102.171 27.7615 102.919 28.4225C103.082 28.5658 103.257 28.9332 103.309 29.2389L103.403 29.7947L102.55 29.8974C100.356 30.1613 99.0748 30.5765 98.2632 31.2858C96.9619 32.4227 97.1706 34.4725 98.6806 35.3946C99.2781 35.7592 99.5106 35.8093 100.601 35.808C101.896 35.8067 102.478 35.6098 103.193 34.9313L103.522 34.6193V35.1765V35.7336H104.818H106.115L106.055 32.2841C106.022 30.3869 105.928 28.5752 105.845 28.258C105.655 27.5245 104.784 26.6146 104.031 26.3631C103.099 26.0518 101.503 26.001 100.635 26.2549ZM120.331 26.193C118.836 26.498 117.622 27.4807 116.973 28.9105C116.456 30.0508 116.436 31.9476 116.93 33.0802C117.362 34.0716 118.275 35.0247 119.203 35.4529C120.284 35.9522 122.414 35.956 123.451 35.4605C124.483 34.967 125.527 33.8831 125.778 33.0422C125.878 32.7069 125.859 32.7011 124.647 32.7011C123.677 32.7011 123.371 32.7548 123.214 32.952C122.433 33.9296 120.184 33.7631 119.648 32.6882C119.196 31.7803 119.129 31.801 122.685 31.7563L125.933 31.7155L125.901 30.7989C125.819 28.4892 124.579 26.8054 122.557 26.2583C121.63 26.0077 121.288 25.9977 120.331 26.193ZM61.3988 26.4664C61.0776 26.6195 60.6834 26.8988 60.5227 27.0869L60.2308 27.4291L60.1578 26.9189L60.0848 26.4086H58.6977H57.3107V31.0332V35.6577H58.6977H60.0848L60.1578 32.5494C60.2331 29.3417 60.3089 28.9289 60.8815 28.6106C61.2356 28.4138 62.1392 28.41 62.4882 28.604C62.9722 28.873 63.0778 29.6115 63.0778 32.7237V35.7336H64.4742H65.8708L65.8248 32.0567C65.7803 28.4851 65.7685 28.3581 65.4139 27.6216C65.1345 27.0414 64.8962 26.7834 64.3975 26.5223C63.5718 26.0899 62.2402 26.065 61.3988 26.4664ZM79.9534 26.4482C78.5173 26.9449 77.678 28.2677 77.9668 29.5811C78.2371 30.8121 79.1295 31.5046 80.9182 31.8705C83.3268 32.3634 83.5208 32.4219 83.6648 32.7011C83.8719 33.1033 83.7095 33.4134 83.1928 33.6002C82.0871 34.0006 80.6125 33.614 80.3831 32.8632C80.296 32.5789 80.1721 32.5494 79.064 32.5494C78.3918 32.5494 77.8113 32.6008 77.7735 32.6636C77.7366 32.7263 77.7905 33.0334 77.8944 33.3462C78.3988 34.872 79.67 35.7166 81.6543 35.8447C84.5411 36.0312 86.4383 34.7744 86.4383 32.6756C86.4383 31.2174 85.4674 30.4676 82.9141 29.9554C80.9228 29.5559 80.5987 29.4185 80.5987 28.9732C80.5987 28.4876 80.9998 28.3039 82.0601 28.3039C82.8617 28.3039 83.0034 28.3521 83.3953 28.7588C83.8073 29.1871 83.9004 29.2137 84.9815 29.2137C85.6129 29.2137 86.1627 29.1579 86.2035 29.0896C86.2443 29.0214 86.1211 28.6164 85.9309 28.1896C85.5551 27.3471 84.9245 26.8147 83.8288 26.4145C82.9787 26.104 80.8967 26.1221 79.9534 26.4482ZM122.276 28.5382C122.719 28.7565 122.941 29.0561 123.141 29.7065C123.216 29.9498 123.066 29.9718 121.329 29.9718C120.105 29.9718 119.436 29.9155 119.436 29.8126C119.436 29.4257 119.899 28.7838 120.341 28.5576C120.951 28.2451 121.667 28.2379 122.276 28.5382ZM72.9312 28.7843C73.4826 29.2346 73.7363 29.9433 73.7363 31.0332C73.7363 32.6222 73.2053 33.4391 72.0873 33.5699C70.7618 33.725 69.9401 32.7508 69.9401 31.0243C69.9401 29.9038 70.2556 29.1353 70.8775 28.7415C71.4948 28.3506 72.4241 28.3698 72.9312 28.7843ZM53.0035 32.1021C53.0035 33.1147 52.2295 33.9141 51.2491 33.9141C50.1306 33.9141 49.5311 32.9782 50.2293 32.3222C50.5731 31.999 51.6816 31.6644 52.456 31.6498C52.9711 31.6403 53.0035 31.667 53.0035 32.1021ZM103.375 32.0236C103.375 32.672 102.984 33.4263 102.518 33.6766C101.592 34.1741 100.308 33.8027 100.311 33.0383C100.315 32.5293 100.425 32.348 100.894 32.0909C101.386 31.8197 102.009 31.6738 102.755 31.6551C103.325 31.6409 103.375 31.6706 103.375 32.0236Z" fill="black"/>
</svg>
