<svg width="67" height="68" viewBox="0 0 67 68" fill="none" xmlns="http://www.w3.org/2000/svg">
<g clip-path="url(#clip0_0_1062)">
<path d="M33.5008 67.5962C52.0023 67.5962 67.0008 52.5977 67.0008 34.0962C67.0008 15.5947 52.0023 0.596214 33.5008 0.596214C14.9993 0.596214 0.000799091 15.5947 0.000799091 34.0962C0.000799091 52.5977 14.9993 67.5962 33.5008 67.5962Z" fill="#EB7A65"/>
<path fill-rule="evenodd" clip-rule="evenodd" d="M47.3063 41.2173L51.7825 22.7494H49.0161H45.5575H42.8301L47.3063 41.2173Z" fill="white"/>
<path fill-rule="evenodd" clip-rule="evenodd" d="M31.8541 22.7494H29.0877L35.3127 48.4324H38.079H41.5376H44.304L38.079 22.7494H35.3127H31.8541Z" fill="white"/>
<path fill-rule="evenodd" clip-rule="evenodd" d="M24.3365 22.7496H18.1115L18.1117 22.7501H15.3453L21.5702 48.4331H27.7952L27.795 48.4326H30.5614L24.3365 22.7496Z" fill="white"/>
</g>
<defs>
<clipPath id="clip0_0_1062">
<rect width="66.5276" height="67.3389" fill="white" transform="scale(1.0071)"/>
</clipPath>
</defs>
</svg>
