<svg width="122" height="40" viewBox="0 0 122 40" fill="none" xmlns="http://www.w3.org/2000/svg">
<g clip-path="url(#clip0_0_393)">
<path fill-rule="evenodd" clip-rule="evenodd" d="M9.51311 9.08501C7.44868 9.39492 5.39418 10.2609 3.88834 11.4555C1.02 13.7312 -0.507791 17.5991 0.152479 20.9131C0.453285 22.4226 0.79846 23.2177 1.10393 23.1044C1.23027 23.0577 4.67329 21.5431 8.75508 19.739C13.7796 17.518 16.3762 16.2935 16.795 15.9472C17.6397 15.2491 18.005 14.5089 18.005 13.4957C18.005 12.1616 17.2292 11.0658 15.5685 10.0537C14.2613 9.25696 11.4077 8.80051 9.51311 9.08501ZM73.1697 12.5989L73.1277 14.5232L72.0373 14.5659L70.9469 14.6086V15.4735V16.3385H72.0657H73.1844L73.2314 20.0781C73.2822 24.1459 73.3099 24.2883 74.2293 25.2371C74.8876 25.9163 76.8069 26.2659 78.2978 25.9779C78.7653 25.8876 78.7678 25.8821 78.7678 24.9613V24.0355H77.6299C76.3196 24.0355 76.0122 23.9161 75.6559 23.2687C75.4361 22.8695 75.3973 22.3336 75.3912 19.6061L75.3838 16.4111L76.9254 16.3697L78.467 16.3283V15.4671V14.6059L76.9254 14.5645L75.3838 14.5232L75.3418 12.5989L75.2999 10.6747H74.2558H73.2117L73.1697 12.5989ZM80.4907 11.0312C79.9614 11.5421 79.9747 12.43 80.5178 12.8425C81.5759 13.6461 82.9775 12.6638 82.4644 11.4782C82.0937 10.6214 81.1389 10.4051 80.4907 11.0312ZM30.6697 14.5724C27.4924 15.6639 26.0749 19.8848 27.7409 23.2931C29.1536 26.1828 33.3588 27.0988 36.3214 25.1622C36.9987 24.7197 37.5376 24.0374 37.9288 23.1278L38.1631 22.5832H36.9946C35.8359 22.5832 35.8243 22.587 35.6223 23.0273C35.5104 23.2716 35.1434 23.6475 34.807 23.8624C34.3043 24.1836 33.9923 24.2616 33.0563 24.2995C32.0497 24.3403 31.8212 24.2981 31.0908 23.9365C30.1159 23.4537 29.493 22.5966 29.3419 21.5303L29.2443 20.8405H33.7187H38.1932L38.1285 19.3519C38.0784 18.198 37.9882 17.712 37.7269 17.1901C37.2145 16.1662 36.4763 15.4256 35.4256 14.881C34.5539 14.4292 34.3483 14.3842 32.9701 14.3434C31.7916 14.3085 31.2937 14.358 30.6697 14.5724ZM43.6143 14.6096C43.0232 14.892 42.3926 15.4753 41.9656 16.1346C41.8152 16.3668 41.7849 16.2656 41.7776 15.5034L41.7687 14.5958H40.6407H39.5126V20.2596V25.9234H40.6274H41.7421L41.7931 22.2565C41.843 18.6521 41.8507 18.5757 42.2383 17.7775C42.7648 16.6934 43.3639 16.2906 44.5447 16.2267C45.7103 16.1636 46.317 16.5006 46.7798 17.4679C47.0866 18.1091 47.1112 18.4069 47.1566 22.0386L47.205 25.9234H48.3111H49.4171L49.4657 22.1112C49.5117 18.5064 49.5325 18.2665 49.8462 17.7001C50.2256 17.0154 50.9445 16.3802 51.4894 16.2482C51.6944 16.1985 52.2095 16.1901 52.6341 16.2294C53.2778 16.2893 53.4873 16.3864 53.8934 16.8144C54.1613 17.0967 54.4528 17.5789 54.5411 17.886C54.6357 18.2148 54.702 19.9814 54.7025 22.1839L54.7034 25.9234H55.8413H56.9793L56.9317 21.5303C56.8856 17.2579 56.8743 17.1162 56.5244 16.3684C56.1092 15.4811 55.2611 14.716 54.4239 14.4739C53.423 14.1844 51.8707 14.2631 51.0174 14.6467C50.2432 14.9949 49.3934 15.7917 49.214 16.3378C49.1246 16.6093 49.055 16.5534 48.6366 15.8754C47.9642 14.7854 46.971 14.3053 45.3891 14.3055C44.5364 14.3055 44.0905 14.382 43.6143 14.6096ZM62.5243 14.6151C61.3694 15.0486 60.4003 15.7682 59.7652 16.6639C58.9067 17.8748 58.7116 18.5329 58.6997 20.2596C58.6898 21.6812 58.7212 21.8501 59.1651 22.7546C60.1048 24.67 61.7069 25.8029 63.9076 26.108C66.1014 26.4121 68.4263 25.5242 69.6495 23.9151C71.9722 20.8601 70.9379 16.4798 67.5093 14.8499C66.6115 14.4232 66.3772 14.3771 64.9366 14.3425C63.6132 14.311 63.215 14.356 62.5243 14.6151ZM98.6004 14.5329C96.2969 15.2178 94.861 17.383 94.861 20.1717C94.861 22.2809 95.4742 23.7998 96.7705 24.9016C97.798 25.7749 98.8572 26.114 100.576 26.1198C102.299 26.1257 103.336 25.7906 104.403 24.8836C105.026 24.3541 105.84 23.136 105.84 22.7333C105.84 22.6434 105.404 22.5854 104.75 22.5888L103.66 22.5943L103.24 23.1791C102.517 24.1881 100.912 24.5958 99.3314 24.172C98.2208 23.8742 97.2652 22.6978 97.0675 21.3851L96.9856 20.8405H101.41H105.835L105.933 20.4615C106.125 19.7245 105.884 18.0068 105.471 17.1634C104.96 16.1217 103.708 15.0063 102.601 14.6061C101.606 14.2468 99.6812 14.2115 98.6004 14.5329ZM80.2719 20.2596V25.9234H81.3247H82.3775V20.2596V14.5958H81.3247H80.2719V20.2596ZM83.4288 14.6986C83.4279 14.7619 84.593 17.3134 86.0177 20.3685L88.6083 25.9234H89.3735H90.1389L92.6755 20.5138C94.0704 17.5383 95.2722 14.987 95.3459 14.844C95.4699 14.603 95.3895 14.5869 94.2585 14.6261L93.0372 14.6684L91.2481 18.644C90.2642 20.8305 89.4313 22.6463 89.3973 22.6791C89.3633 22.7119 88.5285 20.9229 87.5424 18.7035L85.7491 14.6684L84.5898 14.626C83.9521 14.6026 83.4296 14.6353 83.4288 14.6986ZM33.839 16.0567C34.4899 16.2313 35.3678 16.9225 35.6807 17.5065C35.7983 17.726 35.9388 18.1737 35.9931 18.5016L36.0919 19.0978H32.6886C28.8876 19.0978 29.0778 19.1585 29.4564 18.0665C30.0341 16.4005 31.911 15.5397 33.839 16.0567ZM102.017 16.249C103.093 16.7329 103.466 17.2459 103.799 18.6984L103.891 19.0978H100.504H97.117L97.1203 18.6984C97.125 18.1349 97.6004 17.21 98.1339 16.7264C99.0885 15.861 100.71 15.6616 102.017 16.249ZM13.4929 19.2247C9.56365 20.9619 6.13686 22.4912 5.87802 22.6232C3.46315 23.8541 3.11211 26.3395 5.0869 28.2234C5.79831 28.9022 6.61936 29.3543 7.92801 29.7882C9.21486 30.2147 12.4273 30.1796 13.9441 29.7223C17.7554 28.5732 20.3181 26.0936 21.4793 22.4318C21.8705 21.1981 21.9457 18.9267 21.6329 17.7908C21.3703 16.8371 20.9916 16.0467 20.8022 16.0572C20.7114 16.0621 17.4222 17.4875 13.4929 19.2247ZM66.368 16.538C67.9158 17.234 68.7883 18.7629 68.6561 20.5476C68.4923 22.7584 66.958 24.1807 64.7369 24.1807C63.5063 24.1807 62.3598 23.6506 61.6666 22.7611C61.0686 21.9936 60.8718 21.3362 60.8708 20.1013C60.8693 18.4174 62.036 16.7766 63.5477 16.3363C64.3705 16.0967 65.5786 16.1831 66.368 16.538Z" fill="black"/>
</g>
<defs>
<clipPath id="clip0_0_393">
<rect width="106" height="22" fill="white" transform="translate(0 9)"/>
</clipPath>
</defs>
</svg>
