<svg width="144" height="56" viewBox="0 0 144 56" fill="none" xmlns="http://www.w3.org/2000/svg">
<path d="M78.8754 30.9184V34.8027H76.9627C76.8687 34.4843 76.8373 24.929 76.9333 24.2074H78.83C78.8439 24.4582 78.8593 24.709 78.8754 25.0043C78.9409 24.971 79.0033 24.9303 79.0595 24.8827C80.2699 23.5899 82.6038 23.777 83.8265 24.9309C85.5898 26.6019 85.4605 29.67 83.5362 31.1654C82.3435 32.0896 80.2784 32.217 79.0849 31.0477C79.0179 30.9996 78.9478 30.9563 78.8754 30.9184ZM78.8439 27.9604C78.8439 29.1857 79.7394 30.135 80.9344 30.1215C82.3058 30.106 83.0588 29.122 83.0896 27.9604C83.1012 27.6778 83.0542 27.3958 82.9518 27.1314C82.8502 26.867 82.6954 26.6254 82.4967 26.4212C82.2973 26.2171 82.0594 26.0544 81.7953 25.9429C81.5312 25.8314 81.247 25.7733 80.9598 25.7723C79.7509 25.7665 78.8416 26.712 78.8439 27.9604Z" fill="black"/>
<path d="M48.6056 24.2036H50.6807C51.1685 25.7685 51.6603 27.3527 52.1894 29.0488C52.5676 28.1959 52.7969 27.3932 53.079 26.6137C53.3611 25.8341 53.6433 25.0159 53.9294 24.1997H55.3402L57.0664 28.9543H57.1644C57.6425 27.372 58.1226 25.7916 58.6046 24.1997H60.6796C59.8174 26.7082 58.967 29.1916 58.1127 31.6788H56.3708L54.6798 27.1096H54.5897C54.043 28.6243 53.4944 30.139 52.9419 31.6711H51.1999C50.3456 29.2205 49.4835 26.7313 48.6056 24.2036Z" fill="black"/>
<path d="M86.5234 21.2087C87.0423 21.2087 87.5421 21.2087 88.0395 21.2087C88.1611 21.2087 88.2828 21.2261 88.4553 21.2396V24.9405C88.5246 24.9148 88.5908 24.8798 88.6509 24.8363C89.772 23.6188 92.0035 23.7924 93.1577 24.7784C94.2611 25.7201 94.7038 26.901 94.5937 28.3231C94.4898 29.6641 93.8907 30.7254 92.7088 31.3969C91.6 32.0279 90.4226 32.1167 89.2584 31.4991C88.9581 31.3083 88.6732 31.0947 88.406 30.8605C88.3844 31.1576 88.3652 31.4085 88.3452 31.6786H86.5157L86.5234 21.2087ZM90.5004 25.7664C90.214 25.7686 89.9306 25.8271 89.6673 25.9383C89.4039 26.0497 89.166 26.2115 88.9673 26.4146C88.7679 26.6176 88.6124 26.8577 88.5084 27.1208C88.4045 27.3839 88.3552 27.6647 88.3629 27.9468C88.3629 29.1509 89.2823 30.1234 90.4596 30.1215C91.9334 30.1215 92.601 28.9637 92.6148 27.9603C92.6187 26.7119 91.7139 25.7703 90.5004 25.7664Z" fill="black"/>
<path d="M73.2213 25.0157V24.2034H75.0592V31.6708H73.233V30.9125C73.0978 31.0109 73.0116 31.063 72.9391 31.1267C71.6184 32.2941 69.3788 32.0471 68.2501 30.9607C67.8536 30.5867 67.538 30.1374 67.3224 29.6399C67.1069 29.1425 66.996 28.6072 66.9961 28.0664C66.9439 27.0884 67.2421 26.1235 67.8387 25.3399C69.0731 23.7364 71.6929 23.5242 73.0096 24.8382C73.0429 24.8807 73.0998 24.9135 73.2213 25.0157ZM73.2369 27.9544C73.2471 27.6727 73.2002 27.3917 73.0989 27.128C72.9976 26.8643 72.844 26.623 72.6469 26.4184C72.45 26.2138 72.2135 26.0499 71.9515 25.9363C71.6894 25.8227 71.407 25.7616 71.1207 25.7567C69.8138 25.7161 68.9399 26.8681 68.9536 27.9024C68.9732 29.1682 69.8765 30.133 71.0952 30.1311C71.3818 30.1293 71.6652 30.0714 71.9287 29.9605C72.1922 29.8497 72.4307 29.6882 72.6301 29.4856C72.8296 29.2829 72.986 29.0431 73.0901 28.7802C73.1943 28.5173 73.2442 28.2366 73.2369 27.9544Z" fill="black"/>
<path d="M118.295 27.258L121.881 31.696H119.451L116.933 28.4968L116.394 28.9792V31.6806H114.472V21.2415H116.402V26.7505C116.939 26.2585 117.396 25.8455 117.848 25.4287C118.226 25.0815 118.594 24.7226 118.98 24.3848C119.087 24.2817 119.224 24.2141 119.372 24.1919C120.108 24.1726 120.844 24.1919 121.692 24.1919L118.295 27.258Z" fill="black"/>
<path d="M103.823 27.9257C103.884 30.3087 101.887 31.8504 99.8884 31.9121C97.4922 31.9874 95.6542 30.2295 95.6111 28.0163C95.5949 27.4792 95.6904 26.9445 95.8914 26.4449C96.0916 25.9454 96.3942 25.4915 96.7792 25.1108C97.1642 24.7303 97.6246 24.4311 98.1313 24.2316C98.638 24.0322 99.18 23.9365 99.726 23.9507C102.326 23.9584 103.884 25.9401 103.823 27.9257ZM101.846 27.9372C101.832 27.5243 101.694 27.1248 101.45 26.7888C101.206 26.4527 100.866 26.1951 100.474 26.0483C100.082 25.9015 99.6544 25.872 99.2455 25.9635C98.8366 26.055 98.4639 26.2635 98.1744 26.5627C97.8857 26.8619 97.6924 27.2386 97.6193 27.6455C97.5469 28.0523 97.5977 28.4713 97.7663 28.8497C97.9342 29.2283 98.2122 29.5494 98.5648 29.7729C98.9175 29.9963 99.3302 30.1122 99.7491 30.1061C100.319 30.0909 100.859 29.8542 101.252 29.4478C101.645 29.0413 101.859 28.4982 101.846 27.9372Z" fill="black"/>
<path d="M108.946 31.8988C108.079 31.9387 107.223 31.6956 106.51 31.2071C105.798 30.7186 105.27 30.012 105.007 29.1973C104.353 26.8934 105.483 24.8654 107.464 24.2017C109.526 23.5108 111.775 24.2383 112.684 26.2759C113.734 28.6416 112.462 31.4106 109.649 31.8717C109.415 31.8943 109.181 31.9034 108.946 31.8988ZM106.802 27.9393C106.802 29.1684 107.745 30.1197 108.943 30.1061C109.511 30.0775 110.046 29.8338 110.435 29.426C110.825 29.0181 111.039 28.4778 111.033 27.9179C111.027 27.3581 110.802 26.8222 110.404 26.4223C110.006 26.0224 109.466 25.7895 108.899 25.7723C108.616 25.7778 108.337 25.8384 108.079 25.9505C107.82 26.0626 107.587 26.224 107.392 26.4255C107.196 26.6269 107.044 26.8645 106.943 27.1243C106.841 27.3841 106.794 27.6611 106.802 27.9393Z" fill="black"/>
<path d="M61.7561 31.6692V24.2036H63.5842V25.016L63.6665 25.0739C63.861 24.7545 64.1309 24.4859 64.4533 24.2911C64.7756 24.0963 65.1409 23.9809 65.5182 23.9548C65.907 23.9271 66.2961 24.0052 66.6429 24.1805C66.5939 24.7594 66.543 25.3382 66.492 25.9518C66.1941 25.9133 65.9317 25.8592 65.6691 25.8496C64.7011 25.811 64.0525 26.2779 63.8174 27.2003C63.7412 27.5164 63.7025 27.8402 63.7018 28.1651C63.6881 29.3228 63.7018 30.4806 63.7018 31.6672L61.7561 31.6692Z" fill="black"/>
<path d="M30.7343 34.2219C30.2351 34.1957 29.7379 34.1409 29.2451 34.0579C28.6591 33.9368 28.1102 33.6815 27.6429 33.3128C27.1755 32.944 26.8028 32.4722 26.5548 31.9354C25.681 30.1795 24.8227 28.4139 23.9547 26.6541C23.4766 25.6855 22.9966 24.7168 22.5146 23.7482C22.4172 23.5717 22.362 23.3758 22.3528 23.1753C22.3436 22.9748 22.3808 22.7748 22.4617 22.5904C22.5562 22.3604 22.7189 22.1636 22.9286 22.026C23.1383 21.8883 23.3853 21.816 23.6373 21.8186C24.3407 21.7935 25.0481 21.7896 25.7515 21.8186C26.061 21.8174 26.3641 21.9051 26.6238 22.071C26.8834 22.2369 27.0882 22.4737 27.2133 22.7525C28.5731 25.5105 29.9349 28.2666 31.2987 31.0208C31.6063 31.644 31.9178 32.2653 32.2157 32.8944C32.5566 33.6083 32.202 34.1602 31.3966 34.1795C31.1772 34.1795 30.9577 34.1795 30.7383 34.1795L30.7343 34.2219Z" fill="black"/>
<path d="M37.7342 34.1812H36.7545C36.4471 34.1971 36.1421 34.12 35.8805 33.9603C35.6188 33.8006 35.4131 33.5659 35.2908 33.2878L30.6136 23.8059C30.4765 23.5299 30.3236 23.2579 30.208 22.9723C29.9886 22.4281 30.2688 21.886 30.8527 21.8377C32.3556 21.7123 33.7919 21.8724 34.991 22.926C35.446 23.3296 35.8162 23.8174 36.0805 24.3616C37.2561 26.7453 38.4317 29.1289 39.6074 31.5126C39.7367 31.775 39.8778 32.0336 39.9993 32.3037C40.4127 33.2512 39.8327 34.1445 38.7805 34.1793C38.4278 34.189 38.083 34.1793 37.7342 34.1812Z" fill="black"/>
<path d="M40.0803 21.7874C40.4564 21.7874 40.8327 21.7874 41.2089 21.7874C41.9927 21.8106 42.3375 22.3663 42.0044 23.0551C41.6262 23.8501 41.2207 24.6335 40.8287 25.4246C40.7697 25.5769 40.6656 25.7081 40.5298 25.8012C40.3941 25.8943 40.2331 25.9452 40.0677 25.947C39.9022 25.9489 39.74 25.9017 39.6021 25.8117C39.4643 25.7216 39.3571 25.5928 39.2945 25.442C38.8929 24.6219 38.4774 23.8115 38.0875 22.9876C38.0187 22.8645 37.984 22.7256 37.987 22.5851C37.9899 22.4446 38.0303 22.3073 38.1042 22.1871C38.178 22.0668 38.2827 21.9678 38.4078 21.9C38.5328 21.8322 38.6737 21.798 38.8164 21.8009C39.2377 21.7739 39.6629 21.8009 40.0861 21.8009L40.0803 21.7874Z" fill="black"/>
</svg>
