<svg width="122" height="40" viewBox="0 0 122 40" fill="none" xmlns="http://www.w3.org/2000/svg">
<g clip-path="url(#clip0_0_485)">
<path d="M106.858 29.2739H104.928V12.0347L104.802 11.9979C102.596 17.861 100.389 23.7273 98.149 29.6888L91.3885 14.1336H91.324V14.5238C91.324 19.3524 91.324 24.179 91.324 29.0035C91.324 29.3108 91.2287 29.4183 90.8938 29.3293V28.9144C90.8938 23.9178 90.8722 18.9181 90.9122 13.9215C90.9024 13.1452 90.6675 12.3884 90.2362 11.7428C89.9288 11.2542 89.5724 10.8025 89.2068 10.2955C89.9197 10.2955 90.6265 10.3201 91.3271 10.2955C91.4834 10.2659 91.6452 10.2962 91.7801 10.3805C91.915 10.4648 92.0133 10.5968 92.0554 10.7503C93.0602 13.1379 94.0957 15.5102 95.1283 17.8856C95.9743 19.8318 96.8215 21.778 97.6696 23.7242C98.026 24.5416 98.3703 25.3652 98.7206 26.1825C98.7797 26.289 98.8455 26.3915 98.9173 26.4898C100.967 21.0569 102.995 15.6854 105.02 10.3078H106.864L106.858 29.2739Z" fill="black"/>
<path d="M62.678 19.9256C63.0068 20.4234 63.3111 20.8843 63.6183 21.3391C64.4266 22.5406 65.2285 23.7422 66.0491 24.9345C66.7651 25.9762 67.4688 27.0302 68.2339 28.0351C68.6451 28.5012 69.0898 28.9366 69.5645 29.3379C68.2554 29.4209 66.931 29.5009 65.9907 28.3485C65.4191 27.651 64.9459 26.8765 64.4541 26.1237C63.3878 24.5165 62.3338 22.9002 61.2768 21.2899C61.0985 21.0165 60.9111 20.7491 60.7544 20.4634C60.7172 20.3821 60.6552 20.3149 60.5773 20.2713C60.4995 20.2276 60.4097 20.2099 60.321 20.2206C59.6204 20.2206 58.9229 20.2206 58.17 20.2206V29.2704H56.2095V10.3134C56.3202 10.3134 56.4369 10.2981 56.5567 10.2981C57.9549 10.2981 59.3562 10.252 60.7544 10.2981C62.2048 10.3595 63.6429 10.5531 64.9612 11.2476C65.553 11.5283 66.0648 11.9531 66.4499 12.483C66.8348 13.0129 67.0806 13.631 67.1645 14.2806C67.3091 15.0354 67.2488 15.8151 66.9899 16.5387C66.731 17.2623 66.283 17.9034 65.6926 18.3953C64.8629 19.0776 63.8984 19.5771 62.8624 19.861C62.8133 19.8703 62.7795 19.8856 62.678 19.9256ZM58.1761 19.9533C59.5866 19.9225 60.9695 20.0669 62.3246 19.7228C63.5139 19.4155 64.3866 18.7456 64.7431 17.5164C65.1103 16.1694 65.1103 14.7487 64.7431 13.4017C64.6257 12.8195 64.349 12.2813 63.9437 11.8473C63.5383 11.4132 63.0204 11.1002 62.4476 10.9434C61.6292 10.7149 60.7795 10.6194 59.9309 10.6607C59.347 10.6607 58.7631 10.6607 58.1669 10.6607L58.1761 19.9533Z" fill="black"/>
<path d="M19.5513 19.7873C19.5513 16.7667 19.5513 13.746 19.5513 10.7253C19.5329 10.3842 19.6374 10.2858 19.9785 10.2858C21.5149 10.3043 23.0268 10.2459 24.5479 10.3043C26.3917 10.375 28.1801 10.7099 29.8026 11.6318C30.7206 12.1421 31.5165 12.8463 32.1347 13.6954C32.753 14.5445 33.1788 15.5181 33.3826 16.5485C33.5252 17.2706 33.6279 17.9999 33.6899 18.7333C33.8396 20.3284 33.6361 21.9367 33.0938 23.4442C32.6274 24.9085 31.7712 26.2183 30.617 27.2331C29.4291 28.2526 27.9771 28.9152 26.4286 29.1444C25.0304 29.3811 23.623 29.255 22.2186 29.2858C21.4811 29.2858 20.7437 29.2704 20.0062 29.2858C19.6589 29.2858 19.5452 29.2028 19.5452 28.8372C19.5575 25.8288 19.5513 22.808 19.5513 19.7873ZM21.6256 10.7191V28.9232C21.7085 28.9232 21.7669 28.9385 21.8284 28.9385L25.7187 28.8648C26.5813 28.8453 27.4257 28.6131 28.177 28.1887C29.4021 27.4967 30.3248 26.3725 30.7645 25.0359C31.2074 23.7494 31.447 22.4016 31.4743 21.0411C31.5481 19.2434 31.5573 17.4396 31.1271 15.6666C30.577 13.3957 29.2679 11.8223 27.0247 11.1248C26.236 10.9036 25.4246 10.7727 24.6063 10.7345C23.623 10.67 22.6335 10.7191 21.6256 10.7191Z" fill="black"/>
<path d="M36.508 19.7779C36.4611 18.1771 36.7413 16.5836 37.3315 15.0948C37.703 14.1336 38.2408 13.2453 38.9202 12.4705C40.0159 11.1945 41.5322 10.353 43.1946 10.0982C45.3948 9.75403 47.466 10.1259 49.2698 11.5363C50.9384 12.8423 51.8388 14.6093 52.3428 16.622C52.6603 17.8846 52.7837 19.1881 52.7085 20.4878C52.6428 22.2049 52.2123 23.8883 51.4455 25.426C50.3546 27.488 48.7075 28.9169 46.4028 29.4208C44.0213 29.9309 41.7657 29.5345 39.8205 27.9888C38.4654 26.9133 37.6326 25.4629 37.1071 23.8311C36.6755 22.5246 36.4728 21.1534 36.508 19.7779ZM50.4375 19.7779H50.5451C50.4098 18.3521 50.3208 16.9201 50.1272 15.5035C50.0035 14.4826 49.654 13.5022 49.1039 12.6334C48.5438 11.6625 47.6422 10.935 46.5749 10.5929C45.7756 10.3092 44.9197 10.2217 44.0796 10.3379C43.5545 10.3982 43.034 10.4936 42.5216 10.6237C40.9852 11.1461 40.0633 12.3076 39.5102 13.7826C38.874 15.4605 38.7665 17.2274 38.7143 18.9882C38.6774 20.1559 38.7911 21.3267 38.8465 22.4944C38.8946 23.5689 39.1017 24.6304 39.461 25.6442C39.9496 27.0147 40.7363 28.1671 42.1221 28.7785C43.2863 29.2685 44.5699 29.4012 45.8097 29.1596C47.509 28.88 48.6614 27.9058 49.402 26.4155C50.1426 24.9251 50.3239 23.2596 50.4344 21.6032C50.4713 21.0072 50.4375 20.3894 50.4375 19.7748V19.7779Z" fill="black"/>
<path d="M82.4756 10.2857V11.6686C79.7438 10.6176 76.9075 10.6668 74.0374 10.7467V19.3294H76.2929C76.3881 19.3294 76.4834 19.2956 76.5786 19.2894C77.8079 19.2403 79.0186 19.1942 80.2385 19.1389C80.6257 19.1204 81.0098 19.0559 81.397 19.0375C81.4615 19.0375 81.5845 19.1573 81.5937 19.2311C81.6151 19.4984 81.5937 19.7657 81.5937 20.0484L74.0251 19.7196V28.834C77.0334 28.9538 80.0265 28.963 82.8966 27.6847C82.875 28.0227 82.8658 28.2717 82.8413 28.5205C82.8167 28.7694 82.7737 28.9999 82.7306 29.2918H82.3619C79.0708 29.2918 75.7766 29.2918 72.4855 29.2918C72.1013 29.2918 72.0184 29.1751 72.0184 28.8094C72.0307 22.7926 72.0307 16.7758 72.0184 10.759C72.0184 10.3964 72.1013 10.2765 72.4855 10.2796C75.6782 10.295 78.8742 10.2796 82.0669 10.2796L82.4756 10.2857Z" fill="black"/>
<path d="M111.133 10.3135H121.489V11.6717C118.803 10.63 115.957 10.6607 113.106 10.7498V19.3541C115.583 19.3786 118.056 19.185 120.598 19.0191V20.0424L113.103 19.7167V28.831C116.089 28.9723 119.049 28.9294 121.931 27.7001C121.87 28.2655 121.818 28.7511 121.763 29.2643H111.133V10.3135Z" fill="black"/>
<path d="M17.2016 29.292C16.5686 29.292 15.954 29.292 15.3579 29.292C15.2995 29.2835 15.2438 29.2619 15.1948 29.2289C15.1459 29.1959 15.105 29.1524 15.0752 29.1015C14.2763 27.2915 13.4895 25.4785 12.6998 23.6685C12.6114 23.5179 12.5393 23.3582 12.4847 23.1922C12.3495 22.5008 11.9132 22.4086 11.277 22.4179C8.92931 22.4609 6.58466 22.4394 4.23694 22.4179C4.1272 22.399 4.01435 22.4195 3.91823 22.4758C3.82212 22.532 3.74891 22.6203 3.71147 22.7251C3.12147 24.1448 2.51609 25.5368 1.9138 26.932C1.60651 27.6726 1.29921 28.4192 0.942752 29.1475C0.893585 29.2521 0.672333 29.2797 0.530979 29.3411L0.481812 29.2644C0.696916 28.7573 0.90895 28.2471 1.12712 27.7432C1.89536 25.9609 2.6636 24.1796 3.43183 22.3994C4.04641 21.0197 4.661 19.6337 5.24793 18.2632C6.05714 16.4072 6.86327 14.5511 7.66633 12.6951C7.71776 12.574 7.73408 12.441 7.71342 12.3111C7.69277 12.1812 7.63599 12.0597 7.54956 11.9606L6.40643 10.3258C6.46853 10.3065 6.53232 10.2931 6.59695 10.2859C7.30987 10.2859 8.02279 10.2705 8.74801 10.2859C8.82465 10.2932 8.89851 10.3184 8.96364 10.3595C9.02875 10.4006 9.08331 10.4565 9.1229 10.5225C9.73749 11.8838 10.3275 13.2574 10.9205 14.6279C11.3631 15.6523 11.8036 16.6694 12.2419 17.6794C12.8565 19.1134 13.4763 20.5474 14.1011 21.9815C14.5958 23.1338 15.0967 24.28 15.5976 25.4293C16.0984 26.5786 16.6331 27.8416 17.1556 29.0308C17.181 29.1158 17.1965 29.2035 17.2016 29.292ZM11.9991 22.0675L8.00128 12.8671C6.65226 15.98 5.34319 19.013 4.00646 22.0675H11.9991Z" fill="black"/>
</g>
<defs>
<clipPath id="clip0_0_485">
<rect width="121.993" height="20.8281" fill="white" transform="translate(0.0032959 9.58594)"/>
</clipPath>
</defs>
</svg>
