<svg width="82" height="83" viewBox="0 0 82 83" fill="none" xmlns="http://www.w3.org/2000/svg">
<g clip-path="url(#clip0_0_988)">
<path d="M41 82.7295C63.6437 82.7295 82 64.3732 82 41.7295C82 19.0858 63.6437 0.729492 41 0.729492C18.3563 0.729492 0 19.0858 0 41.7295C0 64.3732 18.3563 82.7295 41 82.7295Z" fill="white"/>
<path fill-rule="evenodd" clip-rule="evenodd" d="M57.8953 50.4453L63.3736 27.8428H59.9879H55.755H52.417L57.8953 50.4453Z" fill="black"/>
<path fill-rule="evenodd" clip-rule="evenodd" d="M38.9843 27.8428H35.5986L43.2172 59.2758H46.6029H50.8358H54.2215L46.6029 27.8428H43.2172H38.9843Z" fill="black"/>
<path fill-rule="evenodd" clip-rule="evenodd" d="M29.7845 27.8428H22.1659L22.1661 27.8434H18.7803L26.3989 59.2763H34.0175L34.0173 59.2757H37.4031L29.7845 27.8428Z" fill="black"/>
</g>
<defs>
<clipPath id="clip0_0_988">
<rect width="82" height="83" fill="white"/>
</clipPath>
</defs>
</svg>
