<svg width="1239" height="230" viewBox="0 0 1239 230" fill="none" xmlns="http://www.w3.org/2000/svg">
<g clip-path="url(#clip0_0_30)">
<path d="M40.336 23.2348C40.336 28.3138 40.336 33.3545 40.336 38.4354C41.5802 38.4354 42.7878 38.4354 44.0456 38.4354C44.0553 38.2153 44.0727 38.0297 44.0727 37.846C44.0746 35.207 44.0553 32.5679 44.0881 29.9308C44.0958 29.3568 44.2057 28.7578 44.3968 28.2142C44.9369 26.6737 46.3683 25.7149 47.8538 25.8202C49.3797 25.9274 50.1977 26.6469 50.5642 28.2506C50.6587 28.664 50.7089 29.0984 50.7108 29.5232C50.7262 32.2885 50.7204 35.0557 50.7262 37.8211C50.7262 38.0201 50.7551 38.221 50.7706 38.4277C52.0303 38.4277 53.2379 38.4277 54.4976 38.4277C54.4976 38.223 54.4976 38.0679 54.4976 37.9129C54.4976 34.9084 54.5092 31.9039 54.4861 28.8994C54.4822 28.287 54.405 27.6612 54.2623 27.0641C53.7009 24.7179 52.2676 23.1946 49.806 22.8502C47.6338 22.5459 45.3941 23.2482 44.144 25.4432C44.1054 25.5121 44.0244 25.5561 43.8527 25.713C43.8527 24.8021 43.8527 24.0213 43.8527 23.2367C42.6393 23.2348 41.5069 23.2348 40.336 23.2348ZM71.991 23.2291C71.9678 23.3687 71.9428 23.4453 71.9428 23.5219C71.9697 26.9206 71.9543 30.3212 72.045 33.72C72.1106 36.1657 73.758 38.1541 76.0074 38.7186C78.596 39.3674 80.9381 38.4603 82.289 36.2901C82.3386 36.2078 82.42 36.1427 82.6261 35.917C82.6261 36.8738 82.6261 37.6488 82.6261 38.4334C83.8476 38.4334 84.9605 38.4334 86.099 38.4334C86.099 33.3506 86.099 28.308 86.099 23.2501C84.866 23.2501 83.6755 23.2501 82.4316 23.2501C82.4316 23.5046 82.4316 23.7094 82.4316 23.9122C82.4316 26.3924 82.4394 28.8707 82.4277 31.3508C82.4215 32.4627 82.2286 33.5382 81.538 34.4587C80.6258 35.6739 79.3757 36.0681 77.9194 35.7581C76.6768 35.494 76.1193 34.5639 75.8917 33.4138C75.7971 32.9354 75.7277 32.4417 75.7257 31.9536C75.7103 29.2362 75.7181 26.5168 75.7161 23.7993C75.7161 23.6175 75.6891 23.4338 75.6736 23.2309C74.4236 23.2291 73.2275 23.2291 71.991 23.2291ZM105.051 38.4354C105.051 34.4377 105.051 30.4782 105.051 26.4402C106.532 26.4402 107.934 26.4402 109.341 26.4402C109.341 25.3226 109.341 24.2874 109.341 23.2386C105.191 23.2386 101.088 23.2386 96.9671 23.2386C96.9671 24.3198 96.9671 25.3571 96.9671 26.4728C98.4126 26.4728 99.813 26.4728 101.279 26.4728C101.279 30.5012 101.279 34.4491 101.279 38.4334C102.552 38.4354 103.759 38.4354 105.051 38.4354ZM69.0529 23.2329C64.8841 23.2329 60.7828 23.2329 56.6544 23.2329C56.6544 24.318 56.6544 25.3647 56.6544 26.4594C57.9083 26.4594 59.1121 26.4862 60.3139 26.4479C60.8676 26.4287 61.0277 26.5991 61.0258 27.1445C61.0046 30.6868 61.0143 34.229 61.0181 37.7732C61.0181 37.9876 61.0432 38.2038 61.0586 38.4239C62.3029 38.4239 63.4932 38.4239 64.7529 38.4239C64.7529 34.4261 64.7529 30.4801 64.7529 26.4518C66.2248 26.4518 67.6253 26.4518 69.0548 26.4518C69.0529 25.3398 69.0529 24.3141 69.0529 23.2329ZM36.1285 38.4354C36.1285 33.3564 36.1285 28.3157 36.1285 23.2367C34.8823 23.2367 33.6746 23.2367 32.4284 23.2367C32.4284 28.3157 32.4284 33.3564 32.4284 38.4354C33.6746 38.4354 34.8823 38.4354 36.1285 38.4354ZM94.0081 38.4354C94.0081 33.3564 94.0081 28.3138 94.0081 23.2367C92.7619 23.2367 91.5544 23.2367 90.3097 23.2367C90.3097 28.3176 90.3097 33.3583 90.3097 38.4354C91.5559 38.4354 92.7634 38.4354 94.0081 38.4354ZM103.194 21.0283C104.487 21.0226 105.446 20.0772 105.447 18.8026C105.45 17.5434 104.402 16.5138 103.15 16.5445C101.913 16.5751 100.947 17.5645 100.945 18.8007C100.945 20.0791 101.909 21.034 103.194 21.0283ZM65.1175 18.8065C65.1213 17.5587 64.1317 16.5617 62.8797 16.5521C61.6856 16.5426 60.6515 17.5721 60.6477 18.7739C60.6439 20.0638 61.6123 21.0244 62.9202 21.0283C64.1606 21.0302 65.1137 20.0657 65.1175 18.8065Z" fill="black"/>
<path d="M40.3342 23.2349C41.5051 23.2349 42.6375 23.2349 43.8509 23.2349C43.8509 24.0195 43.8509 24.8022 43.8509 25.7112C44.0227 25.5543 44.1036 25.5083 44.1422 25.4414C45.3904 23.2463 47.632 22.5421 49.8042 22.8483C52.2639 23.1928 53.6991 24.7161 54.2605 27.0623C54.4032 27.6594 54.4785 28.2832 54.4843 28.8976C54.5075 31.902 54.4939 34.9065 54.4958 37.9111C54.4958 38.0661 54.4958 38.223 54.4958 38.4259C53.2361 38.4259 52.0285 38.4259 50.7688 38.4259C50.7533 38.2173 50.7264 38.0183 50.7244 37.8192C50.7186 35.054 50.7244 32.2867 50.709 29.5214C50.7071 29.0965 50.6569 28.6641 50.5624 28.2488C50.1959 26.6451 49.3779 25.9255 47.852 25.8184C46.3666 25.715 44.9351 26.6738 44.395 28.2124C44.2039 28.7559 44.094 29.3549 44.0863 29.929C44.0535 32.568 44.0728 35.207 44.0709 37.8441C44.0709 38.0297 44.0535 38.2135 44.0438 38.4335C42.788 38.4335 41.5784 38.4335 40.3342 38.4335C40.3342 33.3546 40.3342 28.3138 40.3342 23.2349Z" fill="black"/>
<path d="M71.9912 23.2291C73.2278 23.2291 74.4238 23.2291 75.674 23.2291C75.6894 23.4319 75.7163 23.6138 75.7163 23.7974C75.7183 26.5149 75.7106 29.2343 75.726 31.9518C75.728 32.4398 75.7974 32.9316 75.8919 33.4119C76.1196 34.5621 76.6771 35.4921 77.9196 35.7563C79.3758 36.0663 80.626 35.672 81.5382 34.4568C82.2295 33.5363 82.4217 32.4608 82.4279 31.349C82.4411 28.8688 82.4318 26.3905 82.4318 23.9104C82.4318 23.7075 82.4318 23.5028 82.4318 23.2483C83.6757 23.2483 84.8661 23.2483 86.0992 23.2483C86.0992 28.3061 86.0992 33.3469 86.0992 38.4316C84.9607 38.4316 83.8477 38.4316 82.6263 38.4316C82.6263 37.6489 82.6263 36.8719 82.6263 35.9151C82.4201 36.1409 82.3411 36.2059 82.2892 36.2883C80.9383 38.4603 78.5962 39.3674 76.0077 38.7168C73.7583 38.1522 72.1089 36.1639 72.0452 33.7181C71.9545 30.3194 71.97 26.9187 71.943 23.52C71.943 23.4454 71.9681 23.3688 71.9912 23.2291Z" fill="black"/>
<path d="M105.05 38.4353C103.759 38.4353 102.551 38.4353 101.278 38.4353C101.278 34.451 101.278 30.503 101.278 26.4746C99.8123 26.4746 98.4095 26.4746 96.9664 26.4746C96.9664 25.3571 96.9664 24.3217 96.9664 23.2405C101.087 23.2405 105.19 23.2405 109.34 23.2405C109.34 24.2873 109.34 25.3245 109.34 26.4421C107.935 26.4421 106.533 26.4421 105.05 26.4421C105.05 30.4781 105.05 34.4376 105.05 38.4353Z" fill="black"/>
<path d="M69.0544 23.2329C69.0544 24.3142 69.0544 25.3399 69.0544 26.4479C67.6248 26.4479 66.2224 26.4479 64.7524 26.4479C64.7524 30.4763 64.7524 34.4224 64.7524 38.4201C63.4926 38.4201 62.3043 38.4201 61.0581 38.4201C61.0446 38.2001 61.0176 37.9857 61.0176 37.7695C61.0157 34.2272 61.0061 30.683 61.0254 27.1407C61.0292 26.5972 60.8671 26.4269 60.3135 26.4441C59.1116 26.4843 57.9098 26.4556 56.6539 26.4556C56.6539 25.361 56.6539 24.3142 56.6539 23.2291C60.7842 23.2329 64.8875 23.2329 69.0544 23.2329Z" fill="black"/>
<path d="M36.1285 38.4354C34.8823 38.4354 33.6746 38.4354 32.4284 38.4354C32.4284 33.3564 32.4284 28.3157 32.4284 23.2367C33.6746 23.2367 34.8823 23.2367 36.1285 23.2367C36.1285 28.3157 36.1285 33.3564 36.1285 38.4354Z" fill="black"/>
<path d="M94.0085 38.4354C92.7638 38.4354 91.5564 38.4354 90.3101 38.4354C90.3101 33.3583 90.3101 28.3176 90.3101 23.2367C91.5548 23.2367 92.7623 23.2367 94.0085 23.2367C94.0085 28.3138 94.0085 33.3545 94.0085 38.4354Z" fill="black"/>
<path d="M103.193 21.0283C101.911 21.0341 100.946 20.0791 100.946 18.8027C100.946 17.5664 101.912 16.5751 103.151 16.5464C104.403 16.5158 105.45 17.5435 105.449 18.8027C105.442 20.0772 104.486 21.0226 103.193 21.0283Z" fill="black"/>
<path d="M65.1172 18.8066C65.1134 20.0658 64.1584 21.0303 62.9219 21.0284C61.6159 21.0265 60.6455 20.0639 60.6494 18.774C60.6532 17.5722 61.6873 16.5427 62.8814 16.5522C64.1334 16.5618 65.123 17.5588 65.1172 18.8066Z" fill="black"/>
<path d="M196.61 35.0734C196.963 34.2678 197.365 33.5125 197.718 32.7573C197.97 32.2034 198.221 31.6495 198.523 31.0957C198.675 30.7936 198.775 30.4915 198.725 30.139C198.725 29.988 198.775 29.9377 198.926 29.9377C199.732 29.9377 200.538 29.9377 201.343 29.9377C201.494 29.9377 201.545 29.988 201.545 30.139C201.545 30.6425 201.545 30.6425 201.041 30.6425C200.538 30.6425 200.538 30.6425 200.538 31.1461C200.538 32.9587 200.538 34.7713 200.538 36.5839C200.538 36.7854 200.588 36.8357 200.739 36.7854C200.94 36.7854 201.192 36.7854 201.394 36.7854C201.494 36.7854 201.545 36.8357 201.545 36.9364C201.545 37.4902 201.595 37.4902 200.991 37.4902C200.034 37.4902 199.128 37.4902 198.171 37.4902C198.02 37.4902 197.919 37.4902 197.919 37.2889C197.919 36.7854 197.919 36.7854 198.423 36.7854C198.977 36.7854 198.977 36.7854 198.977 36.2315C198.977 34.9224 198.977 33.6133 198.977 32.3041C198.977 32.2034 198.977 32.1531 198.977 32.0524H198.926C198.775 32.4048 198.624 32.7069 198.423 33.0594C197.768 34.4692 197.114 35.8791 196.409 37.2889C196.358 37.3896 196.358 37.4902 196.207 37.4902C196.056 37.4902 196.006 37.3896 195.956 37.2889C195.2 35.6776 194.445 34.0664 193.639 32.5055C193.589 32.4552 193.589 32.3545 193.539 32.3041C193.438 32.3545 193.488 32.4048 193.488 32.4552C193.488 33.8146 193.488 35.2245 193.488 36.5839C193.488 36.7854 193.539 36.8357 193.69 36.7854C193.891 36.7854 194.093 36.7854 194.244 36.7854C194.294 36.7854 194.344 36.7854 194.344 36.7854C194.596 36.886 194.395 37.0875 194.445 37.2889C194.445 37.3392 194.495 37.4902 194.344 37.4902C193.438 37.4902 192.582 37.4902 191.676 37.4902C191.424 37.4902 191.625 37.1881 191.575 37.0371C191.575 36.9868 191.474 36.7854 191.676 36.7854C191.877 36.7854 192.129 36.7854 192.33 36.7854C192.532 36.7854 192.532 36.735 192.532 36.5839C192.532 34.9727 192.532 33.3112 192.532 31.6999C192.532 31.3978 192.532 31.1461 192.532 30.844C192.532 30.6929 192.481 30.6425 192.33 30.6425C192.079 30.6425 191.877 30.6425 191.625 30.6425C191.575 30.6425 191.474 30.6929 191.474 30.5922C191.474 30.3908 191.474 30.1894 191.474 29.988C191.474 29.8873 191.575 29.9377 191.625 29.9377C192.431 29.9377 193.287 29.9377 194.093 29.9377C194.193 29.9377 194.244 29.988 194.244 30.0887C194.193 30.5419 194.344 30.9446 194.546 31.2971C195.15 32.5055 195.704 33.7139 196.308 34.9224C196.56 34.9727 196.61 35.023 196.61 35.0734Z" fill="black"/>
<path d="M184.025 23.392C184.025 23.5431 184.025 23.6941 184.025 23.8452C184.076 24.3487 184.478 24.7012 184.982 24.7515C185.536 24.8522 186.09 24.6004 186.341 24.0969C186.744 23.2913 186.442 22.3347 185.737 21.8311C185.183 21.4787 184.529 21.378 183.874 21.4787C182.464 21.6801 181.155 22.4857 180.4 23.6941C179.544 24.9529 178.889 26.3628 178.587 27.8733C178.184 29.5852 177.983 31.2971 177.983 33.0594C177.983 33.1601 177.983 33.3111 177.933 33.4119C177.832 33.1601 177.782 32.858 177.731 32.6063C177.48 31.2971 177.379 29.988 177.429 28.6789C177.429 26.7152 177.983 24.8019 178.99 23.1403C179.947 21.529 181.508 20.4213 183.32 20.0185C184.529 19.7668 185.737 19.9178 186.744 20.4717C188.204 21.3277 188.658 23.1906 187.801 24.6004C187.751 24.6508 187.701 24.7012 187.701 24.8019C186.996 25.7586 185.737 26.111 184.629 25.7082C183.874 25.4564 183.471 24.7012 183.622 23.8956C183.673 23.6941 183.824 23.4927 184.025 23.392Z" fill="black"/>
<path d="M169.724 24.4496C169.724 24.9027 169.472 25.3055 169.07 25.5069C168.063 26.1111 166.753 25.8594 166.099 24.8523C165.142 23.5433 165.495 21.6803 166.804 20.7236C167.056 20.5725 167.358 20.4718 167.609 20.3712C168.868 19.918 170.228 19.9683 171.436 20.5725C172.896 21.2775 174.054 22.3851 174.86 23.7447C175.867 25.3559 176.471 27.2189 176.622 29.1322C176.673 30.542 176.522 31.9519 176.119 33.2609C176.119 33.3113 176.119 33.412 176.018 33.4624C176.018 33.2106 176.068 32.9588 176.068 32.7575C176.27 29.6357 175.313 26.5139 173.349 24.0468C172.594 23.0397 171.537 22.2845 170.328 21.8817C169.724 21.6803 169.07 21.6803 168.465 21.8817C167.609 22.1334 167.156 23.0397 167.408 23.8957C167.458 24.0468 167.509 24.1978 167.609 24.3489C168.063 25.0034 168.919 25.1544 169.523 24.7013C169.573 24.651 169.623 24.6006 169.674 24.6006C169.674 24.4999 169.674 24.4999 169.724 24.4496Z" fill="black"/>
<path d="M198.374 24.9528V24.701C198.374 23.3415 198.374 21.9821 198.374 20.6226C198.374 20.4212 198.324 20.3205 198.122 20.3205C197.921 20.3205 197.669 20.3205 197.468 20.3205C197.417 20.3205 197.317 20.3205 197.317 20.2198C197.317 20.0184 197.317 19.8673 197.317 19.6659C197.317 19.5652 197.417 19.5652 197.468 19.5652C198.374 19.5652 199.28 19.5149 200.187 19.5652C200.489 19.5652 200.287 19.9177 200.338 20.0688C200.388 20.1694 200.338 20.2701 200.187 20.2701C199.935 20.2701 199.733 20.2701 199.482 20.2701C199.331 20.2701 199.28 20.3205 199.331 20.4212C199.331 20.4715 199.331 20.5219 199.331 20.5722C199.331 22.6367 199.331 24.7514 199.331 26.8158C199.331 27.0172 199.28 27.0675 199.079 27.0675C198.726 27.1179 198.374 26.9669 198.122 26.6648C196.712 25.1039 195.252 23.5933 193.842 22.0324C193.792 21.9821 193.742 21.9317 193.691 21.8814C193.591 21.9317 193.641 22.0324 193.641 22.0828C193.641 23.4423 193.641 24.8018 193.641 26.1612C193.641 26.3123 193.691 26.4129 193.842 26.3626C194.044 26.3626 194.295 26.3626 194.497 26.3626C194.648 26.3626 194.698 26.4129 194.698 26.564C194.698 27.0675 194.698 27.0675 194.195 27.0675C193.439 27.0675 192.735 27.0675 191.979 27.0675C191.828 27.0675 191.778 27.0172 191.778 26.8661C191.778 26.3626 191.778 26.3626 192.281 26.3626C192.785 26.3626 192.785 26.3626 192.785 25.8591C192.785 24.0968 192.785 22.2842 192.785 20.5219C192.785 20.2701 192.735 20.2198 192.483 20.2701C192.382 20.2701 192.281 20.2701 192.181 20.2701C192.03 20.2701 191.828 20.3205 191.778 20.2198C191.728 20.0184 191.728 19.817 191.728 19.6156C191.728 19.5149 191.778 19.5652 191.828 19.5652C192.533 19.5652 193.238 19.5652 193.993 19.5652C194.094 19.5652 194.144 19.6156 194.144 19.7163C194.094 20.1191 194.245 20.5219 194.598 20.7737C195.806 22.0828 197.014 23.3919 198.223 24.701C198.223 24.8018 198.273 24.8521 198.374 24.9528Z" fill="black"/>
<path d="M218.766 22.3852C219.018 22.1839 219.32 22.0328 219.622 21.8817C220.025 21.6299 220.528 21.5796 220.981 21.6299C221.737 21.781 222.24 22.486 222.139 23.2412C222.139 24.2986 222.139 25.3056 222.139 26.3629C222.139 26.5644 222.19 26.6147 222.391 26.6147C222.542 26.6147 222.744 26.6147 222.895 26.6147C223.046 26.6147 223.097 26.665 223.097 26.8161C223.097 27.2189 223.097 27.2189 222.694 27.2189C221.838 27.2189 220.981 27.2189 220.126 27.2189C219.924 27.2189 219.874 27.1686 219.924 27.0175C219.924 26.9671 219.924 26.8665 219.924 26.8161C219.924 26.7154 219.924 26.665 220.075 26.665C220.226 26.665 220.377 26.665 220.528 26.665C220.68 26.665 220.68 26.6147 220.68 26.514C220.68 25.507 220.68 24.4999 220.68 23.4929C220.73 23.0398 220.428 22.6873 219.975 22.637C219.824 22.637 219.673 22.637 219.572 22.6873C219.521 22.6873 219.521 22.6873 219.471 22.6873C218.766 22.8887 218.766 22.9391 218.766 23.6944C218.766 24.6007 218.766 25.507 218.766 26.4133C218.766 26.6147 218.817 26.7154 219.018 26.665C219.068 26.665 219.119 26.665 219.119 26.665C219.521 26.665 219.521 26.665 219.521 27.0679C219.521 27.1686 219.471 27.2189 219.37 27.2189C218.414 27.2189 217.407 27.2189 216.45 27.2189C216.349 27.2189 216.299 27.1686 216.299 27.0679C216.299 26.6147 216.249 26.6147 216.702 26.6147C217.256 26.6147 217.256 26.6147 217.256 26.0608C217.256 23.9461 217.256 21.8314 217.256 19.7166C217.256 19.5152 217.205 19.4648 217.004 19.4648C216.903 19.4648 216.802 19.4648 216.702 19.4648C216.299 19.4648 216.299 19.4648 216.299 19.0621C216.299 18.911 216.349 18.911 216.45 18.911C217.155 18.911 217.81 18.911 218.514 18.911C218.665 18.911 218.716 18.9614 218.716 19.1124C218.716 20.1194 218.716 21.1264 218.716 22.1335L218.766 22.3852Z" fill="black"/>
<path d="M227.327 23.5432C226.873 24.7516 226.421 25.9097 225.967 27.1181C225.917 27.2188 225.917 27.3195 225.766 27.3195C225.615 27.3195 225.615 27.2188 225.564 27.1181C224.86 25.6076 224.154 24.097 223.5 22.5865C223.399 22.3851 223.299 22.2844 223.097 22.3348C222.644 22.3348 222.644 22.3348 222.694 21.8816C222.694 21.7809 222.745 21.7809 222.845 21.7809C223.751 21.7809 224.658 21.7809 225.564 21.7809C225.665 21.7809 225.715 21.8313 225.715 21.9319C225.766 22.3851 225.766 22.3851 225.312 22.3851C225.011 22.3851 225.011 22.3851 225.112 22.6872C225.413 23.3922 225.766 24.097 226.068 24.8523C226.118 24.9027 226.118 25.0033 226.169 25.104C226.471 24.2481 226.772 23.3922 227.125 22.5361C227.175 22.3851 227.125 22.3851 227.024 22.3851C226.924 22.3851 226.873 22.3851 226.772 22.3851C226.672 22.3851 226.471 22.4355 226.421 22.3348C226.32 22.1837 226.421 22.0327 226.37 21.8816C226.37 21.7809 226.421 21.8313 226.471 21.8313C227.327 21.8313 228.133 21.8313 228.988 21.8313C229.089 21.8313 229.089 21.8313 229.139 21.9319C229.19 22.3851 229.19 22.3851 228.736 22.3851C228.636 22.3851 228.585 22.3851 228.484 22.3851L229.693 25.0537C229.844 24.6006 229.995 24.2481 230.146 23.8956C230.297 23.4425 230.448 23.0397 230.65 22.5865C230.7 22.3851 230.65 22.3851 230.499 22.3851C230.398 22.3851 230.348 22.3851 230.247 22.3851C229.894 22.3851 229.945 22.3851 229.894 22.083C229.894 21.8816 229.945 21.8313 230.146 21.8313C230.751 21.8313 231.305 21.8313 231.908 21.8313C232.06 21.8313 232.11 21.8816 232.11 22.0327C232.11 22.4355 232.11 22.4355 231.707 22.4355C231.405 22.4355 231.305 22.5361 231.204 22.7879C230.65 24.2481 230.096 25.7083 229.542 27.1685C229.492 27.2691 229.492 27.3699 229.341 27.3699C229.19 27.3699 229.139 27.2691 229.089 27.1685C228.585 26.0104 228.032 24.9027 227.528 23.7446C227.427 23.6439 227.427 23.5432 227.327 23.5432Z" fill="black"/>
<path d="M259.601 22.4355C259.953 22.1838 260.306 21.9824 260.659 21.8313C261.011 21.6803 261.364 21.6299 261.766 21.6803C262.471 21.7306 263.025 22.3852 263.025 23.0901C263.025 24.1475 263.025 25.2551 263.025 26.3126C263.025 26.5643 263.075 26.665 263.327 26.6147C263.428 26.6147 263.528 26.6147 263.629 26.6147C263.73 26.6147 263.931 26.5643 263.931 26.665C263.982 26.816 263.982 26.9671 263.931 27.1181C263.931 27.2189 263.831 27.1685 263.78 27.1685C262.824 27.1685 261.867 27.1685 260.91 27.1685C260.81 27.1685 260.759 27.1181 260.759 27.0175C260.759 26.5643 260.759 26.5643 261.162 26.5643C261.565 26.5643 261.565 26.5643 261.565 26.1615C261.565 25.2551 261.565 24.3488 261.565 23.4425C261.665 22.9894 261.364 22.5866 260.91 22.4859C260.759 22.4355 260.608 22.4859 260.457 22.5362C260.205 22.5866 259.953 22.7376 259.753 22.8383C259.702 22.8887 259.652 22.9391 259.652 23.0397C259.652 24.1475 259.652 25.2551 259.652 26.3629C259.652 26.5139 259.702 26.5139 259.803 26.5139C259.903 26.5139 260.004 26.5139 260.104 26.5139C260.407 26.5139 260.407 26.5139 260.407 26.816C260.407 27.0175 260.356 27.0678 260.155 27.0678C259.249 27.0678 258.343 27.0678 257.436 27.0678C257.285 27.0678 257.184 27.0175 257.234 26.8664C257.234 26.816 257.234 26.7154 257.234 26.665C257.234 26.5139 257.285 26.4636 257.436 26.4636C257.637 26.4636 257.839 26.4636 258.041 26.4636C258.141 26.4636 258.192 26.4636 258.192 26.3126C258.192 25.0034 258.192 23.6943 258.192 22.3852C258.192 22.2845 258.141 22.2341 258.041 22.2341C257.839 22.2341 257.637 22.2341 257.436 22.2341C257.285 22.2341 257.234 22.2341 257.234 22.083C257.234 21.6803 257.234 21.6803 257.637 21.6803C258.242 21.6803 258.795 21.6803 259.4 21.6803C259.601 21.6803 259.652 21.7306 259.601 21.932C259.601 22.1334 259.601 22.2845 259.601 22.4355Z" fill="black"/>
<path d="M217.106 37.037C216.653 37.3391 216.15 37.5908 215.596 37.6412C215.294 37.6915 214.992 37.6915 214.74 37.5908C214.236 37.4901 213.834 37.037 213.783 36.483C213.783 36.2313 213.733 36.0299 213.733 35.7782C213.733 34.8215 213.733 33.8648 213.733 32.8578C213.733 32.7067 213.682 32.6564 213.531 32.6564C213.33 32.6564 213.129 32.6564 212.978 32.6564C212.877 32.6564 212.826 32.6061 212.826 32.5053C212.826 32.1025 212.826 32.1025 213.229 32.1025C213.783 32.1025 214.337 32.1025 214.891 32.1025C215.243 32.1025 215.243 32.1025 215.243 32.455C215.243 33.6131 215.243 34.7208 215.243 35.8788C215.243 35.9796 215.243 36.0803 215.243 36.1809C215.243 36.5838 215.596 36.9362 215.999 36.8859C216.049 36.8859 216.15 36.8859 216.2 36.8355C216.502 36.7348 216.804 36.6341 217.106 36.4327C217.207 36.3824 217.207 36.332 217.207 36.2313C217.207 35.0732 217.207 33.9655 217.207 32.8074C217.207 32.6564 217.157 32.6564 217.056 32.6564C216.855 32.6564 216.653 32.6564 216.452 32.6564C216.301 32.6564 216.301 32.6061 216.301 32.5053C216.301 32.1025 216.301 32.1025 216.704 32.1025C217.308 32.1025 217.862 32.1025 218.466 32.1025C218.667 32.1025 218.718 32.1529 218.718 32.3543C218.718 33.8145 218.718 35.2243 218.718 36.6845C218.718 36.8859 218.768 36.9362 218.969 36.9362C219.12 36.9362 219.322 36.9362 219.473 36.9362C219.574 36.9362 219.624 36.9866 219.624 37.0873C219.624 37.4901 219.624 37.4901 219.221 37.4901C218.667 37.4901 218.063 37.4901 217.509 37.4901C217.308 37.4901 217.157 37.4397 217.207 37.188C217.106 37.188 217.106 37.0873 217.106 37.037Z" fill="black"/>
<path d="M206.027 36.9865C205.674 37.188 205.322 37.3894 204.969 37.4901C204.516 37.6411 204.063 37.6411 203.61 37.5404C203.006 37.3894 202.552 36.7852 202.653 36.1809C202.653 35.0732 202.653 33.9655 202.653 32.9081C202.653 32.7067 202.603 32.6563 202.401 32.6563C202.301 32.6563 202.2 32.6563 202.049 32.6563C201.646 32.6563 201.596 32.606 201.646 32.1529C201.646 32.0521 201.697 32.0521 201.797 32.0521C202.502 32.0521 203.207 32.0521 203.962 32.0521C204.164 32.0521 204.063 32.2032 204.063 32.2536C204.063 33.4117 204.063 34.5697 204.063 35.7781C204.063 35.9292 204.063 36.1306 204.113 36.2817C204.214 36.6844 204.566 36.8859 204.969 36.8355C204.969 36.8355 204.969 36.8355 205.02 36.8355C205.372 36.7348 205.674 36.6341 205.976 36.4327C206.077 36.3823 206.077 36.332 206.077 36.2313C206.077 35.0732 206.077 33.9151 206.077 32.7571C206.077 32.6564 206.027 32.606 205.926 32.606C205.725 32.606 205.523 32.606 205.322 32.606C205.171 32.606 205.171 32.5557 205.171 32.455C205.171 32.0521 205.171 32.0521 205.573 32.0521C206.178 32.0521 206.782 32.0521 207.386 32.0521C207.537 32.0521 207.588 32.1025 207.588 32.2536C207.588 33.7138 207.588 35.1235 207.588 36.5838C207.588 36.7852 207.638 36.8859 207.839 36.8355C207.94 36.8355 208.091 36.8355 208.192 36.8355C208.494 36.8355 208.494 36.8355 208.494 37.1376C208.494 37.339 208.443 37.4397 208.242 37.3894C207.638 37.3894 206.983 37.3894 206.379 37.3894C206.178 37.3894 206.077 37.339 206.127 37.1376C206.027 37.188 206.027 37.0873 206.027 36.9865Z" fill="black"/>
<path d="M203.407 21.6295C205.019 21.6295 206.126 22.4855 206.428 23.8953C206.781 25.4058 205.824 26.9164 204.314 27.2688C204.163 27.3192 203.961 27.3192 203.81 27.3192C203.256 27.3696 202.702 27.3192 202.199 27.1178C201.041 26.6646 200.336 25.5066 200.437 24.2478C200.537 22.9386 201.494 21.8812 202.753 21.6799C203.005 21.6799 203.206 21.6295 203.407 21.6295ZM202.048 24.4995C202.048 25.003 202.149 25.5066 202.35 26.01C202.501 26.3625 202.803 26.6142 203.156 26.715C203.81 26.9164 204.465 26.5136 204.666 25.9093C205.019 25.003 205.019 23.996 204.666 23.0897C204.515 22.5862 204.062 22.2337 203.508 22.2337C202.954 22.2337 202.501 22.5862 202.35 23.0897C202.149 23.5429 202.048 23.996 202.048 24.4995Z" fill="black"/>
<path d="M185.536 18.659C185.032 18.9108 184.529 19.0618 183.975 19.1626C182.515 19.4647 181.055 19.7164 179.594 19.8171C177.882 19.9681 176.12 20.0689 174.358 20.0185C172.847 20.0185 171.387 19.8171 169.927 19.4647C169.625 19.4143 169.373 19.3136 169.121 19.2129C168.92 19.1122 168.819 18.8605 168.87 18.6087C168.92 18.4576 169.121 18.3066 169.373 18.3569C169.927 18.4073 170.481 18.508 170.984 18.6087C171.79 18.7094 172.596 18.8101 173.401 18.8101C175.717 18.9108 178.084 18.9108 180.4 18.8605C182.011 18.8101 183.673 18.7597 185.284 18.659C185.385 18.659 185.435 18.659 185.536 18.659Z" fill="black"/>
<path d="M220.174 33.311C220.023 32.7571 220.023 32.9082 220.376 32.6061C220.98 32.1529 221.685 31.9012 222.44 31.9516C223.296 32.0018 223.951 32.6564 224.001 33.5124C224.051 34.318 224.001 35.1236 224.001 35.9293C224.001 36.0299 224.001 36.1306 224.001 36.2314C224.001 36.5838 224.303 36.8356 224.656 36.8356C224.706 36.8356 224.757 36.8356 224.807 36.7852C224.857 36.7852 224.908 36.7348 225.009 36.7348V36.7852C225.009 37.339 225.009 37.339 224.505 37.4901C224.202 37.5908 223.9 37.6411 223.598 37.6411C223.196 37.5908 222.843 37.339 222.642 36.9866C222.289 37.2384 221.887 37.4901 221.484 37.5908C220.779 37.7922 220.074 37.3894 219.923 36.6845C219.872 36.5838 219.872 36.4831 219.872 36.3824C219.721 35.7278 220.174 35.0733 220.829 34.9222C221.333 34.7712 221.836 34.6201 222.39 34.5194C222.541 34.4691 222.591 34.4187 222.591 34.2676C222.591 34.1166 222.591 33.9655 222.591 33.8145C222.642 33.311 222.289 32.8579 221.786 32.8075C221.635 32.8075 221.484 32.8075 221.383 32.8579C220.93 32.9082 220.527 33.1096 220.174 33.311ZM222.591 35.7782C222.591 35.5768 222.591 35.4257 222.591 35.2243C222.591 35.1236 222.541 35.1236 222.44 35.1236C222.138 35.174 221.836 35.2747 221.534 35.4761C221.232 35.6775 221.081 36.0803 221.232 36.3824C221.333 36.6342 221.584 36.7852 221.887 36.7348C222.339 36.6342 222.541 36.4327 222.541 36.0299C222.591 35.9293 222.591 35.8789 222.591 35.7782Z" fill="black"/>
<path d="M251.495 26.0605C251.495 26.1108 251.495 26.1612 251.495 26.2116C251.546 26.6647 251.243 26.8661 250.84 27.0171C250.085 27.3192 249.229 27.3696 248.424 27.1682C247.417 26.9164 246.661 26.0101 246.51 25.0032C246.41 24.4996 246.41 23.9457 246.561 23.4423C246.863 22.1331 248.172 21.3778 249.481 21.6799C250.337 21.8814 250.991 22.5359 251.193 23.3415C251.243 23.5429 251.294 23.694 251.344 23.8954C251.394 24.0465 251.344 24.0968 251.193 24.0968C250.186 24.0968 249.229 24.0968 248.222 24.0968C248.021 24.0968 247.97 24.1471 248.021 24.3486C248.021 24.6507 248.122 24.9528 248.172 25.2549C248.373 26.2116 249.279 26.8158 250.237 26.6143C250.337 26.6143 250.438 26.564 250.488 26.5137C250.84 26.4129 251.193 26.2619 251.495 26.0605ZM248.928 23.5429C249.179 23.5429 249.481 23.5429 249.733 23.5429C249.783 23.5429 249.884 23.5429 249.884 23.4423C249.834 23.0394 249.682 22.687 249.431 22.4352C249.129 22.1331 248.676 22.1331 248.424 22.4352C248.373 22.4856 248.373 22.4856 248.323 22.5359C248.172 22.7877 248.071 23.0898 248.021 23.4423C248.021 23.5933 248.071 23.5429 248.172 23.5429C248.424 23.5429 248.676 23.5429 248.928 23.5429Z" fill="black"/>
<path d="M237.244 26.0604C237.194 26.2618 237.194 26.4631 237.144 26.6646C237.144 26.7149 237.093 26.7652 237.043 26.8156C236.035 27.4198 234.777 27.5206 233.72 27.017C232.863 26.6142 232.259 25.7583 232.259 24.8016C232.209 24.2981 232.259 23.7442 232.411 23.291C232.863 22.0323 234.223 21.3778 235.482 21.7805C236.186 22.0323 236.741 22.5862 236.992 23.291C237.043 23.4925 237.093 23.6939 237.144 23.9456C237.194 24.0967 237.144 24.1471 236.992 24.1471C236.035 24.1471 235.079 24.1471 234.172 24.1471C233.82 24.1471 233.82 24.1471 233.82 24.4995C233.82 24.7513 233.871 25.003 233.971 25.2547C234.172 26.2114 235.079 26.7652 236.035 26.5639C236.086 26.5639 236.186 26.5135 236.237 26.5135C236.589 26.4631 236.942 26.2618 237.244 26.0604ZM234.676 23.5429C234.928 23.5429 235.23 23.5429 235.482 23.5429C235.583 23.5429 235.633 23.5429 235.633 23.4421C235.583 23.0896 235.432 22.7875 235.23 22.4854C234.978 22.1833 234.525 22.133 234.223 22.3847C234.172 22.4351 234.123 22.4854 234.072 22.5358C233.921 22.7875 233.82 23.0896 233.77 23.3917C233.77 23.4925 233.77 23.5429 233.921 23.5429C234.172 23.5429 234.424 23.5429 234.676 23.5429Z" fill="black"/>
<path d="M227.88 33.0592C227.88 34.2676 227.88 35.476 227.88 36.6845C227.88 36.8355 227.93 36.9362 228.082 36.9362C228.282 36.9362 228.484 36.9362 228.635 36.9362C228.736 36.9362 228.786 36.9866 228.786 37.0872C228.836 37.5404 228.836 37.5404 228.383 37.5404C227.477 37.5404 226.621 37.5404 225.715 37.5404C225.563 37.5404 225.463 37.4901 225.513 37.339C225.513 37.2887 225.513 37.188 225.513 37.1376C225.513 36.9866 225.563 36.9362 225.664 36.9362C225.866 36.9362 226.067 36.9362 226.269 36.9362C226.369 36.9362 226.42 36.8859 226.42 36.7851C226.42 36.7348 226.42 36.6845 226.42 36.6845C226.42 34.469 226.42 32.2536 226.42 30.0381C226.42 29.8368 226.369 29.7864 226.168 29.7864C226.017 29.7864 225.916 29.7864 225.765 29.7864C225.563 29.8368 225.463 29.736 225.463 29.5346C225.463 29.2325 225.463 29.2325 225.765 29.2325C226.369 29.2325 227.024 29.2325 227.628 29.2325C227.779 29.2325 227.83 29.2828 227.83 29.4339C227.88 30.6423 227.88 31.8508 227.88 33.0592Z" fill="black"/>
<path d="M238.605 27.0173C238.555 27.118 238.605 27.2691 238.403 27.2691C238.101 27.2691 238.101 27.2691 238.101 26.967C238.101 26.5642 238.101 26.1613 238.101 25.7585C238.101 25.7082 238.051 25.5571 238.202 25.5571C238.303 25.5571 238.454 25.5067 238.504 25.6578C238.555 25.8592 238.706 26.0607 238.856 26.2621C239.158 26.6145 239.612 26.7655 240.065 26.6649C240.367 26.6145 240.568 26.3124 240.518 26.0103C240.518 25.9096 240.417 25.7585 240.317 25.7082C240.115 25.5067 239.864 25.3557 239.612 25.2046C239.259 25.0033 238.906 24.7515 238.605 24.4998C238.051 24.097 237.9 23.3417 238.101 22.7375C238.353 22.0829 238.957 21.6298 239.612 21.6298C240.015 21.5794 240.367 21.6801 240.719 21.8311C240.82 21.8815 240.87 21.9319 240.921 21.7808C240.971 21.529 241.173 21.6298 241.273 21.6298C241.424 21.6298 241.374 21.7808 241.374 21.8311C241.374 22.1836 241.374 22.5361 241.374 22.8382C241.374 22.8886 241.424 23.0396 241.273 23.0396C241.173 23.0396 240.971 23.1403 240.921 22.9389C240.87 22.8382 240.82 22.7375 240.77 22.6368C240.568 22.1836 240.015 21.9822 239.561 22.1836C239.309 22.2844 239.158 22.5361 239.209 22.8382C239.209 22.8886 239.259 22.9389 239.309 22.9892C239.461 23.1907 239.612 23.3417 239.813 23.4424C240.166 23.6941 240.568 23.8452 240.921 24.097C241.727 24.6004 241.978 25.6075 241.475 26.4131C241.173 26.9166 240.618 27.2187 240.015 27.2187C239.612 27.3697 239.108 27.2691 238.605 27.0173Z" fill="black"/>
<path d="M256.128 23.6941C256.027 23.4927 255.926 23.3416 255.776 23.1906C255.524 22.8885 255.07 22.8885 254.819 23.1402L254.768 23.1906C254.567 23.3416 254.466 23.5934 254.466 23.8451C254.466 24.7011 254.466 25.5571 254.466 26.4634C254.466 26.6145 254.516 26.6648 254.667 26.6648C254.869 26.6648 255.07 26.6648 255.222 26.6648C255.322 26.6648 255.373 26.7151 255.373 26.8158C255.373 27.2187 255.373 27.2187 254.97 27.2187C254.064 27.2187 253.157 27.2187 252.251 27.2187C252.049 27.2187 251.999 27.1683 252.049 27.0172C252.049 26.9669 252.049 26.8662 252.049 26.8158C252.049 26.7151 252.1 26.6648 252.201 26.6648C252.402 26.6648 252.654 26.6648 252.855 26.6648C253.006 26.6648 253.006 26.6145 253.006 26.5137C253.006 25.2046 253.006 23.8955 253.006 22.5864C253.006 22.4353 252.955 22.4353 252.805 22.4353C252.654 22.4353 252.452 22.4353 252.301 22.4353C252.201 22.4353 252.049 22.4857 252.049 22.3849C252.049 22.2339 252.049 22.0325 252.049 21.8815C252.049 21.8311 252.15 21.8311 252.15 21.8311C252.855 21.8311 253.56 21.8311 254.265 21.8311C254.366 21.8311 254.416 21.8815 254.416 21.9822C254.416 22.2339 254.416 22.4353 254.416 22.687C254.516 22.687 254.516 22.5864 254.567 22.536C254.768 22.2339 254.97 22.0325 255.272 21.8311C255.725 21.5794 256.329 21.7304 256.581 22.1836C256.581 22.2339 256.631 22.2339 256.631 22.2843C256.581 22.7374 256.379 23.2409 256.128 23.6941Z" fill="black"/>
<path d="M211.011 23.6939C210.86 23.4924 210.759 23.3414 210.658 23.1903C210.406 22.8882 209.953 22.8379 209.651 23.0896C209.601 23.0896 209.601 23.14 209.55 23.1903C209.349 23.3414 209.248 23.5932 209.248 23.8449C209.248 24.7009 209.248 25.5569 209.248 26.4128C209.248 26.6142 209.299 26.6646 209.5 26.6646C209.601 26.6646 209.752 26.6646 209.903 26.6646C210.155 26.6142 210.205 26.7149 210.205 26.9667C210.205 27.2184 210.155 27.2688 209.903 27.2688C208.946 27.2688 208.04 27.2688 207.083 27.2688C206.932 27.2688 206.832 27.2184 206.882 27.0674C206.882 27.017 206.882 26.9163 206.882 26.8659C206.882 26.7653 206.932 26.7149 207.033 26.7149C207.234 26.7149 207.486 26.7149 207.687 26.7149C207.788 26.7149 207.839 26.6646 207.839 26.5638C207.839 25.2547 207.839 23.9456 207.839 22.5861C207.839 22.3848 207.788 22.3848 207.687 22.3848C207.486 22.3848 207.285 22.3848 207.083 22.3848C206.983 22.3848 206.932 22.3848 206.932 22.2337C206.932 21.8309 206.932 21.8309 207.335 21.8309C207.939 21.8309 208.543 21.8309 209.148 21.8309C209.299 21.8309 209.349 21.8812 209.349 22.0323C209.349 22.2337 209.349 22.4854 209.349 22.6869C209.5 22.4854 209.702 22.2337 209.903 22.0827C210.205 21.6798 210.809 21.5791 211.262 21.8812C211.313 21.8812 211.363 21.9819 211.413 22.0323C211.464 22.0827 211.514 22.133 211.514 22.2337C211.413 22.7372 211.262 23.2407 211.011 23.6939Z" fill="black"/>
<path d="M208.546 32.858L210.811 30.6929C210.811 31.146 210.811 31.5489 210.811 31.9517C210.811 32.1531 210.862 32.1531 211.063 32.1531C211.416 32.1531 211.818 32.1531 212.171 32.1531C212.322 32.1531 212.322 32.2035 212.322 32.3041C212.322 32.858 212.322 32.858 211.818 32.858C211.516 32.858 211.264 32.858 210.962 32.858C210.862 32.858 210.811 32.9083 210.811 33.009C210.811 34.0161 210.811 35.0231 210.811 36.0804C210.811 36.2819 210.862 36.5336 210.962 36.735C211.063 37.0371 211.416 37.1882 211.768 37.0875C211.818 37.0875 211.818 37.0875 211.869 37.0371C212.02 36.9365 212.171 36.8861 212.271 36.7854C212.372 36.735 212.473 36.6846 212.574 36.7854C212.674 36.8861 212.624 36.9868 212.574 37.0875C212.423 37.3392 212.221 37.4903 211.969 37.591C211.466 37.7924 210.962 37.7924 210.459 37.6917C209.855 37.5407 209.401 36.9364 209.452 36.3322C209.401 35.2748 209.401 34.2678 209.452 33.2105C209.452 33.009 209.401 32.9083 209.15 32.9587C208.898 32.858 208.747 32.858 208.546 32.858Z" fill="black"/>
<path d="M174.558 33.9657C174.507 33.5629 174.507 33.1601 174.457 32.7573C174.306 31.2971 173.903 29.8873 173.198 28.5782C172.997 28.1753 172.695 27.8732 172.392 27.5711C172.141 27.3194 171.839 27.1684 171.536 27.118C171.033 26.9669 170.479 27.118 170.177 27.5208C170.127 27.5711 170.127 27.5711 170.076 27.6215C170.076 27.6719 170.026 27.6719 169.976 27.7222C169.573 27.0676 169.774 26.2621 170.378 25.8592C170.429 25.8089 170.479 25.8089 170.58 25.7585C171.385 25.406 172.292 25.5068 172.946 26.111C173.651 26.7152 174.155 27.4705 174.406 28.3264C175.011 30.0887 175.111 32.0524 174.658 33.865C174.658 33.865 174.658 33.9657 174.558 33.9657Z" fill="black"/>
<path d="M242.23 22.4857L244.496 20.3206C244.496 20.7234 244.496 21.0758 244.496 21.4787C244.496 21.7808 244.496 21.7808 244.798 21.7808C245.15 21.7808 245.503 21.7808 245.856 21.7808C245.956 21.7808 246.007 21.8312 246.007 21.9318C246.007 22.4857 246.007 22.4857 245.453 22.4857C245.15 22.4857 244.898 22.4857 244.597 22.4857C244.446 22.4857 244.446 22.536 244.446 22.6367C244.446 23.6438 244.446 24.6508 244.446 25.6578C244.446 25.8592 244.496 26.111 244.597 26.3123C244.697 26.6144 245.05 26.8159 245.402 26.7152C245.453 26.7152 245.503 26.6648 245.503 26.6648C245.654 26.5641 245.755 26.5138 245.906 26.4131C246.007 26.3627 246.107 26.3123 246.207 26.4131C246.308 26.5138 246.258 26.6144 246.207 26.7152C246.107 26.8662 245.956 27.0173 245.805 27.118C245.201 27.4201 244.547 27.4704 243.892 27.269C243.338 27.0676 242.986 26.4634 243.036 25.8592C242.986 24.8522 243.036 23.7948 243.036 22.7878C243.036 22.5864 242.986 22.536 242.784 22.536C242.633 22.536 242.432 22.4857 242.23 22.4857Z" fill="black"/>
<path d="M211.867 22.4857L214.132 20.3206C214.132 20.7737 214.132 21.1766 214.132 21.5793C214.132 21.7304 214.183 21.7808 214.334 21.7808C214.737 21.7808 215.089 21.7808 215.492 21.7808C215.592 21.7808 215.643 21.8312 215.643 21.9318C215.643 22.4857 215.643 22.4857 215.089 22.4857C214.837 22.4857 214.535 22.4857 214.283 22.4857C214.183 22.4857 214.132 22.4857 214.132 22.6367C214.132 23.6941 214.082 24.8018 214.132 25.8592C214.132 25.9599 214.132 26.0606 214.183 26.1613C214.233 26.5138 214.535 26.8159 214.938 26.7655C215.089 26.7655 215.24 26.6648 215.341 26.5641C215.441 26.5138 215.542 26.4131 215.643 26.3627C215.693 26.3123 215.794 26.3123 215.844 26.3627C215.895 26.4131 215.895 26.5138 215.844 26.5641C215.794 26.7152 215.643 26.8662 215.492 26.9669C214.888 27.3697 214.082 27.4201 213.427 27.118C213.025 26.9165 212.723 26.5138 212.723 26.0606C212.672 25.8592 212.672 25.6074 212.672 25.406C212.672 24.4997 212.672 23.6438 212.672 22.7375C212.672 22.4857 212.622 22.4354 212.42 22.4857C212.219 22.536 212.068 22.4857 211.867 22.4857Z" fill="black"/>
<path d="M184.075 27.7222C183.672 27.0676 182.867 26.8159 182.212 27.1683C181.708 27.4201 181.255 27.7725 181.004 28.276C180.45 29.1824 180.047 30.1894 179.845 31.2468C179.644 32.1027 179.543 32.9587 179.493 33.8147C179.493 33.865 179.493 33.9153 179.443 33.9657C179.342 33.6636 179.241 33.3111 179.241 32.9587C178.989 31.1964 179.241 29.3838 179.946 27.7222C180.248 26.967 180.752 26.3124 181.457 25.8592C182.111 25.4564 182.867 25.4061 183.571 25.7585C184.226 26.0606 184.528 26.8662 184.226 27.5712C184.176 27.6215 184.125 27.6718 184.075 27.7222Z" fill="black"/>
<path d="M172.996 34.6705C172.896 33.9655 172.694 33.2606 172.442 32.606C172.14 31.8004 171.687 31.0451 171.133 30.4409C170.781 30.0885 170.378 29.8367 169.874 29.7361C169.27 29.585 168.716 29.8871 168.465 30.4409C168.465 30.4913 168.414 30.4913 168.414 30.4913C168.163 30.1892 168.112 29.8367 168.213 29.4842C168.364 28.8297 169.018 28.3766 169.673 28.3766C170.579 28.3766 171.385 28.8297 171.888 29.5346C172.543 30.4409 172.946 31.4983 173.097 32.606C173.198 33.2102 173.198 33.8648 173.047 34.469C173.047 34.5697 173.047 34.6705 172.996 34.6705Z" fill="black"/>
<path d="M180.952 34.7212C180.851 34.4694 180.801 34.1673 180.801 33.9156C180.75 32.4554 181.153 31.0456 181.908 29.8372C182.311 29.1826 182.915 28.6791 183.671 28.528C184.174 28.4273 184.678 28.4776 185.131 28.6791C185.685 28.9812 185.936 29.5854 185.785 30.1393C185.735 30.2903 185.685 30.4414 185.584 30.5421C185.483 30.1896 185.231 29.9378 184.879 29.8372C184.476 29.6861 184.023 29.7364 183.62 29.8875C183.066 30.1393 182.664 30.5421 182.311 31.0456C181.657 32.0526 181.203 33.2106 181.002 34.4694C181.052 34.5198 181.002 34.6205 180.952 34.7212Z" fill="black"/>
<path d="M172.694 37.5908C173.047 37.3391 173.449 37.1377 173.852 36.9866C175.262 36.4328 176.823 36.181 178.334 36.2818C178.938 36.2818 179.542 36.3824 180.096 36.5335C180.297 36.5839 180.499 36.6845 180.7 36.7853C180.952 36.9363 181.053 37.1377 180.952 37.3895C180.901 37.5908 180.7 37.6412 180.398 37.5908C179.693 37.4902 178.988 37.3895 178.283 37.3391C177.175 37.2887 176.068 37.2887 174.96 37.3895C174.255 37.4398 173.55 37.4902 172.845 37.5908C172.795 37.5908 172.795 37.5908 172.694 37.5908Z" fill="black"/>
<path d="M172.745 35.8286C173.248 35.4762 173.802 35.2244 174.356 35.023C176.169 34.4188 178.132 34.3181 180.046 34.7712C180.247 34.8216 180.398 34.872 180.6 34.9727C180.7 35.023 180.801 35.0733 180.902 35.1741C181.053 35.3251 181.053 35.5265 180.952 35.6775C180.851 35.8286 180.7 35.879 180.549 35.8286C179.995 35.7279 179.492 35.6775 178.938 35.5769C177.981 35.4762 177.025 35.4762 176.068 35.5265C174.91 35.6272 173.853 35.7279 172.745 35.8286Z" fill="black"/>
<path d="M172.745 20.6225C173.752 20.5218 174.759 20.8239 175.514 21.4784C176.471 22.3848 177.075 23.5932 177.226 24.9526C177.276 25.2044 177.276 25.4058 177.226 25.6576C177.176 25.859 177.125 25.9597 176.924 26.01C176.723 26.01 176.622 25.859 176.572 25.7079C176.42 25.0534 176.169 24.4492 175.867 23.845C175.313 22.5862 174.356 21.5791 173.198 20.8742C173.047 20.7736 172.896 20.7232 172.745 20.6225Z" fill="black"/>
<path d="M177.729 24.1974C177.276 22.5359 178.233 20.7735 179.895 20.2701C180.398 20.119 180.902 20.119 181.405 20.2197C179.542 20.9246 178.434 22.3344 177.729 24.1974Z" fill="black"/>
<path d="M229.944 30.9446C229.39 30.9446 228.938 30.4915 228.938 29.9879C228.938 29.4844 229.39 28.981 229.894 28.981C230.448 28.981 230.901 29.4341 230.901 29.9376C230.901 30.4915 230.448 30.9446 229.944 30.9446ZM229.894 30.7432C230.347 30.7432 230.7 30.3907 230.7 29.9376C230.7 29.4844 230.347 29.132 229.894 29.132C229.441 29.132 229.089 29.4844 229.089 29.9376C229.089 30.3907 229.441 30.7432 229.894 30.7432Z" fill="black"/>
<path d="M230.346 30.4413C230.195 30.4916 230.094 30.4413 230.044 30.2902C230.044 30.2398 229.993 30.1895 229.993 30.1392C229.943 30.0384 229.892 30.0384 229.792 30.0384C229.691 30.0384 229.691 30.1392 229.691 30.1895C229.691 30.2398 229.691 30.2902 229.691 30.3405C229.691 30.3909 229.691 30.4413 229.591 30.4413C229.49 30.4413 229.44 30.4413 229.44 30.3405C229.44 30.0888 229.44 29.7867 229.44 29.535C229.44 29.4342 229.49 29.4342 229.541 29.4342C229.691 29.4342 229.892 29.4342 230.044 29.4342C230.195 29.4342 230.346 29.5853 230.296 29.7363C230.296 29.7867 230.245 29.8874 230.245 29.9377C230.094 30.0384 230.144 30.1392 230.195 30.2398C230.296 30.2902 230.346 30.3909 230.346 30.4413ZM229.943 29.5853C229.842 29.5853 229.741 29.535 229.741 29.7363C229.741 29.8874 229.792 29.8874 229.892 29.8874C229.993 29.8874 230.144 29.8874 230.144 29.7363C230.144 29.5853 229.993 29.5853 229.943 29.5853Z" fill="black"/>
<path d="M328.521 21.9071C328.569 21.8773 328.562 21.8213 328.573 21.7766C328.764 21.1576 329.355 20.7848 330.017 20.8705C330.623 20.9488 331.109 21.4932 331.113 22.1234C331.121 23.0332 331.121 23.943 331.113 24.8566C331.109 25.5428 330.619 26.0723 329.924 26.1468C329.303 26.2139 328.7 25.774 328.551 25.14C328.547 25.1102 328.554 25.0766 328.521 25.058C328.521 24.0064 328.521 22.9586 328.521 21.9071Z" fill="black"/>
<path d="M388.154 25.0582C388.101 25.0992 388.113 25.1626 388.098 25.2148C387.929 25.8002 387.342 26.2067 386.755 26.1433C386.093 26.0724 385.58 25.5653 385.569 24.9277C385.554 23.9731 385.554 23.0185 385.569 22.0639C385.58 21.4636 386.089 20.9341 386.677 20.867C387.338 20.7924 387.922 21.1653 388.098 21.7806C388.113 21.8327 388.105 21.8961 388.154 21.9371C388.154 22.9775 388.154 24.0178 388.154 25.0582Z" fill="black"/>
<path d="M388.152 43.5756C387.957 43.583 387.957 43.583 387.957 43.3965C387.957 43.1169 387.957 42.8335 387.957 42.5464C387.901 42.5613 387.901 42.6061 387.89 42.6359C387.785 42.9193 387.677 43.199 387.576 43.4823C387.55 43.5532 387.515 43.5793 387.437 43.583C387.355 43.583 387.339 43.5383 387.318 43.4823C387.22 43.2101 387.119 42.9342 387.018 42.662C387.003 42.621 386.985 42.5837 386.94 42.5501C386.94 42.8596 386.936 43.1691 386.94 43.4749C386.94 43.5606 386.913 43.5867 386.827 43.583C386.764 43.5793 386.741 43.5606 386.745 43.4973C386.749 43.102 386.745 42.7068 386.745 42.3115C386.745 42.2667 386.741 42.2108 386.809 42.222C386.899 42.2407 387.022 42.1549 387.074 42.304C387.179 42.6024 387.291 42.8969 387.4 43.1952C387.415 43.2325 387.426 43.2698 387.445 43.3145C387.508 43.2548 387.515 43.1728 387.542 43.102C387.628 42.867 387.718 42.6284 387.793 42.3898C387.83 42.263 387.886 42.1921 388.028 42.2183C388.066 42.2257 388.107 42.2145 388.144 42.2108C388.152 42.662 388.152 43.1169 388.152 43.5756Z" fill="black"/>
<path d="M377.331 33.0604C379.1 33.0977 380.607 33.7354 381.714 35.1821C382.545 36.271 382.877 37.5164 382.762 38.8774C382.639 40.3652 382.006 41.6032 380.847 42.5503C379.836 43.3781 378.662 43.7547 377.36 43.7584C375.86 43.766 374.54 43.3036 373.451 42.2595C372.508 41.3571 371.988 40.2385 371.869 38.9446C371.738 37.509 372.089 36.2038 372.995 35.0703C373.855 33.9926 374.988 33.3737 376.342 33.1462C376.481 33.1238 376.616 33.1015 376.754 33.0903C376.938 33.0754 377.12 33.0717 377.331 33.0604ZM377.319 35.6967C375.789 35.693 374.611 36.8751 374.611 38.4113C374.611 39.9401 375.785 41.1296 377.3 41.1334C378.815 41.1371 380.008 39.9513 380.012 38.43C380.016 36.89 378.842 35.7005 377.319 35.6967Z" fill="black"/>
<path d="M351.539 42.2964C351.539 41.9384 351.543 41.5843 351.535 41.2263C351.535 41.1219 351.558 41.1069 351.659 41.133C352.471 41.3531 353.294 41.5022 354.139 41.4873C354.513 41.4798 354.883 41.4425 355.239 41.3157C355.396 41.2598 355.538 41.1853 355.661 41.0696C355.983 40.7751 355.987 40.3052 355.673 39.9845C355.463 39.772 355.194 39.6527 354.917 39.5557C354.442 39.3879 353.952 39.2611 353.488 39.0523C352.923 38.7988 352.414 38.4706 352.04 37.971C351.588 37.3669 351.461 36.6808 351.528 35.9462C351.666 34.4771 352.676 33.5299 354.094 33.1981C354.868 33.0191 355.65 33.034 356.436 33.1235C356.888 33.1757 357.337 33.254 357.786 33.351C357.887 33.3734 357.928 33.4106 357.925 33.5262C357.917 34.1638 357.917 34.8052 357.925 35.4428C357.925 35.5845 357.887 35.5882 357.767 35.5547C357.098 35.3906 356.421 35.2602 355.721 35.2788C355.418 35.2862 355.119 35.3273 354.835 35.4428C354.756 35.4727 354.681 35.5099 354.61 35.5547C354.18 35.8269 354.139 36.3303 354.52 36.6696C354.749 36.871 355.033 36.9679 355.314 37.0612C355.807 37.2252 356.316 37.3483 356.787 37.572C357.577 37.9486 358.194 38.4967 358.489 39.3432C359.043 40.9167 358.276 42.6022 356.701 43.2995C355.871 43.6649 354.999 43.7731 354.098 43.7544C353.286 43.7358 352.486 43.6426 351.685 43.5083C351.573 43.4897 351.532 43.4524 351.535 43.3293C351.543 42.99 351.539 42.6433 351.539 42.2964Z" fill="black"/>
<path d="M341.79 40.6258C341.79 41.5356 341.79 42.4194 341.79 43.3069C341.79 43.3814 341.756 43.4075 341.692 43.4261C340.436 43.7804 339.167 43.896 337.884 43.5753C335.864 43.0644 334.316 41.5394 333.975 39.4102C333.736 37.9112 333.983 36.5092 334.877 35.26C335.704 34.1041 336.856 33.4367 338.244 33.1756C339.411 32.9556 340.555 33.0712 341.689 33.4068C341.752 33.4254 341.793 33.4404 341.793 33.5187C341.79 34.3987 341.79 35.2824 341.79 36.1624C341.79 36.1698 341.782 36.1773 341.775 36.196C341.371 35.9834 340.944 35.8268 340.492 35.7447C339.766 35.6142 339.051 35.6068 338.356 35.8977C337.275 36.3489 336.665 37.3929 336.736 38.5713C336.792 39.5258 337.211 40.279 338.045 40.7712C338.651 41.1329 339.321 41.2112 340.013 41.1479C340.634 41.0957 341.217 40.9241 341.79 40.6258Z" fill="black"/>
<path d="M369.071 36.1965C368.693 36.0026 368.323 35.8571 367.926 35.7751C367.107 35.6036 366.295 35.5775 365.524 35.954C364.59 36.4127 364.099 37.1883 364.032 38.2175C363.972 39.1422 364.268 39.9327 364.993 40.5368C365.491 40.9507 366.082 41.1409 366.726 41.1633C367.507 41.1931 368.255 41.0365 368.955 40.6859C369.063 40.6338 369.086 40.6524 369.082 40.768C369.079 41.6033 369.079 42.4422 369.082 43.2775C369.082 43.367 369.056 43.4043 368.966 43.4304C367.982 43.7138 366.984 43.8368 365.962 43.7175C363.8 43.4677 361.922 42.0955 361.376 39.8954C360.912 38.0236 361.219 36.2933 362.524 34.8168C363.362 33.8659 364.447 33.3401 365.693 33.1425C366.796 32.9673 367.877 33.0828 368.948 33.3924C369.018 33.4148 369.082 33.4222 369.082 33.5303C369.079 34.3917 369.079 35.253 369.079 36.1144C369.082 36.1368 369.079 36.1554 369.071 36.1965Z" fill="black"/>
<path d="M345.375 20.5685C345.375 22.8319 345.375 25.0954 345.375 27.3587C345.375 27.9815 345.05 28.4624 344.515 28.6489C343.677 28.9398 342.824 28.3506 342.779 27.4557C342.779 27.4147 342.779 27.3774 342.779 27.3363C342.779 22.8245 342.779 18.3126 342.779 13.8007C342.779 13.1705 343.097 12.6969 343.643 12.4956C344.455 12.201 345.334 12.7827 345.368 13.6441C345.379 13.9424 345.371 14.237 345.371 14.5353C345.375 16.5488 345.375 18.5587 345.375 20.5685Z" fill="black"/>
<path d="M371.3 20.5576C371.3 18.2943 371.3 16.0309 371.3 13.7674C371.3 13.1074 371.703 12.5854 372.31 12.4587C373.11 12.2871 373.851 12.8576 373.892 13.6705C373.892 13.704 373.895 13.7413 373.895 13.7749C373.895 18.3054 373.895 22.8397 373.895 27.3702C373.895 28.0452 373.499 28.556 372.867 28.7014C372.104 28.8767 371.326 28.2913 371.307 27.512C371.292 26.8445 371.3 26.1733 371.3 25.5058C371.3 23.854 371.3 22.2058 371.3 20.5576Z" fill="black"/>
<path d="M347.998 38.4147C347.998 40.0778 347.998 41.7445 348.002 43.4077C348.002 43.5344 347.983 43.5829 347.837 43.5829C347.067 43.5755 346.296 43.5755 345.526 43.5829C345.413 43.5829 345.387 43.5568 345.387 43.4449C345.391 40.0927 345.391 36.7405 345.387 33.3845C345.387 33.2689 345.421 33.2466 345.529 33.2466C346.304 33.2503 347.078 33.2503 347.856 33.2466C347.976 33.2466 348.002 33.2764 348.002 33.3957C347.998 35.0663 347.998 36.7405 347.998 38.4147Z" fill="black"/>
<path d="M352.509 21.7284C352.509 22.7502 352.509 23.7681 352.509 24.7898C352.509 25.461 352.128 25.9607 351.514 26.1135C350.762 26.3 349.999 25.7668 349.925 24.9986C349.917 24.9203 349.913 24.842 349.913 24.76C349.913 22.7315 349.913 20.6993 349.913 18.6708C349.913 17.9697 350.317 17.4515 350.968 17.3172C351.698 17.1643 352.434 17.705 352.502 18.4471C352.536 18.8125 352.513 19.1779 352.513 19.5471C352.509 20.2705 352.509 20.9976 352.509 21.7284Z" fill="black"/>
<path d="M364.169 21.7133C364.169 20.6879 364.166 19.6624 364.169 18.637C364.169 17.9845 364.558 17.4736 365.15 17.3319C365.995 17.1269 366.766 17.7421 366.766 18.637C366.77 20.3411 366.766 22.0452 366.766 23.7456C366.766 24.1073 366.77 24.4689 366.766 24.8306C366.754 25.4608 366.373 25.953 365.781 26.1059C365 26.3072 364.211 25.7405 364.177 24.9351C364.162 24.5658 364.169 24.193 364.169 23.8201C364.169 23.1191 364.169 22.418 364.169 21.7133Z" fill="black"/>
<path d="M338.247 21.7133C338.247 22.7575 338.25 23.8015 338.247 24.8456C338.243 25.513 337.775 26.0463 337.136 26.1321C336.346 26.2364 335.665 25.6584 335.654 24.8605C335.647 24.4242 335.654 23.988 335.654 23.5517C335.654 21.9073 335.654 20.2628 335.654 18.6222C335.654 17.9622 336.077 17.4438 336.709 17.3133C337.469 17.1568 338.232 17.7421 338.243 18.5178C338.254 19.5842 338.243 20.6506 338.247 21.7133C338.243 21.7133 338.243 21.7133 338.247 21.7133Z" fill="black"/>
<path d="M378.43 21.7169C378.43 20.6691 378.423 19.6176 378.434 18.5697C378.438 18.0477 378.692 17.6599 379.159 17.4288C379.62 17.2013 380.08 17.246 380.495 17.5443C380.862 17.8091 381.026 18.1819 381.026 18.6331C381.026 20.4304 381.026 22.2278 381.023 24.025C381.023 24.3756 381.057 24.7298 381 25.0766C380.892 25.7179 380.297 26.1915 379.665 26.1467C378.969 26.0983 378.438 25.5613 378.434 24.879C378.426 23.8274 378.43 22.7721 378.43 21.7169Z" fill="black"/>
<path d="M357.027 23.4844C357.027 23.063 357.027 22.6417 357.027 22.224C357.031 21.4708 357.498 20.9264 358.246 20.8593C358.92 20.7959 359.507 21.2881 359.612 21.9369C359.653 22.1793 359.634 22.4216 359.634 22.6641C359.638 23.3762 359.638 24.0885 359.634 24.8006C359.63 25.4271 359.264 25.938 358.707 26.1021C357.857 26.3518 357.038 25.7366 357.023 24.8379C357.023 24.3831 357.027 23.9318 357.027 23.4844Z" fill="black"/>
<path d="M386.003 42.979C386.003 42.8113 385.999 42.6435 386.003 42.4757C386.003 42.4048 385.984 42.3787 385.913 42.3824C385.816 42.3862 385.715 42.3824 385.614 42.3862C385.558 42.3862 385.532 42.3712 385.532 42.3116C385.532 42.2519 385.546 42.2184 385.614 42.2221C385.932 42.2258 386.25 42.2258 386.568 42.2221C386.631 42.2221 386.654 42.2407 386.654 42.3079C386.654 42.375 386.624 42.3936 386.564 42.3899C386.486 42.3862 386.404 42.3973 386.325 42.3862C386.201 42.3712 386.179 42.4234 386.183 42.5353C386.191 42.8485 386.183 43.158 386.187 43.4713C386.187 43.5458 386.179 43.5868 386.085 43.5868C385.992 43.5868 385.996 43.5384 385.996 43.475C386.003 43.3072 386.003 43.1431 386.003 42.979Z" fill="black"/>
<path d="M466.363 33.5401H462.952C462.915 33.0355 462.878 32.5384 462.841 32.041C462.817 32.0252 462.792 32.0092 462.767 31.9931C462.753 32.032 462.748 32.0781 462.724 32.1092C461.943 33.119 460.901 33.6276 459.644 33.7277C458.373 33.8289 457.223 33.5141 456.211 32.7308C455.298 32.0232 454.708 31.0899 454.386 29.9857C454.009 28.6911 453.999 27.3896 454.397 26.0997C454.894 24.4927 455.938 23.3491 457.454 22.6638C459.319 21.8211 461.214 21.7878 463.078 22.6575C464.814 23.4672 465.835 24.8667 466.223 26.739C466.325 27.2281 466.364 27.7242 466.364 28.2239C466.362 29.8901 466.363 31.556 466.363 33.2223V33.5399V33.5401ZM457.668 27.9881C457.681 28.097 457.688 28.3023 457.728 28.5008C457.921 29.459 458.443 30.1614 459.378 30.4871C460.327 30.8178 461.21 30.6631 461.973 29.9889C463.295 28.8208 463.183 26.6707 461.756 25.6356C460.712 24.8785 459.227 25.0263 458.36 25.9817C457.87 26.5214 457.681 27.1758 457.669 27.9878L457.668 27.9881Z" fill="black"/>
<path d="M507.785 33.5034H504.284V33.1788C504.284 31.3161 504.288 29.4533 504.28 27.5906C504.279 27.2905 504.259 26.9829 504.192 26.6918C503.91 25.4611 502.848 24.8572 501.638 25.2192C500.663 25.5109 499.911 26.4447 499.829 27.4683C499.819 27.5902 499.818 27.7131 499.818 27.8356C499.817 29.6248 499.818 31.4141 499.818 33.2033V33.4842C499.613 33.5426 496.572 33.5533 496.298 33.5011V22.252H499.69C499.731 22.7963 499.77 23.3299 499.814 23.9201C499.9 23.8101 499.948 23.7481 499.997 23.6863C500.867 22.569 502.007 22.014 503.423 22.0282C504.248 22.0366 505.02 22.2255 505.721 22.6687C506.709 23.2932 507.291 24.2111 507.595 25.3224C507.732 25.8209 507.797 26.3302 507.797 26.8476C507.797 28.98 507.797 31.1124 507.797 33.2447C507.797 33.3246 507.79 33.4043 507.785 33.5036V33.5034Z" fill="black"/>
<path d="M545.64 29.1218H537.622C537.64 29.2351 537.646 29.3221 537.669 29.4044C537.83 29.9819 538.2 30.3887 538.719 30.6633C539.314 30.978 539.953 31.0601 540.614 30.9907C541.241 30.9253 541.823 30.7363 542.32 30.3135C543.213 30.7219 544.1 31.1265 545.007 31.5412C544.959 31.6113 544.929 31.6652 544.89 31.712C544.422 32.2709 543.86 32.7145 543.202 33.0179C541.334 33.8782 539.419 33.9787 537.516 33.1988C535.544 32.3905 534.42 30.8691 534.161 28.7434C533.959 27.0941 534.327 25.5721 535.347 24.2453C536.319 22.9794 537.62 22.2649 539.2 22.0852C540.535 21.9338 541.818 22.1338 543.009 22.7703C544.566 23.6022 545.46 24.9206 545.752 26.6578C545.879 27.4144 545.876 28.1694 545.702 28.9198C545.688 28.9816 545.665 29.0415 545.64 29.1216V29.1218ZM542.34 26.8644C542.346 26.7789 542.356 26.7223 542.354 26.6664C542.313 25.8281 541.918 25.2289 541.148 24.8914C540.65 24.6727 540.125 24.6345 539.591 24.6975C538.568 24.8186 537.805 25.5573 537.645 26.574C537.631 26.6657 537.635 26.7603 537.629 26.8644H542.34Z" fill="black"/>
<path d="M494.352 31.549C494.228 31.6926 494.137 31.8064 494.038 31.9114C493.269 32.7232 492.323 33.2243 491.247 33.4836C489.811 33.8294 488.38 33.8147 486.999 33.2659C484.822 32.401 483.642 30.7666 483.457 28.4264C483.351 27.0938 483.632 25.8381 484.352 24.7058C485.326 23.1725 486.729 22.2957 488.528 22.0861C489.914 21.9249 491.244 22.1455 492.466 22.8403C493.984 23.7036 494.836 25.0359 495.093 26.757C495.197 27.4563 495.192 28.1568 495.045 28.8519C495.035 28.8997 495.023 28.9475 495.01 28.9945C495.001 29.0257 494.989 29.0556 494.967 29.1205H494.665C492.199 29.1205 489.733 29.1205 487.267 29.121C487.165 29.121 487.062 29.1286 486.942 29.1335C487.01 29.6276 487.22 30.0112 487.559 30.3244C487.924 30.6597 488.362 30.8509 488.841 30.9443C489.536 31.0796 490.221 31.0261 490.88 30.7642C491.141 30.66 491.381 30.5004 491.69 30.3345C492.523 30.7147 493.415 31.1215 494.352 31.5487L494.352 31.549ZM491.657 26.8616C491.665 26.7994 491.675 26.7519 491.675 26.7045C491.683 25.8967 491.243 25.2242 490.49 24.8967C489.992 24.68 489.469 24.6286 488.937 24.6967C487.924 24.8263 487.08 25.4903 486.945 26.7695C486.942 26.7979 486.959 26.8283 486.968 26.8619H491.657L491.657 26.8616Z" fill="black"/>
<path d="M528.373 29.2826C529.179 26.9387 529.984 24.595 530.79 22.2487H534.624C533.094 26.0205 531.575 29.7676 530.053 33.5199H526.605C525.085 29.7716 523.565 26.0247 522.035 22.2509H525.869C526.685 24.5963 527.502 26.9448 528.319 29.2936C528.337 29.2899 528.355 29.2862 528.373 29.2826H528.373Z" fill="black"/>
<path d="M516.058 33.1479C515.629 33.3568 515.19 33.4747 514.743 33.5602C514.093 33.6845 513.436 33.7303 512.775 33.7131C510.857 33.6634 509.44 32.3102 509.298 30.3871C509.279 30.143 509.27 29.8976 509.269 29.653C509.26 26.1567 509.253 22.6606 509.246 19.1643C509.246 19.0917 509.246 19.0191 509.246 18.9522C509.443 18.8961 512.481 18.8866 512.767 18.941C512.796 20.0231 512.767 21.1133 512.815 22.2285H515.971V25.1126C515.708 25.1408 515.45 25.1231 515.192 25.126C514.932 25.1292 514.672 25.1268 514.411 25.1268H513.63C513.37 25.1268 513.111 25.1268 512.829 25.1268C512.819 25.2114 512.805 25.2807 512.805 25.3501C512.804 26.6327 512.801 27.9153 512.808 29.1976C512.809 29.3991 512.839 29.6075 512.896 29.8001C513.065 30.3633 513.507 30.6878 514.092 30.7116C514.694 30.7364 515.276 30.6423 515.836 30.4205C515.896 30.3969 515.957 30.3781 516.057 30.3425C516.059 31.2942 516.059 32.2193 516.057 33.1477L516.058 33.1479Z" fill="black"/>
<path d="M475.987 18.9175H479.507C479.522 20.016 479.537 21.105 479.552 22.2212H482.681C482.736 22.4234 482.753 24.6709 482.708 25.1075C482.458 25.1482 482.2 25.1214 481.944 25.1259C481.675 25.1305 481.406 25.1269 481.138 25.1269H480.356C480.097 25.1269 479.838 25.1269 479.557 25.1269C479.55 25.2256 479.538 25.3038 479.538 25.3818C479.537 26.6234 479.534 27.8653 479.541 29.107C479.542 29.3254 479.563 29.5504 479.619 29.7605C479.777 30.3484 480.228 30.6882 480.834 30.7119C481.436 30.7355 482.018 30.6414 482.579 30.4203C482.625 30.4024 482.67 30.385 482.717 30.3705C482.731 30.3661 482.749 30.3718 482.781 30.3739V33.1536C482.704 33.1889 482.619 33.2333 482.53 33.2673C481.768 33.5586 480.973 33.672 480.165 33.7083C479.66 33.7311 479.154 33.7294 478.661 33.5945C477.208 33.1975 476.37 32.2306 476.089 30.7634C476.042 30.5166 476.027 30.2605 476.024 30.0083C476.011 28.9384 476.005 27.8683 476.002 26.7982C475.995 24.282 475.992 21.7658 475.988 19.2496C475.988 19.1456 475.988 19.0417 475.988 18.9172L475.987 18.9175Z" fill="black"/>
<path d="M471.365 25.1271C471.36 25.23 471.354 25.2866 471.354 25.3432C471.353 26.6256 471.349 27.9079 471.358 29.1903C471.36 29.3994 471.394 29.6153 471.455 29.8151C471.625 30.3688 472.058 30.6845 472.636 30.7112C473.246 30.7393 473.835 30.6431 474.404 30.4183C474.463 30.395 474.524 30.3771 474.605 30.3496V33.1502C474.524 33.1869 474.432 33.235 474.335 33.2715C473.573 33.5612 472.778 33.6732 471.97 33.7085C471.472 33.7303 470.976 33.7281 470.49 33.598C469.089 33.2217 468.25 32.306 467.928 30.8974C467.825 30.4475 467.831 29.9896 467.83 29.5322C467.827 27.9722 467.824 26.4121 467.822 24.852C467.819 23.578 467.818 22.3038 467.814 21.0297C467.812 20.4172 467.806 19.8047 467.804 19.1922C467.804 19.1047 467.813 19.017 467.818 18.9185H471.326C471.364 20.018 471.336 21.1079 471.367 22.2243H474.515V25.1192C474.259 25.1217 474.002 25.1248 473.745 25.1261C473.477 25.1273 473.208 25.1263 472.94 25.1263H472.158C471.9 25.1263 471.641 25.1263 471.364 25.1263L471.365 25.1271Z" fill="black"/>
<path d="M517.563 22.2554C518.749 22.9441 519.908 22.9465 521.062 22.2703C521.117 22.4856 521.124 33.2574 521.073 33.5157H517.563V22.2554Z" fill="black"/>
<path d="M519.292 21.3637C519.046 21.3147 518.793 21.2882 518.555 21.2129C517.659 20.9291 517.086 20.1104 517.139 19.2146C517.197 18.2575 517.825 17.5337 518.772 17.3376C519.209 17.247 519.644 17.2585 520.074 17.3842C520.912 17.6298 521.469 18.3166 521.515 19.1582C521.563 20.0541 521.089 20.8178 520.273 21.1566C519.961 21.2862 519.633 21.3375 519.292 21.3637Z" fill="black"/>
<path d="M549.813 22.4546C549.845 23.5681 549.008 24.3419 547.773 24.2341C547.495 24.2098 547.228 24.1365 546.986 23.9917C546.502 23.7024 546.252 23.262 546.192 22.7113C546.171 22.5181 546.17 22.3165 546.202 22.1255C546.323 21.4007 546.745 20.9395 547.457 20.7549C547.826 20.6593 548.197 20.6568 548.568 20.7519C549.305 20.9412 549.763 21.4953 549.813 22.2588C549.817 22.3237 549.813 22.3892 549.813 22.4546ZM547.976 23.9231C548.823 23.94 549.442 23.3559 549.448 22.5032C549.455 21.4546 548.75 21.0142 548.087 21.0078C547.193 20.9995 546.601 21.5586 546.582 22.4405C546.564 23.3174 547.117 23.9056 547.976 23.9228V23.9231Z" fill="black"/>
<path d="M548.443 23.3882C548.324 23.2002 548.198 23.0012 548.064 22.7894H547.808V23.3875H547.335C547.302 22.7867 547.318 22.1811 547.311 21.5458C547.674 21.5426 548.012 21.487 548.349 21.5475C548.813 21.6311 548.998 22.1622 548.701 22.5355C548.655 22.5921 548.601 22.6414 548.54 22.7051C548.612 22.8151 548.681 22.9233 548.751 23.0311C548.821 23.1394 548.891 23.2478 548.983 23.3884H548.443V23.3882ZM547.792 21.9154C547.791 21.9289 547.791 22.3701 547.791 22.3804C547.904 22.3745 548.054 22.3821 548.162 22.3595C548.285 22.3338 548.357 22.2171 548.344 22.1051C548.333 22.0011 548.253 21.9281 548.123 21.9171C548.02 21.9085 547.916 21.9154 547.792 21.9154Z" fill="black"/>
<path d="M638.652 35.2244C637.024 35.2747 635.397 34.9223 633.871 34.2678L634.278 31.2466C635.6 31.9012 637.075 32.2537 638.55 32.2537C639.517 32.2537 640.127 31.9516 640.127 31.3474C640.127 29.6857 634.125 30.0886 634.125 25.8088C634.125 23.0395 636.668 21.6296 639.873 21.6296C641.347 21.68 642.822 21.9317 644.196 22.4353L643.789 25.4059C642.517 24.9025 641.195 24.6507 639.873 24.6004C639.11 24.6004 638.448 24.8521 638.448 25.3556C638.448 26.9668 644.603 26.6647 644.603 30.8439C644.603 33.6635 642.11 35.2747 638.652 35.2244ZM655.284 34.9726V27.5207C655.284 25.8088 654.52 25.0031 653.097 25.0031C652.436 25.0031 651.723 25.1542 651.164 25.5067V34.9726H646.688V22.0828L651.062 21.7303L650.96 23.8451H651.113C652.181 22.4353 653.808 21.6296 655.588 21.6296C657.878 21.6296 659.861 23.0395 659.861 26.3123V34.9726H655.284ZM670.593 21.9317H675.017L669.83 34.872C668.304 38.7489 666.066 41.4176 662.76 41.4176C661.743 41.4176 660.776 41.2161 659.861 40.763L661.59 38.0441C661.844 38.0944 662.15 38.0943 662.404 38.0943C663.93 38.0943 665.049 36.6342 665.812 34.9223L660.421 21.9317H665.405L667.338 27.7221C667.643 28.7794 667.846 29.8368 667.999 30.9445C668.203 29.8872 668.406 28.8298 668.711 27.8228L670.593 21.9317ZM684.783 34.9726L681.223 28.8298H680.867V34.9726H676.391V19.7163L680.867 12.8182V27.0676C681.731 26.0101 684.732 21.9317 684.732 21.9317H690.225L684.987 27.3697L690.378 34.9726H684.783Z" fill="black"/>
<path fill-rule="evenodd" clip-rule="evenodd" d="M604.219 30.139C603.863 29.2326 604.168 25.5067 604.524 22.536L603.1 18.7093V18.5079C603.151 17.8534 603.252 17.1988 603.507 16.5946C602.54 16.796 601.574 17.0477 600.608 17.3498V37.893L604.88 40.9141L605.795 32.5055C605.185 31.8006 604.676 30.9949 604.219 30.139ZM622.987 18.5582C622.936 17.9036 622.834 17.2491 622.58 16.6449C623.546 16.8463 624.512 17.0981 625.479 17.4505V37.9937L621.257 41.0147L620.342 32.6061C620.952 31.9013 621.461 31.0956 621.868 30.2397C622.224 29.3334 621.918 25.6074 621.562 22.6367L622.987 18.81V18.5582ZM613.069 18.1051C612.153 18.1051 611.288 18.2561 610.424 18.5079L609.966 17.803L609.661 15.7889C610.78 15.6882 611.899 15.6882 613.069 15.6882C614.391 15.6882 616.425 15.7889 616.425 15.7889L616.12 17.803L615.663 18.5079C614.798 18.3065 613.933 18.1555 613.069 18.1051ZM617.697 33.3111L617.799 33.2103C618.104 32.8579 618.46 32.3544 618.816 31.9012L616.883 31.3474L615.001 29.1823L614.696 34.6202C614.9 34.9223 615.052 35.2244 615.154 35.5769C615.154 35.9293 614.594 36.4328 614.035 36.8357C613.832 36.4832 613.577 36.4328 613.475 36.6846C613.425 36.886 613.425 37.0874 613.425 37.2888V37.7923C613.73 38.4469 614.34 38.8497 615.052 38.9C615.968 38.9 616.781 38.3462 617.036 37.4902C617.443 36.1811 617.646 34.872 617.595 33.5124L617.697 33.3111ZM610.831 39.7056C610.932 40.8134 612.204 41.2162 613.018 41.2162C613.882 41.2162 615.052 40.8134 615.205 39.7056H615.154C615.001 39.7056 614.9 39.7056 614.747 39.7056C614.391 40.3602 613.73 40.7126 612.967 40.6623C612.255 40.7126 611.543 40.3602 611.238 39.7056C611.136 39.7056 611.034 39.7056 610.932 39.7056H610.831ZM608.389 33.4621C608.389 34.8216 608.593 36.1307 609 37.4399C609.254 38.2958 610.068 38.9 610.983 38.8497C611.695 38.8497 612.306 38.3966 612.611 37.7923V37.2888C612.611 37.0874 612.611 36.886 612.56 36.6846C612.458 36.4328 612.204 36.4832 612 36.8357C611.441 36.4328 610.882 35.9796 610.882 35.5769C610.983 35.2244 611.136 34.9223 611.339 34.6202L611.085 29.1823L609.203 31.297L608.033 31.6495C607.423 30.9446 606.914 30.1893 606.457 29.3837C606.355 28.9305 606.507 25.9599 606.914 22.536L606.965 22.2842L606.711 21.68C607.321 20.9751 607.881 20.1191 608.237 19.2632L609.508 21.3275L610.424 20.9248C611.238 20.5723 612.153 20.3709 613.069 20.3709V19.7163C612.051 19.7666 611.034 19.9681 610.119 20.3709L609.763 20.5219L608.491 18.4072L608.237 17.0981L607.881 18.1051C607.474 19.3639 606.813 20.4716 605.948 21.4786L605.846 21.5793L606.151 22.3849V22.4856C605.897 24.9025 605.541 28.9305 605.694 29.6355C605.897 30.1893 607.372 32.1027 608.288 33.2103L608.389 33.3111V33.4621ZM607.321 12.4658C606.202 14.6812 605.032 17.3498 604.982 18.4072L605.592 20.1191C606.965 18.2561 607.474 15.2351 607.626 14.4798L607.321 12.4658ZM609.101 24.8017C607.779 24.8017 608.745 25.9095 608.898 26.0605H611.441C610.882 25.3053 610.017 24.8521 609.101 24.8017ZM609.203 27.3697C609.305 27.3697 609.407 27.3193 609.457 27.2186C609.508 27.1179 609.508 26.9668 609.407 26.9165H608.593V26.9668C608.644 27.571 609.152 27.9739 609.712 27.9235C610.22 27.8731 610.678 27.4704 610.678 26.9668V26.9165H609.864C609.966 26.9668 610.017 27.0676 610.068 27.1683C610.119 27.3697 610.068 27.6214 609.864 27.7221C609.763 27.7725 609.661 27.8228 609.559 27.7725C609.407 27.7221 609.203 27.571 609.203 27.3697ZM614.137 39.5546C613.933 39.5042 613.781 39.4035 613.628 39.3029C613.272 39.5546 612.763 39.5546 612.356 39.3029C612.204 39.4035 612.051 39.5042 611.848 39.5546C612.509 40.1588 613.475 40.1588 614.137 39.5546ZM615.968 27.3193C616.069 27.3193 616.171 27.2689 616.222 27.1683C616.273 27.0676 616.222 26.9668 616.171 26.8662H615.357V26.9165C615.357 27.4704 615.815 27.9739 616.425 27.9739C616.985 27.9739 617.493 27.5207 617.493 26.9165V26.8662H616.68C616.731 26.9165 616.781 26.9668 616.832 27.0172C616.883 27.1179 616.883 27.1683 616.883 27.2689C616.883 27.3697 616.883 27.42 616.832 27.4704C616.781 27.5207 616.731 27.6214 616.68 27.6214C616.629 27.6718 616.527 27.6718 616.476 27.7221C616.425 27.7221 616.324 27.7221 616.273 27.6718C616.222 27.6214 616.12 27.6214 616.069 27.5207C616.019 27.5207 615.968 27.42 615.968 27.3193ZM617.188 26.0605C617.29 25.9095 618.307 24.8017 616.985 24.8017C616.069 24.8521 615.205 25.3053 614.645 26.0605H617.188ZM621.105 18.4576C621.003 17.3498 619.833 14.7316 618.765 12.5162L618.511 14.3791C618.562 14.6812 619.019 18.0547 620.494 20.1191L621.105 18.4576ZM620.85 22.536C621.308 26.5641 621.461 29.3334 621.206 29.9376C620.749 30.8439 620.138 31.6495 619.528 32.4551L620.494 41.5183L619.884 41.9211L613.069 46.7548L607.372 42.7267L607.982 37.037C607.728 35.9796 607.576 34.872 607.525 33.7642L606.609 42.1729L605.643 41.468L606.66 32.4048C605.999 31.5991 605.439 30.7935 604.931 29.8872C604.676 29.283 604.829 26.5641 605.287 22.4856V22.4353L603.863 18.6086V18.5079C603.863 16.8463 606.05 12.3651 607.372 9.9482L607.982 8.79016L609.254 18.0547L610.068 19.3639L610.271 19.3135C611.136 19.0114 612.102 18.81 613.018 18.81C613.984 18.8603 614.9 19.0114 615.764 19.3135L615.968 19.3639L616.781 18.0547L618.104 8.79016L618.714 9.9482C620.037 12.3147 622.224 16.8463 622.224 18.5079V18.6086L620.85 22.536Z" fill="black"/>
<path d="M739.116 17.7296C739.116 15.0108 741.32 12.8068 744.039 12.8068H748.962V22.6526H744.039C741.32 22.6526 739.116 20.4485 739.116 17.7296Z" stroke="black" stroke-width="1.69156"/>
<path d="M739.116 27.6188C739.116 24.8999 741.32 22.6959 744.039 22.6959H748.962V32.5417H744.039C741.32 32.5417 739.116 30.3376 739.116 27.6188Z" stroke="black" stroke-width="1.69156"/>
<path d="M739.116 38.332C739.116 35.6133 741.32 33.4092 744.039 33.4092H748.962V38.5914C748.962 41.167 746.874 43.255 744.298 43.255H744.039C741.32 43.255 739.116 41.0509 739.116 38.332Z" stroke="black" stroke-width="1.69156"/>
<path d="M749.005 12.8068H753.927C756.646 12.8068 758.85 15.0108 758.85 17.7296C758.85 20.4485 756.646 22.6526 753.927 22.6526H749.005V12.8068Z" stroke="black" stroke-width="1.69156"/>
<path d="M749.005 27.6188C749.005 24.8999 751.209 22.6959 753.927 22.6959C756.646 22.6959 758.85 24.8999 758.85 27.6188C758.85 30.3376 756.646 32.5417 753.927 32.5417C751.209 32.5417 749.005 30.3376 749.005 27.6188Z" stroke="black" stroke-width="1.69156"/>
<path d="M753.105 23.086L750.22 24.7342C750.083 25.1462 749.314 27.7009 748.984 28.0305C748.655 28.3602 749.122 24.5968 749.396 22.674L753.105 23.086Z" fill="black"/>
<path d="M772.011 17.4758V34.9693L774.265 34.9865V26.6522H779.701V24.4526H774.265V19.6754H781.335V17.4758H772.011ZM785.395 21.033C786.204 21.033 786.875 20.38 786.875 19.5551C786.875 18.7303 786.221 18.0773 785.395 18.0773C784.587 18.0773 783.916 18.7303 783.916 19.5551C783.916 20.38 784.57 21.033 785.395 21.033ZM784.243 23.2325V34.9865H786.497V23.2325H784.243ZM794.857 22.8889C791.864 22.8889 789.782 25.4149 789.782 28.4222C789.782 31.4294 791.864 33.9554 794.857 33.9554C796.234 33.9554 797.352 33.4399 798.178 32.5636V34.1273C798.195 36.0691 796.647 37.6844 794.685 37.7016C794.668 37.7016 794.668 37.7016 794.651 37.7016C793.929 37.7016 793.223 37.4267 792.655 37.0314L791.52 38.9904C794.204 40.726 797.782 39.9527 799.503 37.272C800.105 36.3269 800.431 35.2443 800.431 34.1273V23.2497H798.178V24.298C797.352 23.4216 796.234 22.8889 794.857 22.8889ZM792.036 28.4222C792.036 26.5491 793.464 25.0884 795.115 25.0884C796.767 25.0884 798.178 26.5663 798.178 28.4222C798.178 30.2952 796.75 31.7387 795.115 31.7387C793.464 31.7387 792.036 30.278 792.036 28.4222ZM808.552 25.0884C807.21 25.1056 806.126 26.2054 806.143 27.5458V34.9693H803.889V23.2153H806.143V24.298C806.831 23.3872 807.898 22.8717 809.05 22.8889C810.634 22.8889 811.855 23.6621 812.543 24.865C813.335 23.6449 814.676 22.906 816.122 22.8889C818.685 22.8889 820.284 24.9509 820.284 27.5114V34.9693H818.048V27.5458C818.048 26.2054 816.982 25.1056 815.64 25.0884C814.298 25.1056 813.214 26.2054 813.231 27.5458V34.9693H810.96V27.5458C810.96 26.2054 809.894 25.1056 808.552 25.0884ZM832.292 24.5557C831.261 23.4731 829.815 22.8717 828.319 22.8889C824.964 22.8889 822.59 25.7242 822.59 29.0923C822.59 32.4776 824.964 35.2958 828.319 35.2958C829.815 35.2958 831.243 34.6943 832.292 33.6289V34.9693H834.546V23.2153H832.292V24.5557ZM824.844 29.0923C824.844 26.8584 826.564 25.0713 828.577 25.0713C830.573 25.0884 832.292 26.8584 832.292 29.0923C832.292 31.3263 830.573 33.0963 828.56 33.0963C826.581 33.1135 824.844 31.3435 824.844 29.0923Z" fill="black"/>
<path d="M895.091 12.3148C886.294 12.3148 879.163 19.3996 879.163 28.139C879.163 36.8787 886.294 43.9629 895.091 43.9629C903.888 43.9629 911.018 36.8787 911.018 28.139C911.018 19.4002 903.888 12.3156 895.09 12.3156L895.091 12.3148ZM902.395 35.1378C902.109 35.6027 901.497 35.75 901.029 35.4647C897.29 33.1952 892.582 32.6813 887.038 33.9398C886.504 34.0607 885.971 33.7281 885.849 33.1972C885.727 32.6661 886.06 32.1371 886.596 32.0161C892.663 30.639 897.867 31.232 902.066 33.7811C902.534 34.0664 902.682 34.673 902.395 35.1378ZM904.344 30.8291C903.985 31.4096 903.22 31.5929 902.636 31.2358C898.355 28.6212 891.829 27.864 886.765 29.3913C886.108 29.5884 885.415 29.2206 885.215 28.5693C885.018 27.9168 885.388 27.229 886.044 27.0306C891.828 25.2868 899.019 26.1315 903.935 29.1331C904.519 29.4902 904.704 30.2499 904.344 30.8293V30.8291ZM904.512 26.3423C899.378 23.3131 890.909 23.0345 886.008 24.5124C885.221 24.7496 884.389 24.3081 884.15 23.5262C883.912 22.7439 884.356 21.9176 885.143 21.6799C890.769 19.983 900.122 20.3108 906.032 23.7966C906.741 24.214 906.973 25.1224 906.553 25.8248C906.135 26.5281 905.218 26.7599 904.512 26.3423H904.512ZM922.496 26.9228C919.746 26.2713 919.257 25.814 919.257 24.8531C919.257 23.9453 920.117 23.3344 921.397 23.3344C922.637 23.3344 923.865 23.7983 925.155 24.7533C925.193 24.7823 925.242 24.7938 925.29 24.7862C925.339 24.779 925.381 24.7528 925.41 24.7133L926.752 22.8327C926.808 22.7552 926.792 22.6485 926.718 22.5894C925.183 21.3661 923.456 20.7716 921.437 20.7716C918.468 20.7716 916.393 22.5419 916.393 25.0749C916.393 27.7913 918.182 28.7531 921.275 29.4956C923.905 30.0978 924.35 30.6023 924.35 31.5041C924.35 32.5037 923.453 33.1253 922.007 33.1253C920.402 33.1253 919.092 32.5868 917.627 31.3283C917.591 31.2962 917.542 31.283 917.496 31.2849C917.446 31.2886 917.403 31.3113 917.372 31.3472L915.866 33.1273C915.803 33.2028 915.811 33.3124 915.883 33.3767C917.587 34.8884 919.683 35.6858 921.946 35.6858C925.145 35.6858 927.213 33.9493 927.213 31.2603C927.219 28.9914 925.851 27.7348 922.502 26.9253L922.496 26.9228ZM934.451 24.2282C933.065 24.2282 931.928 24.7709 930.988 25.883V24.6312C930.988 24.5324 930.908 24.452 930.809 24.452H928.346C928.247 24.452 928.168 24.5324 928.168 24.6312V38.5392C928.168 38.6374 928.247 38.7187 928.346 38.7187H930.809C930.908 38.7187 930.988 38.6374 930.988 38.5392V34.1495C931.928 35.1945 933.065 35.7065 934.451 35.7065C937.029 35.7065 939.638 33.7357 939.638 29.968C939.642 26.1995 937.032 24.228 934.453 24.228L934.451 24.2282ZM936.774 29.968C936.774 31.8858 935.585 33.2255 933.881 33.2255C932.198 33.2255 930.927 31.8253 930.927 29.968C930.927 28.1105 932.198 26.7106 933.881 26.7106C935.557 26.7105 936.774 28.08 936.774 29.9678V29.968ZM946.323 24.2282C943.004 24.2282 940.404 26.7671 940.404 30.009C940.404 33.2161 942.987 35.7274 946.284 35.7274C949.614 35.7274 952.221 33.1972 952.221 29.968C952.221 26.7498 949.631 24.2286 946.323 24.2286V24.2282ZM946.323 33.2444C944.558 33.2444 943.227 31.8348 943.227 29.967C943.227 28.0908 944.513 26.7293 946.284 26.7293C948.06 26.7293 949.398 28.1384 949.398 30.008C949.398 31.8838 948.106 33.2444 946.323 33.2444ZM959.308 24.452H956.598V21.6995C956.598 21.6009 956.518 21.5204 956.418 21.5204H953.955C953.857 21.5204 953.775 21.6009 953.775 21.6995V24.452H952.592C952.493 24.452 952.413 24.5324 952.413 24.6312V26.7339C952.413 26.8325 952.493 26.9132 952.592 26.9132H953.775V32.3544C953.775 34.552 954.876 35.6669 957.05 35.6669C957.933 35.6669 958.664 35.4855 959.355 35.0962C959.412 35.066 959.446 35.0055 959.446 34.9413V32.9382C959.446 32.8778 959.414 32.8192 959.361 32.7871C959.308 32.7531 959.241 32.7512 959.186 32.7795C958.713 33.0157 958.254 33.1253 957.741 33.1253C956.951 33.1253 956.598 32.7682 956.598 31.9708V26.9141H959.308C959.406 26.9141 959.487 26.8336 959.487 26.7348V24.6324C959.49 24.5336 959.41 24.4531 959.309 24.4531L959.308 24.452ZM968.749 24.4628V24.1247C968.749 23.1302 969.133 22.6866 969.993 22.6866C970.506 22.6866 970.919 22.7879 971.381 22.941C971.438 22.9587 971.497 22.9499 971.543 22.916C971.59 22.8822 971.617 22.828 971.617 22.7706V20.7089C971.617 20.6302 971.567 20.5604 971.49 20.5372C971.003 20.393 970.379 20.2451 969.443 20.2451C967.17 20.2451 965.966 21.5175 965.966 23.9236V24.4414H964.783C964.684 24.4414 964.603 24.5219 964.603 24.6205V26.7339C964.603 26.8325 964.684 26.9132 964.783 26.9132H965.966V35.3041C965.966 35.4042 966.048 35.4836 966.147 35.4836H968.608C968.709 35.4836 968.789 35.4042 968.789 35.3041V26.9138H971.088L974.611 35.3041C974.211 36.1847 973.818 36.3604 973.281 36.3604C972.847 36.3604 972.389 36.2319 971.923 35.9768C971.879 35.9541 971.826 35.9504 971.78 35.9635C971.733 35.9806 971.693 36.0146 971.674 36.06L970.839 37.8796C970.799 37.9666 970.833 38.0667 970.917 38.1121C971.788 38.5807 972.574 38.781 973.546 38.781C975.364 38.781 976.37 37.9382 977.254 35.6745L981.526 24.7076C981.549 24.6524 981.541 24.5901 981.507 24.5411C981.474 24.4926 981.419 24.4633 981.36 24.4633H978.796C978.719 24.4633 978.65 24.5119 978.625 24.5835L975.999 32.035L973.123 24.5785C973.096 24.5092 973.03 24.4633 972.956 24.4633H968.749V24.4628ZM963.275 24.452H960.812C960.713 24.452 960.632 24.5324 960.632 24.6312V35.3041C960.632 35.4042 960.713 35.4836 960.812 35.4836H963.275C963.374 35.4836 963.456 35.4042 963.456 35.3041V24.632C963.456 24.5332 963.376 24.4527 963.275 24.4527V24.452ZM962.058 19.592C961.082 19.592 960.291 20.3766 960.291 21.3458C960.291 22.3156 961.082 23.101 962.058 23.101C963.033 23.101 963.823 22.3156 963.823 21.3458C963.823 20.3768 963.032 19.592 962.058 19.592ZM983.63 27.8837C982.655 27.8837 981.897 27.1061 981.897 26.1619C981.897 25.2176 982.665 24.4311 983.639 24.4311C984.613 24.4311 985.372 25.2086 985.372 26.1521C985.372 27.0963 984.603 27.8837 983.63 27.8837ZM983.639 24.6023C982.751 24.6023 982.079 25.3034 982.079 26.1619C982.079 27.0199 982.747 27.7116 983.63 27.7116C984.518 27.7116 985.189 27.0111 985.189 26.1521C985.189 25.294 984.522 24.6023 983.639 24.6023ZM984.023 26.3291L984.514 27.0109H984.099L983.658 26.3854H983.279V27.0109H982.934V25.2037H983.743C984.167 25.2037 984.446 25.4185 984.446 25.7801C984.447 26.0764 984.274 26.2575 984.025 26.3291H984.023ZM983.73 25.5138H983.279V26.0853H983.73C983.954 26.0853 984.09 25.9759 984.09 25.7993C984.09 25.6133 983.954 25.5138 983.73 25.5138Z" fill="black"/>
<path d="M1040.26 40.9732C1040.26 32.4177 1040.26 23.9003 1040.26 15.3672C1049.02 15.3672 1057.75 15.3672 1066.52 15.3672C1066.53 15.4386 1066.55 15.5111 1066.55 15.5837C1066.55 23.9472 1066.55 32.3103 1066.55 40.6738C1066.55 40.8995 1066.48 40.978 1066.24 40.978C1057.68 40.9721 1049.12 40.9732 1040.56 40.9732C1040.47 40.9732 1040.38 40.9732 1040.26 40.9732ZM1053.39 38.2724C1056.75 38.2724 1060.12 38.274 1063.48 38.2631C1063.58 38.2625 1063.76 38.129 1063.76 38.057C1063.77 31.4794 1063.77 24.9013 1063.78 18.3237C1063.78 18.092 1063.7 18.0162 1063.46 18.0162C1056.76 18.0206 1050.06 18.0212 1043.35 18.0157C1043.08 18.0157 1043 18.1105 1043 18.3657C1043.01 24.8937 1043.01 31.4211 1043 37.949C1043 38.202 1043.09 38.2761 1043.34 38.2756C1046.69 38.2702 1050.04 38.2724 1053.39 38.2724Z" fill="black"/>
<path d="M1088.41 26.0074C1088.41 25.6547 1088.43 25.3951 1088.41 25.1378C1088.39 24.8532 1088.5 24.7502 1088.79 24.7562C1089.49 24.7709 1090.18 24.7655 1090.88 24.7589C1091.1 24.7568 1091.19 24.8478 1091.19 25.0681C1091.19 28.3571 1091.19 31.6462 1091.18 34.9353C1091.18 35.0307 1091 35.2051 1090.9 35.2079C1090.17 35.2313 1089.43 35.2313 1088.7 35.2079C1088.6 35.2045 1088.45 35.0399 1088.43 34.9309C1088.38 34.6937 1088.41 34.4441 1088.41 34.1611C1088.09 34.3857 1087.84 34.5967 1087.56 34.7488C1086.33 35.4073 1085.03 35.481 1083.7 35.1735C1082.3 34.8491 1081.31 33.9894 1080.66 32.7518C1080.18 31.8321 1080 30.8404 1080.03 29.8111C1080.08 28.3375 1080.52 27.0073 1081.61 25.9556C1082.76 24.8522 1084.17 24.5032 1085.74 24.6946C1086.75 24.8178 1087.63 25.1989 1088.41 26.0074ZM1088.42 29.9899C1088.45 29.9774 1088.49 29.9654 1088.52 29.9528C1088.35 29.4109 1088.25 28.8352 1088 28.3325C1087.21 26.7679 1084.7 26.4909 1083.56 27.8337C1082.76 28.7731 1082.7 29.8749 1082.96 31.0171C1083.45 33.0833 1085.83 33.3668 1087.12 32.5648C1088.08 31.9717 1088.41 31.0514 1088.42 29.9899Z" fill="black"/>
<path d="M1102.92 25.7076C1103.22 25.5005 1103.49 25.2856 1103.79 25.1275C1104.72 24.6304 1105.74 24.5289 1106.77 24.6663C1108 24.8293 1109.02 25.3729 1109.76 26.3782C1110.3 27.1321 1110.59 27.9805 1110.59 28.9024C1110.6 30.9152 1110.59 32.9274 1110.6 34.9402C1110.6 35.1408 1110.52 35.2259 1110.3 35.2237C1109.59 35.2166 1108.88 35.2139 1108.18 35.2242C1107.93 35.2281 1107.86 35.1311 1107.86 34.9081C1107.86 33.0637 1107.88 31.2188 1107.86 29.3745C1107.85 28.5649 1107.65 27.8011 1106.93 27.2946C1105.73 26.4474 1103.43 26.751 1103.02 28.717C1102.93 29.1449 1102.89 29.5893 1102.89 30.0271C1102.88 31.6533 1102.88 33.2801 1102.89 34.9064C1102.89 35.1327 1102.81 35.227 1102.57 35.2242C1101.86 35.2161 1101.15 35.2177 1100.44 35.2226C1100.22 35.2242 1100.13 35.1305 1100.13 34.9113C1100.13 30.4725 1100.13 26.0342 1100.13 21.5953C1100.13 21.3816 1100.21 21.2906 1100.43 21.2916C1101.16 21.2966 1101.89 21.2846 1102.62 21.3053C1102.71 21.308 1102.87 21.4694 1102.87 21.5588C1102.89 22.8623 1102.88 24.1664 1102.89 25.4705C1102.89 25.5463 1102.9 25.622 1102.92 25.7076Z" fill="black"/>
<path d="M1069.2 28.5709C1069.2 26.4719 1069.21 24.3735 1069.2 22.2746C1069.2 22.0015 1069.29 21.9126 1069.57 21.9142C1071.1 21.9246 1072.63 21.9185 1074.16 21.9197C1075.12 21.9203 1076.05 22.0276 1076.93 22.4332C1078.01 22.9337 1078.74 23.7416 1079.09 24.8598C1079.42 25.9147 1079.41 26.9778 1079.07 28.0251C1078.74 29.0605 1078.08 29.8471 1077.08 30.3536C1076.24 30.7859 1075.33 30.9402 1074.38 30.9228C1073.7 30.9102 1073.01 30.9314 1072.32 30.9151C1072.05 30.9086 1071.97 31.0072 1071.98 31.2624C1071.99 32.4705 1071.98 33.6792 1071.98 34.8873C1071.99 35.1348 1071.89 35.2269 1071.64 35.2237C1070.95 35.2138 1070.26 35.2133 1069.57 35.2237C1069.3 35.2275 1069.2 35.1364 1069.2 34.8665C1069.21 32.7687 1069.2 30.6698 1069.2 28.5709ZM1071.98 26.4408C1071.98 27.1403 1071.97 27.8403 1071.99 28.5393C1072 28.6325 1072.16 28.7949 1072.25 28.7987C1072.83 28.8228 1073.42 28.8489 1074 28.7987C1074.48 28.7567 1074.99 28.6848 1075.43 28.4945C1076.19 28.1593 1076.42 27.4521 1076.51 26.6856C1076.7 25.1962 1075.77 24.1277 1074.24 24.1026C1073.57 24.0916 1072.9 24.09 1072.24 24.1102C1072.15 24.1129 1071.99 24.2683 1071.99 24.3561C1071.97 25.0506 1071.98 25.7463 1071.98 26.4408Z" fill="black"/>
<path d="M1093.71 29.6308C1093.71 28.8403 1093.72 28.0497 1093.7 27.2598C1093.7 27.1954 1093.59 27.0848 1093.52 27.0788C1093.26 27.0564 1092.99 27.093 1092.73 27.0548C1092.63 27.0395 1092.47 26.8907 1092.46 26.7975C1092.44 26.2081 1092.44 25.6166 1092.46 25.0267C1092.47 24.9352 1092.62 24.7884 1092.72 24.7737C1092.97 24.7367 1093.24 24.777 1093.5 24.7492C1093.58 24.7405 1093.7 24.6134 1093.7 24.5383C1093.72 23.7395 1093.71 22.9398 1093.72 22.1411C1093.72 22.0664 1093.86 21.9322 1093.94 21.9306C1094.72 21.9148 1095.49 21.9143 1096.27 21.9328C1096.35 21.9345 1096.47 22.1024 1096.47 22.1951C1096.49 22.9578 1096.49 23.721 1096.48 24.4842C1096.47 24.6898 1096.54 24.7667 1096.75 24.7629C1097.37 24.7525 1097.98 24.7481 1098.59 24.7721C1098.69 24.776 1098.85 24.9362 1098.85 25.0295C1098.88 25.61 1098.86 26.1918 1098.87 26.773C1098.87 26.9801 1098.8 27.0761 1098.57 27.0717C1097.95 27.0608 1097.33 27.0597 1096.72 27.0788C1096.63 27.0815 1096.49 27.2232 1096.49 27.3018C1096.48 28.7688 1096.48 30.2365 1096.48 31.7035C1096.49 32.5289 1096.88 32.9029 1097.73 32.9094C1098.03 32.9116 1098.34 32.8942 1098.63 32.9214C1098.72 32.929 1098.86 33.0599 1098.86 33.1379C1098.88 33.7506 1098.88 34.3645 1098.86 34.9768C1098.86 35.0602 1098.7 35.2101 1098.62 35.2085C1097.85 35.1937 1097.09 35.1851 1096.33 35.1109C1095.02 34.9828 1093.98 33.9944 1093.84 32.7143C1093.73 31.6921 1093.71 30.66 1093.65 29.6329C1093.67 29.6329 1093.69 29.6319 1093.71 29.6308Z" fill="black"/>
<path d="M1045.34 26.3253C1045.34 24.9668 1045.34 23.6087 1045.34 22.2501C1045.33 22.0059 1045.42 21.9105 1045.68 21.9153C1046.38 21.9284 1047.08 21.9263 1047.78 21.9159C1048.01 21.9126 1048.09 22.001 1048.09 22.2206C1048.09 24.7421 1048.07 27.2635 1048.11 29.7845C1048.11 30.3509 1048.25 30.9397 1048.45 31.474C1048.75 32.2934 1049.46 32.6816 1050.32 32.7743C1051.28 32.8778 1052.19 32.7562 1052.84 31.9521C1053.32 31.3481 1053.46 30.6219 1053.46 29.875C1053.47 27.3448 1053.47 24.8141 1053.46 22.2839C1053.46 21.9949 1053.55 21.9067 1053.84 21.9143C1054.54 21.9328 1055.25 21.9099 1055.94 21.9322C1056.04 21.9355 1056.21 22.1007 1056.22 22.1913C1056.23 24.7759 1056.25 27.3611 1056.22 29.9458C1056.19 31.5258 1055.76 32.982 1054.5 34.0875C1053.65 34.835 1052.63 35.1883 1051.51 35.2913C1050.16 35.4151 1048.85 35.2843 1047.67 34.5787C1046.79 34.0565 1046.19 33.3004 1045.81 32.3719C1045.42 31.4363 1045.33 30.4561 1045.34 29.4601C1045.34 28.415 1045.34 27.3704 1045.34 26.3253Z" fill="black"/>
<path d="M1058.34 29.9901C1058.34 28.3503 1058.34 26.7098 1058.33 25.0699C1058.33 24.836 1058.42 24.7559 1058.65 24.7581C1059.36 24.7652 1060.06 24.7652 1060.77 24.7586C1061.01 24.7564 1061.1 24.8354 1061.1 25.0846C1061.1 28.3601 1061.1 31.636 1061.1 34.9114C1061.1 35.147 1061.01 35.2249 1060.78 35.2228C1060.07 35.2173 1059.35 35.2163 1058.64 35.2244C1058.41 35.2271 1058.34 35.1377 1058.34 34.924C1058.34 33.2792 1058.34 31.6344 1058.34 29.9901Z" fill="black"/>
<path d="M1058.03 21.9453C1058.04 20.9749 1058.72 20.3093 1059.72 20.3098C1060.68 20.3104 1061.4 21.0131 1061.4 21.9525C1061.4 22.8837 1060.68 23.5575 1059.7 23.5493C1058.71 23.5417 1058.03 22.8918 1058.03 21.9453Z" fill="black"/>
<path d="M1193.91 37.5692V20.7069C1193.91 20.4645 1194.07 20.2208 1194.4 20.2208H1195.94C1196.18 20.2208 1196.42 20.3828 1196.42 20.7083V37.6495C1196.42 37.8946 1196.26 38.137 1195.94 38.137H1194.4C1194.15 38.0567 1193.91 37.8946 1193.91 37.5705V37.5692ZM1199.75 22.2482V20.6266C1199.75 20.3828 1199.91 20.1392 1200.23 20.1392H1201.93C1202.18 20.1392 1202.42 20.3025 1202.42 20.6266V22.2469C1202.42 22.4907 1202.26 22.7343 1201.93 22.7343H1200.23C1199.91 22.7343 1199.75 22.5723 1199.75 22.2469V22.2482ZM1199.83 37.5692V25.5719C1199.83 25.3282 1200.07 25.0845 1200.31 25.0845H1201.77C1202.02 25.0845 1202.26 25.2479 1202.26 25.5719V37.6509C1202.26 37.8946 1202.1 38.1383 1201.77 38.1383H1200.31C1200.07 38.0567 1199.83 37.8946 1199.83 37.5692ZM1205.58 37.5692V25.5719C1205.58 25.3282 1205.75 25.0845 1206.07 25.0845H1207.53C1207.77 25.0845 1208.02 25.2479 1208.02 25.5719V26.3821H1208.1C1208.58 25.734 1209.39 25.1662 1210.61 24.8408H1210.69C1212.56 24.5984 1214.01 25.0041 1214.99 26.0581C1215.8 26.9499 1216.28 28.0841 1216.28 29.6242V37.6495C1216.28 37.892 1216.12 38.137 1215.8 38.137H1214.34C1214.1 38.137 1213.85 37.975 1213.85 37.6495V30.2723C1213.85 28.0828 1212.96 26.9459 1211.1 26.9459C1210.2 26.9459 1209.39 27.1897 1208.83 27.7575C1208.26 28.3239 1208.02 29.0551 1208.02 29.9456V37.6469C1208.02 37.8907 1207.85 38.1343 1207.53 38.1343H1206.07C1205.75 38.0554 1205.58 37.8946 1205.58 37.5692ZM1219.12 37.5692V20.7069C1219.12 20.4645 1219.28 20.2208 1219.61 20.2208H1221.07C1221.31 20.2208 1221.55 20.3828 1221.55 20.7083V30.9217H1221.63L1226.74 25.3282C1226.74 25.1662 1226.9 25.0845 1226.99 25.0845H1228.85C1229.26 25.0845 1229.42 25.5719 1229.17 25.8143L1225.45 30.0299C1225.37 30.1038 1225.32 30.2065 1225.32 30.3138C1225.32 30.4212 1225.37 30.5238 1225.45 30.5977L1229.99 37.4085C1230.15 37.7312 1229.99 38.137 1229.58 38.137H1227.96C1227.81 38.1329 1227.67 38.0754 1227.55 37.975L1223.42 31.8136H1223.34L1221.63 33.679C1221.55 33.7607 1221.55 33.8411 1221.55 34.0031V37.7312C1221.55 37.975 1221.39 38.2186 1221.07 38.2186H1219.61C1219.36 38.0567 1219.12 37.8946 1219.12 37.5692H1219.12ZM1232.99 34.0031V27.1923H1231.53C1231.28 27.1923 1231.04 27.0303 1231.04 26.7062V25.5719C1231.12 25.3282 1231.28 25.0845 1231.53 25.0845H1233.07V22.4103C1233.07 22.1665 1233.23 21.9229 1233.55 21.9229H1234.93C1235.17 21.9229 1235.42 22.0862 1235.42 22.4103V25.0845H1238.17C1238.42 25.0845 1238.66 25.2479 1238.66 25.5719V26.7062C1238.66 26.9499 1238.5 27.1936 1238.17 27.1936H1235.42V33.7594C1235.42 34.4879 1235.5 34.9753 1235.74 35.2994C1235.98 35.6235 1236.39 35.7868 1237.04 35.7868H1237.61C1237.85 35.7868 1238.09 35.9488 1238.09 36.273V37.6509C1238.09 37.8946 1237.93 38.1383 1237.61 38.1383H1236.88C1235.5 38.1383 1234.53 37.8142 1233.88 37.1648C1233.31 36.3532 1232.99 35.3811 1232.99 34.0031ZM1241.25 37.5692V25.5719C1241.25 25.3282 1241.42 25.0845 1241.66 25.0845H1243.04C1243.28 25.0845 1243.52 25.2479 1243.52 25.5719V26.5442H1243.6C1243.85 26.0568 1244.25 25.6523 1244.74 25.3282C1245.23 25.0041 1245.71 24.9225 1246.28 24.9225C1246.52 24.9225 1246.84 24.9225 1247.09 25.0041C1247.33 25.0845 1247.42 25.3282 1247.42 25.4916L1247.17 26.9499C1247.09 27.1923 1246.85 27.3556 1246.61 27.274C1246.44 27.274 1246.28 27.1923 1246.04 27.1923C1244.5 27.1923 1243.69 28.2462 1243.69 30.354V37.4888C1243.69 37.7312 1243.53 37.9763 1243.2 37.9763H1241.66C1241.42 38.0554 1241.25 37.8946 1241.25 37.5692ZM1258.36 33.8411L1259.41 34.6512C1259.57 34.8133 1259.66 35.057 1259.5 35.2177C1259.01 35.9488 1258.36 36.597 1257.63 37.1648C1256.74 37.7312 1255.6 38.0567 1254.39 38.0567C1252.6 38.0567 1251.15 37.4072 1250.01 36.1913C1248.87 34.9753 1248.31 33.272 1248.31 31.2458C1248.31 29.138 1248.87 27.515 1250.01 26.2991C1251.15 25.0832 1252.52 24.435 1254.31 24.435C1256.01 24.435 1257.47 25.0832 1258.52 26.2991C1259.58 27.515 1260.14 29.2184 1260.14 31.3262V31.5712C1260.14 31.8136 1259.98 32.0574 1259.66 32.0574H1251.23C1250.98 32.0574 1250.74 32.301 1250.74 32.5448C1250.82 33.4366 1251.15 34.2481 1251.63 34.895C1252.28 35.6235 1253.09 36.0292 1254.23 36.0292C1254.79 36.0292 1255.28 35.9488 1255.69 35.7868C1256.09 35.6235 1256.5 35.3811 1256.74 35.1373C1257.06 34.8133 1257.23 34.5708 1257.39 34.4076C1257.47 34.3272 1257.55 34.1651 1257.63 34.0834C1257.79 33.7594 1258.12 33.679 1258.36 33.8411ZM1250.74 30.0299H1257.71C1257.63 29.0577 1257.39 28.1658 1256.82 27.5177C1256.25 26.7878 1255.36 26.4638 1254.22 26.4638C1253.17 26.4638 1252.28 26.8682 1251.71 27.5981C1251.06 28.3279 1250.74 29.1393 1250.74 30.0299ZM1272.46 33.8411L1273.52 34.6512C1273.68 34.8133 1273.76 35.057 1273.6 35.2177C1273.11 35.9488 1272.47 36.597 1271.74 37.1648C1270.84 37.7312 1269.71 38.0567 1268.49 38.0567C1266.71 38.0567 1265.25 37.4072 1264.12 36.1913C1262.98 34.9753 1262.41 33.272 1262.41 31.2458C1262.41 29.138 1262.98 27.515 1264.12 26.2991C1265.25 25.0832 1266.63 24.435 1268.41 24.435C1270.12 24.435 1271.57 25.0832 1272.63 26.2991C1273.68 27.515 1274.25 29.2184 1274.25 31.3262V31.5712C1274.25 31.8136 1274.09 32.0574 1273.76 32.0574H1265.33C1265.07 32.0746 1264.86 32.2831 1264.84 32.5448C1264.93 33.4366 1265.25 34.2481 1265.74 34.895C1266.39 35.6235 1267.2 36.0292 1268.33 36.0292C1268.9 36.0292 1269.38 35.9488 1269.79 35.7868C1270.2 35.6235 1270.6 35.3811 1270.85 35.1373C1271.17 34.8133 1271.33 34.5708 1271.49 34.4076C1271.57 34.3272 1271.65 34.1651 1271.74 34.0834C1271.9 33.7594 1272.22 33.679 1272.46 33.8411ZM1264.84 30.0299H1271.82C1271.74 29.0577 1271.49 28.1658 1270.92 27.5177C1270.36 26.7878 1269.47 26.4638 1268.33 26.4638C1267.28 26.4638 1266.39 26.8682 1265.82 27.5981C1265.17 28.3279 1264.84 29.1393 1264.84 30.0299Z" fill="black"/>
<path d="M1172.78 18.3605C1172.59 18.0218 1172.24 17.8118 1171.85 17.8118C1171.46 17.8118 1171.11 18.0218 1170.92 18.3605L1163.95 31.0072C1163.62 31.6567 1164.11 32.3864 1164.84 32.3864H1169.54V37.1685C1169.54 37.656 1169.94 38.0617 1170.43 38.0617H1173.19C1173.67 38.0617 1174.08 37.656 1174.08 37.1698V32.3864H1172.78C1172.26 32.3926 1171.81 32.0127 1171.73 31.4946C1171.73 31.3326 1171.73 31.1705 1171.81 31.0072L1175.7 23.9541L1172.78 18.3605Z" fill="black"/>
<path d="M1178.93 18.3605C1179.12 18.0225 1179.48 17.813 1179.87 17.813C1180.25 17.813 1180.61 18.0225 1180.8 18.3605L1187.77 31.0072C1188.09 31.6567 1187.61 32.3865 1186.88 32.3865H1182.26V37.1685C1182.26 37.656 1181.85 38.0617 1181.37 38.0617H1178.45C1177.96 38.0573 1177.56 37.6606 1177.56 37.1699V32.3865H1178.85C1179.38 32.3927 1179.83 32.0127 1179.91 31.4946C1179.91 31.3326 1179.91 31.1706 1179.83 31.0072L1175.93 23.9553L1178.93 18.3605Z" fill="black"/>
</g>
<rect width="156.022" height="229.444" fill="url(#paint0_linear_0_30)"/>
<rect x="1082.98" width="156.022" height="229.444" fill="url(#paint1_linear_0_30)"/>
<defs>
<linearGradient id="paint0_linear_0_30" x1="0" y1="114.722" x2="156.022" y2="114.722" gradientUnits="userSpaceOnUse">
<stop offset="0.1" stop-color="white"/>
<stop offset="1" stop-color="white" stop-opacity="0"/>
</linearGradient>
<linearGradient id="paint1_linear_0_30" x1="1239" y1="114.722" x2="1082.98" y2="114.722" gradientUnits="userSpaceOnUse">
<stop offset="0.1" stop-color="white"/>
<stop offset="1" stop-color="white" stop-opacity="0"/>
</linearGradient>
<clipPath id="clip0_0_30">
<rect width="1239" height="55.8016" fill="white"/>
</clipPath>
</defs>
</svg>
