<svg width="1311" height="230" viewBox="0 0 1311 230" fill="none" xmlns="http://www.w3.org/2000/svg">
<g clip-path="url(#clip0_0_147)">
<path d="M71.7481 44.3259C80.8704 44.3259 88.2656 36.9309 88.2656 27.8086C88.2656 18.6863 80.8704 11.2913 71.7481 11.2913C62.6258 11.2913 55.2308 18.6863 55.2308 27.8086C55.2308 36.9309 62.6258 44.3259 71.7481 44.3259Z" fill="white"/>
<path d="M71.7481 11.2913C62.6262 11.2913 55.2308 18.6867 55.2308 27.8086C55.2308 34.8098 59.581 40.7913 65.7258 43.1976C65.5762 41.8925 65.4539 39.8805 65.7802 38.4531C66.0792 37.1617 67.7106 30.242 67.7106 30.242C67.7106 30.242 67.2212 29.2496 67.2212 27.795C67.2212 25.4976 68.5534 23.7847 70.2119 23.7847C71.6258 23.7847 72.3055 24.845 72.3055 26.1093C72.3055 27.5232 71.4083 29.6439 70.9325 31.6151C70.5382 33.26 71.7617 34.6059 73.3795 34.6059C76.3158 34.6059 78.5723 31.5063 78.5723 27.0473C78.5723 23.0913 75.7313 20.3316 71.6666 20.3316C66.9629 20.3316 64.2032 23.8526 64.2032 27.4959C64.2032 28.9098 64.7469 30.4324 65.4267 31.2616C65.5626 31.4248 65.5762 31.5743 65.5354 31.7374C65.4131 32.254 65.1276 33.3824 65.0732 33.6134C65.0052 33.9126 64.8285 33.9805 64.5158 33.8309C62.4494 32.8657 61.158 29.8614 61.158 27.428C61.158 22.2213 64.9373 17.436 72.0744 17.436C77.7979 17.436 82.2568 21.5143 82.2568 26.9794C82.2568 32.6755 78.6679 37.2568 73.6921 37.2568C72.02 37.2568 70.4431 36.3867 69.9129 35.3536C69.9129 35.3536 69.0836 38.5075 68.8797 39.2824C68.5126 40.7234 67.5066 42.5179 66.8269 43.619C68.3767 44.0948 70.0081 44.3531 71.721 44.3531C80.843 44.3531 88.2383 36.9577 88.2383 27.8358C88.2653 18.6867 80.87 11.2913 71.7481 11.2913Z" fill="black"/>
<path d="M179.13 19.0892L181.485 15.0232C182.168 13.8562 181.751 12.3126 180.573 11.635C179.396 10.9573 177.839 11.3714 177.156 12.5385L174.801 16.6045C169.789 15.0232 164.131 17.0562 161.397 21.7998C159.65 24.8116 159.422 28.2376 160.486 31.287L164.852 23.7951C165.84 22.0634 167.473 20.8586 169.409 20.3315C171.346 19.8045 173.358 20.068 175.105 21.0845C178.675 23.1175 179.928 27.7104 177.839 31.2493C175.789 34.7882 171.194 36.0306 167.587 33.9599L170.093 29.6305C171.27 30.3081 172.827 29.894 173.51 28.7269C174.194 27.5223 173.776 26.0164 172.599 25.3387C171.422 24.661 169.865 25.0751 169.181 26.2422L161.207 39.9459C160.524 41.1506 160.941 42.6565 162.118 43.3342C163.296 44.0119 164.852 43.5977 165.536 42.4307L167.89 38.3648C172.903 39.9459 178.561 37.9129 181.295 33.1693C184.067 28.4634 183.004 22.628 179.13 19.0892Z" fill="#181A1D"/>
<path d="M189.725 22.0259H193.598C195.839 22.0259 197.7 23.1177 197.7 25.6777C197.7 28.2377 195.839 29.3672 193.598 29.3672H192.004V32.9437H189.725V22.0259ZM193.522 27.3719C194.624 27.3719 195.345 26.8825 195.345 25.6777C195.345 24.473 194.586 23.9836 193.522 23.9836H191.966V27.3719H193.522Z" fill="#181A1D"/>
<path d="M201.004 22.0259H208.295V24.0212H203.282V26.5436H207.687V28.4636H203.282V30.986H208.523V32.9437H201.004V22.0259Z" fill="#181A1D"/>
<path d="M212.321 22.0259H214.6V30.986H219.574V32.9437H212.321V22.0259Z" fill="#181A1D"/>
<path d="M222.117 27.4852C222.117 24.2475 224.661 21.8756 227.813 21.8756C231.003 21.8756 233.509 24.2475 233.509 27.4852C233.509 30.7229 231.003 33.0946 227.813 33.0946C224.661 33.0946 222.117 30.7229 222.117 27.4852ZM231.193 27.4852C231.193 25.4522 229.825 23.871 227.813 23.871C225.801 23.871 224.433 25.4145 224.433 27.4852C224.433 29.5181 225.801 31.0993 227.813 31.0993C229.825 31.0993 231.193 29.5181 231.193 27.4852Z" fill="#181A1D"/>
<path d="M239.092 23.9836H235.941V21.9883H244.522V23.9836H241.371V32.9437H239.092V23.9836Z" fill="#181A1D"/>
<path d="M246.952 27.4852C246.952 24.2475 249.497 21.8756 252.648 21.8756C255.838 21.8756 258.344 24.2475 258.344 27.4852C258.344 30.7229 255.8 33.0946 252.648 33.0946C249.458 33.0946 246.952 30.7229 246.952 27.4852ZM255.99 27.4852C255.99 25.4522 254.623 23.871 252.611 23.871C250.597 23.871 249.231 25.4145 249.231 27.4852C249.231 29.5181 250.597 31.0993 252.611 31.0993C254.661 31.0993 255.99 29.5181 255.99 27.4852Z" fill="#181A1D"/>
<path d="M265.256 27.8615C264.724 27.3344 263.927 26.3556 263.927 26.3556C263.927 26.3556 264.079 27.5603 264.079 28.3509V32.9439H261.99V21.9131H262.218L267.762 27.1085C268.294 27.5979 269.053 28.6144 269.053 28.6144C269.053 28.6144 268.901 27.372 268.901 26.6191V22.0261H271.027V33.0568H270.8L265.256 27.8615Z" fill="#181A1D"/>
<path d="M325.296 25.2998C325.502 23.6288 326.691 22.7086 327.99 21.8864C328.481 21.5872 329.049 21.4389 329.624 21.4604C330.427 21.47 331.235 21.454 332.035 21.4668C332.303 21.461 332.57 21.4952 332.827 21.568C334.437 22.1005 336.564 23.6981 336.338 25.9633C336.274 26.6109 336.338 27.2701 336.326 27.923C336.313 28.8091 335.864 29.2478 334.957 29.25C332.777 29.2553 330.598 29.25 328.419 29.25H327.766C327.594 29.7132 327.633 30.1169 327.974 30.4395C328.302 30.7662 328.662 31.0601 329.048 31.3172C329.295 31.4521 329.573 31.5194 329.855 31.5121C331.517 31.5291 333.178 31.5174 334.84 31.5259C335.088 31.5226 335.336 31.5564 335.574 31.626C335.796 31.6984 335.989 31.8394 336.124 32.0284C336.259 32.2174 336.33 32.4444 336.325 32.6761C336.325 32.9078 336.25 33.1332 336.112 33.32C335.974 33.5068 335.779 33.6452 335.557 33.7156C335.353 33.7782 335.142 33.8098 334.929 33.8093C333.124 33.8171 331.319 33.8171 329.516 33.8093C329.32 33.8236 329.123 33.8026 328.934 33.7475C327.176 33.0574 325.702 32.0861 325.348 30.0573C325.336 30.024 325.32 29.9926 325.3 29.9635L325.296 25.2998ZM330.779 26.8974C331.691 26.8974 332.604 26.8909 333.513 26.8974C333.821 26.8974 333.942 26.7909 333.972 26.4714C334.08 25.5128 333.857 24.7279 332.965 24.2178C332.858 24.156 332.781 24.0377 332.67 23.9919C332.429 23.8908 332.179 23.7587 331.928 23.747C331.198 23.7151 330.464 23.7268 329.732 23.7417C329.536 23.7366 329.344 23.7828 329.172 23.8759C328.277 24.4585 327.427 25.0613 327.654 26.3477C327.746 26.8611 327.685 26.8888 328.207 26.892C329.064 26.9005 329.922 26.8963 330.779 26.8909V26.8974Z" fill="black"/>
<path d="M388.632 16.9274C389.232 17.2576 389.407 17.7794 389.405 18.4333C389.389 22.5464 389.396 26.6606 389.396 30.7748V31.5203C389.926 31.5203 390.385 31.5203 390.845 31.5203C391.095 31.5116 391.346 31.518 391.596 31.5394C392.207 31.6151 392.613 32.0602 392.626 32.6374C392.639 33.2413 392.23 33.7025 391.6 33.7962C391.493 33.8087 391.386 33.8137 391.278 33.8111C389.225 33.8111 387.171 33.8111 385.117 33.8111C384.662 33.8111 384.266 33.6918 383.997 33.3095C383.481 32.5714 383.974 31.6055 384.916 31.532C385.395 31.4957 385.882 31.5202 386.362 31.5171H386.971V19.181C386.277 19.181 385.621 19.2002 384.965 19.1756C384.198 19.148 383.701 18.5824 383.8 17.8977C383.867 17.4311 384.196 17.1681 384.561 16.9306L388.632 16.9274Z" fill="black"/>
<path d="M353.738 27.5615C353.738 30.0863 353.738 32.6108 353.738 35.1349C353.738 35.9869 353.611 36.1051 352.736 36.1051H340.31C340.149 36.1108 339.988 36.1058 339.829 36.0902C339.44 36.0359 339.266 35.8495 339.231 35.465C339.221 35.3585 339.225 35.252 339.225 35.1455C339.225 30.0973 339.225 25.0484 339.225 19.9989C339.221 19.8756 339.223 19.7523 339.232 19.6293C339.274 19.2331 339.446 19.0638 339.844 19.0329C339.968 19.0222 340.094 19.0329 340.218 19.0329H352.807C353.641 19.0329 353.736 19.1244 353.738 19.9392C353.742 22.4789 353.742 25.0197 353.738 27.5615ZM346.503 25.8256C346.394 25.7389 346.29 25.6453 346.193 25.5455C345.62 24.8681 345.054 24.1865 344.483 23.507C344.054 22.9905 343.633 22.46 343.176 21.9659C342.752 21.5069 342.114 21.4611 341.68 21.8073C341.221 22.1757 341.168 22.7284 341.552 23.2749C341.673 23.4484 341.813 23.6114 341.949 23.7744C342.885 24.8873 343.816 26.0044 344.762 27.1089C344.992 27.3772 345.051 27.5754 344.786 27.8747C344.114 28.6297 343.479 29.4157 342.829 30.19C342.316 30.8013 341.79 31.403 341.299 32.0303C341.154 32.201 341.07 32.4153 341.061 32.6389C341.053 32.8625 341.12 33.0824 341.252 33.2636C341.383 33.4464 341.572 33.5798 341.789 33.6421C342.005 33.7045 342.237 33.6919 342.446 33.6065C342.688 33.498 342.902 33.338 343.075 33.1379C343.805 32.2924 344.51 31.4254 345.229 30.5702C345.612 30.1133 346.005 29.6639 346.443 29.1527C346.821 29.5957 347.154 29.9791 347.481 30.3689C348.242 31.2806 348.991 32.2028 349.766 33.1039C349.948 33.3196 350.175 33.4934 350.432 33.613C350.843 33.7951 351.311 33.6279 351.58 33.2775C351.876 32.8909 351.856 32.3616 351.487 31.9079C350.784 31.0399 350.062 30.1878 349.35 29.3263C348.845 28.717 348.346 28.1026 347.834 27.4784C348.586 26.5722 349.303 25.7158 350.013 24.8564C350.465 24.31 350.929 23.7722 351.353 23.2046C351.486 23.0354 351.56 22.8277 351.563 22.6131C351.566 22.3986 351.498 22.1889 351.37 22.016C351.099 21.6443 350.709 21.4994 350.287 21.6273C350.005 21.7246 349.753 21.8935 349.556 22.1172C349.048 22.6849 348.583 23.2887 348.1 23.8809L346.503 25.8256Z" fill="black"/>
<path d="M358.903 32.7579C358.891 33.0167 358.877 33.1839 358.877 33.3533C358.877 34.6067 358.877 35.8603 358.877 37.1138C358.877 37.7784 358.531 38.2417 358 38.3492C357.279 38.4951 356.676 38.0691 356.581 37.3417C356.568 37.2001 356.564 37.0578 356.569 36.9157C356.569 32.0955 356.569 27.2752 356.569 22.455C356.569 22.3314 356.569 22.2078 356.575 22.0843C356.623 21.4454 357.047 21.0193 357.661 20.983C357.94 20.9712 358.215 21.0599 358.433 21.2327C358.652 21.4055 358.801 21.6508 358.852 21.9235C358.885 22.0769 358.885 22.2377 358.91 22.4922C359.09 22.3293 359.232 22.2111 359.359 22.0864C360.862 20.6401 362.978 20.5539 364.596 21.8734C365.133 22.3112 365.67 22.751 366.207 23.1877C367.105 23.9161 367.558 24.8491 367.55 26.0025C367.543 27.0973 367.55 28.1922 367.55 29.287C367.55 30.3818 367.127 31.3106 366.253 32.0134C365.717 32.4491 365.151 32.8655 364.652 33.3384C363.356 34.5759 360.731 34.61 359.392 33.1999C359.255 33.0678 359.111 32.9464 358.903 32.7579ZM365.156 27.5915C365.156 27.0089 365.187 26.4253 365.142 25.8471C365.123 25.5861 365.028 25.2634 364.847 25.093C364.262 24.5495 363.65 24.0359 363.013 23.554C362.494 23.1568 361.581 23.2037 361.124 23.6275C360.488 24.2186 359.848 24.8096 359.26 25.4465C359.042 25.6942 358.91 26.0043 358.883 26.3316C358.835 27.1943 358.835 28.059 358.883 28.9217C358.909 29.2312 359.034 29.5242 359.24 29.7578C359.816 30.3829 360.438 30.9654 361.057 31.5501C361.642 32.1029 362.452 32.1274 363.09 31.6151C363.657 31.1603 364.208 30.6843 364.769 30.221C364.895 30.1222 364.996 29.9954 365.063 29.851C365.13 29.7065 365.163 29.5484 365.158 29.3892C365.153 28.7896 365.156 28.1911 365.156 27.5915Z" fill="black"/>
<path d="M372.442 29.2476C372.297 29.7961 372.404 30.2062 372.795 30.5427C373.079 30.7845 373.346 31.0613 373.664 31.2445C373.936 31.4028 374.243 31.4927 374.558 31.5065C376.219 31.531 377.88 31.5172 379.542 31.5214C379.756 31.5139 379.969 31.5328 380.178 31.5779C380.422 31.6371 380.639 31.7756 380.795 31.9716C380.95 32.1675 381.036 32.4094 381.036 32.6589C381.038 32.9088 380.955 33.1521 380.801 33.3496C380.647 33.5471 380.429 33.6876 380.185 33.7484C379.977 33.7954 379.763 33.8158 379.549 33.8091C377.832 33.8091 376.114 33.8176 374.405 33.8091C374.083 33.8091 373.738 33.8091 373.457 33.6909C371.961 33.0519 370.666 32.1924 370.158 30.5374C370.089 30.2826 370.057 30.0194 370.063 29.7557C370.053 28.3424 370.056 26.9291 370.063 25.5169C370.063 24.4817 370.481 23.6339 371.268 22.9609C371.59 22.6839 371.93 22.4209 372.271 22.1653C372.879 21.6896 373.635 21.4383 374.409 21.4539C375.16 21.4688 375.911 21.4688 376.664 21.4539C377.27 21.4422 377.86 21.5465 378.348 21.8852C379.025 22.3393 379.662 22.8495 380.253 23.4103C380.814 23.9609 381.029 24.7106 381.041 25.4956C381.052 26.3071 381.048 27.1197 381.041 27.9323C381.034 28.7929 380.589 29.2423 379.719 29.2444C377.504 29.2519 375.29 29.2444 373.074 29.2444L372.442 29.2476ZM375.499 26.896C376.409 26.896 377.316 26.8908 378.226 26.896C378.536 26.896 378.655 26.7811 378.685 26.4647C378.774 25.5456 378.626 24.749 377.728 24.2538C377.622 24.1942 377.543 24.0759 377.432 24.0301C377.162 23.9236 376.884 23.766 376.601 23.749C375.908 23.7085 375.212 23.7319 374.516 23.7372C373.873 23.7426 372.609 24.6755 372.426 25.2719C372.395 25.3904 372.378 25.5124 372.377 25.6351C372.37 25.8641 372.377 26.0941 372.377 26.3231C372.377 26.8855 372.383 26.8907 372.937 26.8929C373.789 26.8993 374.645 26.896 375.499 26.896Z" fill="black"/>
<path d="M456.385 35.0956C455.376 35.0805 454.4 34.9016 453.488 34.4617C451.137 33.3262 449.726 31.4637 449.397 28.8542C449.102 26.522 449.843 24.5099 451.515 22.8721C452.718 21.6933 454.182 21.0537 455.862 20.9262C455.972 20.9262 456.083 20.9322 456.193 20.9262C456.333 20.916 456.388 20.9671 456.393 21.1153C456.397 21.3731 456.418 21.6304 456.457 21.8852C456.93 24.7219 458.522 26.6312 461.194 27.6307C461.912 27.8988 462.667 27.9745 463.426 28.0135L463.424 28.0111C463.414 28.2393 463.419 28.469 463.393 28.695C463.126 31.0601 461.972 32.8637 459.964 34.1042C458.87 34.7769 457.662 35.0787 456.385 35.0956Z" fill="black"/>
<path d="M463.427 28.0117C462.668 27.9726 461.913 27.8968 461.195 27.6289C458.522 26.6293 456.931 24.72 456.458 21.8834C456.419 21.6285 456.398 21.3712 456.394 21.1135C456.389 20.9652 456.335 20.9141 456.194 20.9243C456.084 20.9321 455.973 20.9243 455.862 20.9243C455.972 20.9131 456.083 20.8891 456.191 20.8944C456.344 20.9043 456.392 20.8521 456.393 20.6968C456.401 19.9995 456.508 19.3141 456.747 18.6604C457.747 15.9227 459.678 14.2733 462.549 13.8704C466.368 13.3347 469.902 16.0949 470.415 19.9354C470.458 20.2545 470.463 20.5785 470.485 20.9C470.166 20.9219 469.844 20.924 469.528 20.9705C467.765 21.2194 466.295 22.0243 465.133 23.3796C463.996 24.707 463.45 26.2645 463.427 28.0117Z" fill="#ADADAD"/>
<path d="M463.425 28.0118C463.449 26.2645 463.994 24.707 465.131 23.3796C466.293 22.0243 467.764 21.2195 469.526 20.9705C469.841 20.9258 470.164 20.9237 470.483 20.9001C470.544 20.9146 470.605 20.924 470.667 20.9283C471.997 20.9156 473.207 21.3175 474.306 22.0434C476.056 23.1982 477.125 24.8275 477.44 26.9087C477.771 29.0969 477.195 31.0502 475.734 32.7129C474.556 34.0573 473.06 34.8191 471.296 35.0435C471.03 35.077 470.761 35.0759 470.494 35.091C470.439 34.6022 470.421 34.1048 470.322 33.6265C469.984 32.0019 469.17 30.6543 467.891 29.604C466.593 28.5383 465.105 27.9949 463.423 28.0107L463.425 28.0118Z" fill="black"/>
<path d="M463.424 28.0089C465.106 27.9931 466.594 28.5373 467.892 29.6023C469.171 30.6526 469.985 32.0001 470.323 33.6248C470.423 34.1038 470.44 34.6004 470.495 35.0893C470.46 35.7106 470.422 36.3336 470.238 36.932C469.353 39.8201 467.444 41.5965 464.478 42.0903C460.892 42.6859 457.47 40.3523 456.592 36.8041C456.455 36.2456 456.385 35.6722 456.385 35.0967C457.664 35.0812 458.87 34.7779 459.963 34.1035C461.973 32.863 463.127 31.0594 463.393 28.6943C463.419 28.4668 463.415 28.2372 463.424 28.0089Z" fill="#ADADAD"/>
<path d="M509.232 33.1516H506.441V32.9174C506.441 31.2268 506.446 29.5362 506.436 27.8457C506.439 27.6057 506.399 27.3672 506.319 27.1413C506.144 26.6834 505.773 26.4721 505.296 26.4457C504.804 26.4182 504.423 26.6179 504.162 27.0374C503.917 27.434 503.849 27.8791 503.847 28.3366C503.845 29.8687 503.845 31.4007 503.847 32.9325V33.1502C503.771 33.1544 503.715 33.1607 503.658 33.1607C502.853 33.1607 502.048 33.1565 501.243 33.165C501.082 33.165 501.052 33.1104 501.053 32.9624C501.057 31.2484 501.057 29.5344 501.053 27.8203C501.056 27.6913 501.048 27.5622 501.028 27.4347C500.923 26.8799 500.538 26.5073 500.027 26.4552C499.39 26.3907 498.914 26.6665 498.665 27.2424C498.504 27.616 498.46 28.0108 498.46 28.412C498.458 29.9147 498.458 31.4174 498.46 32.9202V33.1449H495.695V24.4772C495.747 24.473 495.802 24.4645 495.857 24.4645C496.464 24.4645 497.07 24.4688 497.677 24.4603C497.819 24.4582 497.867 24.5093 497.892 24.6406C498.003 25.2221 498.125 25.8029 498.242 26.3815C498.249 26.4203 498.264 26.4577 498.281 26.5179C498.383 26.2713 498.465 26.0449 498.569 25.8272C499.286 24.3166 501.086 23.7735 502.475 24.6512C503.09 25.0386 503.414 25.6271 503.562 26.3266C503.579 26.4044 503.593 26.4823 503.616 26.5978C503.699 26.3977 503.761 26.229 503.837 26.0674C504.271 25.1474 504.932 24.4864 505.96 24.3064C507.382 24.0571 508.842 24.6688 509.157 26.5587C509.205 26.8599 509.228 27.1645 509.227 27.4695C509.234 29.289 509.23 31.1085 509.23 32.9287L509.232 33.1516Z" fill="black"/>
<path d="M522.082 31.4664V35.7477H519.321V24.4773H521.479C521.617 25.1982 521.756 25.9255 521.895 26.6524C522.021 26.2394 522.212 25.8495 522.462 25.4976C523.78 23.6806 526.539 23.9226 527.645 25.7417C528.043 26.396 528.252 27.1096 528.332 27.8637C528.434 28.8354 528.38 29.799 528.091 30.7369C527.776 31.7629 527.217 32.6117 526.207 33.0597C525.262 33.4795 524.295 33.5003 523.349 33.0446C522.766 32.7628 522.404 32.2788 522.183 31.6784C522.163 31.6234 522.145 31.5685 522.124 31.5136C522.111 31.4967 522.097 31.4809 522.082 31.4664ZM522.089 28.8533C522.103 29.4553 522.155 30.0509 522.452 30.5908C522.767 31.1669 523.257 31.447 523.913 31.4378C524.53 31.4293 524.964 31.1335 525.234 30.5883C525.414 30.2266 525.494 29.8357 525.524 29.4359C525.578 28.7002 525.573 27.968 525.295 27.2692C525.067 26.6947 524.662 26.3323 524.03 26.2861C523.338 26.2358 522.802 26.4992 522.457 27.1174C522.155 27.6573 522.107 28.2522 522.091 28.8533H522.089Z" fill="black"/>
<path d="M517.645 24.6214C517.148 24.4492 516.674 24.2533 516.182 24.1224C515.377 23.9075 514.555 23.8166 513.723 23.961C513.569 23.9891 513.418 24.0338 513.273 24.0941C512.914 24.241 512.694 24.5055 512.674 24.9042C512.653 25.3124 512.849 25.6132 513.201 25.7823C513.492 25.9164 513.794 26.0242 514.104 26.1041C514.756 26.2802 515.422 26.4106 516.064 26.612C516.877 26.866 517.561 27.3221 517.979 28.1008C518.297 28.6925 518.361 29.3395 518.33 29.9974C518.285 30.9019 518.005 31.7116 517.331 32.3448C516.795 32.8474 516.146 33.1345 515.436 33.2676C513.778 33.5782 512.175 33.4257 510.661 32.6287C510.181 32.3758 510.184 32.3705 510.184 31.8281C510.184 31.335 510.184 30.842 510.184 30.3489C510.184 30.2929 510.189 30.2369 510.192 30.1679C510.416 30.2869 510.621 30.4067 510.836 30.5074C511.901 31.0079 513.017 31.2509 514.195 31.1434C514.529 31.1128 514.848 31.0234 515.133 30.8342C515.454 30.6201 515.622 30.3253 515.599 29.9305C515.575 29.5304 515.342 29.2708 514.991 29.1475C514.541 28.9901 514.078 28.8658 513.616 28.7523C512.947 28.5868 512.28 28.4291 511.672 28.0856C510.777 27.581 510.28 26.8107 510.15 25.7963C510.067 25.148 510.102 24.5062 510.325 23.8867C510.671 22.9305 511.35 22.2898 512.285 21.9595C514.063 21.3308 515.802 21.4853 517.486 22.3285C517.606 22.3888 517.65 22.4648 517.649 22.6019C517.641 23.2298 517.645 23.8578 517.645 24.4858L517.645 24.6214Z" fill="black"/>
<path d="M489.854 24.6308C489.403 24.4677 488.975 24.2828 488.53 24.1577C487.676 23.9182 486.804 23.8056 485.92 23.9658C485.702 24.0041 485.493 24.0813 485.302 24.1937C484.773 24.5159 484.717 25.2633 485.211 25.6377C485.45 25.8191 485.75 25.942 486.042 26.0251C486.662 26.2044 487.297 26.3347 487.923 26.4967C488.393 26.6127 488.841 26.8086 489.246 27.0761C489.937 27.5424 490.359 28.1795 490.486 29.0108C490.607 29.8088 490.565 30.5925 490.241 31.3406C489.786 32.3898 488.933 32.9607 487.87 33.2122C486.225 33.6017 484.617 33.4612 483.075 32.7385C482.39 32.4176 482.394 32.4106 482.394 31.6579V30.1688C482.646 30.2999 482.871 30.4312 483.108 30.539C484.161 31.0194 485.262 31.2564 486.422 31.1423C486.846 31.1007 487.246 30.9796 487.555 30.6559C487.651 30.5579 487.724 30.4388 487.768 30.308C487.812 30.1772 487.826 30.0381 487.808 29.9012C487.791 29.7643 487.742 29.6332 487.666 29.518C487.591 29.4028 487.49 29.3066 487.372 29.2365C486.945 28.9794 486.455 28.9093 485.983 28.7815C485.394 28.622 484.793 28.4831 484.231 28.251C483.011 27.7457 482.396 26.7838 482.33 25.4634C482.284 24.5579 482.455 23.7095 483.04 22.9874C483.569 22.3337 484.273 21.9534 485.076 21.7706C486.665 21.4095 488.2 21.5673 489.666 22.3091C489.809 22.3816 489.86 22.4721 489.858 22.6359C489.848 23.3055 489.854 23.9742 489.854 24.6308Z" fill="black"/>
<path d="M536.528 33.1622C535.79 33.1622 535.073 33.1647 534.356 33.1559C534.313 33.1559 534.245 33.0671 534.232 33.01C534.142 32.598 534.062 32.1834 533.978 31.7699C533.968 31.7249 533.956 31.6806 533.939 31.6154C533.85 31.7915 533.781 31.957 533.688 32.1085C533.168 32.9509 532.386 33.3387 531.426 33.3954C530.774 33.4338 530.157 33.3021 529.63 32.89C528.993 32.392 528.765 31.7076 528.783 30.9177C528.805 29.9487 529.313 29.3133 530.179 28.9862C530.82 28.7442 531.494 28.5935 532.152 28.3945C532.541 28.2769 532.932 28.1602 533.312 28.0134C533.589 27.9056 533.777 27.6989 533.758 27.3678C533.738 27.0156 533.545 26.793 533.226 26.6757C532.737 26.4958 532.229 26.5077 531.722 26.5493C530.919 26.6172 530.133 26.8265 529.402 27.1677C529.382 27.1769 529.36 27.1815 529.322 27.1938C529.318 27.1259 529.313 27.0695 529.313 27.0135C529.313 26.5324 529.318 26.0509 529.309 25.5694C529.307 25.4286 529.356 25.3434 529.464 25.2627C530.155 24.7474 530.934 24.4604 531.778 24.3318C532.645 24.1994 533.51 24.2082 534.36 24.4519C535.51 24.7812 536.186 25.5596 536.42 26.7247C536.492 27.0868 536.53 27.4552 536.532 27.8246C536.544 29.5384 536.538 31.2526 536.538 32.9668C536.538 33.0242 536.533 33.0815 536.528 33.1622ZM533.793 28.9654C533.564 29.1063 533.398 29.2214 533.219 29.3144C532.887 29.4853 532.543 29.6314 532.216 29.8075C531.661 30.1104 531.483 30.5824 531.669 31.2603C531.739 31.515 531.921 31.6766 532.168 31.7612C532.629 31.919 533.138 31.7699 533.404 31.3593C533.537 31.1536 533.658 30.9099 533.688 30.6715C533.753 30.1224 533.759 29.5652 533.793 28.9654Z" fill="black"/>
<path d="M553.201 29.2588H547.974C547.929 30.1928 548.399 30.961 549.314 31.2146C550.408 31.5175 551.462 31.347 552.48 30.8856C552.632 30.817 552.777 30.7324 552.948 30.6434C552.948 31.1695 552.954 31.6721 552.941 32.174C552.941 32.241 552.851 32.3173 552.786 32.3688C552.226 32.8133 551.59 33.0919 550.896 33.2362C549.829 33.4585 548.771 33.4123 547.738 33.0651C546.566 32.671 545.763 31.8732 545.407 30.6803C544.982 29.2596 544.981 27.837 545.644 26.4803C546.258 25.224 547.31 24.5403 548.666 24.3153C549.358 24.1972 550.068 24.2303 550.747 24.4125C551.833 24.7049 552.571 25.3835 552.959 26.4482C553.288 27.3534 553.27 28.2874 553.201 29.2588ZM550.739 27.9878C550.727 27.4313 550.693 26.8889 550.337 26.4462C550.2 26.2812 550.022 26.1552 549.82 26.0809C549.205 25.8594 548.554 26.1246 548.235 26.7015C548.015 27.0995 547.955 27.5334 547.964 27.9878H550.739Z" fill="black"/>
<path d="M544.465 26.966C544.025 26.8333 543.613 26.6874 543.191 26.5885C542.724 26.4759 542.241 26.4547 541.766 26.5258C540.856 26.6667 540.276 27.2429 540.134 28.1565C540.039 28.7552 540.069 29.3501 540.269 29.9274C540.599 30.8783 541.398 31.3872 542.466 31.3379C543.143 31.3044 543.806 31.1287 544.411 30.8219C544.453 30.8015 544.495 30.7818 544.56 30.7515C544.564 30.8219 544.57 30.8783 544.57 30.9336C544.57 31.2918 544.556 31.6503 544.576 32.0074C544.588 32.2272 544.5 32.3705 544.346 32.5058C543.943 32.8653 543.455 33.1156 542.929 33.2335C541.623 33.5269 540.365 33.4272 539.208 32.6932C538.393 32.1755 537.884 31.4133 537.623 30.4916C537.291 29.318 537.287 28.14 537.685 26.977C538.205 25.4597 539.614 24.3876 541.207 24.2763C542.085 24.2146 542.942 24.2886 543.755 24.6598C543.825 24.6912 543.89 24.7282 543.957 24.7627C544.307 24.9419 544.528 25.1719 544.476 25.6259C544.426 26.0697 544.465 26.5247 544.465 26.966Z" fill="black"/>
<path d="M494.353 33.1538H491.606V24.4798H494.353V33.1538Z" fill="black"/>
<path d="M494.479 22.322C494.467 23.1694 493.808 23.8013 492.949 23.7876C492.115 23.7745 491.476 23.1215 491.484 22.2925C491.493 21.4345 492.155 20.7811 493.005 20.7903C493.838 20.7995 494.489 21.4761 494.479 22.322Z" fill="black"/>
<path d="M608.797 24.5421H599.577V22.1938H611.125V33.7378C610.855 33.8102 609.281 33.8218 608.809 33.7538C608.79 32.9969 608.802 32.2304 608.8 31.464C608.798 30.6977 608.8 29.9443 608.8 29.1852V24.5421H608.797Z" fill="black"/>
<path d="M604.557 28.8146H599.575C599.57 28.5439 599.563 28.2972 599.561 28.0497C599.561 27.7848 599.561 27.5199 599.561 27.2536V26.501C599.829 26.4149 606.051 26.3787 606.856 26.454C606.928 26.6956 606.96 33.1964 606.883 33.7717C606.125 33.8166 605.363 33.7884 604.557 33.7876V28.8146Z" fill="black"/>
<path d="M625.345 30.4153V33.0205L626.446 33.2839V33.7702H623.178C623.167 33.6921 623.151 33.6132 623.147 33.5344C623.143 33.4555 623.153 33.3896 623.158 33.2905L624.133 33.0205V25.9221L623.169 25.6594V25.1709C623.279 25.1637 623.386 25.1513 623.489 25.1513C624.658 25.1513 625.827 25.1448 626.997 25.1513C627.286 25.1565 627.573 25.186 627.857 25.2396C629.268 25.4929 630.114 27.1378 629.685 28.4961C629.302 29.7047 628.428 30.3639 627.089 30.3943C626.632 30.4052 626.173 30.3943 625.714 30.3943C625.599 30.3987 625.481 30.4088 625.345 30.4153ZM625.36 25.8598C625.287 26.3663 625.31 29.4174 625.382 29.6895C625.953 29.6895 626.531 29.7163 627.105 29.6808C627.574 29.6519 627.943 29.4087 628.175 28.9803C628.627 28.1452 628.614 27.3274 628.103 26.5198C627.859 26.1363 627.505 25.9025 627.07 25.8685C626.508 25.8294 625.941 25.8605 625.36 25.8605V25.8598Z" fill="black"/>
<path d="M642.83 25.8665V29.0629C643.09 29.1353 644.195 29.1577 644.813 29.0969C644.882 28.7235 644.953 28.3378 645.03 27.9268H645.609V31.0334H645.03C644.958 30.6478 644.89 30.2613 644.817 29.8575H642.83V32.9888L644.18 33.2306V33.774H640.532V33.2812L641.592 32.9917V25.9178L640.522 25.6595V25.1718H647.205V27.693H646.593C646.466 27.096 646.338 26.4895 646.207 25.8665H642.83Z" fill="black"/>
<path d="M652.437 28.034L651.539 27.7886V27.3357H653.23C653.319 27.7061 653.407 28.0774 653.508 28.5058C653.598 28.4089 653.661 28.3488 653.715 28.2807C654.315 27.5115 655.093 27.1431 656.077 27.222C656.868 27.285 657.414 27.7228 657.573 28.5022C657.665 28.9623 657.716 29.4293 657.727 29.8982C657.751 30.8136 657.737 31.7298 657.737 32.6481V33.065L658.65 33.3182V33.777H655.818C655.805 33.7271 655.797 33.6763 655.791 33.6251C655.791 33.5302 655.799 33.4347 655.804 33.3175L656.568 33.0794C656.576 32.9752 656.588 32.8811 656.588 32.7899C656.588 31.8014 656.588 30.8136 656.581 29.8229C656.578 29.5582 656.556 29.294 656.514 29.0326C656.405 28.3539 655.927 27.9884 655.236 28.0376C654.304 28.1042 653.644 28.733 653.619 29.6666C653.586 30.7738 653.61 31.8832 653.611 32.9919C653.617 33.0232 653.629 33.0534 653.644 33.0816L654.385 33.3182V33.7756H651.546C651.538 33.6996 651.525 33.6309 651.524 33.5635C651.522 33.4963 651.529 33.4188 651.533 33.324L652.437 33.0721V28.034Z" fill="black"/>
<path d="M671.844 33.0646L672.752 33.3143V33.7702H669.914V33.31L670.677 33.0712C670.684 32.9554 670.694 32.849 670.694 32.7426C670.694 31.8149 670.694 30.8871 670.688 29.9587C670.685 29.6577 670.662 29.3573 670.621 29.0591C670.527 28.3571 670.005 27.9598 669.296 28.0344C668.355 28.1335 667.743 28.7537 667.721 29.6988C667.694 30.8068 667.714 31.9155 667.714 33.0596L668.49 33.3085V33.7196C668.234 33.805 666.365 33.8332 665.645 33.7608C665.639 33.6305 665.634 33.4938 665.625 33.3201L666.537 33.0639V28.0388L665.647 27.7876V27.3383H667.334C667.421 27.7146 667.51 28.0974 667.614 28.5388C667.707 28.4223 667.77 28.3441 667.831 28.2638C668.497 27.3911 669.528 27.0155 670.588 27.3021C671.118 27.4468 671.46 27.7934 671.624 28.3152C671.79 28.85 671.829 29.4007 671.836 29.9572C671.849 30.8488 671.842 31.7411 671.843 32.6348L671.844 33.0646Z" fill="black"/>
<path d="M631.313 25.9172L630.242 25.6596V25.1725H633.743C633.753 25.255 633.768 25.3346 633.771 25.4142C633.769 25.4955 633.763 25.5767 633.752 25.6574L632.554 25.9172V33.0663H635.789C635.925 32.3955 636.062 31.7174 636.202 31.0234C636.31 31.0154 636.403 31.0068 636.496 31.0032C636.59 30.9995 636.686 31.0032 636.772 31.0032C636.851 31.2963 636.862 33.3913 636.79 33.7734H630.244V33.2885L631.313 33.0273V25.9172Z" fill="black"/>
<path d="M615.563 33.755V33.2889L616.662 33.0269V25.9219L615.576 25.6578V25.1751H619.076C619.084 25.2728 619.097 25.3545 619.096 25.4364C619.091 25.5118 619.082 25.5869 619.069 25.6614L617.884 25.9183V33.0827C618.954 33.0899 620.019 33.0827 621.122 33.0827C621.263 32.3844 621.4 31.7077 621.539 31.0151H622.13C622.203 31.2597 622.224 33.3135 622.155 33.7354C621.892 33.807 616.037 33.8251 615.563 33.755Z" fill="black"/>
<path d="M686.335 30.0571C686.307 29.4818 686.271 28.9405 686.051 28.4369C685.694 27.6162 684.503 27.4447 683.942 28.1307C684.023 28.2841 684.13 28.4325 684.184 28.599C684.346 29.0954 684.014 29.5079 683.498 29.4674C683.353 29.4595 683.215 29.3997 683.109 29.2986C683.004 29.1976 682.938 29.0621 682.924 28.9167C682.893 28.7188 682.914 28.5163 682.983 28.3285C683.053 28.1408 683.169 27.974 683.322 27.8442C683.455 27.7225 683.604 27.6181 683.764 27.5337C684.409 27.1936 685.102 27.1343 685.804 27.2653C686.528 27.3992 687 27.8536 687.257 28.5367C687.46 29.0744 687.523 29.6382 687.536 30.2048C687.554 30.964 687.545 31.7245 687.549 32.4837C687.549 32.7008 687.561 32.9178 687.733 33.1574L688.466 33.2529C688.473 33.3361 688.483 33.436 688.493 33.5467C688.059 33.7312 687.646 33.8818 687.191 33.8897C686.829 33.8962 686.684 33.7848 686.612 33.428C686.564 33.1697 686.544 32.9048 686.507 32.6038C686.388 32.7485 686.29 32.8817 686.179 33.0004C685.46 33.7674 684.587 34.0649 683.559 33.808C683.052 33.6806 682.738 33.3267 682.624 32.8071C682.461 32.0654 682.696 31.4459 683.321 31.0088C683.731 30.7193 684.196 30.5478 684.675 30.4263C685.142 30.3083 685.616 30.2229 686.087 30.1223C686.162 30.1093 686.23 30.0868 686.335 30.0571ZM686.326 30.4559C685.707 30.5371 685.103 30.7093 684.533 30.9668C683.823 31.3142 683.683 31.9916 683.869 32.611C683.99 33.0149 684.32 33.2406 684.737 33.2283C685.358 33.2102 686.032 32.7391 686.238 32.1515C686.433 31.6065 686.439 31.0457 686.323 30.4559H686.326Z" fill="black"/>
<path d="M662.969 30.0696C662.95 29.4661 662.914 28.8886 662.652 28.361C662.27 27.5947 661.102 27.4767 660.573 28.1439C660.653 28.2595 660.726 28.3803 660.79 28.5057C661.007 29.0123 660.717 29.4726 660.196 29.4712C660.037 29.4755 659.883 29.4196 659.764 29.3145C659.645 29.2094 659.57 29.0631 659.556 28.9052C659.517 28.594 659.568 28.2908 659.78 28.0564C659.952 27.8556 660.156 27.6844 660.383 27.5498C661.068 27.1778 661.807 27.1214 662.559 27.2979C663.149 27.4362 663.56 27.8045 663.814 28.3516C664.075 28.9088 664.154 29.5095 664.167 30.1116C664.186 30.883 664.174 31.6552 664.178 32.4273C664.178 32.6698 664.199 32.9086 664.366 33.164L665.099 33.256C665.108 33.3457 665.115 33.4368 665.125 33.5454C664.707 33.7321 664.292 33.8841 663.839 33.8906C663.466 33.8971 663.31 33.7719 663.247 33.4021C663.203 33.1539 663.186 32.9021 663.149 32.5981C663.046 32.7284 662.97 32.829 662.889 32.9237C662.211 33.7111 661.355 34.0367 660.334 33.845C659.547 33.7003 659.187 33.0722 659.222 32.3C659.25 31.7094 659.543 31.2796 660.029 30.9641C660.609 30.5899 661.26 30.4278 661.921 30.2766C662.258 30.1984 662.601 30.142 662.969 30.0696ZM662.985 30.4314C662.326 30.5566 661.724 30.6941 661.156 30.972C660.448 31.3194 660.312 32.0401 660.525 32.6589C660.663 33.0634 661.031 33.2812 661.466 33.2183C661.863 33.171 662.233 32.9902 662.515 32.7052C663.144 32.0546 663.041 31.2622 662.985 30.4329V30.4314Z" fill="black"/>
<path d="M678.186 32.207L678.504 32.4727C677.943 33.3722 677.171 33.8722 676.115 33.8918C675.887 33.9035 675.657 33.8953 675.43 33.8672C674.477 33.7145 673.778 33.2115 673.428 32.299C673.007 31.1997 672.981 30.081 673.428 28.9867C673.875 27.8925 674.738 27.2941 675.935 27.2217C676.381 27.1942 676.824 27.2145 677.251 27.3787C678.081 27.6979 678.517 28.3962 678.427 29.2791C678.385 29.688 678.168 29.934 677.816 29.9738C677.446 30.0151 677.165 29.8711 677.04 29.578C676.979 29.4199 676.967 29.2469 677.005 29.0818C677.044 28.9167 677.132 28.7673 677.257 28.6531C677.345 28.5757 677.449 28.5142 677.551 28.4396C677.334 28.0199 676.963 27.8708 676.546 27.818C676.329 27.791 676.111 27.791 675.894 27.818C675.268 27.8976 674.821 28.2305 674.601 28.8311C674.512 29.0676 674.45 29.3132 674.415 29.5635C674.326 30.2597 674.31 30.9609 674.473 31.6477C674.649 32.3938 675.065 32.9503 675.868 33.0805C676.202 33.1394 676.545 33.1246 676.873 33.037C677.201 32.9496 677.506 32.7915 677.766 32.574C677.905 32.4704 678.024 32.3525 678.186 32.207Z" fill="black"/>
<path d="M690.958 33.0677L691.865 33.3093V33.7363C691.623 33.8087 689.465 33.8297 688.925 33.7573C688.919 33.6285 688.913 33.4918 688.906 33.3232L689.789 33.0713V25.1558L688.928 24.9155V24.4886C689.196 24.4161 690.475 24.4039 690.942 24.469C690.973 25.4097 690.952 26.3571 690.956 27.3036C690.96 28.2676 690.956 29.2315 690.956 30.1983L690.958 33.0677Z" fill="black"/>
<path d="M599.583 30.7181H602.63V33.7698H599.583V30.7181Z" fill="black"/>
<path d="M648.677 28.0271L647.804 27.7897V27.3331H649.843C649.864 28.2884 649.85 29.2349 649.853 30.1808C649.856 31.1266 649.853 32.0819 649.853 33.061L650.767 33.3157V33.7723H647.8C647.793 33.6276 647.787 33.4916 647.779 33.3244L648.647 33.0841C648.718 32.8149 648.741 28.6849 648.677 28.0271Z" fill="black"/>
<path d="M679.084 27.7921V27.3803C679.337 27.3 680.452 27.2775 681.08 27.3405C681.165 27.6387 681.107 27.9513 681.117 28.2581C681.128 28.5837 681.117 28.9094 681.117 29.235V33.0589L682.03 33.3165V33.7718H679.084V33.3101L679.945 33.0799V28.0316L679.084 27.7921Z" fill="black"/>
<path d="M650.01 25.3983C650.003 25.8542 649.704 26.1379 649.248 26.122C648.808 26.1054 648.547 25.826 648.549 25.3737C648.55 24.9214 648.838 24.6255 649.293 24.6341C649.747 24.6428 650.017 24.9316 650.01 25.3983Z" fill="black"/>
<path d="M681.293 25.3945C681.286 25.8287 680.998 26.1181 680.561 26.1181C680.106 26.1218 679.815 25.8287 679.818 25.3734C679.821 24.9183 680.107 24.6267 680.563 24.6317C681.019 24.6368 681.301 24.9429 681.293 25.3945Z" fill="black"/>
<path d="M828.302 22.9388C827.474 22.9088 826.656 22.9388 825.876 23.2628C824.614 23.7841 823.795 24.7066 823.331 25.9511C823.037 26.7383 822.944 27.5576 822.942 28.3898C822.941 30.0844 822.941 31.7789 822.942 33.4733V33.691H820.69V20.7888H822.934V22.7247L822.991 22.7594C823.018 22.7159 823.049 22.6741 823.082 22.6342C823.97 21.6668 825.043 20.9999 826.347 20.7134C826.853 20.6 827.374 20.5596 827.892 20.5936C828.029 20.6032 828.167 20.602 828.303 20.6056L828.302 22.9388Z" fill="black"/>
<path d="M819.412 28.2452H809.508C809.521 28.3219 809.527 28.3794 809.539 28.4357C809.905 30.0269 810.814 31.1704 812.437 31.643C813.923 32.0759 815.309 31.7723 816.537 30.8536C816.915 30.5716 817.235 30.217 817.58 29.894C817.624 29.8466 817.665 29.7966 817.703 29.7442L819.331 31.1516C819.327 31.1696 819.321 31.1869 819.312 31.2031C818.539 32.0667 817.695 32.844 816.618 33.3408C815.463 33.8734 814.244 34.0594 812.98 33.9501C811.169 33.7953 809.69 33.0144 808.56 31.6208C807.731 30.5994 807.278 29.4199 807.136 28.1288C806.992 26.8235 807.131 25.5479 807.674 24.3379C808.539 22.4095 809.967 21.0806 812.098 20.6414C814.26 20.1964 816.174 20.7222 817.713 22.3301C818.537 23.191 819.01 24.2375 819.267 25.3823C819.446 26.1869 819.502 27.013 819.434 27.8338C819.427 27.9626 819.421 28.0907 819.412 28.2452ZM809.527 26.13H817.018C817.018 26.084 817.015 26.0379 817.009 25.9923C816.894 25.406 816.702 24.8484 816.398 24.3277C815.275 22.3996 812.889 22.2771 811.502 23.13C810.487 23.7558 809.905 24.6777 809.601 25.791C809.574 25.8962 809.555 26.0045 809.527 26.13Z" fill="black"/>
<path d="M789.531 33.6934H787.283V32.578C787.22 32.6224 787.183 32.6457 787.149 32.6723C785.829 33.7039 784.314 34.0833 782.652 33.9503C781.545 33.8605 780.533 33.5102 779.628 32.8664C777.304 31.2141 777.47 27.6286 780.037 26.1727C780.893 25.6868 781.818 25.4242 782.795 25.3326C784.227 25.1975 785.647 25.3074 787.054 25.5912C787.118 25.6041 787.182 25.6137 787.28 25.6305C787.253 25.414 787.24 25.2113 787.2 25.0149C786.96 23.8246 786.202 23.0858 784.953 22.8514C783.659 22.6082 782.402 22.7816 781.188 23.2577C780.773 23.4203 780.377 23.626 779.972 23.8123C779.917 23.8375 779.863 23.8644 779.786 23.9021L778.917 21.8659C779.487 21.6312 780.032 21.3869 780.592 21.1809C781.852 20.7137 783.2 20.5195 784.543 20.6119C785.582 20.6814 786.57 20.9296 787.448 21.5045C788.555 22.2301 789.176 23.2682 789.407 24.5349C789.484 24.9605 789.524 25.3919 789.525 25.8242C789.536 28.3859 789.53 30.9476 789.53 33.5096L789.531 33.6934ZM787.336 27.8328L787.285 27.8167C787.268 27.8068 787.249 27.7988 787.23 27.7927C785.826 27.4759 784.408 27.3046 782.968 27.4334C782.366 27.4867 781.793 27.6478 781.269 27.9622C780.075 28.6794 780.016 30.4071 781.153 31.1871C781.403 31.359 781.683 31.5144 781.972 31.6063C783.292 32.0187 784.566 31.8636 785.762 31.1961C786.512 30.7769 787.057 30.1655 787.224 29.319C787.319 28.8326 787.304 28.3281 787.336 27.8328Z" fill="black"/>
<path d="M765.586 33.6905V15.8655H767.844V21.9124C767.877 21.8953 767.909 21.8761 767.939 21.8546C768.881 21.0093 769.997 20.5811 771.265 20.5099C772.293 20.452 773.284 20.5967 774.213 21.0488C775.622 21.7318 776.46 22.861 776.845 24.334C776.977 24.857 777.041 25.3942 777.035 25.933C777.035 28.4648 777.035 30.9966 777.035 33.5282V33.6908H774.77V33.4689C774.77 31.0568 774.77 28.6448 774.77 26.2327C774.77 25.6614 774.712 25.0981 774.506 24.5582C774.109 23.5236 773.356 22.8973 772.249 22.7017C771.202 22.5172 770.211 22.6685 769.332 23.2913C768.47 23.9019 768.02 24.7538 767.887 25.7739C767.861 25.9967 767.849 26.2208 767.853 26.4449C767.851 28.7872 767.851 31.1295 767.853 33.4719V33.6913L765.586 33.6905Z" fill="black"/>
<path d="M764.679 18.3109C764.121 18.8576 763.573 19.3957 763.01 19.9476C762.955 19.9068 762.881 19.8578 762.812 19.8005C762.141 19.2616 761.42 18.8145 760.579 18.577C758.194 17.9036 755.775 18.7732 754.395 20.7965C753.696 21.8211 753.317 22.9542 753.193 24.1756C753.052 25.5665 753.232 26.9113 753.809 28.1938C754.369 29.4364 755.201 30.463 756.438 31.1065C758.295 32.0733 760.143 31.9631 761.939 30.9297C762.292 30.7271 762.604 30.4566 762.934 30.2159C763.015 30.156 763.091 30.0917 763.156 30.0401L764.728 31.582C764.064 32.2107 763.346 32.7938 762.496 33.2004C759.109 34.8221 754.41 34.1094 752.039 29.9159C751.369 28.7307 751.002 27.4545 750.874 26.1079C750.721 24.4909 750.9 22.9123 751.495 21.392C752.241 19.4873 753.475 17.9809 755.324 17.0008C756.667 16.2893 758.109 16.0367 759.627 16.1384C760.746 16.2139 761.811 16.4729 762.809 16.9852C763.498 17.3398 764.1 17.8105 764.679 18.3109Z" fill="black"/>
<path d="M800.734 22.9323H799.218V20.5988H800.731V17.0056H802.999V20.5922H807.224V22.9299H803.015C803.009 23.0116 803.003 23.07 803.003 23.1287C803.003 25.3815 803.004 27.6343 803.005 29.887C803.004 30.0962 803.019 30.3051 803.052 30.5119C803.16 31.1899 803.565 31.5843 804.253 31.7044C804.867 31.8166 805.501 31.753 806.078 31.5211C806.394 31.3956 806.702 31.2555 807.015 31.1222C807.065 31.1007 807.116 31.0809 807.184 31.0528V33.2986C806.732 33.5258 806.259 33.7141 805.75 33.8106C804.904 33.9717 804.059 33.9663 803.232 33.7118C801.818 33.277 801.032 32.3068 800.796 30.8923C800.753 30.6066 800.732 30.3179 800.735 30.0289C800.731 27.7413 800.73 25.4536 800.733 23.1659L800.734 22.9323Z" fill="black"/>
<path d="M793.135 22.7432C794.548 21.1834 796.325 20.4995 798.447 20.6031V22.9342C798.352 22.9342 798.264 22.9342 798.175 22.9342C797.598 22.9214 797.026 22.9474 796.469 23.116C794.985 23.5652 794.023 24.5422 793.493 25.9523C793.2 26.7341 793.105 27.5482 793.104 28.3756C793.103 30.0752 793.103 31.7748 793.104 33.4744V33.6927H790.853V20.7899H793.097V22.7252L793.135 22.7432Z" fill="black"/>
<path d="M763.584 36.3797H764.205L765.242 37.9572C765.287 37.8958 765.32 37.8544 765.349 37.8107C765.638 37.3715 765.929 36.9334 766.214 36.4908C766.273 36.3989 766.339 36.3621 766.448 36.3684C766.598 36.3767 766.75 36.3705 766.913 36.3705V39.7002H766.352V37.3646L766.301 37.3469L765.239 38.9019L764.192 37.367L764.151 37.3823V39.7019H763.584V36.3797Z" fill="black"/>
<path d="M772.921 39.7054H772.36V37.3647L772.314 37.3485L771.251 38.9026L770.204 37.3662L770.16 37.3809V39.7012H769.593V36.3748C769.789 36.3748 769.985 36.3684 770.18 36.3799C770.219 36.3823 770.263 36.446 770.292 36.4898C770.582 36.9284 770.871 37.3689 771.159 37.8088C771.19 37.8534 771.22 37.8962 771.263 37.9543C771.303 37.8986 771.333 37.86 771.359 37.8193C771.651 37.3755 771.945 36.9326 772.232 36.4861C772.288 36.3999 772.35 36.363 772.455 36.3684C772.606 36.3762 772.757 36.3706 772.923 36.3706L772.921 39.7054Z" fill="black"/>
<path d="M781.665 37.389V39.7012H781.102V36.3733C781.27 36.3733 781.436 36.3634 781.6 36.3793C781.651 36.3841 781.703 36.452 781.742 36.5009C782.279 37.1772 782.815 37.8545 783.349 38.5329C783.385 38.5816 783.433 38.6196 783.489 38.6425V36.3841H784.06V39.7126C783.907 39.7126 783.755 39.7204 783.607 39.7075C783.563 39.7039 783.518 39.6477 783.485 39.6067C782.929 38.9066 782.374 38.2057 781.82 37.504C781.784 37.4585 781.745 37.4142 781.708 37.3714L781.665 37.389Z" fill="black"/>
<path d="M815.432 39.7065H814.862V36.3728C815.029 36.3728 815.186 36.3645 815.341 36.3779C815.389 36.3821 815.441 36.4378 815.477 36.4816C816.02 37.1649 816.563 37.8495 817.103 38.5354C817.133 38.5737 817.166 38.6105 817.229 38.6851V36.386H817.801V39.6837C817.53 39.7799 817.329 39.7265 817.164 39.5176L815.567 37.4978C815.531 37.4493 815.485 37.4097 815.432 37.3825V39.7065Z" fill="black"/>
<path d="M761.053 38.04C761.053 39.0281 760.29 39.7737 759.274 39.7767C758.257 39.7796 757.484 39.0368 757.483 38.0525C757.483 37.0769 758.264 36.3158 759.269 36.3131C760.29 36.3098 761.052 37.0485 761.053 38.04ZM760.44 38.0552C760.44 37.3665 759.934 36.8425 759.265 36.8422C758.604 36.8422 758.11 37.3494 758.106 38.0325C758.103 38.725 758.605 39.2434 759.278 39.2428C759.942 39.2422 760.439 38.7331 760.44 38.0552Z" fill="black"/>
<path d="M812.31 38.0472C812.307 39.0424 811.538 39.7797 810.509 39.7755C809.501 39.7713 808.738 39.0269 808.742 38.0442C808.746 37.0614 809.528 36.3074 810.549 36.3119C811.554 36.3152 812.313 37.0629 812.31 38.0472ZM810.534 39.2428C811.196 39.2428 811.698 38.7338 811.7 38.057C811.7 37.371 811.19 36.8425 810.523 36.8422C809.858 36.8419 809.353 37.3656 809.359 38.0459C809.363 38.7263 809.868 39.2425 810.533 39.2428H810.534Z" fill="black"/>
<path d="M795.149 39.7086L796.644 36.3549H797.201C797.694 37.4628 798.191 38.5754 798.697 39.7086H798.077L797.735 38.9181H796.1C795.983 39.1806 795.867 39.4435 795.749 39.7097L795.149 39.7086ZM796.316 38.391H797.513L796.933 37.0735L796.892 37.0771C796.702 37.5092 796.514 37.94 796.316 38.3919V38.391Z" fill="black"/>
<path d="M775.585 36.38H776.134C776.139 36.445 776.146 36.5028 776.146 36.5597C776.146 37.1029 776.146 37.646 776.148 38.1889C776.148 38.2885 776.155 38.3879 776.169 38.4865C776.257 39.127 776.901 39.4472 777.483 39.136C777.772 38.9816 777.883 38.7168 777.888 38.4117C777.898 37.7991 777.893 37.1858 777.894 36.5732V36.3833H778.479C778.482 36.4396 778.488 36.4926 778.488 36.5456C778.488 37.1088 778.501 37.6724 778.482 38.2347C778.478 38.4879 778.434 38.739 778.352 38.9792C778.165 39.4918 777.74 39.7169 777.211 39.7637C776.781 39.8017 776.366 39.7433 776.021 39.4552C775.728 39.2109 775.589 38.8815 775.578 38.5189C775.558 37.8302 775.57 37.1438 775.569 36.4564C775.572 36.4305 775.577 36.405 775.585 36.38Z" fill="black"/>
<path d="M822.791 36.7452C822.701 36.8689 822.623 36.9785 822.542 37.0871C822.525 37.1111 822.504 37.1318 822.477 37.1626C822.405 37.1207 822.337 37.08 822.269 37.0402C822.017 36.8946 821.75 36.8116 821.454 36.8425C821.369 36.8511 821.285 36.8736 821.207 36.909C821.141 36.9364 821.085 36.9823 821.045 37.0409C821.005 37.0994 820.984 37.1681 820.984 37.2384C820.979 37.3956 821.049 37.5145 821.189 37.5773C821.342 37.6415 821.5 37.6974 821.66 37.7447C821.891 37.8199 822.131 37.875 822.354 37.9663C822.705 38.1091 822.903 38.3729 822.901 38.7547C822.901 39.147 822.734 39.4554 822.364 39.6231C821.811 39.8728 821.262 39.7959 820.731 39.5471C820.569 39.471 820.424 39.3587 820.25 39.2497L820.608 38.8304C820.662 38.8685 820.709 38.9023 820.757 38.9365C821.089 39.1745 821.453 39.3036 821.871 39.2404C821.941 39.23 822.009 39.2091 822.073 39.1785C822.22 39.1069 822.306 38.9933 822.309 38.8239C822.312 38.6544 822.235 38.5367 822.087 38.4817C821.845 38.3918 821.595 38.3259 821.349 38.248C821.219 38.2068 821.087 38.1687 820.96 38.1181C820.6 37.9747 820.398 37.7157 820.394 37.3276C820.39 36.9452 820.557 36.6521 820.904 36.4727C821.291 36.2733 821.697 36.293 822.107 36.3931C822.361 36.4553 822.595 36.576 822.791 36.7452Z" fill="black"/>
<path d="M792.642 38.8302L792.98 39.1895C792.725 39.6243 791.92 39.8803 791.233 39.7378C790.506 39.5865 789.962 38.967 789.896 38.216C789.828 37.4426 790.243 36.7407 790.939 36.4523C791.635 36.164 792.532 36.3326 792.978 36.8416C792.861 36.9731 792.742 37.1066 792.612 37.2537C792.259 36.9494 791.871 36.7673 791.396 36.8725C791.145 36.9257 790.923 37.0658 790.77 37.2672C790.399 37.7435 790.427 38.4649 790.835 38.8949C791.079 39.1521 791.384 39.2599 791.74 39.2416C791.986 39.229 792.073 39.1913 792.642 38.8302Z" fill="black"/>
<path d="M755.284 39.1911C754.859 39.7176 754.021 39.9239 753.32 39.6783C752.602 39.4268 752.17 38.7761 752.191 37.9736C752.196 37.6198 752.315 37.2768 752.531 36.9934C752.747 36.71 753.049 36.5006 753.393 36.395C754.068 36.1875 754.927 36.3911 755.264 36.848L754.906 37.252C754.536 36.9406 754.133 36.7543 753.643 36.8833C753.395 36.9478 753.178 37.0978 753.033 37.3059C752.685 37.7891 752.731 38.489 753.138 38.9078C753.386 39.163 753.693 39.2654 754.048 39.2424C754.395 39.2199 754.671 39.0507 754.922 38.8232L755.284 39.1911Z" fill="black"/>
<path d="M803.138 36.3822V36.8981H802.062V39.7018H801.476V36.9099H800.394V36.3822H803.138Z" fill="black"/>
<path d="M787.337 39.706H786.766V36.3849H787.337V39.706Z" fill="black"/>
<path d="M805.616 36.3797H806.185V39.7034H805.616V36.3797Z" fill="black"/>
<path fill-rule="evenodd" clip-rule="evenodd" d="M883.205 18.1096H893.011L894.381 20.4217L899.284 28.9882H889.494L883.205 18.1096Z" fill="#828282"/>
<path fill-rule="evenodd" clip-rule="evenodd" d="M913.743 24.1975L911.151 29.6035L908.625 24.1975H907.09L911.151 32.9968L915.278 24.1975H913.743Z" fill="black"/>
<path fill-rule="evenodd" clip-rule="evenodd" d="M920.832 30.4848C921.394 31.2334 922.004 31.6825 922.978 31.6825C923.886 31.6825 924.844 31.2832 924.844 30.3684C924.844 29.4535 923.936 29.1707 923.044 29.0044C921.46 28.6717 920.106 28.2559 920.106 26.4926C920.106 24.8459 921.691 23.9809 923.276 23.9809C924.448 23.9809 925.537 24.43 926.098 25.5778C924.976 26.3263 924.976 26.3263 924.976 26.3263C924.58 25.7441 924.018 25.295 923.176 25.295C922.384 25.295 921.542 25.6943 921.542 26.4926C921.542 27.2412 922.5 27.524 923.639 27.7569C925.157 28.0396 926.395 28.6051 926.395 30.3185C926.395 32.1981 924.712 32.9966 923.011 32.9966C921.592 32.9966 920.585 32.5973 919.743 31.3997L920.832 30.4848Z" fill="black"/>
<path fill-rule="evenodd" clip-rule="evenodd" d="M932.82 25.4109C930.344 25.4109 930.344 25.4109 930.344 25.4109C930.344 29.6858 930.344 29.6858 930.344 29.6858C930.344 30.767 930.344 31.6819 931.582 31.6819C932.027 31.6819 932.473 31.5655 932.82 31.3492C932.886 32.6633 932.886 32.6633 932.886 32.6633C932.44 32.8962 931.813 32.996 931.252 32.996C929.287 32.996 928.94 31.8649 928.94 30.085C928.94 25.4109 928.94 25.4109 928.94 25.4109C927.141 25.4109 927.141 25.4109 927.141 25.4109C927.141 24.2132 927.141 24.2132 927.141 24.2132C928.94 24.2132 928.94 24.2132 928.94 24.2132C928.94 21.818 928.94 21.818 928.94 21.818C930.344 21.818 930.344 21.818 930.344 21.818C930.344 24.2132 930.344 24.2132 930.344 24.2132C932.82 24.2132 932.82 24.2132 932.82 24.2132V25.4109Z" fill="black"/>
<path fill-rule="evenodd" clip-rule="evenodd" d="M979.017 25.4109C976.524 25.4109 976.524 25.4109 976.524 25.4109C976.524 29.6858 976.524 29.6858 976.524 29.6858C976.524 30.767 976.524 31.6819 977.829 31.6819C978.225 31.6819 978.671 31.5655 979.067 31.3492C979.133 32.6633 979.133 32.6633 979.133 32.6633C978.622 32.8962 977.994 32.996 977.433 32.996C975.452 32.996 975.122 31.8649 975.122 30.085C975.122 25.4109 975.122 25.4109 975.122 25.4109C973.322 25.4109 973.322 25.4109 973.322 25.4109C973.322 24.2132 973.322 24.2132 973.322 24.2132C975.122 24.2132 975.122 24.2132 975.122 24.2132C975.122 21.818 975.122 21.818 975.122 21.818C976.541 21.818 976.541 21.818 976.541 21.818C976.541 24.2132 976.541 24.2132 976.541 24.2132C979.034 24.2132 979.034 24.2132 979.034 24.2132V25.4109H979.017Z" fill="black"/>
<path fill-rule="evenodd" clip-rule="evenodd" d="M949.038 31.666C950.837 31.666 952.01 30.2355 952.01 28.4723C952.01 26.709 950.837 25.2785 949.038 25.2785C947.238 25.2785 946.067 26.709 946.067 28.4723C946.067 30.2355 947.238 31.666 949.038 31.666ZM944.663 24.1973C946.067 24.1973 946.067 24.1973 946.067 24.1973C946.067 25.4449 946.067 25.4449 946.067 25.4449C946.116 25.4449 946.116 25.4449 946.116 25.4449C946.842 24.53 947.915 23.9644 949.088 23.9644C951.729 23.9644 953.528 25.894 953.528 28.4723C953.528 31.0339 951.679 32.9801 949.319 32.9801C947.8 32.9801 946.628 32.1816 946.116 31.2169C946.067 31.2169 946.067 31.2169 946.067 31.2169C946.067 36.0075 946.067 36.0075 946.067 36.0075C944.663 36.0075 944.663 36.0075 944.663 36.0075V24.1973Z" fill="black"/>
<path fill-rule="evenodd" clip-rule="evenodd" d="M938.239 31.6825C936.456 31.6825 935.284 30.252 935.284 28.4887C935.284 26.7089 936.456 25.295 938.239 25.295C940.022 25.295 941.194 26.7255 941.194 28.4887C941.194 30.252 940.022 31.6825 938.239 31.6825ZM942.58 24.1971C941.194 24.1971 941.194 24.1971 941.194 24.1971C941.194 25.4614 941.194 25.4614 941.194 25.4614C941.128 25.4614 941.128 25.4614 941.128 25.4614C940.401 24.5465 939.344 23.9809 938.173 23.9809C935.564 23.9809 933.782 25.9271 933.782 28.4887C933.782 31.0504 935.63 32.9966 937.958 32.9966C939.46 32.9966 940.633 32.1981 941.128 31.2334C941.194 31.2334 941.194 31.2334 941.194 31.2334C941.194 32.7637 941.194 32.7637 941.194 32.7637C942.58 32.7637 942.58 32.7637 942.58 32.7637V24.1971Z" fill="black"/>
<path fill-rule="evenodd" clip-rule="evenodd" d="M954.9 26.2592C954.9 25.4608 954.834 24.7789 954.834 24.2133C956.187 24.2133 956.187 24.2133 956.187 24.2133C956.187 24.6624 956.187 25.1781 956.187 25.6439C956.253 25.6439 956.253 25.6439 956.253 25.6439C956.649 24.7955 957.673 23.997 959.092 23.997C959.258 23.997 959.489 24.047 959.654 24.1135C959.538 25.544 959.538 25.544 959.538 25.544C959.307 25.4941 959.026 25.4275 958.795 25.4275C957.095 25.4275 956.303 26.6918 956.303 28.6213C956.303 32.7798 956.303 32.7798 956.303 32.7798C954.883 32.7798 954.883 32.7798 954.883 32.7798V26.2592H954.9Z" fill="black"/>
<path fill-rule="evenodd" clip-rule="evenodd" d="M964.922 26.2592C964.922 25.4608 964.872 24.7789 964.872 24.2133C966.226 24.2133 966.226 24.2133 966.226 24.2133C966.226 24.6624 966.226 25.1781 966.226 25.6439C966.292 25.6439 966.292 25.6439 966.292 25.6439C966.688 24.7955 967.695 23.997 969.098 23.997C971.294 23.997 972.301 25.4275 972.301 27.4736C972.301 32.7798 972.301 32.7798 972.301 32.7798C970.897 32.7798 970.897 32.7798 970.897 32.7798C970.897 27.6399 970.897 27.6399 970.897 27.6399C970.897 26.2094 970.287 25.2945 968.933 25.2945C967.134 25.2945 966.342 26.6585 966.342 28.6047C966.342 32.7632 966.342 32.7632 966.342 32.7632C964.938 32.7632 964.938 32.7632 964.938 32.7632V26.2592H964.922Z" fill="black"/>
<path d="M918.246 24.1975H916.875V32.7473H918.246V24.1975Z" fill="black"/>
<path fill-rule="evenodd" clip-rule="evenodd" d="M916.813 22.5828C916.813 22.117 917.192 21.7344 917.655 21.7344C918.117 21.7344 918.496 22.117 918.496 22.5828C918.496 23.0485 918.117 23.4311 917.655 23.4311C917.192 23.4311 916.813 23.0485 916.813 22.5828Z" fill="black"/>
<path d="M962.648 24.1975H961.278V32.7473H962.648V24.1975Z" fill="black"/>
<path fill-rule="evenodd" clip-rule="evenodd" d="M961.134 22.5828C961.134 22.117 961.514 21.7344 961.976 21.7344C962.438 21.7344 962.818 22.117 962.818 22.5828C962.818 23.0485 962.438 23.4311 961.976 23.4311C961.497 23.4311 961.134 23.0485 961.134 22.5828Z" fill="black"/>
<path fill-rule="evenodd" clip-rule="evenodd" d="M895.764 18.1096H905.487L899.28 28.9882L894.377 37.538L889.491 28.9882L894.377 20.4217L895.764 18.1096Z" fill="black"/>
<path fill-rule="evenodd" clip-rule="evenodd" d="M980.789 22.3843C980.789 22.7836 980.789 22.7836 980.789 22.7836C981.069 22.7836 981.07 22.7836 981.07 22.7836C981.234 22.7836 981.35 22.7336 981.35 22.5507C981.35 22.4342 981.234 22.3843 981.07 22.3843H980.789ZM981.07 22.218C981.399 22.218 981.581 22.3344 981.581 22.5673C981.581 22.8001 981.416 22.9166 981.185 22.9665C981.581 23.4322 981.581 23.4322 981.581 23.4322C981.3 23.4322 981.3 23.4322 981.3 23.4322C980.971 22.9665 980.971 22.9665 980.971 22.9665C980.806 22.9665 980.806 22.9665 980.806 22.9665C980.806 23.4322 980.806 23.4322 980.806 23.4322C980.591 23.4322 980.591 23.4322 980.591 23.4322C980.591 22.218 980.591 22.218 980.591 22.218H981.07ZM982.027 22.8501C982.027 22.2678 981.581 21.8187 981.02 21.8187C980.459 21.8187 980.013 22.2845 980.013 22.8501C980.013 23.4156 980.459 23.8814 981.02 23.8814C981.581 23.898 982.027 23.4322 982.027 22.8501ZM982.242 22.8501C982.242 23.5487 981.68 24.1309 981.02 24.1309C980.343 24.1309 979.799 23.5487 979.799 22.8501C979.799 22.1016 980.36 21.5693 981.02 21.5693C981.697 21.5858 982.242 22.1016 982.242 22.8501Z" fill="black"/>
<path fill-rule="evenodd" clip-rule="evenodd" d="M889.491 28.9881H899.28L894.377 20.4217L889.491 28.9881Z" fill="#333333"/>
<path d="M1036.42 16.5552C1036.7 16.5862 1036.98 16.6022 1037.26 16.6502C1038.29 16.8286 1039.32 17.0178 1040.35 17.2032C1038.25 17.7808 1036.47 18.8685 1034.98 20.432C1033.24 22.2601 1032.09 24.4058 1031.41 26.8086C1031.1 27.9419 1030.97 29.1007 1031.18 30.2689C1031.55 32.3125 1032.81 33.6718 1034.65 34.567C1036.34 35.3967 1038.18 35.6745 1040.05 35.7498C1041.47 35.8067 1042.88 35.6928 1044.28 35.4655C1046.87 35.0428 1049.36 34.2625 1051.68 33.0208C1052.9 32.3671 1054.04 31.6046 1055.03 30.6365C1055.44 30.2397 1055.82 29.8133 1056.2 29.4005C1056.25 29.8961 1056.35 30.3941 1056.34 30.8869C1056.29 32.0226 1055.85 33.0317 1055.16 33.933C1054.5 34.7929 1053.67 35.4744 1052.75 36.0453C1050.51 37.43 1048.07 38.2762 1045.48 38.7559C1044.81 38.8816 1044.11 38.9253 1043.43 39.0091C1043.39 39.0143 1043.35 39.0383 1043.3 39.0533C1042.63 39.0533 1041.96 39.0533 1041.29 39.0533C1041.05 39.0237 1040.8 38.987 1040.55 38.9653C1039.34 38.8599 1038.18 38.5926 1037.06 38.1568C1034.41 37.1288 1032.41 35.3812 1031.12 32.8815C1029.82 30.363 1029.09 27.6769 1028.81 24.8699C1028.79 24.6237 1028.75 24.3785 1028.72 24.1329C1028.72 23.5525 1028.72 22.9717 1028.72 22.3914C1028.74 22.3326 1028.76 22.2742 1028.77 22.2149C1028.81 21.3832 1028.96 20.5694 1029.25 19.7867C1029.62 18.8096 1030.16 17.9597 1031.1 17.4226C1031.86 16.9924 1032.71 16.8376 1033.55 16.6978C1033.92 16.6376 1034.28 16.6018 1034.65 16.5552C1035.24 16.5552 1035.83 16.5552 1036.42 16.5552Z" fill="#4F4F4F"/>
<path d="M1123.37 28.6981C1123.34 28.8064 1123.3 28.9142 1123.26 29.0417C1121.42 29.0417 1119.56 29.0417 1117.71 29.0417C1117.56 29.8183 1118.12 30.6998 1118.91 30.9479C1119.36 31.0886 1119.81 31.098 1120.28 31.0166C1120.76 30.9304 1121.12 30.6678 1121.34 30.2292C1121.41 30.0823 1121.49 30.0471 1121.65 30.0494C1122.19 30.0579 1122.73 30.0527 1123.31 30.0527C1123.24 30.273 1123.2 30.4692 1123.11 30.6505C1122.77 31.411 1122.2 31.9509 1121.43 32.2657C1120.3 32.728 1119.14 32.728 1118.02 32.2531C1116.94 31.7975 1116.29 30.9446 1115.98 29.8503C1115.69 28.8765 1115.71 27.8961 1116.03 26.9317C1116.56 25.2778 1117.99 24.3435 1119.83 24.3981C1121.68 24.4527 1123.11 25.7636 1123.33 27.3784C1123.33 27.3963 1123.36 27.4118 1123.37 27.4283C1123.37 27.8509 1123.37 28.2745 1123.37 28.6981ZM1121.56 27.6815C1121.55 27.0282 1121.31 26.5058 1120.74 26.197C1119.97 25.7819 1119.18 25.8035 1118.43 26.2568C1117.9 26.5726 1117.71 27.0786 1117.7 27.6815C1118.99 27.6815 1120.26 27.6815 1121.56 27.6815Z" fill="black"/>
<path d="M1056.2 29.3996C1055.81 29.8123 1055.44 30.2388 1055.03 30.6356C1054.04 31.6042 1052.9 32.3667 1051.67 33.02C1049.35 34.262 1046.87 35.0419 1044.27 35.4646C1042.88 35.6919 1041.46 35.8058 1040.05 35.7488C1038.18 35.6736 1036.34 35.3959 1034.64 34.566C1032.81 33.6709 1031.55 32.3116 1031.18 30.268C1030.97 29.0998 1031.09 27.941 1031.41 26.8077C1032.08 24.4049 1033.24 22.2592 1034.98 20.4311C1036.47 18.8676 1038.25 17.7799 1040.34 17.2024C1040.39 17.2 1040.43 17.1982 1040.48 17.1958C1040.55 17.2292 1040.63 17.2739 1040.71 17.2946C1042.42 17.7451 1044.08 18.3583 1045.68 19.1133C1047.24 19.8531 1048.75 20.6965 1050.14 21.7179C1050.94 22.2996 1051.7 22.9261 1052.44 23.5695C1052.91 23.971 1053.32 24.4322 1053.74 24.8826C1054.41 25.6056 1055.02 26.3845 1055.45 27.2704C1055.76 27.9161 1055.99 28.6004 1056.26 29.2678C1056.24 29.3116 1056.22 29.3558 1056.2 29.3996ZM1043.96 24.8803C1043.87 24.7993 1043.81 24.7325 1043.73 24.6718C1042.95 24.0148 1042.05 23.7592 1041.04 23.9738C1039.57 24.2887 1038.6 25.4917 1038.59 27.0067C1038.58 28.1594 1038.59 29.3121 1038.59 30.4647C1038.59 30.5316 1038.6 30.5984 1038.6 30.6568C1039.16 30.6568 1039.68 30.6568 1040.23 30.6568C1040.23 30.4741 1040.23 30.3104 1040.23 30.1466C1040.23 29.0645 1040.21 27.982 1040.23 26.9004C1040.25 26.0099 1041.06 25.3745 1041.94 25.5345C1042.67 25.6667 1043.15 26.2438 1043.15 27.0091C1043.16 28.1463 1043.15 29.2828 1043.15 30.42C1043.15 30.5019 1043.15 30.5843 1043.15 30.6624C1043.71 30.6624 1044.23 30.6624 1044.78 30.6624C1044.78 30.5645 1044.78 30.4802 1044.78 30.396C1044.78 29.2984 1044.78 28.2003 1044.78 27.1028C1044.78 26.9696 1044.77 26.834 1044.8 26.7042C1044.93 25.9723 1045.62 25.4404 1046.34 25.5072C1047.12 25.5797 1047.69 26.1821 1047.7 26.948C1047.7 28.1006 1047.7 29.2532 1047.7 30.4059C1047.7 30.4896 1047.7 30.573 1047.7 30.6605C1048.25 30.6605 1048.78 30.6605 1049.32 30.6605C1049.32 30.6073 1049.33 30.5692 1049.33 30.531C1049.33 29.3078 1049.34 28.0846 1049.32 26.8613C1049.3 24.9805 1047.46 23.5596 1045.59 23.9691C1044.96 24.1089 1044.43 24.4158 1043.96 24.8803ZM1037.87 21.6318C1037.22 21.6281 1036.71 22.1302 1036.7 22.7722C1036.7 23.4085 1037.22 23.931 1037.86 23.9286C1038.51 23.9263 1039.04 23.4067 1039.04 22.7816C1039.04 22.1471 1038.52 21.6355 1037.87 21.6318Z" fill="black"/>
<path d="M1078.76 21.6301C1078.76 25.2325 1078.76 28.7997 1078.76 32.3804C1078.12 32.3804 1077.47 32.3804 1076.82 32.3804C1076.82 30.3147 1076.82 28.2617 1076.82 26.2087C1076.81 26.204 1076.79 26.1993 1076.78 26.1951C1076.75 26.2647 1076.71 26.3334 1076.67 26.4045C1075.76 28.3266 1074.85 30.2479 1073.95 32.1739C1073.87 32.3419 1073.79 32.4087 1073.6 32.3988C1073.26 32.3814 1072.91 32.3838 1072.57 32.3983C1072.41 32.4054 1072.34 32.3461 1072.27 32.2059C1071.35 30.246 1070.42 28.2885 1069.5 26.3306C1069.48 26.2891 1069.46 26.2477 1069.4 26.2092C1069.4 28.2617 1069.4 30.3138 1069.4 32.38C1068.74 32.38 1068.09 32.38 1067.44 32.38C1067.44 28.8011 1067.44 25.2335 1067.44 21.6301C1067.69 21.6301 1067.93 21.6301 1068.17 21.6301C1068.47 21.6301 1068.78 21.6423 1069.08 21.6254C1069.26 21.6154 1069.34 21.6866 1069.42 21.8414C1070.62 24.303 1071.82 26.7613 1073.03 29.2199C1073.05 29.2618 1073.07 29.3038 1073.11 29.3791C1073.16 29.2849 1073.2 29.2148 1073.23 29.1428C1074.41 26.7311 1075.59 24.3209 1076.76 21.9044C1076.86 21.6846 1076.98 21.6154 1077.22 21.6244C1077.73 21.6432 1078.24 21.6301 1078.76 21.6301Z" fill="black"/>
<path d="M1113.05 31.4071C1112.61 31.9912 1112.02 32.3512 1111.31 32.5112C1109.67 32.8793 1107.89 32.0382 1107.07 30.5142C1105.98 28.4814 1106.71 25.8918 1108.7 24.863C1109.75 24.3198 1110.84 24.2003 1111.96 24.6987C1112.4 24.895 1112.76 25.1929 1113.08 25.6165C1113.08 25.2517 1113.08 24.9416 1113.08 24.6144C1113.7 24.6144 1114.3 24.6144 1114.94 24.6144C1114.94 24.6944 1114.94 24.7707 1114.94 24.847C1114.94 27.4897 1114.94 30.133 1114.93 32.7758C1114.93 33.1801 1114.88 33.5928 1114.79 33.9863C1114.54 35.0373 1113.9 35.7838 1112.86 36.1443C1111.55 36.6003 1110.2 36.6648 1108.89 36.1735C1107.62 35.7 1106.89 34.768 1106.72 33.4323C1106.72 33.3872 1106.72 33.3406 1106.72 33.2827C1107.34 33.2827 1107.95 33.2827 1108.56 33.2827C1108.91 34.4833 1109.75 35.0024 1111.11 34.8476C1111.27 34.8288 1111.44 34.8038 1111.6 34.7671C1112.45 34.5756 1112.97 34.0385 1113.04 33.1923C1113.09 32.6058 1113.05 32.0114 1113.05 31.4071ZM1108.41 28.4899C1108.44 28.7069 1108.45 28.9271 1108.5 29.1404C1108.89 30.8856 1110.98 31.5784 1112.28 30.3839C1112.98 29.7456 1113.17 28.9253 1113.04 28.0178C1112.83 26.5959 1111.45 25.7073 1110.07 26.1125C1109.09 26.4006 1108.43 27.356 1108.41 28.4899Z" fill="black"/>
<path d="M1056.27 29.2676C1056 28.6002 1055.77 27.9159 1055.46 27.2702C1055.03 26.3843 1054.42 25.6054 1053.75 24.8824C1053.33 24.4321 1052.92 23.9708 1052.45 23.5693C1051.71 22.9259 1050.95 22.2995 1050.15 21.7177C1048.76 20.6964 1047.25 19.8529 1045.69 19.114C1044.09 18.3586 1042.43 17.7453 1040.72 17.2954C1040.64 17.2742 1040.56 17.23 1040.49 17.1966C1041.18 17.0925 1041.88 16.9414 1042.58 16.8934C1044.57 16.7569 1046.43 17.2973 1048.24 18.0687C1050.4 18.9931 1052.43 20.1354 1054.26 21.6024C1055.29 22.4218 1056.22 23.3269 1056.9 24.4603C1057.19 24.9578 1057.41 25.4868 1057.49 26.0605C1057.55 26.4912 1057.53 26.9238 1057.38 27.3365C1057.12 28.0392 1056.74 28.6812 1056.27 29.2676Z" fill="#4F4F4F"/>
<path d="M1103.87 25.5251C1103.87 25.2507 1103.87 24.9405 1103.87 24.6143C1104.49 24.6143 1105.09 24.6143 1105.71 24.6143C1105.71 27.1997 1105.71 29.7775 1105.71 32.3751C1105.1 32.3751 1104.5 32.3751 1103.87 32.3751C1103.87 32.0532 1103.87 31.7359 1103.87 31.3585C1103.47 31.8951 1102.99 32.2245 1102.42 32.4203C1100.98 32.9089 1099.23 32.3487 1098.24 31.0864C1096.6 29.0024 1097.32 25.8339 1099.68 24.7682C1100.76 24.2811 1101.86 24.2049 1102.93 24.8031C1103.28 24.9946 1103.56 25.2855 1103.87 25.5251ZM1101.75 30.9626C1102.52 30.9386 1103.23 30.483 1103.64 29.5869C1103.9 29.0089 1103.94 28.4017 1103.78 27.7927C1103.54 26.9079 1102.99 26.2871 1102.06 26.0809C1101.17 25.8823 1100.38 26.1176 1099.79 26.8278C1099.29 27.4312 1099.15 28.141 1099.24 28.9059C1099.39 30.0971 1100.34 30.9626 1101.75 30.9626Z" fill="black"/>
<path d="M1086.15 25.5119C1086.15 25.2422 1086.15 24.9311 1086.15 24.6087C1086.77 24.6087 1087.37 24.6087 1087.99 24.6087C1087.99 27.1993 1087.99 29.7837 1087.99 32.3813C1087.38 32.3813 1086.78 32.3813 1086.16 32.3813C1086.16 32.0645 1086.16 31.7548 1086.16 31.4277C1086.11 31.4432 1086.09 31.4441 1086.08 31.4573C1085.19 32.5116 1084.05 32.7752 1082.74 32.4852C1080.66 32.0221 1079.48 30.0952 1079.66 28.1528C1079.8 26.5822 1080.56 25.3891 1082.05 24.7334C1083.06 24.2887 1084.1 24.2214 1085.11 24.7518C1085.49 24.949 1085.8 25.253 1086.15 25.5119ZM1086.17 28.5062C1086.13 28.2371 1086.1 27.9617 1086.03 27.7C1085.76 26.7234 1084.93 26.0673 1083.94 26.0198C1082.93 25.9717 1082.07 26.5187 1081.7 27.4539C1081.49 27.9612 1081.45 28.4856 1081.54 29.024C1081.79 30.4458 1083.16 31.2879 1084.54 30.8586C1085.5 30.557 1086.14 29.6312 1086.17 28.5062Z" fill="black"/>
<path d="M1096.43 32.381C1095.8 32.381 1095.2 32.381 1094.58 32.381C1094.58 32.1259 1094.58 31.8835 1094.58 31.6412C1094.57 30.3478 1094.56 29.0544 1094.54 27.761C1094.53 27.553 1094.48 27.3416 1094.42 27.1402C1094.24 26.5349 1093.86 26.1184 1093.2 26.029C1092.51 25.9344 1091.88 26.0836 1091.44 26.6714C1091.06 27.1727 1090.96 27.7587 1090.96 28.363C1090.95 29.6098 1090.96 30.8565 1090.96 32.1038C1090.96 32.1895 1090.96 32.2751 1090.96 32.3778C1090.34 32.3778 1089.73 32.3778 1089.11 32.3778C1089.11 29.7901 1089.11 27.2131 1089.11 24.617C1089.72 24.617 1090.33 24.617 1090.95 24.617C1090.95 24.9403 1090.95 25.2665 1090.95 25.5936C1090.98 25.5917 1091 25.5959 1091.01 25.5889C1091.64 24.6768 1092.57 24.3765 1093.64 24.4014C1093.95 24.409 1094.28 24.4471 1094.58 24.5299C1095.63 24.8175 1096.19 25.5461 1096.35 26.5806C1096.41 26.9816 1096.43 27.3925 1096.43 27.7987C1096.44 29.2653 1096.44 30.7314 1096.44 32.198C1096.44 32.2521 1096.43 32.3062 1096.43 32.381Z" fill="black"/>
<path d="M1063.76 32.3713C1063.76 29.9441 1063.76 27.524 1063.76 25.0874C1064.36 25.0874 1064.97 25.0874 1065.59 25.0874C1065.59 27.5126 1065.59 29.9319 1065.59 32.3713C1064.99 32.3713 1064.39 32.3713 1063.76 32.3713Z" fill="black"/>
<path d="M1064.66 21.6318C1065.31 21.6332 1065.83 22.1349 1065.83 22.777C1065.84 23.4034 1065.31 23.9254 1064.66 23.931C1064.02 23.9366 1063.5 23.4166 1063.5 22.7807C1063.5 22.134 1064.01 21.6304 1064.66 21.6318Z" fill="black"/>
<path d="M1226.86 15.1676L1232.08 17.244L1226.86 19.2081V22.014L1235.8 18.3663V16.1216L1226.86 12.4739V15.1676Z" fill="black"/>
<path d="M1178.97 25.6055C1176.47 25.6055 1174.64 26.7279 1174.47 29.0849H1177.25V29.0287C1177.3 28.2431 1178.03 27.6819 1178.8 27.738C1179.86 27.738 1180.36 28.3553 1180.36 29.4215V29.9267H1179.08C1176.36 29.9267 1174.14 30.7685 1174.14 33.406V33.5182C1174.14 35.6508 1175.69 36.6048 1177.58 36.6048C1178.75 36.6609 1179.8 36.0997 1180.47 35.2018V36.4365H1183.3V29.3655C1183.24 26.6718 1181.41 25.6055 1178.97 25.6055ZM1178.36 34.5284C1177.36 34.5284 1176.91 34.0234 1176.91 33.2938V33.1816C1176.91 32.2275 1177.64 31.8347 1179.08 31.8347H1180.25V32.8448C1180.3 33.9672 1179.36 34.5284 1178.36 34.5284Z" fill="black"/>
<path d="M1189.95 34.4162C1188.56 34.4162 1187.84 33.4622 1187.84 31.3296V30.9929C1187.84 28.9165 1188.67 27.9064 1189.95 27.9064C1190.95 27.9064 1191.5 28.5798 1191.67 29.5899H1194.45C1194.22 26.8401 1192.23 25.6055 1189.89 25.6055C1187.12 25.6055 1184.9 27.5136 1184.9 31.1051V31.2174C1184.9 34.809 1187.01 36.6048 1189.89 36.6048C1192.73 36.6048 1194.34 34.8651 1194.56 32.5081H1191.89C1191.67 33.6866 1190.95 34.4162 1189.95 34.4162Z" fill="black"/>
<path d="M1200.77 34.4162C1199.38 34.4162 1198.66 33.4622 1198.66 31.3296V30.9929C1198.66 28.9165 1199.5 27.9064 1200.77 27.9064C1201.77 27.9064 1202.33 28.5798 1202.49 29.5899H1205.27C1205.05 26.8401 1203.05 25.6055 1200.72 25.6055C1197.94 25.6055 1195.72 27.5136 1195.72 31.1051V31.2174C1195.72 34.809 1197.83 36.6048 1200.72 36.6048C1203.55 36.6048 1205.16 34.8651 1205.33 32.5081H1202.72C1202.55 33.6866 1201.77 34.4162 1200.77 34.4162Z" fill="black"/>
<path d="M1211.72 34.4723C1210.45 34.4723 1209.67 33.7428 1209.56 31.8347H1216.33V30.6001C1216.33 27.1207 1214.17 25.6055 1211.56 25.6055C1208.72 25.6055 1206.56 27.5696 1206.56 31.1051V31.3296C1206.56 34.8652 1208.61 36.6609 1211.61 36.6609C1214.33 36.6609 1216 35.1457 1216.28 33.1254H1213.55C1213.44 33.9672 1212.61 34.5846 1211.72 34.4723ZM1211.56 27.6258C1212.72 27.6258 1213.44 28.2992 1213.5 29.8705H1209.61C1209.83 28.187 1210.67 27.6819 1211.56 27.6258Z" fill="black"/>
<path d="M1224.21 25.6055C1222.88 25.5493 1221.66 26.2228 1221.05 27.4013V25.8299H1218.16V36.3804H1221.05V29.9266C1221.05 29.8144 1221.05 29.7583 1221.05 29.646C1221.1 28.692 1221.94 27.9064 1222.88 27.9624C1223.93 27.9624 1224.43 28.5236 1224.43 29.7583V36.3804H1227.38V29.3094C1227.38 26.7278 1226.1 25.6055 1224.21 25.6055Z" fill="black"/>
<path d="M1232.8 33.0135V28.0189H1234.8V25.8302H1232.8V22.6315L1229.92 23.8661V25.8302H1228.64V28.0189H1229.86V33.3502C1229.86 35.4828 1230.92 36.549 1233.19 36.549C1233.75 36.549 1234.3 36.4929 1234.86 36.3245V34.0236C1234.53 34.1359 1234.19 34.192 1233.86 34.192C1233.19 34.192 1232.8 33.7992 1232.8 33.0135Z" fill="black"/>
<path d="M1242.85 32.3963C1242.85 32.5085 1242.85 32.5647 1242.85 32.6769C1242.8 33.6309 1241.97 34.4165 1241.02 34.3605C1239.97 34.3605 1239.52 33.7993 1239.52 32.5647V25.8304H1236.58V32.9575C1236.58 35.4267 1237.97 36.6052 1239.86 36.6052C1241.13 36.6614 1242.3 35.9879 1242.91 34.8095V36.3807H1245.85V25.8304H1242.91L1242.85 32.3963Z" fill="black"/>
<path d="M1250.86 27.738V25.7738H1247.97V36.3242H1250.86V30.8807C1250.86 29.141 1252.02 28.5237 1254.02 28.5237V25.6055C1252.58 25.6055 1251.3 26.4473 1250.86 27.738Z" fill="black"/>
<path d="M1264.68 30.5439C1264.68 27.0646 1262.51 25.6055 1259.9 25.6055C1257.07 25.6055 1254.9 27.5696 1254.9 31.1051V31.3296C1254.9 34.8652 1256.96 36.6609 1259.96 36.6609C1262.68 36.6609 1264.29 35.1457 1264.62 33.1254H1261.9C1261.68 34.0234 1260.85 34.5846 1259.96 34.5284C1258.68 34.5284 1257.9 33.7988 1257.79 31.8908H1264.57V30.5439H1264.68ZM1257.9 29.8705C1258.12 28.1309 1258.96 27.6258 1259.9 27.6258C1261.07 27.6258 1261.79 28.2992 1261.84 29.8705H1257.9Z" fill="black"/>
</g>
<rect width="156.126" height="229.597" fill="url(#paint0_linear_0_147)"/>
<rect x="1154.87" width="156.126" height="229.597" fill="url(#paint1_linear_0_147)"/>
<defs>
<linearGradient id="paint0_linear_0_147" x1="0" y1="114.799" x2="156.126" y2="114.799" gradientUnits="userSpaceOnUse">
<stop offset="0.1" stop-color="white"/>
<stop offset="1" stop-color="white" stop-opacity="0"/>
</linearGradient>
<linearGradient id="paint1_linear_0_147" x1="1311" y1="114.799" x2="1154.87" y2="114.799" gradientUnits="userSpaceOnUse">
<stop offset="0.1" stop-color="white"/>
<stop offset="1" stop-color="white" stop-opacity="0"/>
</linearGradient>
<clipPath id="clip0_0_147">
<rect width="1310.13" height="55.4969" fill="white" transform="scale(1.00067)"/>
</clipPath>
</defs>
</svg>
