<svg width="144" height="56" viewBox="0 0 144 56" fill="none" xmlns="http://www.w3.org/2000/svg">
<path d="M40.2734 9.83712C41.818 9.82811 43.3944 10.1772 44.8063 11.1415C45.7288 11.7704 46.0007 12.728 45.4704 13.5213C44.914 14.3519 43.9235 14.4868 42.9887 13.8465C41.4973 12.8266 39.9074 12.5048 38.2291 13.306C35.8176 14.4573 34.9961 17.7867 36.4692 20.1959C37.8359 22.4193 40.7754 22.9055 43.0045 21.2929C43.3184 21.0663 43.6674 20.8306 44.0346 20.7456C44.753 20.5812 45.4092 20.9722 45.6993 21.6147C45.9713 22.2233 45.8013 22.927 45.263 23.4075C43.5813 24.9079 41.5699 25.4133 39.3838 25.2524C36.0431 25.0064 33.5059 22.9247 32.5846 19.763C31.678 16.6354 32.801 13.2153 35.4096 11.2866C36.8092 10.2553 38.4104 9.82126 40.2734 9.83712Z" fill="black"/>
<path d="M85.2863 18.5073C86.3057 19.891 87.3067 21.1931 88.2438 22.5394C88.5072 22.9179 88.6612 23.3617 88.6889 23.8221C88.7081 24.4738 88.2708 24.9043 87.6578 25.0687C86.9002 25.2772 86.308 25.0845 85.8199 24.4262C85.0891 23.4425 84.3776 22.443 83.6554 21.4526C83.4359 21.1489 83.208 20.852 82.9616 20.521C82.5843 20.861 82.2116 21.1432 81.8952 21.4843C81.7643 21.6604 81.6919 21.8733 81.688 22.0928C81.6495 22.6379 81.688 23.1887 81.6372 23.7315C81.5964 24.1304 81.4054 24.4988 81.1021 24.7614C80.7987 25.0241 80.4068 25.1611 80.0064 25.1446C79.616 25.1398 79.241 24.9911 78.953 24.727C78.6658 24.4629 78.4856 24.102 78.4471 23.7134C78.4217 23.4497 78.4117 23.1848 78.4178 22.9201C78.4178 19.0128 78.4178 15.1058 78.4178 11.1992C78.4178 10.2303 78.7659 9.67273 79.5012 9.40754C80.4768 9.05742 81.5541 9.67388 81.6303 10.7074C81.7096 11.7771 81.6765 12.8605 81.6826 13.9314C81.6896 15.2108 81.6826 16.4902 81.6826 17.9441C82.1354 17.5282 82.4919 17.2166 82.8353 16.8936C83.8648 15.9236 84.8751 14.9274 85.9307 13.9926C86.2526 13.7127 86.6515 13.5365 87.0757 13.4872C88.2192 13.3965 88.9545 14.5671 88.397 15.5768C88.1861 15.9609 87.8403 16.2851 87.5092 16.5854C86.7993 17.237 86.0593 17.8467 85.2863 18.5073Z" fill="black"/>
<path d="M94.3474 20.4315C94.3851 20.7745 94.4929 21.106 94.6639 21.4056C94.8348 21.7053 95.0658 21.9665 95.3423 22.1733C95.6187 22.3799 95.9344 22.5276 96.2701 22.6072C96.6058 22.6867 96.9539 22.6964 97.2934 22.6356C97.9972 22.5223 98.6841 22.2016 99.3332 21.882C100.013 21.5421 100.783 21.5998 101.172 22.1393C101.574 22.6969 101.434 23.5252 100.839 24.0091C98.0057 26.3175 92.3947 25.6047 91.212 20.9494C90.3973 17.7491 92.1106 14.4435 95.0651 13.5948C98.6263 12.5749 101.925 14.8629 102.184 18.5436C102.273 19.7901 101.696 20.4247 100.447 20.427C98.6163 20.427 96.7852 20.427 94.9534 20.427L94.3474 20.4315ZM99.0483 18.3578C98.8473 16.7588 97.8748 15.9009 96.428 15.9939C95.3546 16.0618 94.2874 17.186 94.3266 18.3578H99.0483Z" fill="black"/>
<path d="M71.1529 13.3818C72.4901 13.3818 73.7287 13.6799 74.8052 14.515C75.5226 15.0749 75.688 15.9191 75.203 16.6024C74.718 17.2858 73.8363 17.4309 73.0964 16.9096C72.4266 16.4426 71.7229 16.1084 70.8934 16.1764C69.2592 16.309 68.1147 17.8014 68.279 19.5998C68.3799 20.7126 68.8263 21.6487 69.8802 22.1597C70.9806 22.6923 72.0402 22.5326 73.034 21.8493C73.1697 21.747 73.3112 21.6528 73.4578 21.5671C74.1083 21.2192 74.8778 21.3835 75.271 21.9467C75.6813 22.5269 75.5985 23.2816 75.067 23.7961C73.3207 25.4857 70.1319 25.7747 67.896 24.4455C65.5899 23.0731 64.5393 20.3205 65.2896 17.619C66.0239 15.0125 68.2802 13.3784 71.1529 13.3818Z" fill="black"/>
<path d="M34.9441 38.0575H43.5214C43.5317 37.8309 43.5498 37.628 43.5498 37.4263C43.5498 35.7457 43.5498 34.0652 43.5498 32.3858C43.5498 31.7059 43.858 31.3658 44.4144 31.3715C44.9436 31.3795 45.2292 31.7206 45.2304 32.3733C45.2304 36.7346 45.2304 41.0961 45.2304 45.4574C45.2304 46.1272 44.9176 46.4966 44.3805 46.4887C43.8433 46.4808 43.5509 46.1102 43.5498 45.436C43.5498 43.5492 43.5498 41.6634 43.5498 39.7279H34.9441V40.3285C34.9441 42.0283 34.9441 43.7282 34.9441 45.428C34.9441 46.0989 34.6438 46.4728 34.1112 46.4899C33.5786 46.5068 33.2579 46.1363 33.2567 45.4665C33.2567 41.1059 33.2567 36.7445 33.2567 32.3824C33.2567 31.7387 33.5479 31.3828 34.0658 31.3715C34.6143 31.359 34.9407 31.7251 34.9429 32.3835C34.9429 34.0629 34.9429 35.7435 34.9429 37.424L34.9441 38.0575Z" fill="black"/>
<path d="M104.972 16.4222C103.921 16.1774 103.506 15.757 103.499 14.9863C103.499 14.3007 103.868 13.7647 104.546 13.6389C104.931 13.5687 104.991 13.3896 104.976 13.0723C104.96 12.7325 104.963 12.392 104.985 12.0524C105.002 11.6721 105.156 11.311 105.419 11.036C105.683 10.7611 106.037 10.5911 106.416 10.5577C107.323 10.4942 108.003 10.9487 108.164 11.8042C108.265 12.3539 108.244 12.925 108.285 13.6026C108.804 13.6026 109.327 13.5664 109.844 13.6117C110.565 13.674 111.057 14.2916 111.034 15.0192C111.03 15.3615 110.894 15.689 110.656 15.9351C110.418 16.1811 110.096 16.3269 109.754 16.3428C109.49 16.3564 109.225 16.3428 108.96 16.3428H108.28C108.265 16.5774 108.241 16.7757 108.239 16.9751C108.239 18.3161 108.239 19.6563 108.239 20.9958C108.239 22.103 108.456 22.3296 109.563 22.3228C110.107 22.3228 110.523 22.5155 110.802 22.9653C110.909 23.1293 110.976 23.315 111 23.5087C111.023 23.7024 111.003 23.8989 110.939 24.0834C110.876 24.2679 110.772 24.4358 110.634 24.5742C110.497 24.7127 110.33 24.8182 110.146 24.8828C108.957 25.327 107.727 25.3621 106.55 24.8828C105.372 24.4034 105.031 23.3688 104.998 22.2208C104.957 20.504 104.978 18.7849 104.972 17.067C104.971 16.8618 104.972 16.6567 104.972 16.4222Z" fill="black"/>
<path d="M93.1903 37.1941C93.8702 36.2875 94.5385 35.6223 95.5103 35.3493C98.1606 34.6036 101.063 35.7368 101.167 39.3087C101.231 41.3825 101.184 43.4608 101.167 45.5358C101.167 46.2259 100.77 46.592 100.198 46.4752C99.6829 46.3698 99.5243 46.0072 99.5258 45.5143C99.5343 43.683 99.5374 41.8528 99.5258 40.0226C99.5251 39.6079 99.4742 39.1947 99.3757 38.7919C99.0353 37.4457 98.0313 36.6797 96.6183 36.632C95.1307 36.5822 93.8779 37.3925 93.4236 38.7614C93.2788 39.2081 93.2026 39.6743 93.1972 40.1439C93.1733 41.9366 93.1849 43.7306 93.1903 45.5233C93.1903 45.9845 93.0509 46.3494 92.5673 46.4695C92.0006 46.6123 91.5471 46.2429 91.5255 45.6026C91.5078 44.9419 91.5255 44.2813 91.5255 43.6206C91.5255 39.6763 91.5278 35.7319 91.5325 31.7876C91.5325 31.0929 91.8135 30.7325 92.3464 30.728C92.8784 30.7234 93.188 31.0782 93.1903 31.7626C93.1941 33.5146 93.1903 35.2677 93.1903 37.1941Z" fill="black"/>
<path d="M50.408 41.4935C50.7004 44.6665 53.8859 46.2191 56.583 44.5532C56.8344 44.387 57.0761 44.2065 57.3071 44.0127C57.7343 43.6727 58.1943 43.658 58.4561 44.0013C58.7746 44.4195 58.6148 44.7652 58.2703 45.0881C57.0113 46.2667 55.5087 46.7404 53.8088 46.6293C50.6709 46.4264 48.4453 43.7838 48.7172 40.4124C48.902 38.1177 49.923 36.2762 52.1713 35.4727C56.0548 34.0846 59.1973 36.9561 59.0839 40.7615C59.0692 41.277 58.7757 41.489 58.1456 41.4901C55.7681 41.4901 53.3906 41.4901 51.0132 41.4901L50.408 41.4935ZM57.3965 40.2266C57.4056 38.2412 55.9596 36.6003 54.1533 36.5232C52.1826 36.4371 50.6086 37.9817 50.4136 40.2266H57.3965Z" fill="black"/>
<path d="M69.4103 39.9492C69.6471 38.2675 68.6941 36.9779 67.052 36.7411C66.0387 36.5942 65.0049 36.6929 64.0377 37.0289C63.8234 37.1026 63.6149 37.192 63.4008 37.2669C62.9792 37.413 62.6075 37.3722 62.3922 36.9269C62.2041 36.5359 62.3842 36.1268 62.8512 35.924C64.4657 35.2001 66.2702 35.0145 67.9982 35.3948C69.5847 35.7347 70.574 36.7444 70.9367 38.3333C71.0201 38.7014 71.0631 39.0776 71.0648 39.4552C71.0761 41.4756 71.0648 43.4962 71.0648 45.5178C71.0701 45.6491 71.0563 45.7804 71.0239 45.9077C70.9106 46.2964 70.6455 46.5083 70.2307 46.4845C69.816 46.4607 69.5564 46.2522 69.5009 45.8352C69.4646 45.5576 69.4578 45.2765 69.4283 44.8696C69.2017 45.0759 69.0487 45.2165 68.8957 45.3604C67.2719 46.8868 64.466 47.0601 62.663 45.7513C60.8216 44.413 60.9632 41.4836 62.9203 40.33C64.1669 39.5968 65.5324 39.497 66.9217 39.6047C67.7455 39.6705 68.5546 39.8291 69.4103 39.9492ZM66.3585 40.7073C65.7454 40.858 64.9623 40.9793 64.2359 41.2513C63.4427 41.5482 63.0631 42.2338 63.0517 43.0803C63.0404 43.9269 63.4688 44.5648 64.2246 44.9297C65.5607 45.5734 66.8786 45.4023 68.1161 44.6702C69.2493 44.0016 69.5893 42.9296 69.51 41.6627C69.4896 41.3601 69.3966 41.2094 69.1099 41.1629C68.2566 41.0223 67.4056 40.8819 66.3585 40.7073Z" fill="black"/>
<path d="M52.2991 15.2583C52.63 14.805 52.885 14.3868 53.2125 14.031C53.7984 13.393 54.7231 13.2808 55.3656 13.716C55.9481 14.1092 56.1758 14.9285 55.905 15.6345C55.7112 16.1366 55.3214 16.3983 54.8285 16.5501C53.1774 17.0567 52.3626 18.063 52.2855 19.8002C52.2323 21.006 52.2742 22.214 52.2538 23.4208C52.2379 24.3104 51.7472 24.9213 50.9426 25.1082C50.5907 25.188 50.2221 25.1448 49.8982 24.9859C49.5742 24.8269 49.3145 24.5617 49.1624 24.2345C49.0449 23.938 48.9882 23.6208 48.9957 23.3019C48.9833 20.6241 48.9867 17.9451 48.9957 15.2662C48.9957 14.2191 49.5624 13.546 50.4746 13.4678C51.3869 13.3896 52.0611 13.9414 52.2549 14.9772C52.2674 15.0498 52.2775 15.1234 52.2991 15.2583Z" fill="black"/>
<path d="M82.4361 36.8847C81.8101 36.709 80.9261 37.1261 80.8406 36.0846C80.7967 35.552 81.0378 35.4478 82.4353 35.331V33.5054C82.4353 33.2969 82.4353 33.0896 82.4353 32.8822C82.4492 32.2737 82.7433 31.9314 83.2453 31.9371C83.7474 31.9427 84.0808 32.2929 84.097 32.8708C84.1162 33.5508 84.097 34.2307 84.1047 34.9106C84.1047 35.0387 84.127 35.1667 84.1462 35.3696C85.0618 35.3696 85.9596 35.3605 86.8659 35.3696C87.4519 35.3775 87.7822 35.7674 87.6513 36.2694C87.5381 36.7227 87.1901 36.8212 86.7789 36.8212C85.948 36.8212 85.1188 36.8291 84.2856 36.8372C84.2402 36.8468 84.1963 36.8632 84.1555 36.8858C84.1324 36.948 84.117 37.0126 84.1093 37.0785C84.1093 39.2124 84.0908 41.345 84.1093 43.4789C84.1201 44.5566 84.9024 45.164 86.0728 45.0655C86.3153 45.0462 86.5556 44.9884 86.7974 44.9453C87.1962 44.874 87.5265 45.0586 87.5781 45.4111C87.6143 45.6637 87.4557 46.1125 87.2586 46.2044C86.1067 46.7347 84.9116 46.7596 83.7689 46.1681C82.7687 45.6502 82.4453 44.7062 82.4353 43.6534C82.4137 41.5955 82.4299 39.5375 82.4299 37.4796L82.4361 36.8847Z" fill="black"/>
<path d="M58.699 19.2303C58.699 17.8909 58.6923 16.5514 58.699 15.2119C58.699 14.1308 59.3438 13.46 60.3411 13.4646C61.2851 13.4646 61.9276 14.1637 61.9276 15.2097C61.9276 17.9838 61.9276 20.7575 61.9276 23.5309C61.9381 23.8641 61.8407 24.1917 61.65 24.4652C61.4593 24.7385 61.1855 24.943 60.8691 25.0483C60.2096 25.2829 59.4878 25.1378 59.0934 24.5599C58.8634 24.2014 58.7343 23.7877 58.7195 23.3621C58.6719 21.9864 58.699 20.6084 58.699 19.2303Z" fill="black"/>
<path d="M76.9881 38.6673C76.9881 40.9337 76.9881 43.1983 76.9881 45.4609C76.9881 46.1409 76.7331 46.4718 76.2107 46.4876C75.6656 46.5047 75.3267 46.1477 75.3256 45.4803C75.3196 40.8952 75.3196 36.3098 75.3256 31.724C75.3256 31.0769 75.6339 30.729 76.1529 30.7268C76.7025 30.7268 76.9881 31.0668 76.9881 31.7615C76.9911 34.0642 76.9911 36.3661 76.9881 38.6673Z" fill="black"/>
<path d="M58.5104 10.8862C58.5104 9.91619 59.2039 9.33145 60.3383 9.34161C61.4171 9.35185 62.1457 9.97509 62.1389 10.8828C62.1322 11.7905 61.3457 12.4693 60.2884 12.4534C59.2311 12.4376 58.5081 11.8098 58.5104 10.8862Z" fill="black"/>
</svg>
