<svg width="144" height="56" viewBox="0 0 144 56" fill="none" xmlns="http://www.w3.org/2000/svg">
<path d="M68.3184 29.2718C68.5531 31.0802 69.3171 32.6182 70.7968 33.7543C71.6277 34.3946 72.6166 34.7985 73.6586 34.9232C74.6497 35.0565 75.6584 34.949 76.5992 34.61C77.7829 34.181 78.6792 33.4002 79.3252 32.3255C79.3914 32.2147 79.453 32.1005 79.527 31.993C79.577 31.9149 79.6463 31.8509 79.7279 31.8075C79.8103 31.7641 79.902 31.7426 79.9951 31.7453C80.6974 31.7486 81.4004 31.7452 82.1034 31.748C82.4129 31.748 82.5731 31.9697 82.4915 32.2674C82.4653 32.3461 82.4345 32.4231 82.3983 32.4979C81.7322 34.068 80.7235 35.3582 79.2659 36.2744C78.3727 36.8363 77.3987 37.1843 76.365 37.3866C75.4832 37.5516 74.5838 37.6017 73.6891 37.5358C72.7192 37.48 71.7671 37.2514 70.8778 36.8607C68.0687 35.6099 66.3404 33.4622 65.6296 30.4872C65.5143 30.0039 65.4732 29.5073 65.4283 29.0107C65.3879 28.4774 65.398 27.9416 65.4582 27.4101C65.5577 26.3714 65.8345 25.3573 66.2766 24.4118C67.0905 22.6738 68.3089 21.2983 69.9701 20.3261C70.886 19.785 71.8988 19.4273 72.9517 19.2732C73.3894 19.2039 73.8319 19.1695 74.275 19.1706C75.7331 19.1905 77.1045 19.5441 78.3727 20.2668C80.29 21.3575 81.5975 22.9681 82.3867 25.0098C82.7225 25.8712 82.9342 26.7756 83.0166 27.6961C83.0389 27.9527 83.0559 28.2105 83.0759 28.4676C83.1113 28.911 82.7825 29.1637 82.446 29.1327C82.3636 29.1249 82.2797 29.1327 82.1966 29.1327H68.7733H68.5237C68.4787 29.1291 68.4338 29.1409 68.3965 29.1662C68.3592 29.1914 68.3316 29.2287 68.3184 29.2718ZM79.8688 26.5384C79.8758 26.5001 79.8796 26.4614 79.8804 26.4225C79.875 26.3768 79.8665 26.3315 79.8534 26.2873C79.3837 24.7726 78.5391 23.5273 77.19 22.6633C75.8685 21.8175 74.4298 21.5144 72.9046 21.9494C70.6664 22.5879 69.2582 24.0926 68.5569 26.2856C68.5405 26.3585 68.531 26.4327 68.5286 26.5074C68.6623 26.6248 68.7972 26.5922 68.9225 26.5922C72.4431 26.5922 75.9639 26.5922 79.4846 26.5922C79.5493 26.5955 79.614 26.5944 79.6787 26.5888C79.7426 26.5761 79.8065 26.5592 79.8681 26.5384H79.8688Z" fill="black"/>
<path d="M100.302 25.0186C100.024 25.0186 99.7464 25.003 99.4692 25.0219C99.0842 25.0485 98.8232 24.9022 98.6284 24.5664C98.3366 24.0721 97.9693 23.6267 97.5396 23.2462C96.6942 22.4836 95.7117 22.0103 94.579 21.8607C92.781 21.6201 91.2449 22.1755 89.942 23.4064C88.8733 24.4172 88.235 25.6731 87.9778 27.1085C87.6259 29.0705 88.0093 30.8905 89.1851 32.5133C90.0699 33.7325 91.248 34.5639 92.741 34.8343C94.8392 35.2156 96.6241 34.5939 98.0471 32.9921C98.2742 32.7252 98.4783 32.4395 98.6577 32.1381C98.824 31.8682 99.0265 31.7335 99.3576 31.744C99.9944 31.7646 100.633 31.7501 101.271 31.7501C101.336 31.7475 101.4 31.7489 101.465 31.754C101.549 31.7586 101.628 31.7959 101.686 31.858C101.743 31.9201 101.774 32.0021 101.772 32.0865C101.772 32.1965 101.752 32.3055 101.71 32.4074C101.161 33.7171 100.347 34.831 99.2375 35.7255C98.1279 36.62 96.8605 37.1665 95.4653 37.4275C94.6729 37.5737 93.8652 37.611 93.0629 37.5384C91.2041 37.376 89.564 36.6727 88.1564 35.4468C86.5679 34.0612 85.5915 32.3215 85.1688 30.2687C85.0125 29.5274 84.9532 28.769 84.9917 28.0124C85.1165 25.7751 85.8711 23.7849 87.3779 22.1028C88.62 20.7173 90.1422 19.7901 91.9687 19.38C92.7071 19.2105 93.4663 19.1445 94.2232 19.1838C95.3652 19.247 96.4701 19.4798 97.5135 19.9641C98.814 20.5613 99.9343 21.4896 100.762 22.6559C101.133 23.1743 101.447 23.7319 101.698 24.3186C101.701 24.3274 101.704 24.3358 101.708 24.3447C101.88 24.7653 101.719 25.0164 101.27 25.0214C100.949 25.0214 100.625 25.0186 100.302 25.0186Z" fill="black"/>
<path d="M50.0747 16.0295C50.1724 16.1404 50.2889 16.1187 50.3971 16.1187C51.0721 16.1187 51.7472 16.1187 52.4222 16.1187H52.7379L52.9432 16.3044C52.9515 16.4203 52.9659 16.53 52.9665 16.6369C52.9665 17.2924 52.9665 17.948 52.9665 18.6038C52.9665 18.6499 52.9665 18.6964 52.9665 18.7424C52.9465 18.9934 52.8128 19.1243 52.5604 19.1392C52.5049 19.1426 52.4494 19.1392 52.3939 19.1392H50.1047C50.0858 19.2196 50.067 19.2789 50.0592 19.3393C50.0559 19.3947 50.0559 19.4502 50.0592 19.5056C50.0592 23.3205 50.0592 27.135 50.0592 30.9491C50.0542 31.476 50.1569 31.9984 50.361 32.4843C50.7228 33.3345 51.3597 33.9163 52.1881 34.2905C52.7693 34.5542 53.394 34.709 54.0312 34.7472C54.2615 34.7604 54.4917 34.7782 54.722 34.7926C54.9522 34.807 55.0904 34.9378 55.1104 35.1755C55.1104 35.1939 55.1104 35.2121 55.1104 35.231C55.1104 35.8495 55.1104 36.4685 55.1104 37.087C55.1104 37.3747 54.9716 37.5254 54.6992 37.5399C53.5169 37.603 52.3573 37.4922 51.2448 37.056C49.2475 36.2729 47.9292 34.8646 47.3477 32.7885C47.2329 32.3991 47.1649 31.9974 47.1452 31.5919C47.1286 31.1409 47.0992 30.6891 47.0992 30.2381C47.0958 24.4564 47.0958 18.674 47.0992 12.891C47.0992 12.7989 47.0953 12.7059 47.0992 12.6138C47.1169 12.3517 47.2373 12.2298 47.5026 12.2221C47.7799 12.2137 48.0573 12.2221 48.3348 12.2221C48.7137 12.2221 49.0938 12.2392 49.4716 12.2181C49.9549 12.1904 50.0731 12.3994 50.0664 12.8278C50.0531 13.6768 50.0625 14.5271 50.0625 15.3772C50.0625 15.5341 50.0625 15.6915 50.0625 15.8483C50.0592 15.9175 50.0681 15.9807 50.0747 16.0295Z" fill="black"/>
<path d="M59.5468 22.099C59.5329 22.2243 59.5107 22.3301 59.5101 22.4359C59.5079 23.3597 59.5079 24.2834 59.5101 25.2071C59.5101 27.0914 59.5074 28.9758 59.5101 30.8601C59.5087 31.2846 59.569 31.7071 59.6894 32.1143C60.0383 33.2748 60.8312 33.9986 61.9409 34.421C62.6138 34.6765 63.3157 34.7657 64.0286 34.7956C64.1297 34.7995 64.2312 34.7956 64.2922 34.7956C64.4953 34.8865 64.5586 35.0173 64.558 35.1907C64.5552 35.837 64.558 36.4837 64.5552 37.1305C64.5552 37.401 64.4303 37.5307 64.1762 37.5439C62.9168 37.6099 61.6834 37.4886 60.5144 36.9898C58.4876 36.1207 57.2121 34.6243 56.7354 32.4629C56.6202 31.9216 56.5644 31.3692 56.569 30.8158C56.569 25.6893 56.569 20.5627 56.569 15.4362C56.569 14.9829 56.6922 14.8581 57.1388 14.8571C57.7399 14.8571 58.341 14.8571 58.942 14.8571C59.0337 14.8564 59.1251 14.8665 59.2144 14.8875C59.2975 14.9024 59.3725 14.9466 59.4257 15.0121C59.4789 15.0777 59.5067 15.1601 59.504 15.2444C59.5074 15.327 59.5074 15.4107 59.5074 15.4933C59.5074 16.6113 59.5074 17.729 59.5074 18.8463C59.5074 18.9638 59.5234 19.0807 59.5335 19.2215C59.6567 19.2265 59.7554 19.2331 59.8547 19.2331C60.5298 19.2331 61.2048 19.2331 61.8798 19.2331C61.954 19.2293 62.0284 19.2334 62.1018 19.2454C62.3098 19.2896 62.4191 19.4177 62.4347 19.6333C62.4424 19.753 62.438 19.8733 62.438 19.9936C62.438 20.5295 62.438 21.0649 62.438 21.6008C62.438 21.9577 62.3092 22.0846 61.9547 22.0857C61.2612 22.0857 60.5676 22.0857 59.8741 22.0857C59.7737 22.0863 59.6744 22.0946 59.5468 22.099Z" fill="black"/>
<path d="M42.3864 35.3312C42.5013 35.1323 42.6716 35.0818 42.8669 35.0858L44.6113 35.1185C44.6762 35.1185 44.7411 35.1185 44.8055 35.1185C45.0868 35.1257 45.1573 35.18 45.2443 35.4454C45.316 35.6638 45.3809 35.8855 45.4663 36.0989C45.8968 37.1591 46.5127 38.0891 47.4082 38.8146C48.1 39.3748 48.8929 39.7417 49.7341 40.0095C50.5541 40.2606 51.3966 40.4316 52.2496 40.5204C52.9933 40.6 53.7411 40.6337 54.489 40.6213C54.5721 40.6213 54.6554 40.6163 54.7386 40.6213C54.8176 40.6255 54.8927 40.657 54.951 40.7105C55.0092 40.7641 55.0469 40.8362 55.0576 40.9145C55.0671 40.9694 55.0715 41.025 55.0709 41.0808C55.0709 41.6533 55.0754 42.2257 55.0709 42.7989C55.0676 43.1313 54.9483 43.2572 54.6237 43.2582C53.8841 43.2582 53.1435 43.2788 52.4044 43.2411C51.798 43.2106 51.1944 43.1159 50.5912 43.0377C49.7869 42.9287 48.9953 42.7403 48.2282 42.4752C47.3012 42.1554 46.4351 41.6811 45.6666 41.0724C44.2404 39.9808 43.185 38.4774 42.6433 36.7661C42.54 36.432 42.4543 36.0928 42.3864 35.7497C42.3653 35.6222 42.3864 35.4792 42.3864 35.3312Z" fill="black"/>
<path d="M45.3453 18.8716C45.2304 19.0833 45.0817 19.1487 44.8892 19.1454C44.1957 19.1421 43.5021 19.1454 42.8091 19.1454C42.5034 19.1454 42.3653 19.0074 42.3653 18.7087C42.362 17.9882 42.362 17.2677 42.3653 16.5473C42.3653 16.2407 42.479 16.1255 42.7797 16.1238C43.501 16.1205 44.2223 16.1205 44.9436 16.1238C45.2082 16.1238 45.342 16.2346 45.3442 16.4763C45.3497 17.2771 45.3453 18.0802 45.3453 18.8716Z" fill="black"/>
</svg>
